<?xml version="1.0" standalone="no"?>
<mlt LC_NUMERIC="C" version="6.23.0" title="Shotcut version 20.11.28" producer="main_bin">
  <profile description="PAL 4:3 DV or DVD" width="1920" height="1080" progressive="1" sample_aspect_num="1" sample_aspect_den="1" display_aspect_num="16" display_aspect_den="9" frame_rate_num="60" frame_rate_den="1" colorspace="709"/>
  <producer id="producer0" in="00:00:00.000" out="00:00:11.700">
    <property name="length">00:00:11.717</property>
    <property name="eof">pause</property>
    <property name="resource">D:/DATA-DATA-SAHID/Video Tutorial/00_VIDEOS/01_EDITING/02_Opening/Opening Delinfoline_V2.mp4</property>
    <property name="audio_index">1</property>
    <property name="video_index">0</property>
    <property name="mute_on_pause">0</property>
    <property name="mlt_service">avformat-novalidate</property>
    <property name="seekable">1</property>
    <property name="aspect_ratio">1</property>
    <property name="creation_time">2021-01-11T09:07:16</property>
    <property name="global_feed">1</property>
    <property name="xml">was here</property>
    <property name="shotcut:hash">22bf72fbd38580da51a4c0bb1d35d3df</property>
  </producer>
  <producer id="producer1" in="00:00:00.000" out="00:26:43.500">
    <property name="length">00:26:43.517</property>
    <property name="eof">pause</property>
    <property name="resource">C:/Users/Sahid/Videos/QGIS Basic/6_Layouting/2021-02-02 16-19-05.mkv</property>
    <property name="audio_index">1</property>
    <property name="video_index">0</property>
    <property name="mute_on_pause">0</property>
    <property name="mlt_service">avformat-novalidate</property>
    <property name="seekable">1</property>
    <property name="aspect_ratio">1</property>
    <property name="creation_time">2021-02-02T09:45:51</property>
    <property name="global_feed">1</property>
    <property name="xml">was here</property>
    <property name="shotcut:hash">719b5cea19fbbb3472a08b1390fb7204</property>
  </producer>
  <producer id="producer2" in="00:00:00.000" out="00:50:55.017">
    <property name="length">00:50:55.033</property>
    <property name="eof">pause</property>
    <property name="resource">C:/Users/Sahid/Videos/QGIS Basic/6_Layouting/2021-02-03 09-50-10.mkv</property>
    <property name="audio_index">1</property>
    <property name="video_index">0</property>
    <property name="mute_on_pause">0</property>
    <property name="mlt_service">avformat-novalidate</property>
    <property name="seekable">1</property>
    <property name="aspect_ratio">1</property>
    <property name="creation_time">2021-02-03T03:41:06</property>
    <property name="global_feed">1</property>
    <property name="xml">was here</property>
    <property name="shotcut:hash">8e392e48be4935f7d753048eef069fa1</property>
  </producer>
  <producer id="producer4" in="00:00:00.000" out="00:02:44.200">
    <property name="length">00:02:44.217</property>
    <property name="eof">pause</property>
    <property name="resource">C:/Users/Sahid/Videos/QGIS Basic/6_Layouting/2021-02-02 12-46-11.mkv</property>
    <property name="audio_index">1</property>
    <property name="video_index">0</property>
    <property name="mute_on_pause">0</property>
    <property name="mlt_service">avformat-novalidate</property>
    <property name="seekable">1</property>
    <property name="aspect_ratio">1</property>
    <property name="creation_time">2021-02-02T05:48:56</property>
    <property name="shotcut:hash">89f55a22df929d7fe018ceb8e0da4847</property>
    <property name="ignore_points">0</property>
    <property name="shotcut:caption">2021-02-02 12-46-11.mkv</property>
    <property name="global_feed">1</property>
    <property name="xml">was here</property>
  </producer>
  <producer id="producer3" in="00:00:00.000" out="03:59:59.983">
    <property name="length">04:00:00.000</property>
    <property name="eof">pause</property>
    <property name="resource">D:/DATA-DATA-SAHID/Video Tutorial/Material/Delinfoline Logo2.png</property>
    <property name="ttl">1</property>
    <property name="aspect_ratio">1</property>
    <property name="progressive">1</property>
    <property name="seekable">1</property>
    <property name="mlt_service">qimage</property>
    <property name="creation_time">2021-01-08T07:50:34</property>
    <property name="global_feed">1</property>
    <property name="xml">was here</property>
    <property name="shotcut:hash">d8e95ee4077116ecd9c0f3d488d7a8f7</property>
  </producer>
  <playlist id="main_bin" title="Shotcut version 20.11.28">
    <property name="shotcut:projectAudioChannels">2</property>
    <property name="shotcut:projectFolder">1</property>
    <property name="xml_retain">1</property>
    <entry producer="producer0" in="00:00:00.000" out="00:00:11.700"/>
    <entry producer="producer1" in="00:00:00.000" out="00:26:43.500"/>
    <entry producer="producer2" in="00:00:00.000" out="00:50:55.017"/>
    <entry producer="producer4" in="00:00:00.000" out="00:02:44.200"/>
    <entry producer="producer3" in="00:00:00.000" out="00:00:03.983"/>
  </playlist>
  <producer id="black" in="00:00:00.000" out="00:28:37.067">
    <property name="length">00:28:37.083</property>
    <property name="eof">pause</property>
    <property name="resource">0</property>
    <property name="aspect_ratio">1</property>
    <property name="mlt_service">color</property>
    <property name="mlt_image_format">rgb24a</property>
    <property name="set.test_audio">0</property>
  </producer>
  <playlist id="background">
    <entry producer="black" in="00:00:00.000" out="00:28:37.067"/>
  </playlist>
  <producer id="producer5" in="00:00:00.000" out="00:02:44.200">
    <property name="length">00:02:44.217</property>
    <property name="eof">pause</property>
    <property name="resource">C:/Users/Sahid/Videos/QGIS Basic/6_Layouting/2021-02-02 12-46-11.mkv</property>
    <property name="audio_index">1</property>
    <property name="video_index">0</property>
    <property name="mute_on_pause">0</property>
    <property name="mlt_service">avformat-novalidate</property>
    <property name="seekable">1</property>
    <property name="aspect_ratio">1</property>
    <property name="creation_time">2021-02-02T05:48:56</property>
    <property name="shotcut:hash">89f55a22df929d7fe018ceb8e0da4847</property>
    <property name="ignore_points">0</property>
    <property name="shotcut:caption">2021-02-02 12-46-11.mkv</property>
    <property name="global_feed">1</property>
    <property name="xml">was here</property>
    <filter id="filter0" in="00:00:16.783" out="00:00:19.767">
      <property name="window">75</property>
      <property name="max_gain">20dB</property>
      <property name="level">9.6</property>
      <property name="mlt_service">volume</property>
    </filter>
  </producer>
  <producer id="producer6" in="00:00:00.000" out="00:02:44.200">
    <property name="length">00:02:44.217</property>
    <property name="eof">pause</property>
    <property name="resource">C:/Users/Sahid/Videos/QGIS Basic/6_Layouting/2021-02-02 12-46-11.mkv</property>
    <property name="audio_index">1</property>
    <property name="video_index">0</property>
    <property name="mute_on_pause">0</property>
    <property name="mlt_service">avformat-novalidate</property>
    <property name="seekable">1</property>
    <property name="aspect_ratio">1</property>
    <property name="creation_time">2021-02-02T05:48:56</property>
    <property name="shotcut:hash">89f55a22df929d7fe018ceb8e0da4847</property>
    <property name="ignore_points">0</property>
    <property name="shotcut:caption">2021-02-02 12-46-11.mkv</property>
    <property name="global_feed">1</property>
    <property name="xml">was here</property>
    <filter id="filter1" in="00:00:20.133" out="00:00:24.650">
      <property name="window">75</property>
      <property name="max_gain">20dB</property>
      <property name="level">9.6</property>
      <property name="mlt_service">volume</property>
    </filter>
  </producer>
  <producer id="producer7" in="00:00:00.000" out="00:02:44.200">
    <property name="length">00:02:44.217</property>
    <property name="eof">pause</property>
    <property name="resource">C:/Users/Sahid/Videos/QGIS Basic/6_Layouting/2021-02-02 12-46-11.mkv</property>
    <property name="audio_index">1</property>
    <property name="video_index">0</property>
    <property name="mute_on_pause">0</property>
    <property name="mlt_service">avformat-novalidate</property>
    <property name="seekable">1</property>
    <property name="aspect_ratio">1</property>
    <property name="creation_time">2021-02-02T05:48:56</property>
    <property name="shotcut:hash">89f55a22df929d7fe018ceb8e0da4847</property>
    <property name="ignore_points">0</property>
    <property name="shotcut:caption">2021-02-02 12-46-11.mkv</property>
    <property name="global_feed">1</property>
    <property name="xml">was here</property>
    <filter id="filter2" in="00:00:25.367" out="00:00:28.183">
      <property name="window">75</property>
      <property name="max_gain">20dB</property>
      <property name="level">9.6</property>
      <property name="mlt_service">volume</property>
    </filter>
  </producer>
  <producer id="producer8" in="00:00:00.000" out="00:02:44.200">
    <property name="length">00:02:44.217</property>
    <property name="eof">pause</property>
    <property name="resource">C:/Users/Sahid/Videos/QGIS Basic/6_Layouting/2021-02-02 12-46-11.mkv</property>
    <property name="audio_index">1</property>
    <property name="video_index">0</property>
    <property name="mute_on_pause">0</property>
    <property name="mlt_service">avformat-novalidate</property>
    <property name="seekable">1</property>
    <property name="aspect_ratio">1</property>
    <property name="creation_time">2021-02-02T05:48:56</property>
    <property name="shotcut:hash">89f55a22df929d7fe018ceb8e0da4847</property>
    <property name="ignore_points">0</property>
    <property name="shotcut:caption">2021-02-02 12-46-11.mkv</property>
    <property name="global_feed">1</property>
    <property name="xml">was here</property>
    <filter id="filter3" in="00:00:28.883" out="00:00:32.367">
      <property name="window">75</property>
      <property name="max_gain">20dB</property>
      <property name="level">9.6</property>
      <property name="mlt_service">volume</property>
    </filter>
  </producer>
  <producer id="producer9" in="00:00:00.000" out="00:02:44.200">
    <property name="length">00:02:44.217</property>
    <property name="eof">pause</property>
    <property name="resource">C:/Users/Sahid/Videos/QGIS Basic/6_Layouting/2021-02-02 12-46-11.mkv</property>
    <property name="audio_index">1</property>
    <property name="video_index">0</property>
    <property name="mute_on_pause">0</property>
    <property name="mlt_service">avformat-novalidate</property>
    <property name="seekable">1</property>
    <property name="aspect_ratio">1</property>
    <property name="creation_time">2021-02-02T05:48:56</property>
    <property name="shotcut:hash">89f55a22df929d7fe018ceb8e0da4847</property>
    <property name="ignore_points">0</property>
    <property name="shotcut:caption">2021-02-02 12-46-11.mkv</property>
    <property name="global_feed">1</property>
    <property name="xml">was here</property>
    <filter id="filter4" in="00:00:34.683" out="00:00:35.633">
      <property name="window">75</property>
      <property name="max_gain">20dB</property>
      <property name="level">9.6</property>
      <property name="mlt_service">volume</property>
    </filter>
  </producer>
  <producer id="producer10" in="00:00:00.000" out="00:02:44.200">
    <property name="length">00:02:44.217</property>
    <property name="eof">pause</property>
    <property name="resource">C:/Users/Sahid/Videos/QGIS Basic/6_Layouting/2021-02-02 12-46-11.mkv</property>
    <property name="audio_index">1</property>
    <property name="video_index">0</property>
    <property name="mute_on_pause">0</property>
    <property name="mlt_service">avformat-novalidate</property>
    <property name="seekable">1</property>
    <property name="aspect_ratio">1</property>
    <property name="creation_time">2021-02-02T05:48:56</property>
    <property name="shotcut:hash">89f55a22df929d7fe018ceb8e0da4847</property>
    <property name="ignore_points">0</property>
    <property name="shotcut:caption">2021-02-02 12-46-11.mkv</property>
    <property name="global_feed">1</property>
    <property name="xml">was here</property>
    <filter id="filter5" in="00:00:36.050" out="00:00:37.983">
      <property name="window">75</property>
      <property name="max_gain">20dB</property>
      <property name="level">9.6</property>
      <property name="mlt_service">volume</property>
    </filter>
  </producer>
  <producer id="producer11" in="00:00:00.000" out="00:02:44.200">
    <property name="length">00:02:44.217</property>
    <property name="eof">pause</property>
    <property name="resource">C:/Users/Sahid/Videos/QGIS Basic/6_Layouting/2021-02-02 12-46-11.mkv</property>
    <property name="audio_index">1</property>
    <property name="video_index">0</property>
    <property name="mute_on_pause">0</property>
    <property name="mlt_service">avformat-novalidate</property>
    <property name="seekable">1</property>
    <property name="aspect_ratio">1</property>
    <property name="creation_time">2021-02-02T05:48:56</property>
    <property name="shotcut:hash">89f55a22df929d7fe018ceb8e0da4847</property>
    <property name="ignore_points">0</property>
    <property name="shotcut:caption">2021-02-02 12-46-11.mkv</property>
    <property name="global_feed">1</property>
    <property name="xml">was here</property>
    <filter id="filter6" in="00:00:38.467" out="00:00:41.900">
      <property name="window">75</property>
      <property name="max_gain">20dB</property>
      <property name="level">9.6</property>
      <property name="mlt_service">volume</property>
    </filter>
  </producer>
  <producer id="producer12" in="00:00:00.000" out="00:02:44.200">
    <property name="length">00:02:44.217</property>
    <property name="eof">pause</property>
    <property name="resource">C:/Users/Sahid/Videos/QGIS Basic/6_Layouting/2021-02-02 12-46-11.mkv</property>
    <property name="audio_index">1</property>
    <property name="video_index">0</property>
    <property name="mute_on_pause">0</property>
    <property name="mlt_service">avformat-novalidate</property>
    <property name="seekable">1</property>
    <property name="aspect_ratio">1</property>
    <property name="creation_time">2021-02-02T05:48:56</property>
    <property name="shotcut:hash">89f55a22df929d7fe018ceb8e0da4847</property>
    <property name="ignore_points">0</property>
    <property name="shotcut:caption">2021-02-02 12-46-11.mkv</property>
    <property name="global_feed">1</property>
    <property name="xml">was here</property>
    <filter id="filter7" in="00:00:42.367" out="00:00:44.117">
      <property name="window">75</property>
      <property name="max_gain">20dB</property>
      <property name="level">9.6</property>
      <property name="mlt_service">volume</property>
    </filter>
  </producer>
  <producer id="producer13" in="00:00:00.000" out="00:02:44.200">
    <property name="length">00:02:44.217</property>
    <property name="eof">pause</property>
    <property name="resource">C:/Users/Sahid/Videos/QGIS Basic/6_Layouting/2021-02-02 12-46-11.mkv</property>
    <property name="audio_index">1</property>
    <property name="video_index">0</property>
    <property name="mute_on_pause">0</property>
    <property name="mlt_service">avformat-novalidate</property>
    <property name="seekable">1</property>
    <property name="aspect_ratio">1</property>
    <property name="creation_time">2021-02-02T05:48:56</property>
    <property name="shotcut:hash">89f55a22df929d7fe018ceb8e0da4847</property>
    <property name="ignore_points">0</property>
    <property name="shotcut:caption">2021-02-02 12-46-11.mkv</property>
    <property name="global_feed">1</property>
    <property name="xml">was here</property>
    <filter id="filter8" in="00:00:44.650" out="00:00:47.217">
      <property name="window">75</property>
      <property name="max_gain">20dB</property>
      <property name="level">9.6</property>
      <property name="mlt_service">volume</property>
    </filter>
  </producer>
  <producer id="producer14" in="00:00:00.000" out="00:02:44.200">
    <property name="length">00:02:44.217</property>
    <property name="eof">pause</property>
    <property name="resource">C:/Users/Sahid/Videos/QGIS Basic/6_Layouting/2021-02-02 12-46-11.mkv</property>
    <property name="audio_index">1</property>
    <property name="video_index">0</property>
    <property name="mute_on_pause">0</property>
    <property name="mlt_service">avformat-novalidate</property>
    <property name="seekable">1</property>
    <property name="aspect_ratio">1</property>
    <property name="creation_time">2021-02-02T05:48:56</property>
    <property name="shotcut:hash">89f55a22df929d7fe018ceb8e0da4847</property>
    <property name="ignore_points">0</property>
    <property name="shotcut:caption">2021-02-02 12-46-11.mkv</property>
    <property name="global_feed">1</property>
    <property name="xml">was here</property>
    <filter id="filter9" in="00:00:48.300" out="00:00:50.533">
      <property name="window">75</property>
      <property name="max_gain">20dB</property>
      <property name="level">9.6</property>
      <property name="mlt_service">volume</property>
    </filter>
  </producer>
  <producer id="producer15" in="00:00:00.000" out="00:02:44.200">
    <property name="length">00:02:44.217</property>
    <property name="eof">pause</property>
    <property name="resource">C:/Users/Sahid/Videos/QGIS Basic/6_Layouting/2021-02-02 12-46-11.mkv</property>
    <property name="audio_index">1</property>
    <property name="video_index">0</property>
    <property name="mute_on_pause">0</property>
    <property name="mlt_service">avformat-novalidate</property>
    <property name="seekable">1</property>
    <property name="aspect_ratio">1</property>
    <property name="creation_time">2021-02-02T05:48:56</property>
    <property name="shotcut:hash">89f55a22df929d7fe018ceb8e0da4847</property>
    <property name="ignore_points">0</property>
    <property name="shotcut:caption">2021-02-02 12-46-11.mkv</property>
    <property name="global_feed">1</property>
    <property name="xml">was here</property>
    <filter id="filter10" in="00:00:50.783" out="00:00:52.933">
      <property name="window">75</property>
      <property name="max_gain">20dB</property>
      <property name="level">9.6</property>
      <property name="mlt_service">volume</property>
    </filter>
  </producer>
  <producer id="producer16" in="00:00:00.000" out="00:02:44.200">
    <property name="length">00:02:44.217</property>
    <property name="eof">pause</property>
    <property name="resource">C:/Users/Sahid/Videos/QGIS Basic/6_Layouting/2021-02-02 12-46-11.mkv</property>
    <property name="audio_index">1</property>
    <property name="video_index">0</property>
    <property name="mute_on_pause">0</property>
    <property name="mlt_service">avformat-novalidate</property>
    <property name="seekable">1</property>
    <property name="aspect_ratio">1</property>
    <property name="creation_time">2021-02-02T05:48:56</property>
    <property name="shotcut:hash">89f55a22df929d7fe018ceb8e0da4847</property>
    <property name="ignore_points">0</property>
    <property name="shotcut:caption">2021-02-02 12-46-11.mkv</property>
    <property name="global_feed">1</property>
    <property name="xml">was here</property>
    <filter id="filter11" in="00:00:53.450" out="00:00:55.900">
      <property name="window">75</property>
      <property name="max_gain">20dB</property>
      <property name="level">9.6</property>
      <property name="mlt_service">volume</property>
    </filter>
  </producer>
  <producer id="producer17" in="00:00:00.000" out="00:02:44.200">
    <property name="length">00:02:44.217</property>
    <property name="eof">pause</property>
    <property name="resource">C:/Users/Sahid/Videos/QGIS Basic/6_Layouting/2021-02-02 12-46-11.mkv</property>
    <property name="audio_index">1</property>
    <property name="video_index">0</property>
    <property name="mute_on_pause">0</property>
    <property name="mlt_service">avformat-novalidate</property>
    <property name="seekable">1</property>
    <property name="aspect_ratio">1</property>
    <property name="creation_time">2021-02-02T05:48:56</property>
    <property name="shotcut:hash">89f55a22df929d7fe018ceb8e0da4847</property>
    <property name="ignore_points">0</property>
    <property name="shotcut:caption">2021-02-02 12-46-11.mkv</property>
    <property name="global_feed">1</property>
    <property name="xml">was here</property>
    <filter id="filter12" in="00:00:56.767" out="00:01:02.667">
      <property name="window">75</property>
      <property name="max_gain">20dB</property>
      <property name="level">9.6</property>
      <property name="mlt_service">volume</property>
    </filter>
  </producer>
  <producer id="producer18" in="00:00:00.000" out="00:02:44.200">
    <property name="length">00:02:44.217</property>
    <property name="eof">pause</property>
    <property name="resource">C:/Users/Sahid/Videos/QGIS Basic/6_Layouting/2021-02-02 12-46-11.mkv</property>
    <property name="audio_index">1</property>
    <property name="video_index">0</property>
    <property name="mute_on_pause">0</property>
    <property name="mlt_service">avformat-novalidate</property>
    <property name="seekable">1</property>
    <property name="aspect_ratio">1</property>
    <property name="creation_time">2021-02-02T05:48:56</property>
    <property name="shotcut:hash">89f55a22df929d7fe018ceb8e0da4847</property>
    <property name="ignore_points">0</property>
    <property name="shotcut:caption">2021-02-02 12-46-11.mkv</property>
    <property name="global_feed">1</property>
    <property name="xml">was here</property>
    <filter id="filter13" in="00:01:03.150" out="00:01:04.283">
      <property name="window">75</property>
      <property name="max_gain">20dB</property>
      <property name="level">9.6</property>
      <property name="mlt_service">volume</property>
    </filter>
  </producer>
  <producer id="producer19" in="00:00:00.000" out="00:02:44.200">
    <property name="length">00:02:44.217</property>
    <property name="eof">pause</property>
    <property name="resource">C:/Users/Sahid/Videos/QGIS Basic/6_Layouting/2021-02-02 12-46-11.mkv</property>
    <property name="audio_index">1</property>
    <property name="video_index">0</property>
    <property name="mute_on_pause">0</property>
    <property name="mlt_service">avformat-novalidate</property>
    <property name="seekable">1</property>
    <property name="aspect_ratio">1</property>
    <property name="creation_time">2021-02-02T05:48:56</property>
    <property name="shotcut:hash">89f55a22df929d7fe018ceb8e0da4847</property>
    <property name="ignore_points">0</property>
    <property name="shotcut:caption">2021-02-02 12-46-11.mkv</property>
    <property name="global_feed">1</property>
    <property name="xml">was here</property>
    <filter id="filter14" in="00:01:05.767" out="00:01:10.233">
      <property name="window">75</property>
      <property name="max_gain">20dB</property>
      <property name="level">9.6</property>
      <property name="mlt_service">volume</property>
    </filter>
  </producer>
  <producer id="producer20" in="00:00:00.000" out="00:02:44.200">
    <property name="length">00:02:44.217</property>
    <property name="eof">pause</property>
    <property name="resource">C:/Users/Sahid/Videos/QGIS Basic/6_Layouting/2021-02-02 12-46-11.mkv</property>
    <property name="audio_index">1</property>
    <property name="video_index">0</property>
    <property name="mute_on_pause">0</property>
    <property name="mlt_service">avformat-novalidate</property>
    <property name="seekable">1</property>
    <property name="aspect_ratio">1</property>
    <property name="creation_time">2021-02-02T05:48:56</property>
    <property name="shotcut:hash">89f55a22df929d7fe018ceb8e0da4847</property>
    <property name="ignore_points">0</property>
    <property name="shotcut:caption">2021-02-02 12-46-11.mkv</property>
    <property name="global_feed">1</property>
    <property name="xml">was here</property>
    <filter id="filter15" in="00:01:16.450" out="00:01:18.917">
      <property name="window">75</property>
      <property name="max_gain">20dB</property>
      <property name="level">9.6</property>
      <property name="mlt_service">volume</property>
    </filter>
  </producer>
  <producer id="producer21" in="00:00:00.000" out="00:02:44.200">
    <property name="length">00:02:44.217</property>
    <property name="eof">pause</property>
    <property name="resource">C:/Users/Sahid/Videos/QGIS Basic/6_Layouting/2021-02-02 12-46-11.mkv</property>
    <property name="audio_index">1</property>
    <property name="video_index">0</property>
    <property name="mute_on_pause">0</property>
    <property name="mlt_service">avformat-novalidate</property>
    <property name="seekable">1</property>
    <property name="aspect_ratio">1</property>
    <property name="creation_time">2021-02-02T05:48:56</property>
    <property name="shotcut:hash">89f55a22df929d7fe018ceb8e0da4847</property>
    <property name="ignore_points">0</property>
    <property name="shotcut:caption">2021-02-02 12-46-11.mkv</property>
    <property name="global_feed">1</property>
    <property name="xml">was here</property>
    <filter id="filter16" in="00:01:19.350" out="00:01:22.617">
      <property name="window">75</property>
      <property name="max_gain">20dB</property>
      <property name="level">9.6</property>
      <property name="mlt_service">volume</property>
    </filter>
  </producer>
  <producer id="producer22" in="00:00:00.000" out="00:02:44.200">
    <property name="length">00:02:44.217</property>
    <property name="eof">pause</property>
    <property name="resource">C:/Users/Sahid/Videos/QGIS Basic/6_Layouting/2021-02-02 12-46-11.mkv</property>
    <property name="audio_index">1</property>
    <property name="video_index">0</property>
    <property name="mute_on_pause">0</property>
    <property name="mlt_service">avformat-novalidate</property>
    <property name="seekable">1</property>
    <property name="aspect_ratio">1</property>
    <property name="creation_time">2021-02-02T05:48:56</property>
    <property name="shotcut:hash">89f55a22df929d7fe018ceb8e0da4847</property>
    <property name="ignore_points">0</property>
    <property name="shotcut:caption">2021-02-02 12-46-11.mkv</property>
    <property name="global_feed">1</property>
    <property name="xml">was here</property>
    <filter id="filter17" in="00:01:22.950" out="00:01:24.217">
      <property name="window">75</property>
      <property name="max_gain">20dB</property>
      <property name="level">9.6</property>
      <property name="mlt_service">volume</property>
    </filter>
  </producer>
  <producer id="producer23" in="00:00:00.000" out="00:02:44.200">
    <property name="length">00:02:44.217</property>
    <property name="eof">pause</property>
    <property name="resource">C:/Users/Sahid/Videos/QGIS Basic/6_Layouting/2021-02-02 12-46-11.mkv</property>
    <property name="audio_index">1</property>
    <property name="video_index">0</property>
    <property name="mute_on_pause">0</property>
    <property name="mlt_service">avformat-novalidate</property>
    <property name="seekable">1</property>
    <property name="aspect_ratio">1</property>
    <property name="creation_time">2021-02-02T05:48:56</property>
    <property name="shotcut:hash">89f55a22df929d7fe018ceb8e0da4847</property>
    <property name="ignore_points">0</property>
    <property name="shotcut:caption">2021-02-02 12-46-11.mkv</property>
    <property name="global_feed">1</property>
    <property name="xml">was here</property>
    <filter id="filter18" in="00:01:24.800" out="00:01:26.900">
      <property name="window">75</property>
      <property name="max_gain">20dB</property>
      <property name="level">9.6</property>
      <property name="mlt_service">volume</property>
    </filter>
  </producer>
  <producer id="producer24" in="00:00:00.000" out="00:02:44.200">
    <property name="length">00:02:44.217</property>
    <property name="eof">pause</property>
    <property name="resource">C:/Users/Sahid/Videos/QGIS Basic/6_Layouting/2021-02-02 12-46-11.mkv</property>
    <property name="audio_index">1</property>
    <property name="video_index">0</property>
    <property name="mute_on_pause">0</property>
    <property name="mlt_service">avformat-novalidate</property>
    <property name="seekable">1</property>
    <property name="aspect_ratio">1</property>
    <property name="creation_time">2021-02-02T05:48:56</property>
    <property name="shotcut:hash">89f55a22df929d7fe018ceb8e0da4847</property>
    <property name="ignore_points">0</property>
    <property name="shotcut:caption">2021-02-02 12-46-11.mkv</property>
    <property name="global_feed">1</property>
    <property name="xml">was here</property>
    <filter id="filter19" in="00:01:27.767" out="00:01:28.717">
      <property name="window">75</property>
      <property name="max_gain">20dB</property>
      <property name="level">9.6</property>
      <property name="mlt_service">volume</property>
    </filter>
  </producer>
  <producer id="producer25" in="00:00:00.000" out="00:02:44.200">
    <property name="length">00:02:44.217</property>
    <property name="eof">pause</property>
    <property name="resource">C:/Users/Sahid/Videos/QGIS Basic/6_Layouting/2021-02-02 12-46-11.mkv</property>
    <property name="audio_index">1</property>
    <property name="video_index">0</property>
    <property name="mute_on_pause">0</property>
    <property name="mlt_service">avformat-novalidate</property>
    <property name="seekable">1</property>
    <property name="aspect_ratio">1</property>
    <property name="creation_time">2021-02-02T05:48:56</property>
    <property name="shotcut:hash">89f55a22df929d7fe018ceb8e0da4847</property>
    <property name="ignore_points">0</property>
    <property name="shotcut:caption">2021-02-02 12-46-11.mkv</property>
    <property name="global_feed">1</property>
    <property name="xml">was here</property>
    <filter id="filter20" in="00:01:29.183" out="00:01:31.333">
      <property name="window">75</property>
      <property name="max_gain">20dB</property>
      <property name="level">9.6</property>
      <property name="mlt_service">volume</property>
    </filter>
  </producer>
  <producer id="producer26" in="00:00:00.000" out="00:02:44.200">
    <property name="length">00:02:44.217</property>
    <property name="eof">pause</property>
    <property name="resource">C:/Users/Sahid/Videos/QGIS Basic/6_Layouting/2021-02-02 12-46-11.mkv</property>
    <property name="audio_index">1</property>
    <property name="video_index">0</property>
    <property name="mute_on_pause">0</property>
    <property name="mlt_service">avformat-novalidate</property>
    <property name="seekable">1</property>
    <property name="aspect_ratio">1</property>
    <property name="creation_time">2021-02-02T05:48:56</property>
    <property name="shotcut:hash">89f55a22df929d7fe018ceb8e0da4847</property>
    <property name="ignore_points">0</property>
    <property name="shotcut:caption">2021-02-02 12-46-11.mkv</property>
    <property name="global_feed">1</property>
    <property name="xml">was here</property>
    <filter id="filter21" in="00:01:31.683" out="00:01:35.700">
      <property name="window">75</property>
      <property name="max_gain">20dB</property>
      <property name="level">9.6</property>
      <property name="mlt_service">volume</property>
    </filter>
  </producer>
  <producer id="producer27" in="00:00:00.000" out="00:02:44.200">
    <property name="length">00:02:44.217</property>
    <property name="eof">pause</property>
    <property name="resource">C:/Users/Sahid/Videos/QGIS Basic/6_Layouting/2021-02-02 12-46-11.mkv</property>
    <property name="audio_index">1</property>
    <property name="video_index">0</property>
    <property name="mute_on_pause">0</property>
    <property name="mlt_service">avformat-novalidate</property>
    <property name="seekable">1</property>
    <property name="aspect_ratio">1</property>
    <property name="creation_time">2021-02-02T05:48:56</property>
    <property name="shotcut:hash">89f55a22df929d7fe018ceb8e0da4847</property>
    <property name="ignore_points">0</property>
    <property name="shotcut:caption">2021-02-02 12-46-11.mkv</property>
    <property name="global_feed">1</property>
    <property name="xml">was here</property>
    <filter id="filter22" in="00:01:35.917" out="00:01:39.433">
      <property name="window">75</property>
      <property name="max_gain">20dB</property>
      <property name="level">9.6</property>
      <property name="mlt_service">volume</property>
    </filter>
  </producer>
  <producer id="producer28" in="00:00:00.000" out="00:02:44.200">
    <property name="length">00:02:44.217</property>
    <property name="eof">pause</property>
    <property name="resource">C:/Users/Sahid/Videos/QGIS Basic/6_Layouting/2021-02-02 12-46-11.mkv</property>
    <property name="audio_index">1</property>
    <property name="video_index">0</property>
    <property name="mute_on_pause">0</property>
    <property name="mlt_service">avformat-novalidate</property>
    <property name="seekable">1</property>
    <property name="aspect_ratio">1</property>
    <property name="creation_time">2021-02-02T05:48:56</property>
    <property name="shotcut:hash">89f55a22df929d7fe018ceb8e0da4847</property>
    <property name="ignore_points">0</property>
    <property name="shotcut:caption">2021-02-02 12-46-11.mkv</property>
    <property name="global_feed">1</property>
    <property name="xml">was here</property>
    <filter id="filter23" in="00:01:39.833" out="00:01:43.133">
      <property name="window">75</property>
      <property name="max_gain">20dB</property>
      <property name="level">9.6</property>
      <property name="mlt_service">volume</property>
    </filter>
  </producer>
  <producer id="producer29" in="00:00:00.000" out="00:02:44.200">
    <property name="length">00:02:44.217</property>
    <property name="eof">pause</property>
    <property name="resource">C:/Users/Sahid/Videos/QGIS Basic/6_Layouting/2021-02-02 12-46-11.mkv</property>
    <property name="audio_index">1</property>
    <property name="video_index">0</property>
    <property name="mute_on_pause">0</property>
    <property name="mlt_service">avformat-novalidate</property>
    <property name="seekable">1</property>
    <property name="aspect_ratio">1</property>
    <property name="creation_time">2021-02-02T05:48:56</property>
    <property name="shotcut:hash">89f55a22df929d7fe018ceb8e0da4847</property>
    <property name="ignore_points">0</property>
    <property name="shotcut:caption">2021-02-02 12-46-11.mkv</property>
    <property name="global_feed">1</property>
    <property name="xml">was here</property>
    <filter id="filter24" in="00:01:43.650" out="00:01:45.583">
      <property name="window">75</property>
      <property name="max_gain">20dB</property>
      <property name="level">9.6</property>
      <property name="mlt_service">volume</property>
    </filter>
  </producer>
  <producer id="producer30" in="00:00:00.000" out="00:02:44.200">
    <property name="length">00:02:44.217</property>
    <property name="eof">pause</property>
    <property name="resource">C:/Users/Sahid/Videos/QGIS Basic/6_Layouting/2021-02-02 12-46-11.mkv</property>
    <property name="audio_index">1</property>
    <property name="video_index">0</property>
    <property name="mute_on_pause">0</property>
    <property name="mlt_service">avformat-novalidate</property>
    <property name="seekable">1</property>
    <property name="aspect_ratio">1</property>
    <property name="creation_time">2021-02-02T05:48:56</property>
    <property name="shotcut:hash">89f55a22df929d7fe018ceb8e0da4847</property>
    <property name="ignore_points">0</property>
    <property name="shotcut:caption">2021-02-02 12-46-11.mkv</property>
    <property name="global_feed">1</property>
    <property name="xml">was here</property>
    <filter id="filter25" in="00:01:52.233" out="00:01:55.417">
      <property name="window">75</property>
      <property name="max_gain">20dB</property>
      <property name="level">9.6</property>
      <property name="mlt_service">volume</property>
    </filter>
  </producer>
  <producer id="producer31" in="00:00:00.000" out="00:02:44.200">
    <property name="length">00:02:44.217</property>
    <property name="eof">pause</property>
    <property name="resource">C:/Users/Sahid/Videos/QGIS Basic/6_Layouting/2021-02-02 12-46-11.mkv</property>
    <property name="audio_index">1</property>
    <property name="video_index">0</property>
    <property name="mute_on_pause">0</property>
    <property name="mlt_service">avformat-novalidate</property>
    <property name="seekable">1</property>
    <property name="aspect_ratio">1</property>
    <property name="creation_time">2021-02-02T05:48:56</property>
    <property name="shotcut:hash">89f55a22df929d7fe018ceb8e0da4847</property>
    <property name="ignore_points">0</property>
    <property name="shotcut:caption">2021-02-02 12-46-11.mkv</property>
    <property name="global_feed">1</property>
    <property name="xml">was here</property>
    <filter id="filter26" in="00:01:55.767" out="00:02:00.750">
      <property name="window">75</property>
      <property name="max_gain">20dB</property>
      <property name="level">9.6</property>
      <property name="mlt_service">volume</property>
    </filter>
  </producer>
  <producer id="producer32" in="00:00:00.000" out="00:02:44.200">
    <property name="length">00:02:44.217</property>
    <property name="eof">pause</property>
    <property name="resource">C:/Users/Sahid/Videos/QGIS Basic/6_Layouting/2021-02-02 12-46-11.mkv</property>
    <property name="audio_index">1</property>
    <property name="video_index">0</property>
    <property name="mute_on_pause">0</property>
    <property name="mlt_service">avformat-novalidate</property>
    <property name="seekable">1</property>
    <property name="aspect_ratio">1</property>
    <property name="creation_time">2021-02-02T05:48:56</property>
    <property name="shotcut:hash">89f55a22df929d7fe018ceb8e0da4847</property>
    <property name="ignore_points">0</property>
    <property name="shotcut:caption">2021-02-02 12-46-11.mkv</property>
    <property name="global_feed">1</property>
    <property name="xml">was here</property>
    <filter id="filter27" in="00:02:01.150" out="00:02:05.033">
      <property name="window">75</property>
      <property name="max_gain">20dB</property>
      <property name="level">9.6</property>
      <property name="mlt_service">volume</property>
    </filter>
  </producer>
  <producer id="producer33" in="00:00:00.000" out="00:02:44.200">
    <property name="length">00:02:44.217</property>
    <property name="eof">pause</property>
    <property name="resource">C:/Users/Sahid/Videos/QGIS Basic/6_Layouting/2021-02-02 12-46-11.mkv</property>
    <property name="audio_index">1</property>
    <property name="video_index">0</property>
    <property name="mute_on_pause">0</property>
    <property name="mlt_service">avformat-novalidate</property>
    <property name="seekable">1</property>
    <property name="aspect_ratio">1</property>
    <property name="creation_time">2021-02-02T05:48:56</property>
    <property name="shotcut:hash">89f55a22df929d7fe018ceb8e0da4847</property>
    <property name="ignore_points">0</property>
    <property name="shotcut:caption">2021-02-02 12-46-11.mkv</property>
    <property name="global_feed">1</property>
    <property name="xml">was here</property>
    <filter id="filter28" in="00:02:05.600" out="00:02:09.467">
      <property name="window">75</property>
      <property name="max_gain">20dB</property>
      <property name="level">9.6</property>
      <property name="mlt_service">volume</property>
    </filter>
  </producer>
  <producer id="producer34" in="00:00:00.000" out="00:02:44.200">
    <property name="length">00:02:44.217</property>
    <property name="eof">pause</property>
    <property name="resource">C:/Users/Sahid/Videos/QGIS Basic/6_Layouting/2021-02-02 12-46-11.mkv</property>
    <property name="audio_index">1</property>
    <property name="video_index">0</property>
    <property name="mute_on_pause">0</property>
    <property name="mlt_service">avformat-novalidate</property>
    <property name="seekable">1</property>
    <property name="aspect_ratio">1</property>
    <property name="creation_time">2021-02-02T05:48:56</property>
    <property name="shotcut:hash">89f55a22df929d7fe018ceb8e0da4847</property>
    <property name="ignore_points">0</property>
    <property name="shotcut:caption">2021-02-02 12-46-11.mkv</property>
    <property name="global_feed">1</property>
    <property name="xml">was here</property>
    <filter id="filter29" in="00:02:09.933" out="00:02:12.483">
      <property name="window">75</property>
      <property name="max_gain">20dB</property>
      <property name="level">9.6</property>
      <property name="mlt_service">volume</property>
    </filter>
  </producer>
  <producer id="producer35" in="00:00:00.000" out="00:02:44.200">
    <property name="length">00:02:44.217</property>
    <property name="eof">pause</property>
    <property name="resource">C:/Users/Sahid/Videos/QGIS Basic/6_Layouting/2021-02-02 12-46-11.mkv</property>
    <property name="audio_index">1</property>
    <property name="video_index">0</property>
    <property name="mute_on_pause">0</property>
    <property name="mlt_service">avformat-novalidate</property>
    <property name="seekable">1</property>
    <property name="aspect_ratio">1</property>
    <property name="creation_time">2021-02-02T05:48:56</property>
    <property name="shotcut:hash">89f55a22df929d7fe018ceb8e0da4847</property>
    <property name="ignore_points">0</property>
    <property name="shotcut:caption">2021-02-02 12-46-11.mkv</property>
    <property name="global_feed">1</property>
    <property name="xml">was here</property>
    <filter id="filter30" in="00:02:14.267" out="00:02:15.100">
      <property name="window">75</property>
      <property name="max_gain">20dB</property>
      <property name="level">9.6</property>
      <property name="mlt_service">volume</property>
    </filter>
  </producer>
  <producer id="producer36" in="00:00:00.000" out="00:02:44.200">
    <property name="length">00:02:44.217</property>
    <property name="eof">pause</property>
    <property name="resource">C:/Users/Sahid/Videos/QGIS Basic/6_Layouting/2021-02-02 12-46-11.mkv</property>
    <property name="audio_index">1</property>
    <property name="video_index">0</property>
    <property name="mute_on_pause">0</property>
    <property name="mlt_service">avformat-novalidate</property>
    <property name="seekable">1</property>
    <property name="aspect_ratio">1</property>
    <property name="creation_time">2021-02-02T05:48:56</property>
    <property name="shotcut:hash">89f55a22df929d7fe018ceb8e0da4847</property>
    <property name="ignore_points">0</property>
    <property name="shotcut:caption">2021-02-02 12-46-11.mkv</property>
    <property name="global_feed">1</property>
    <property name="xml">was here</property>
    <filter id="filter31" in="00:02:28.017" out="00:02:32.983">
      <property name="window">75</property>
      <property name="max_gain">20dB</property>
      <property name="level">9.6</property>
      <property name="mlt_service">volume</property>
    </filter>
  </producer>
  <producer id="producer37" in="00:00:00.000" out="00:02:44.200">
    <property name="length">00:02:44.217</property>
    <property name="eof">pause</property>
    <property name="resource">C:/Users/Sahid/Videos/QGIS Basic/6_Layouting/2021-02-02 12-46-11.mkv</property>
    <property name="audio_index">1</property>
    <property name="video_index">0</property>
    <property name="mute_on_pause">0</property>
    <property name="mlt_service">avformat-novalidate</property>
    <property name="seekable">1</property>
    <property name="aspect_ratio">1</property>
    <property name="creation_time">2021-02-02T05:48:56</property>
    <property name="shotcut:hash">89f55a22df929d7fe018ceb8e0da4847</property>
    <property name="ignore_points">0</property>
    <property name="shotcut:caption">2021-02-02 12-46-11.mkv</property>
    <property name="global_feed">1</property>
    <property name="xml">was here</property>
    <filter id="filter32" in="00:02:35.983" out="00:02:37.950">
      <property name="window">75</property>
      <property name="max_gain">20dB</property>
      <property name="level">9.6</property>
      <property name="mlt_service">volume</property>
    </filter>
  </producer>
  <producer id="producer38" in="00:00:00.000" out="00:02:44.200">
    <property name="length">00:02:44.217</property>
    <property name="eof">pause</property>
    <property name="resource">C:/Users/Sahid/Videos/QGIS Basic/6_Layouting/2021-02-02 12-46-11.mkv</property>
    <property name="audio_index">1</property>
    <property name="video_index">0</property>
    <property name="mute_on_pause">0</property>
    <property name="mlt_service">avformat-novalidate</property>
    <property name="seekable">1</property>
    <property name="aspect_ratio">1</property>
    <property name="creation_time">2021-02-02T05:48:56</property>
    <property name="shotcut:hash">89f55a22df929d7fe018ceb8e0da4847</property>
    <property name="ignore_points">0</property>
    <property name="shotcut:caption">2021-02-02 12-46-11.mkv</property>
    <property name="global_feed">1</property>
    <property name="xml">was here</property>
    <filter id="filter33" in="00:02:38.233" out="00:02:38.367">
      <property name="window">75</property>
      <property name="max_gain">20dB</property>
      <property name="level">9.6</property>
      <property name="mlt_service">volume</property>
    </filter>
  </producer>
  <producer id="producer39" in="00:00:00.000" out="00:02:44.200">
    <property name="length">00:02:44.217</property>
    <property name="eof">pause</property>
    <property name="resource">C:/Users/Sahid/Videos/QGIS Basic/6_Layouting/2021-02-02 12-46-11.mkv</property>
    <property name="audio_index">1</property>
    <property name="video_index">0</property>
    <property name="mute_on_pause">0</property>
    <property name="mlt_service">avformat-novalidate</property>
    <property name="seekable">1</property>
    <property name="aspect_ratio">1</property>
    <property name="creation_time">2021-02-02T05:48:56</property>
    <property name="shotcut:hash">89f55a22df929d7fe018ceb8e0da4847</property>
    <property name="ignore_points">0</property>
    <property name="shotcut:caption">2021-02-02 12-46-11.mkv</property>
    <property name="global_feed">1</property>
    <property name="xml">was here</property>
    <filter id="filter34" in="00:02:38.467" out="00:02:38.717">
      <property name="window">75</property>
      <property name="max_gain">20dB</property>
      <property name="level">9.6</property>
      <property name="mlt_service">volume</property>
    </filter>
  </producer>
  <producer id="producer40" in="00:00:00.000" out="00:02:44.200">
    <property name="length">00:02:44.217</property>
    <property name="eof">pause</property>
    <property name="resource">C:/Users/Sahid/Videos/QGIS Basic/6_Layouting/2021-02-02 12-46-11.mkv</property>
    <property name="audio_index">1</property>
    <property name="video_index">0</property>
    <property name="mute_on_pause">0</property>
    <property name="mlt_service">avformat-novalidate</property>
    <property name="seekable">1</property>
    <property name="aspect_ratio">1</property>
    <property name="creation_time">2021-02-02T05:48:56</property>
    <property name="shotcut:hash">89f55a22df929d7fe018ceb8e0da4847</property>
    <property name="ignore_points">0</property>
    <property name="shotcut:caption">2021-02-02 12-46-11.mkv</property>
    <property name="global_feed">1</property>
    <property name="xml">was here</property>
    <filter id="filter35" in="00:02:39.617" out="00:02:41.783">
      <property name="window">75</property>
      <property name="max_gain">20dB</property>
      <property name="level">9.6</property>
      <property name="mlt_service">volume</property>
    </filter>
  </producer>
  <producer id="producer41" in="00:00:00.000" out="00:26:43.500">
    <property name="length">00:26:43.517</property>
    <property name="eof">pause</property>
    <property name="resource">C:/Users/Sahid/Videos/QGIS Basic/6_Layouting/2021-02-02 16-19-05.mkv</property>
    <property name="audio_index">1</property>
    <property name="video_index">0</property>
    <property name="mute_on_pause">0</property>
    <property name="mlt_service">avformat-novalidate</property>
    <property name="seekable">1</property>
    <property name="aspect_ratio">1</property>
    <property name="creation_time">2021-02-02T09:45:51</property>
    <property name="global_feed">1</property>
    <property name="xml">was here</property>
    <property name="shotcut:hash">719b5cea19fbbb3472a08b1390fb7204</property>
    <property name="shotcut:caption">2021-02-02 16-19-05.mkv</property>
    <filter id="filter36" in="00:00:55.067" out="00:00:57.417">
      <property name="window">75</property>
      <property name="max_gain">20dB</property>
      <property name="level">14.4</property>
      <property name="mlt_service">volume</property>
    </filter>
  </producer>
  <producer id="producer42" in="00:00:00.000" out="00:26:43.500">
    <property name="length">00:26:43.517</property>
    <property name="eof">pause</property>
    <property name="resource">C:/Users/Sahid/Videos/QGIS Basic/6_Layouting/2021-02-02 16-19-05.mkv</property>
    <property name="audio_index">1</property>
    <property name="video_index">0</property>
    <property name="mute_on_pause">0</property>
    <property name="mlt_service">avformat-novalidate</property>
    <property name="seekable">1</property>
    <property name="aspect_ratio">1</property>
    <property name="creation_time">2021-02-02T09:45:51</property>
    <property name="global_feed">1</property>
    <property name="xml">was here</property>
    <property name="shotcut:hash">719b5cea19fbbb3472a08b1390fb7204</property>
    <property name="shotcut:caption">2021-02-02 16-19-05.mkv</property>
    <filter id="filter37" in="00:00:57.750" out="00:01:00.317">
      <property name="window">75</property>
      <property name="max_gain">20dB</property>
      <property name="level">14.4</property>
      <property name="mlt_service">volume</property>
    </filter>
  </producer>
  <producer id="producer43" in="00:00:00.000" out="00:26:43.500">
    <property name="length">00:26:43.517</property>
    <property name="eof">pause</property>
    <property name="resource">C:/Users/Sahid/Videos/QGIS Basic/6_Layouting/2021-02-02 16-19-05.mkv</property>
    <property name="audio_index">1</property>
    <property name="video_index">0</property>
    <property name="mute_on_pause">0</property>
    <property name="mlt_service">avformat-novalidate</property>
    <property name="seekable">1</property>
    <property name="aspect_ratio">1</property>
    <property name="creation_time">2021-02-02T09:45:51</property>
    <property name="global_feed">1</property>
    <property name="xml">was here</property>
    <property name="shotcut:hash">719b5cea19fbbb3472a08b1390fb7204</property>
    <property name="shotcut:caption">2021-02-02 16-19-05.mkv</property>
    <filter id="filter38" in="00:01:13.567" out="00:01:15.317">
      <property name="window">75</property>
      <property name="max_gain">20dB</property>
      <property name="level">14.4</property>
      <property name="mlt_service">volume</property>
    </filter>
  </producer>
  <producer id="producer44" in="00:00:00.000" out="00:26:43.500">
    <property name="length">00:26:43.517</property>
    <property name="eof">pause</property>
    <property name="resource">C:/Users/Sahid/Videos/QGIS Basic/6_Layouting/2021-02-02 16-19-05.mkv</property>
    <property name="audio_index">1</property>
    <property name="video_index">0</property>
    <property name="mute_on_pause">0</property>
    <property name="mlt_service">avformat-novalidate</property>
    <property name="seekable">1</property>
    <property name="aspect_ratio">1</property>
    <property name="creation_time">2021-02-02T09:45:51</property>
    <property name="global_feed">1</property>
    <property name="xml">was here</property>
    <property name="shotcut:hash">719b5cea19fbbb3472a08b1390fb7204</property>
    <property name="shotcut:caption">2021-02-02 16-19-05.mkv</property>
    <filter id="filter39" in="00:01:15.950" out="00:01:20.083">
      <property name="window">75</property>
      <property name="max_gain">20dB</property>
      <property name="level">14.4</property>
      <property name="mlt_service">volume</property>
    </filter>
  </producer>
  <producer id="producer45" in="00:00:00.000" out="00:26:43.500">
    <property name="length">00:26:43.517</property>
    <property name="eof">pause</property>
    <property name="resource">C:/Users/Sahid/Videos/QGIS Basic/6_Layouting/2021-02-02 16-19-05.mkv</property>
    <property name="audio_index">1</property>
    <property name="video_index">0</property>
    <property name="mute_on_pause">0</property>
    <property name="mlt_service">avformat-novalidate</property>
    <property name="seekable">1</property>
    <property name="aspect_ratio">1</property>
    <property name="creation_time">2021-02-02T09:45:51</property>
    <property name="global_feed">1</property>
    <property name="xml">was here</property>
    <property name="shotcut:hash">719b5cea19fbbb3472a08b1390fb7204</property>
    <property name="shotcut:caption">2021-02-02 16-19-05.mkv</property>
    <filter id="filter40" in="00:01:20.817" out="00:01:22.083">
      <property name="window">75</property>
      <property name="max_gain">20dB</property>
      <property name="level">14.4</property>
      <property name="mlt_service">volume</property>
    </filter>
  </producer>
  <producer id="producer46" in="00:00:00.000" out="00:26:43.500">
    <property name="length">00:26:43.517</property>
    <property name="eof">pause</property>
    <property name="resource">C:/Users/Sahid/Videos/QGIS Basic/6_Layouting/2021-02-02 16-19-05.mkv</property>
    <property name="audio_index">1</property>
    <property name="video_index">0</property>
    <property name="mute_on_pause">0</property>
    <property name="mlt_service">avformat-novalidate</property>
    <property name="seekable">1</property>
    <property name="aspect_ratio">1</property>
    <property name="creation_time">2021-02-02T09:45:51</property>
    <property name="global_feed">1</property>
    <property name="xml">was here</property>
    <property name="shotcut:hash">719b5cea19fbbb3472a08b1390fb7204</property>
    <property name="shotcut:caption">2021-02-02 16-19-05.mkv</property>
    <filter id="filter41" in="00:01:27.233" out="00:01:31.250">
      <property name="window">75</property>
      <property name="max_gain">20dB</property>
      <property name="level">14.4</property>
      <property name="mlt_service">volume</property>
    </filter>
  </producer>
  <producer id="producer47" in="00:00:00.000" out="00:26:43.500">
    <property name="length">00:26:43.517</property>
    <property name="eof">pause</property>
    <property name="resource">C:/Users/Sahid/Videos/QGIS Basic/6_Layouting/2021-02-02 16-19-05.mkv</property>
    <property name="audio_index">1</property>
    <property name="video_index">0</property>
    <property name="mute_on_pause">0</property>
    <property name="mlt_service">avformat-novalidate</property>
    <property name="seekable">1</property>
    <property name="aspect_ratio">1</property>
    <property name="creation_time">2021-02-02T09:45:51</property>
    <property name="global_feed">1</property>
    <property name="xml">was here</property>
    <property name="shotcut:hash">719b5cea19fbbb3472a08b1390fb7204</property>
    <property name="shotcut:caption">2021-02-02 16-19-05.mkv</property>
    <filter id="filter42" in="00:01:31.500" out="00:01:34.617">
      <property name="window">75</property>
      <property name="max_gain">20dB</property>
      <property name="level">14.4</property>
      <property name="mlt_service">volume</property>
    </filter>
  </producer>
  <producer id="producer48" in="00:00:00.000" out="00:26:43.500">
    <property name="length">00:26:43.517</property>
    <property name="eof">pause</property>
    <property name="resource">C:/Users/Sahid/Videos/QGIS Basic/6_Layouting/2021-02-02 16-19-05.mkv</property>
    <property name="audio_index">1</property>
    <property name="video_index">0</property>
    <property name="mute_on_pause">0</property>
    <property name="mlt_service">avformat-novalidate</property>
    <property name="seekable">1</property>
    <property name="aspect_ratio">1</property>
    <property name="creation_time">2021-02-02T09:45:51</property>
    <property name="global_feed">1</property>
    <property name="xml">was here</property>
    <property name="shotcut:hash">719b5cea19fbbb3472a08b1390fb7204</property>
    <property name="shotcut:caption">2021-02-02 16-19-05.mkv</property>
    <filter id="filter43" in="00:01:35.133" out="00:01:41.117">
      <property name="window">75</property>
      <property name="max_gain">20dB</property>
      <property name="level">14.4</property>
      <property name="mlt_service">volume</property>
    </filter>
  </producer>
  <producer id="producer49" in="00:00:00.000" out="00:26:43.500">
    <property name="length">00:26:43.517</property>
    <property name="eof">pause</property>
    <property name="resource">C:/Users/Sahid/Videos/QGIS Basic/6_Layouting/2021-02-02 16-19-05.mkv</property>
    <property name="audio_index">1</property>
    <property name="video_index">0</property>
    <property name="mute_on_pause">0</property>
    <property name="mlt_service">avformat-novalidate</property>
    <property name="seekable">1</property>
    <property name="aspect_ratio">1</property>
    <property name="creation_time">2021-02-02T09:45:51</property>
    <property name="global_feed">1</property>
    <property name="xml">was here</property>
    <property name="shotcut:hash">719b5cea19fbbb3472a08b1390fb7204</property>
    <property name="shotcut:caption">2021-02-02 16-19-05.mkv</property>
    <filter id="filter44" in="00:01:41.783" out="00:01:46.850">
      <property name="window">75</property>
      <property name="max_gain">20dB</property>
      <property name="level">14.4</property>
      <property name="mlt_service">volume</property>
    </filter>
  </producer>
  <producer id="producer50" in="00:00:00.000" out="00:26:43.500">
    <property name="length">00:26:43.517</property>
    <property name="eof">pause</property>
    <property name="resource">C:/Users/Sahid/Videos/QGIS Basic/6_Layouting/2021-02-02 16-19-05.mkv</property>
    <property name="audio_index">1</property>
    <property name="video_index">0</property>
    <property name="mute_on_pause">0</property>
    <property name="mlt_service">avformat-novalidate</property>
    <property name="seekable">1</property>
    <property name="aspect_ratio">1</property>
    <property name="creation_time">2021-02-02T09:45:51</property>
    <property name="global_feed">1</property>
    <property name="xml">was here</property>
    <property name="shotcut:hash">719b5cea19fbbb3472a08b1390fb7204</property>
    <property name="shotcut:caption">2021-02-02 16-19-05.mkv</property>
    <filter id="filter45" in="00:01:50.033" out="00:01:55.217">
      <property name="window">75</property>
      <property name="max_gain">20dB</property>
      <property name="level">14.4</property>
      <property name="mlt_service">volume</property>
    </filter>
  </producer>
  <producer id="producer51" in="00:00:00.000" out="00:26:43.500">
    <property name="length">00:26:43.517</property>
    <property name="eof">pause</property>
    <property name="resource">C:/Users/Sahid/Videos/QGIS Basic/6_Layouting/2021-02-02 16-19-05.mkv</property>
    <property name="audio_index">1</property>
    <property name="video_index">0</property>
    <property name="mute_on_pause">0</property>
    <property name="mlt_service">avformat-novalidate</property>
    <property name="seekable">1</property>
    <property name="aspect_ratio">1</property>
    <property name="creation_time">2021-02-02T09:45:51</property>
    <property name="global_feed">1</property>
    <property name="xml">was here</property>
    <property name="shotcut:hash">719b5cea19fbbb3472a08b1390fb7204</property>
    <property name="shotcut:caption">2021-02-02 16-19-05.mkv</property>
    <filter id="filter46" in="00:01:56.067" out="00:01:58.800">
      <property name="window">75</property>
      <property name="max_gain">20dB</property>
      <property name="level">14.4</property>
      <property name="mlt_service">volume</property>
    </filter>
  </producer>
  <producer id="producer52" in="00:00:00.000" out="00:26:43.500">
    <property name="length">00:26:43.517</property>
    <property name="eof">pause</property>
    <property name="resource">C:/Users/Sahid/Videos/QGIS Basic/6_Layouting/2021-02-02 16-19-05.mkv</property>
    <property name="audio_index">1</property>
    <property name="video_index">0</property>
    <property name="mute_on_pause">0</property>
    <property name="mlt_service">avformat-novalidate</property>
    <property name="seekable">1</property>
    <property name="aspect_ratio">1</property>
    <property name="creation_time">2021-02-02T09:45:51</property>
    <property name="global_feed">1</property>
    <property name="xml">was here</property>
    <property name="shotcut:hash">719b5cea19fbbb3472a08b1390fb7204</property>
    <property name="shotcut:caption">2021-02-02 16-19-05.mkv</property>
    <filter id="filter47" in="00:01:59.967" out="00:02:02.067">
      <property name="window">75</property>
      <property name="max_gain">20dB</property>
      <property name="level">14.4</property>
      <property name="mlt_service">volume</property>
    </filter>
  </producer>
  <producer id="producer53" in="00:00:00.000" out="00:26:43.500">
    <property name="length">00:26:43.517</property>
    <property name="eof">pause</property>
    <property name="resource">C:/Users/Sahid/Videos/QGIS Basic/6_Layouting/2021-02-02 16-19-05.mkv</property>
    <property name="audio_index">1</property>
    <property name="video_index">0</property>
    <property name="mute_on_pause">0</property>
    <property name="mlt_service">avformat-novalidate</property>
    <property name="seekable">1</property>
    <property name="aspect_ratio">1</property>
    <property name="creation_time">2021-02-02T09:45:51</property>
    <property name="global_feed">1</property>
    <property name="xml">was here</property>
    <property name="shotcut:hash">719b5cea19fbbb3472a08b1390fb7204</property>
    <property name="shotcut:caption">2021-02-02 16-19-05.mkv</property>
    <filter id="filter48" in="00:02:02.800" out="00:02:04.900">
      <property name="window">75</property>
      <property name="max_gain">20dB</property>
      <property name="level">14.4</property>
      <property name="mlt_service">volume</property>
    </filter>
  </producer>
  <producer id="producer54" in="00:00:00.000" out="00:26:43.500">
    <property name="length">00:26:43.517</property>
    <property name="eof">pause</property>
    <property name="resource">C:/Users/Sahid/Videos/QGIS Basic/6_Layouting/2021-02-02 16-19-05.mkv</property>
    <property name="audio_index">1</property>
    <property name="video_index">0</property>
    <property name="mute_on_pause">0</property>
    <property name="mlt_service">avformat-novalidate</property>
    <property name="seekable">1</property>
    <property name="aspect_ratio">1</property>
    <property name="creation_time">2021-02-02T09:45:51</property>
    <property name="global_feed">1</property>
    <property name="xml">was here</property>
    <property name="shotcut:hash">719b5cea19fbbb3472a08b1390fb7204</property>
    <property name="shotcut:caption">2021-02-02 16-19-05.mkv</property>
    <filter id="filter49" in="00:02:05.367" out="00:02:06.033">
      <property name="window">75</property>
      <property name="max_gain">20dB</property>
      <property name="level">14.4</property>
      <property name="mlt_service">volume</property>
    </filter>
  </producer>
  <producer id="producer55" in="00:00:00.000" out="00:26:43.500">
    <property name="length">00:26:43.517</property>
    <property name="eof">pause</property>
    <property name="resource">C:/Users/Sahid/Videos/QGIS Basic/6_Layouting/2021-02-02 16-19-05.mkv</property>
    <property name="audio_index">1</property>
    <property name="video_index">0</property>
    <property name="mute_on_pause">0</property>
    <property name="mlt_service">avformat-novalidate</property>
    <property name="seekable">1</property>
    <property name="aspect_ratio">1</property>
    <property name="creation_time">2021-02-02T09:45:51</property>
    <property name="global_feed">1</property>
    <property name="xml">was here</property>
    <property name="shotcut:hash">719b5cea19fbbb3472a08b1390fb7204</property>
    <property name="shotcut:caption">2021-02-02 16-19-05.mkv</property>
    <filter id="filter50" in="00:02:06.867" out="00:02:09.100">
      <property name="window">75</property>
      <property name="max_gain">20dB</property>
      <property name="level">14.4</property>
      <property name="mlt_service">volume</property>
    </filter>
  </producer>
  <producer id="producer56" in="00:00:00.000" out="00:26:43.500">
    <property name="length">00:26:43.517</property>
    <property name="eof">pause</property>
    <property name="resource">C:/Users/Sahid/Videos/QGIS Basic/6_Layouting/2021-02-02 16-19-05.mkv</property>
    <property name="audio_index">1</property>
    <property name="video_index">0</property>
    <property name="mute_on_pause">0</property>
    <property name="mlt_service">avformat-novalidate</property>
    <property name="seekable">1</property>
    <property name="aspect_ratio">1</property>
    <property name="creation_time">2021-02-02T09:45:51</property>
    <property name="global_feed">1</property>
    <property name="xml">was here</property>
    <property name="shotcut:hash">719b5cea19fbbb3472a08b1390fb7204</property>
    <property name="shotcut:caption">2021-02-02 16-19-05.mkv</property>
    <filter id="filter51" in="00:02:10.150" out="00:02:10.717">
      <property name="window">75</property>
      <property name="max_gain">20dB</property>
      <property name="level">14.4</property>
      <property name="mlt_service">volume</property>
    </filter>
  </producer>
  <producer id="producer57" in="00:00:00.000" out="00:26:43.500">
    <property name="length">00:26:43.517</property>
    <property name="eof">pause</property>
    <property name="resource">C:/Users/Sahid/Videos/QGIS Basic/6_Layouting/2021-02-02 16-19-05.mkv</property>
    <property name="audio_index">1</property>
    <property name="video_index">0</property>
    <property name="mute_on_pause">0</property>
    <property name="mlt_service">avformat-novalidate</property>
    <property name="seekable">1</property>
    <property name="aspect_ratio">1</property>
    <property name="creation_time">2021-02-02T09:45:51</property>
    <property name="global_feed">1</property>
    <property name="xml">was here</property>
    <property name="shotcut:hash">719b5cea19fbbb3472a08b1390fb7204</property>
    <property name="shotcut:caption">2021-02-02 16-19-05.mkv</property>
    <filter id="filter52" in="00:02:11.267" out="00:02:11.967">
      <property name="window">75</property>
      <property name="max_gain">20dB</property>
      <property name="level">14.4</property>
      <property name="mlt_service">volume</property>
    </filter>
  </producer>
  <producer id="producer58" in="00:00:00.000" out="00:26:43.500">
    <property name="length">00:26:43.517</property>
    <property name="eof">pause</property>
    <property name="resource">C:/Users/Sahid/Videos/QGIS Basic/6_Layouting/2021-02-02 16-19-05.mkv</property>
    <property name="audio_index">1</property>
    <property name="video_index">0</property>
    <property name="mute_on_pause">0</property>
    <property name="mlt_service">avformat-novalidate</property>
    <property name="seekable">1</property>
    <property name="aspect_ratio">1</property>
    <property name="creation_time">2021-02-02T09:45:51</property>
    <property name="global_feed">1</property>
    <property name="xml">was here</property>
    <property name="shotcut:hash">719b5cea19fbbb3472a08b1390fb7204</property>
    <property name="shotcut:caption">2021-02-02 16-19-05.mkv</property>
    <filter id="filter53" in="00:02:13.000" out="00:02:15.900">
      <property name="window">75</property>
      <property name="max_gain">20dB</property>
      <property name="level">14.4</property>
      <property name="mlt_service">volume</property>
    </filter>
  </producer>
  <producer id="producer59" in="00:00:00.000" out="00:26:43.500">
    <property name="length">00:26:43.517</property>
    <property name="eof">pause</property>
    <property name="resource">C:/Users/Sahid/Videos/QGIS Basic/6_Layouting/2021-02-02 16-19-05.mkv</property>
    <property name="audio_index">1</property>
    <property name="video_index">0</property>
    <property name="mute_on_pause">0</property>
    <property name="mlt_service">avformat-novalidate</property>
    <property name="seekable">1</property>
    <property name="aspect_ratio">1</property>
    <property name="creation_time">2021-02-02T09:45:51</property>
    <property name="global_feed">1</property>
    <property name="xml">was here</property>
    <property name="shotcut:hash">719b5cea19fbbb3472a08b1390fb7204</property>
    <property name="shotcut:caption">2021-02-02 16-19-05.mkv</property>
    <filter id="filter54" in="00:02:20.850" out="00:02:24.550">
      <property name="window">75</property>
      <property name="max_gain">20dB</property>
      <property name="level">14.4</property>
      <property name="mlt_service">volume</property>
    </filter>
  </producer>
  <producer id="producer60" in="00:00:00.000" out="00:26:43.500">
    <property name="length">00:26:43.517</property>
    <property name="eof">pause</property>
    <property name="resource">C:/Users/Sahid/Videos/QGIS Basic/6_Layouting/2021-02-02 16-19-05.mkv</property>
    <property name="audio_index">1</property>
    <property name="video_index">0</property>
    <property name="mute_on_pause">0</property>
    <property name="mlt_service">avformat-novalidate</property>
    <property name="seekable">1</property>
    <property name="aspect_ratio">1</property>
    <property name="creation_time">2021-02-02T09:45:51</property>
    <property name="global_feed">1</property>
    <property name="xml">was here</property>
    <property name="shotcut:hash">719b5cea19fbbb3472a08b1390fb7204</property>
    <property name="shotcut:caption">2021-02-02 16-19-05.mkv</property>
    <filter id="filter55" in="00:02:26.050" out="00:02:27.217">
      <property name="window">75</property>
      <property name="max_gain">20dB</property>
      <property name="level">14.4</property>
      <property name="mlt_service">volume</property>
    </filter>
  </producer>
  <producer id="producer61" in="00:00:00.000" out="00:26:43.500">
    <property name="length">00:26:43.517</property>
    <property name="eof">pause</property>
    <property name="resource">C:/Users/Sahid/Videos/QGIS Basic/6_Layouting/2021-02-02 16-19-05.mkv</property>
    <property name="audio_index">1</property>
    <property name="video_index">0</property>
    <property name="mute_on_pause">0</property>
    <property name="mlt_service">avformat-novalidate</property>
    <property name="seekable">1</property>
    <property name="aspect_ratio">1</property>
    <property name="creation_time">2021-02-02T09:45:51</property>
    <property name="global_feed">1</property>
    <property name="xml">was here</property>
    <property name="shotcut:hash">719b5cea19fbbb3472a08b1390fb7204</property>
    <property name="shotcut:caption">2021-02-02 16-19-05.mkv</property>
    <filter id="filter56" in="00:02:29.783" out="00:02:30.400">
      <property name="window">75</property>
      <property name="max_gain">20dB</property>
      <property name="level">14.4</property>
      <property name="mlt_service">volume</property>
    </filter>
  </producer>
  <producer id="producer62" in="00:00:00.000" out="00:26:43.500">
    <property name="length">00:26:43.517</property>
    <property name="eof">pause</property>
    <property name="resource">C:/Users/Sahid/Videos/QGIS Basic/6_Layouting/2021-02-02 16-19-05.mkv</property>
    <property name="audio_index">1</property>
    <property name="video_index">0</property>
    <property name="mute_on_pause">0</property>
    <property name="mlt_service">avformat-novalidate</property>
    <property name="seekable">1</property>
    <property name="aspect_ratio">1</property>
    <property name="creation_time">2021-02-02T09:45:51</property>
    <property name="global_feed">1</property>
    <property name="xml">was here</property>
    <property name="shotcut:hash">719b5cea19fbbb3472a08b1390fb7204</property>
    <property name="shotcut:caption">2021-02-02 16-19-05.mkv</property>
    <filter id="filter57" in="00:02:30.833" out="00:02:34.667">
      <property name="window">75</property>
      <property name="max_gain">20dB</property>
      <property name="level">14.4</property>
      <property name="mlt_service">volume</property>
    </filter>
  </producer>
  <producer id="producer63" in="00:00:00.000" out="00:26:43.500">
    <property name="length">00:26:43.517</property>
    <property name="eof">pause</property>
    <property name="resource">C:/Users/Sahid/Videos/QGIS Basic/6_Layouting/2021-02-02 16-19-05.mkv</property>
    <property name="audio_index">1</property>
    <property name="video_index">0</property>
    <property name="mute_on_pause">0</property>
    <property name="mlt_service">avformat-novalidate</property>
    <property name="seekable">1</property>
    <property name="aspect_ratio">1</property>
    <property name="creation_time">2021-02-02T09:45:51</property>
    <property name="global_feed">1</property>
    <property name="xml">was here</property>
    <property name="shotcut:hash">719b5cea19fbbb3472a08b1390fb7204</property>
    <property name="shotcut:caption">2021-02-02 16-19-05.mkv</property>
    <filter id="filter58" in="00:02:35.550" out="00:02:38.600">
      <property name="window">75</property>
      <property name="max_gain">20dB</property>
      <property name="level">14.4</property>
      <property name="mlt_service">volume</property>
    </filter>
  </producer>
  <producer id="producer64" in="00:00:00.000" out="00:26:43.500">
    <property name="length">00:26:43.517</property>
    <property name="eof">pause</property>
    <property name="resource">C:/Users/Sahid/Videos/QGIS Basic/6_Layouting/2021-02-02 16-19-05.mkv</property>
    <property name="audio_index">1</property>
    <property name="video_index">0</property>
    <property name="mute_on_pause">0</property>
    <property name="mlt_service">avformat-novalidate</property>
    <property name="seekable">1</property>
    <property name="aspect_ratio">1</property>
    <property name="creation_time">2021-02-02T09:45:51</property>
    <property name="global_feed">1</property>
    <property name="xml">was here</property>
    <property name="shotcut:hash">719b5cea19fbbb3472a08b1390fb7204</property>
    <property name="shotcut:caption">2021-02-02 16-19-05.mkv</property>
    <filter id="filter59" in="00:02:39.183" out="00:02:43.367">
      <property name="window">75</property>
      <property name="max_gain">20dB</property>
      <property name="level">14.4</property>
      <property name="mlt_service">volume</property>
    </filter>
  </producer>
  <producer id="producer65" in="00:00:00.000" out="00:26:43.500">
    <property name="length">00:26:43.517</property>
    <property name="eof">pause</property>
    <property name="resource">C:/Users/Sahid/Videos/QGIS Basic/6_Layouting/2021-02-02 16-19-05.mkv</property>
    <property name="audio_index">1</property>
    <property name="video_index">0</property>
    <property name="mute_on_pause">0</property>
    <property name="mlt_service">avformat-novalidate</property>
    <property name="seekable">1</property>
    <property name="aspect_ratio">1</property>
    <property name="creation_time">2021-02-02T09:45:51</property>
    <property name="global_feed">1</property>
    <property name="xml">was here</property>
    <property name="shotcut:hash">719b5cea19fbbb3472a08b1390fb7204</property>
    <property name="shotcut:caption">2021-02-02 16-19-05.mkv</property>
    <filter id="filter60" in="00:02:43.867" out="00:02:48.167">
      <property name="window">75</property>
      <property name="max_gain">20dB</property>
      <property name="level">14.4</property>
      <property name="mlt_service">volume</property>
    </filter>
  </producer>
  <producer id="producer66" in="00:00:00.000" out="00:26:43.500">
    <property name="length">00:26:43.517</property>
    <property name="eof">pause</property>
    <property name="resource">C:/Users/Sahid/Videos/QGIS Basic/6_Layouting/2021-02-02 16-19-05.mkv</property>
    <property name="audio_index">1</property>
    <property name="video_index">0</property>
    <property name="mute_on_pause">0</property>
    <property name="mlt_service">avformat-novalidate</property>
    <property name="seekable">1</property>
    <property name="aspect_ratio">1</property>
    <property name="creation_time">2021-02-02T09:45:51</property>
    <property name="global_feed">1</property>
    <property name="xml">was here</property>
    <property name="shotcut:hash">719b5cea19fbbb3472a08b1390fb7204</property>
    <property name="shotcut:caption">2021-02-02 16-19-05.mkv</property>
    <filter id="filter61" in="00:02:54.550" out="00:02:57.067">
      <property name="window">75</property>
      <property name="max_gain">20dB</property>
      <property name="level">14.4</property>
      <property name="mlt_service">volume</property>
    </filter>
  </producer>
  <producer id="producer67" in="00:00:00.000" out="00:26:43.500">
    <property name="length">00:26:43.517</property>
    <property name="eof">pause</property>
    <property name="resource">C:/Users/Sahid/Videos/QGIS Basic/6_Layouting/2021-02-02 16-19-05.mkv</property>
    <property name="audio_index">1</property>
    <property name="video_index">0</property>
    <property name="mute_on_pause">0</property>
    <property name="mlt_service">avformat-novalidate</property>
    <property name="seekable">1</property>
    <property name="aspect_ratio">1</property>
    <property name="creation_time">2021-02-02T09:45:51</property>
    <property name="global_feed">1</property>
    <property name="xml">was here</property>
    <property name="shotcut:hash">719b5cea19fbbb3472a08b1390fb7204</property>
    <property name="shotcut:caption">2021-02-02 16-19-05.mkv</property>
    <filter id="filter62" in="00:02:57.217" out="00:02:59.250">
      <property name="window">75</property>
      <property name="max_gain">20dB</property>
      <property name="level">14.4</property>
      <property name="mlt_service">volume</property>
    </filter>
  </producer>
  <producer id="producer68" in="00:00:00.000" out="00:26:43.500">
    <property name="length">00:26:43.517</property>
    <property name="eof">pause</property>
    <property name="resource">C:/Users/Sahid/Videos/QGIS Basic/6_Layouting/2021-02-02 16-19-05.mkv</property>
    <property name="audio_index">1</property>
    <property name="video_index">0</property>
    <property name="mute_on_pause">0</property>
    <property name="mlt_service">avformat-novalidate</property>
    <property name="seekable">1</property>
    <property name="aspect_ratio">1</property>
    <property name="creation_time">2021-02-02T09:45:51</property>
    <property name="global_feed">1</property>
    <property name="xml">was here</property>
    <property name="shotcut:hash">719b5cea19fbbb3472a08b1390fb7204</property>
    <property name="shotcut:caption">2021-02-02 16-19-05.mkv</property>
    <filter id="filter63" in="00:02:59.717" out="00:03:01.700">
      <property name="window">75</property>
      <property name="max_gain">20dB</property>
      <property name="level">14.4</property>
      <property name="mlt_service">volume</property>
    </filter>
  </producer>
  <producer id="producer69" in="00:00:00.000" out="00:26:43.500">
    <property name="length">00:26:43.517</property>
    <property name="eof">pause</property>
    <property name="resource">C:/Users/Sahid/Videos/QGIS Basic/6_Layouting/2021-02-02 16-19-05.mkv</property>
    <property name="audio_index">1</property>
    <property name="video_index">0</property>
    <property name="mute_on_pause">0</property>
    <property name="mlt_service">avformat-novalidate</property>
    <property name="seekable">1</property>
    <property name="aspect_ratio">1</property>
    <property name="creation_time">2021-02-02T09:45:51</property>
    <property name="global_feed">1</property>
    <property name="xml">was here</property>
    <property name="shotcut:hash">719b5cea19fbbb3472a08b1390fb7204</property>
    <property name="shotcut:caption">2021-02-02 16-19-05.mkv</property>
    <filter id="filter64" in="00:03:02.233" out="00:03:05.383">
      <property name="window">75</property>
      <property name="max_gain">20dB</property>
      <property name="level">14.4</property>
      <property name="mlt_service">volume</property>
    </filter>
  </producer>
  <producer id="producer70" in="00:00:00.000" out="00:26:43.500">
    <property name="length">00:26:43.517</property>
    <property name="eof">pause</property>
    <property name="resource">C:/Users/Sahid/Videos/QGIS Basic/6_Layouting/2021-02-02 16-19-05.mkv</property>
    <property name="audio_index">1</property>
    <property name="video_index">0</property>
    <property name="mute_on_pause">0</property>
    <property name="mlt_service">avformat-novalidate</property>
    <property name="seekable">1</property>
    <property name="aspect_ratio">1</property>
    <property name="creation_time">2021-02-02T09:45:51</property>
    <property name="global_feed">1</property>
    <property name="xml">was here</property>
    <property name="shotcut:hash">719b5cea19fbbb3472a08b1390fb7204</property>
    <property name="shotcut:caption">2021-02-02 16-19-05.mkv</property>
    <filter id="filter65" in="00:03:05.933" out="00:03:08.167">
      <property name="window">75</property>
      <property name="max_gain">20dB</property>
      <property name="level">14.4</property>
      <property name="mlt_service">volume</property>
    </filter>
  </producer>
  <producer id="producer71" in="00:00:00.000" out="00:26:43.500">
    <property name="length">00:26:43.517</property>
    <property name="eof">pause</property>
    <property name="resource">C:/Users/Sahid/Videos/QGIS Basic/6_Layouting/2021-02-02 16-19-05.mkv</property>
    <property name="audio_index">1</property>
    <property name="video_index">0</property>
    <property name="mute_on_pause">0</property>
    <property name="mlt_service">avformat-novalidate</property>
    <property name="seekable">1</property>
    <property name="aspect_ratio">1</property>
    <property name="creation_time">2021-02-02T09:45:51</property>
    <property name="global_feed">1</property>
    <property name="xml">was here</property>
    <property name="shotcut:hash">719b5cea19fbbb3472a08b1390fb7204</property>
    <property name="shotcut:caption">2021-02-02 16-19-05.mkv</property>
    <filter id="filter66" in="00:03:09.250" out="00:03:10.533">
      <property name="window">75</property>
      <property name="max_gain">20dB</property>
      <property name="level">14.4</property>
      <property name="mlt_service">volume</property>
    </filter>
  </producer>
  <producer id="producer72" in="00:00:00.000" out="00:26:43.500">
    <property name="length">00:26:43.517</property>
    <property name="eof">pause</property>
    <property name="resource">C:/Users/Sahid/Videos/QGIS Basic/6_Layouting/2021-02-02 16-19-05.mkv</property>
    <property name="audio_index">1</property>
    <property name="video_index">0</property>
    <property name="mute_on_pause">0</property>
    <property name="mlt_service">avformat-novalidate</property>
    <property name="seekable">1</property>
    <property name="aspect_ratio">1</property>
    <property name="creation_time">2021-02-02T09:45:51</property>
    <property name="global_feed">1</property>
    <property name="xml">was here</property>
    <property name="shotcut:hash">719b5cea19fbbb3472a08b1390fb7204</property>
    <property name="shotcut:caption">2021-02-02 16-19-05.mkv</property>
    <filter id="filter67" in="00:03:11.100" out="00:03:12.417">
      <property name="window">75</property>
      <property name="max_gain">20dB</property>
      <property name="level">14.4</property>
      <property name="mlt_service">volume</property>
    </filter>
  </producer>
  <producer id="producer73" in="00:00:00.000" out="00:26:43.500">
    <property name="length">00:26:43.517</property>
    <property name="eof">pause</property>
    <property name="resource">C:/Users/Sahid/Videos/QGIS Basic/6_Layouting/2021-02-02 16-19-05.mkv</property>
    <property name="audio_index">1</property>
    <property name="video_index">0</property>
    <property name="mute_on_pause">0</property>
    <property name="mlt_service">avformat-novalidate</property>
    <property name="seekable">1</property>
    <property name="aspect_ratio">1</property>
    <property name="creation_time">2021-02-02T09:45:51</property>
    <property name="global_feed">1</property>
    <property name="xml">was here</property>
    <property name="shotcut:hash">719b5cea19fbbb3472a08b1390fb7204</property>
    <property name="shotcut:caption">2021-02-02 16-19-05.mkv</property>
    <filter id="filter68" in="00:03:20.783" out="00:03:23.350">
      <property name="window">75</property>
      <property name="max_gain">20dB</property>
      <property name="level">14.4</property>
      <property name="mlt_service">volume</property>
    </filter>
  </producer>
  <producer id="producer74" in="00:00:00.000" out="00:26:43.500">
    <property name="length">00:26:43.517</property>
    <property name="eof">pause</property>
    <property name="resource">C:/Users/Sahid/Videos/QGIS Basic/6_Layouting/2021-02-02 16-19-05.mkv</property>
    <property name="audio_index">1</property>
    <property name="video_index">0</property>
    <property name="mute_on_pause">0</property>
    <property name="mlt_service">avformat-novalidate</property>
    <property name="seekable">1</property>
    <property name="aspect_ratio">1</property>
    <property name="creation_time">2021-02-02T09:45:51</property>
    <property name="global_feed">1</property>
    <property name="xml">was here</property>
    <property name="shotcut:hash">719b5cea19fbbb3472a08b1390fb7204</property>
    <property name="shotcut:caption">2021-02-02 16-19-05.mkv</property>
    <filter id="filter69" in="00:03:27.500" out="00:03:29.117">
      <property name="window">75</property>
      <property name="max_gain">20dB</property>
      <property name="level">14.4</property>
      <property name="mlt_service">volume</property>
    </filter>
  </producer>
  <producer id="producer75" in="00:00:00.000" out="00:26:43.500">
    <property name="length">00:26:43.517</property>
    <property name="eof">pause</property>
    <property name="resource">C:/Users/Sahid/Videos/QGIS Basic/6_Layouting/2021-02-02 16-19-05.mkv</property>
    <property name="audio_index">1</property>
    <property name="video_index">0</property>
    <property name="mute_on_pause">0</property>
    <property name="mlt_service">avformat-novalidate</property>
    <property name="seekable">1</property>
    <property name="aspect_ratio">1</property>
    <property name="creation_time">2021-02-02T09:45:51</property>
    <property name="global_feed">1</property>
    <property name="xml">was here</property>
    <property name="shotcut:hash">719b5cea19fbbb3472a08b1390fb7204</property>
    <property name="shotcut:caption">2021-02-02 16-19-05.mkv</property>
    <filter id="filter70" in="00:03:29.650" out="00:03:32.333">
      <property name="window">75</property>
      <property name="max_gain">20dB</property>
      <property name="level">14.4</property>
      <property name="mlt_service">volume</property>
    </filter>
  </producer>
  <producer id="producer76" in="00:00:00.000" out="00:26:43.500">
    <property name="length">00:26:43.517</property>
    <property name="eof">pause</property>
    <property name="resource">C:/Users/Sahid/Videos/QGIS Basic/6_Layouting/2021-02-02 16-19-05.mkv</property>
    <property name="audio_index">1</property>
    <property name="video_index">0</property>
    <property name="mute_on_pause">0</property>
    <property name="mlt_service">avformat-novalidate</property>
    <property name="seekable">1</property>
    <property name="aspect_ratio">1</property>
    <property name="creation_time">2021-02-02T09:45:51</property>
    <property name="global_feed">1</property>
    <property name="xml">was here</property>
    <property name="shotcut:hash">719b5cea19fbbb3472a08b1390fb7204</property>
    <property name="shotcut:caption">2021-02-02 16-19-05.mkv</property>
    <filter id="filter71" in="00:03:33.283" out="00:03:34.633">
      <property name="window">75</property>
      <property name="max_gain">20dB</property>
      <property name="level">14.4</property>
      <property name="mlt_service">volume</property>
    </filter>
  </producer>
  <producer id="producer77" in="00:00:00.000" out="00:26:43.500">
    <property name="length">00:26:43.517</property>
    <property name="eof">pause</property>
    <property name="resource">C:/Users/Sahid/Videos/QGIS Basic/6_Layouting/2021-02-02 16-19-05.mkv</property>
    <property name="audio_index">1</property>
    <property name="video_index">0</property>
    <property name="mute_on_pause">0</property>
    <property name="mlt_service">avformat-novalidate</property>
    <property name="seekable">1</property>
    <property name="aspect_ratio">1</property>
    <property name="creation_time">2021-02-02T09:45:51</property>
    <property name="global_feed">1</property>
    <property name="xml">was here</property>
    <property name="shotcut:hash">719b5cea19fbbb3472a08b1390fb7204</property>
    <property name="shotcut:caption">2021-02-02 16-19-05.mkv</property>
    <filter id="filter72" in="00:03:39.067" out="00:03:40.767">
      <property name="window">75</property>
      <property name="max_gain">20dB</property>
      <property name="level">14.4</property>
      <property name="mlt_service">volume</property>
    </filter>
  </producer>
  <producer id="producer78" in="00:00:00.000" out="00:26:43.500">
    <property name="length">00:26:43.517</property>
    <property name="eof">pause</property>
    <property name="resource">C:/Users/Sahid/Videos/QGIS Basic/6_Layouting/2021-02-02 16-19-05.mkv</property>
    <property name="audio_index">1</property>
    <property name="video_index">0</property>
    <property name="mute_on_pause">0</property>
    <property name="mlt_service">avformat-novalidate</property>
    <property name="seekable">1</property>
    <property name="aspect_ratio">1</property>
    <property name="creation_time">2021-02-02T09:45:51</property>
    <property name="global_feed">1</property>
    <property name="xml">was here</property>
    <property name="shotcut:hash">719b5cea19fbbb3472a08b1390fb7204</property>
    <property name="shotcut:caption">2021-02-02 16-19-05.mkv</property>
    <filter id="filter73" in="00:03:41.133" out="00:03:42.933">
      <property name="window">75</property>
      <property name="max_gain">20dB</property>
      <property name="level">14.4</property>
      <property name="mlt_service">volume</property>
    </filter>
  </producer>
  <producer id="producer79" in="00:00:00.000" out="00:26:43.500">
    <property name="length">00:26:43.517</property>
    <property name="eof">pause</property>
    <property name="resource">C:/Users/Sahid/Videos/QGIS Basic/6_Layouting/2021-02-02 16-19-05.mkv</property>
    <property name="audio_index">1</property>
    <property name="video_index">0</property>
    <property name="mute_on_pause">0</property>
    <property name="mlt_service">avformat-novalidate</property>
    <property name="seekable">1</property>
    <property name="aspect_ratio">1</property>
    <property name="creation_time">2021-02-02T09:45:51</property>
    <property name="global_feed">1</property>
    <property name="xml">was here</property>
    <property name="shotcut:hash">719b5cea19fbbb3472a08b1390fb7204</property>
    <property name="shotcut:caption">2021-02-02 16-19-05.mkv</property>
    <filter id="filter74" in="00:03:43.317" out="00:03:46.267">
      <property name="window">75</property>
      <property name="max_gain">20dB</property>
      <property name="level">14.4</property>
      <property name="mlt_service">volume</property>
    </filter>
  </producer>
  <producer id="producer80" in="00:00:00.000" out="00:26:43.500">
    <property name="length">00:26:43.517</property>
    <property name="eof">pause</property>
    <property name="resource">C:/Users/Sahid/Videos/QGIS Basic/6_Layouting/2021-02-02 16-19-05.mkv</property>
    <property name="audio_index">1</property>
    <property name="video_index">0</property>
    <property name="mute_on_pause">0</property>
    <property name="mlt_service">avformat-novalidate</property>
    <property name="seekable">1</property>
    <property name="aspect_ratio">1</property>
    <property name="creation_time">2021-02-02T09:45:51</property>
    <property name="global_feed">1</property>
    <property name="xml">was here</property>
    <property name="shotcut:hash">719b5cea19fbbb3472a08b1390fb7204</property>
    <property name="shotcut:caption">2021-02-02 16-19-05.mkv</property>
    <filter id="filter75" in="00:03:46.417" out="00:03:47.800">
      <property name="window">75</property>
      <property name="max_gain">20dB</property>
      <property name="level">14.4</property>
      <property name="mlt_service">volume</property>
    </filter>
  </producer>
  <producer id="producer81" in="00:00:00.000" out="00:26:43.500">
    <property name="length">00:26:43.517</property>
    <property name="eof">pause</property>
    <property name="resource">C:/Users/Sahid/Videos/QGIS Basic/6_Layouting/2021-02-02 16-19-05.mkv</property>
    <property name="audio_index">1</property>
    <property name="video_index">0</property>
    <property name="mute_on_pause">0</property>
    <property name="mlt_service">avformat-novalidate</property>
    <property name="seekable">1</property>
    <property name="aspect_ratio">1</property>
    <property name="creation_time">2021-02-02T09:45:51</property>
    <property name="global_feed">1</property>
    <property name="xml">was here</property>
    <property name="shotcut:hash">719b5cea19fbbb3472a08b1390fb7204</property>
    <property name="shotcut:caption">2021-02-02 16-19-05.mkv</property>
    <filter id="filter76" in="00:03:49.167" out="00:03:49.767">
      <property name="window">75</property>
      <property name="max_gain">20dB</property>
      <property name="level">14.4</property>
      <property name="mlt_service">volume</property>
    </filter>
  </producer>
  <producer id="producer82" in="00:00:00.000" out="00:26:43.500">
    <property name="length">00:26:43.517</property>
    <property name="eof">pause</property>
    <property name="resource">C:/Users/Sahid/Videos/QGIS Basic/6_Layouting/2021-02-02 16-19-05.mkv</property>
    <property name="audio_index">1</property>
    <property name="video_index">0</property>
    <property name="mute_on_pause">0</property>
    <property name="mlt_service">avformat-novalidate</property>
    <property name="seekable">1</property>
    <property name="aspect_ratio">1</property>
    <property name="creation_time">2021-02-02T09:45:51</property>
    <property name="global_feed">1</property>
    <property name="xml">was here</property>
    <property name="shotcut:hash">719b5cea19fbbb3472a08b1390fb7204</property>
    <property name="shotcut:caption">2021-02-02 16-19-05.mkv</property>
    <filter id="filter77" in="00:03:55.150" out="00:03:56.017">
      <property name="window">75</property>
      <property name="max_gain">20dB</property>
      <property name="level">14.4</property>
      <property name="mlt_service">volume</property>
    </filter>
  </producer>
  <producer id="producer83" in="00:00:00.000" out="00:26:43.500">
    <property name="length">00:26:43.517</property>
    <property name="eof">pause</property>
    <property name="resource">C:/Users/Sahid/Videos/QGIS Basic/6_Layouting/2021-02-02 16-19-05.mkv</property>
    <property name="audio_index">1</property>
    <property name="video_index">0</property>
    <property name="mute_on_pause">0</property>
    <property name="mlt_service">avformat-novalidate</property>
    <property name="seekable">1</property>
    <property name="aspect_ratio">1</property>
    <property name="creation_time">2021-02-02T09:45:51</property>
    <property name="global_feed">1</property>
    <property name="xml">was here</property>
    <property name="shotcut:hash">719b5cea19fbbb3472a08b1390fb7204</property>
    <property name="shotcut:caption">2021-02-02 16-19-05.mkv</property>
    <filter id="filter78" in="00:04:03.467" out="00:04:08.200">
      <property name="window">75</property>
      <property name="max_gain">20dB</property>
      <property name="level">14.4</property>
      <property name="mlt_service">volume</property>
    </filter>
  </producer>
  <producer id="producer84" in="00:00:00.000" out="00:26:43.500">
    <property name="length">00:26:43.517</property>
    <property name="eof">pause</property>
    <property name="resource">C:/Users/Sahid/Videos/QGIS Basic/6_Layouting/2021-02-02 16-19-05.mkv</property>
    <property name="audio_index">1</property>
    <property name="video_index">0</property>
    <property name="mute_on_pause">0</property>
    <property name="mlt_service">avformat-novalidate</property>
    <property name="seekable">1</property>
    <property name="aspect_ratio">1</property>
    <property name="creation_time">2021-02-02T09:45:51</property>
    <property name="global_feed">1</property>
    <property name="xml">was here</property>
    <property name="shotcut:hash">719b5cea19fbbb3472a08b1390fb7204</property>
    <property name="shotcut:caption">2021-02-02 16-19-05.mkv</property>
    <filter id="filter79" in="00:04:12.517" out="00:04:14.717">
      <property name="window">75</property>
      <property name="max_gain">20dB</property>
      <property name="level">14.4</property>
      <property name="mlt_service">volume</property>
    </filter>
  </producer>
  <producer id="producer85" in="00:00:00.000" out="00:26:43.500">
    <property name="length">00:26:43.517</property>
    <property name="eof">pause</property>
    <property name="resource">C:/Users/Sahid/Videos/QGIS Basic/6_Layouting/2021-02-02 16-19-05.mkv</property>
    <property name="audio_index">1</property>
    <property name="video_index">0</property>
    <property name="mute_on_pause">0</property>
    <property name="mlt_service">avformat-novalidate</property>
    <property name="seekable">1</property>
    <property name="aspect_ratio">1</property>
    <property name="creation_time">2021-02-02T09:45:51</property>
    <property name="global_feed">1</property>
    <property name="xml">was here</property>
    <property name="shotcut:hash">719b5cea19fbbb3472a08b1390fb7204</property>
    <property name="shotcut:caption">2021-02-02 16-19-05.mkv</property>
    <filter id="filter80" in="00:04:15.833" out="00:04:19.050">
      <property name="window">75</property>
      <property name="max_gain">20dB</property>
      <property name="level">14.4</property>
      <property name="mlt_service">volume</property>
    </filter>
  </producer>
  <producer id="producer86" in="00:00:00.000" out="00:26:43.500">
    <property name="length">00:26:43.517</property>
    <property name="eof">pause</property>
    <property name="resource">C:/Users/Sahid/Videos/QGIS Basic/6_Layouting/2021-02-02 16-19-05.mkv</property>
    <property name="audio_index">1</property>
    <property name="video_index">0</property>
    <property name="mute_on_pause">0</property>
    <property name="mlt_service">avformat-novalidate</property>
    <property name="seekable">1</property>
    <property name="aspect_ratio">1</property>
    <property name="creation_time">2021-02-02T09:45:51</property>
    <property name="global_feed">1</property>
    <property name="xml">was here</property>
    <property name="shotcut:hash">719b5cea19fbbb3472a08b1390fb7204</property>
    <property name="shotcut:caption">2021-02-02 16-19-05.mkv</property>
    <filter id="filter81" in="00:04:19.867" out="00:04:26.717">
      <property name="window">75</property>
      <property name="max_gain">20dB</property>
      <property name="level">14.4</property>
      <property name="mlt_service">volume</property>
    </filter>
  </producer>
  <producer id="producer87" in="00:00:00.000" out="00:26:43.500">
    <property name="length">00:26:43.517</property>
    <property name="eof">pause</property>
    <property name="resource">C:/Users/Sahid/Videos/QGIS Basic/6_Layouting/2021-02-02 16-19-05.mkv</property>
    <property name="audio_index">1</property>
    <property name="video_index">0</property>
    <property name="mute_on_pause">0</property>
    <property name="mlt_service">avformat-novalidate</property>
    <property name="seekable">1</property>
    <property name="aspect_ratio">1</property>
    <property name="creation_time">2021-02-02T09:45:51</property>
    <property name="global_feed">1</property>
    <property name="xml">was here</property>
    <property name="shotcut:hash">719b5cea19fbbb3472a08b1390fb7204</property>
    <property name="shotcut:caption">2021-02-02 16-19-05.mkv</property>
    <filter id="filter82" in="00:04:27.483" out="00:04:29.117">
      <property name="window">75</property>
      <property name="max_gain">20dB</property>
      <property name="level">14.4</property>
      <property name="mlt_service">volume</property>
    </filter>
  </producer>
  <producer id="producer88" in="00:00:00.000" out="00:26:43.500">
    <property name="length">00:26:43.517</property>
    <property name="eof">pause</property>
    <property name="resource">C:/Users/Sahid/Videos/QGIS Basic/6_Layouting/2021-02-02 16-19-05.mkv</property>
    <property name="audio_index">1</property>
    <property name="video_index">0</property>
    <property name="mute_on_pause">0</property>
    <property name="mlt_service">avformat-novalidate</property>
    <property name="seekable">1</property>
    <property name="aspect_ratio">1</property>
    <property name="creation_time">2021-02-02T09:45:51</property>
    <property name="global_feed">1</property>
    <property name="xml">was here</property>
    <property name="shotcut:hash">719b5cea19fbbb3472a08b1390fb7204</property>
    <property name="shotcut:caption">2021-02-02 16-19-05.mkv</property>
    <filter id="filter83" in="00:04:30.317" out="00:04:33.283">
      <property name="window">75</property>
      <property name="max_gain">20dB</property>
      <property name="level">14.4</property>
      <property name="mlt_service">volume</property>
    </filter>
  </producer>
  <producer id="producer89" in="00:00:00.000" out="00:26:43.500">
    <property name="length">00:26:43.517</property>
    <property name="eof">pause</property>
    <property name="resource">C:/Users/Sahid/Videos/QGIS Basic/6_Layouting/2021-02-02 16-19-05.mkv</property>
    <property name="audio_index">1</property>
    <property name="video_index">0</property>
    <property name="mute_on_pause">0</property>
    <property name="mlt_service">avformat-novalidate</property>
    <property name="seekable">1</property>
    <property name="aspect_ratio">1</property>
    <property name="creation_time">2021-02-02T09:45:51</property>
    <property name="global_feed">1</property>
    <property name="xml">was here</property>
    <property name="shotcut:hash">719b5cea19fbbb3472a08b1390fb7204</property>
    <property name="shotcut:caption">2021-02-02 16-19-05.mkv</property>
    <filter id="filter84" in="00:04:33.833" out="00:04:36.583">
      <property name="window">75</property>
      <property name="max_gain">20dB</property>
      <property name="level">14.4</property>
      <property name="mlt_service">volume</property>
    </filter>
  </producer>
  <producer id="producer90" in="00:00:00.000" out="00:26:43.500">
    <property name="length">00:26:43.517</property>
    <property name="eof">pause</property>
    <property name="resource">C:/Users/Sahid/Videos/QGIS Basic/6_Layouting/2021-02-02 16-19-05.mkv</property>
    <property name="audio_index">1</property>
    <property name="video_index">0</property>
    <property name="mute_on_pause">0</property>
    <property name="mlt_service">avformat-novalidate</property>
    <property name="seekable">1</property>
    <property name="aspect_ratio">1</property>
    <property name="creation_time">2021-02-02T09:45:51</property>
    <property name="global_feed">1</property>
    <property name="xml">was here</property>
    <property name="shotcut:hash">719b5cea19fbbb3472a08b1390fb7204</property>
    <property name="shotcut:caption">2021-02-02 16-19-05.mkv</property>
    <filter id="filter85" in="00:04:37.250" out="00:04:41.533">
      <property name="window">75</property>
      <property name="max_gain">20dB</property>
      <property name="level">14.4</property>
      <property name="mlt_service">volume</property>
    </filter>
  </producer>
  <producer id="producer91" in="00:00:00.000" out="00:26:43.500">
    <property name="length">00:26:43.517</property>
    <property name="eof">pause</property>
    <property name="resource">C:/Users/Sahid/Videos/QGIS Basic/6_Layouting/2021-02-02 16-19-05.mkv</property>
    <property name="audio_index">1</property>
    <property name="video_index">0</property>
    <property name="mute_on_pause">0</property>
    <property name="mlt_service">avformat-novalidate</property>
    <property name="seekable">1</property>
    <property name="aspect_ratio">1</property>
    <property name="creation_time">2021-02-02T09:45:51</property>
    <property name="global_feed">1</property>
    <property name="xml">was here</property>
    <property name="shotcut:hash">719b5cea19fbbb3472a08b1390fb7204</property>
    <property name="shotcut:caption">2021-02-02 16-19-05.mkv</property>
    <filter id="filter86" in="00:04:42.083" out="00:04:46.767">
      <property name="window">75</property>
      <property name="max_gain">20dB</property>
      <property name="level">14.4</property>
      <property name="mlt_service">volume</property>
    </filter>
  </producer>
  <producer id="producer92" in="00:00:00.000" out="00:26:43.500">
    <property name="length">00:26:43.517</property>
    <property name="eof">pause</property>
    <property name="resource">C:/Users/Sahid/Videos/QGIS Basic/6_Layouting/2021-02-02 16-19-05.mkv</property>
    <property name="audio_index">1</property>
    <property name="video_index">0</property>
    <property name="mute_on_pause">0</property>
    <property name="mlt_service">avformat-novalidate</property>
    <property name="seekable">1</property>
    <property name="aspect_ratio">1</property>
    <property name="creation_time">2021-02-02T09:45:51</property>
    <property name="global_feed">1</property>
    <property name="xml">was here</property>
    <property name="shotcut:hash">719b5cea19fbbb3472a08b1390fb7204</property>
    <property name="shotcut:caption">2021-02-02 16-19-05.mkv</property>
    <filter id="filter87" in="00:04:47.333" out="00:04:48.933">
      <property name="window">75</property>
      <property name="max_gain">20dB</property>
      <property name="level">14.4</property>
      <property name="mlt_service">volume</property>
    </filter>
  </producer>
  <producer id="producer93" in="00:00:00.000" out="00:26:43.500">
    <property name="length">00:26:43.517</property>
    <property name="eof">pause</property>
    <property name="resource">C:/Users/Sahid/Videos/QGIS Basic/6_Layouting/2021-02-02 16-19-05.mkv</property>
    <property name="audio_index">1</property>
    <property name="video_index">0</property>
    <property name="mute_on_pause">0</property>
    <property name="mlt_service">avformat-novalidate</property>
    <property name="seekable">1</property>
    <property name="aspect_ratio">1</property>
    <property name="creation_time">2021-02-02T09:45:51</property>
    <property name="global_feed">1</property>
    <property name="xml">was here</property>
    <property name="shotcut:hash">719b5cea19fbbb3472a08b1390fb7204</property>
    <property name="shotcut:caption">2021-02-02 16-19-05.mkv</property>
    <filter id="filter88" in="00:04:49.450" out="00:04:50.717">
      <property name="window">75</property>
      <property name="max_gain">20dB</property>
      <property name="level">14.4</property>
      <property name="mlt_service">volume</property>
    </filter>
  </producer>
  <producer id="producer94" in="00:00:00.000" out="00:26:43.500">
    <property name="length">00:26:43.517</property>
    <property name="eof">pause</property>
    <property name="resource">C:/Users/Sahid/Videos/QGIS Basic/6_Layouting/2021-02-02 16-19-05.mkv</property>
    <property name="audio_index">1</property>
    <property name="video_index">0</property>
    <property name="mute_on_pause">0</property>
    <property name="mlt_service">avformat-novalidate</property>
    <property name="seekable">1</property>
    <property name="aspect_ratio">1</property>
    <property name="creation_time">2021-02-02T09:45:51</property>
    <property name="global_feed">1</property>
    <property name="xml">was here</property>
    <property name="shotcut:hash">719b5cea19fbbb3472a08b1390fb7204</property>
    <property name="shotcut:caption">2021-02-02 16-19-05.mkv</property>
    <filter id="filter89" in="00:04:51.200" out="00:04:52.883">
      <property name="window">75</property>
      <property name="max_gain">20dB</property>
      <property name="level">14.4</property>
      <property name="mlt_service">volume</property>
    </filter>
  </producer>
  <producer id="producer95" in="00:00:00.000" out="00:26:43.500">
    <property name="length">00:26:43.517</property>
    <property name="eof">pause</property>
    <property name="resource">C:/Users/Sahid/Videos/QGIS Basic/6_Layouting/2021-02-02 16-19-05.mkv</property>
    <property name="audio_index">1</property>
    <property name="video_index">0</property>
    <property name="mute_on_pause">0</property>
    <property name="mlt_service">avformat-novalidate</property>
    <property name="seekable">1</property>
    <property name="aspect_ratio">1</property>
    <property name="creation_time">2021-02-02T09:45:51</property>
    <property name="global_feed">1</property>
    <property name="xml">was here</property>
    <property name="shotcut:hash">719b5cea19fbbb3472a08b1390fb7204</property>
    <property name="shotcut:caption">2021-02-02 16-19-05.mkv</property>
    <filter id="filter90" in="00:04:53.317" out="00:04:54.917">
      <property name="window">75</property>
      <property name="max_gain">20dB</property>
      <property name="level">14.4</property>
      <property name="mlt_service">volume</property>
    </filter>
  </producer>
  <producer id="producer96" in="00:00:00.000" out="00:26:43.500">
    <property name="length">00:26:43.517</property>
    <property name="eof">pause</property>
    <property name="resource">C:/Users/Sahid/Videos/QGIS Basic/6_Layouting/2021-02-02 16-19-05.mkv</property>
    <property name="audio_index">1</property>
    <property name="video_index">0</property>
    <property name="mute_on_pause">0</property>
    <property name="mlt_service">avformat-novalidate</property>
    <property name="seekable">1</property>
    <property name="aspect_ratio">1</property>
    <property name="creation_time">2021-02-02T09:45:51</property>
    <property name="global_feed">1</property>
    <property name="xml">was here</property>
    <property name="shotcut:hash">719b5cea19fbbb3472a08b1390fb7204</property>
    <property name="shotcut:caption">2021-02-02 16-19-05.mkv</property>
    <filter id="filter91" in="00:04:55.217" out="00:04:55.883">
      <property name="window">75</property>
      <property name="max_gain">20dB</property>
      <property name="level">14.4</property>
      <property name="mlt_service">volume</property>
    </filter>
  </producer>
  <producer id="producer97" in="00:00:00.000" out="00:26:43.500">
    <property name="length">00:26:43.517</property>
    <property name="eof">pause</property>
    <property name="resource">C:/Users/Sahid/Videos/QGIS Basic/6_Layouting/2021-02-02 16-19-05.mkv</property>
    <property name="audio_index">1</property>
    <property name="video_index">0</property>
    <property name="mute_on_pause">0</property>
    <property name="mlt_service">avformat-novalidate</property>
    <property name="seekable">1</property>
    <property name="aspect_ratio">1</property>
    <property name="creation_time">2021-02-02T09:45:51</property>
    <property name="global_feed">1</property>
    <property name="xml">was here</property>
    <property name="shotcut:hash">719b5cea19fbbb3472a08b1390fb7204</property>
    <property name="shotcut:caption">2021-02-02 16-19-05.mkv</property>
    <filter id="filter92" in="00:04:57.117" out="00:04:58.333">
      <property name="window">75</property>
      <property name="max_gain">20dB</property>
      <property name="level">14.4</property>
      <property name="mlt_service">volume</property>
    </filter>
  </producer>
  <producer id="producer98" in="00:00:00.000" out="00:26:43.500">
    <property name="length">00:26:43.517</property>
    <property name="eof">pause</property>
    <property name="resource">C:/Users/Sahid/Videos/QGIS Basic/6_Layouting/2021-02-02 16-19-05.mkv</property>
    <property name="audio_index">1</property>
    <property name="video_index">0</property>
    <property name="mute_on_pause">0</property>
    <property name="mlt_service">avformat-novalidate</property>
    <property name="seekable">1</property>
    <property name="aspect_ratio">1</property>
    <property name="creation_time">2021-02-02T09:45:51</property>
    <property name="global_feed">1</property>
    <property name="xml">was here</property>
    <property name="shotcut:hash">719b5cea19fbbb3472a08b1390fb7204</property>
    <property name="shotcut:caption">2021-02-02 16-19-05.mkv</property>
    <filter id="filter93" in="00:04:58.967" out="00:05:01.250">
      <property name="window">75</property>
      <property name="max_gain">20dB</property>
      <property name="level">14.4</property>
      <property name="mlt_service">volume</property>
    </filter>
  </producer>
  <producer id="producer99" in="00:00:00.000" out="00:26:43.500">
    <property name="length">00:26:43.517</property>
    <property name="eof">pause</property>
    <property name="resource">C:/Users/Sahid/Videos/QGIS Basic/6_Layouting/2021-02-02 16-19-05.mkv</property>
    <property name="audio_index">1</property>
    <property name="video_index">0</property>
    <property name="mute_on_pause">0</property>
    <property name="mlt_service">avformat-novalidate</property>
    <property name="seekable">1</property>
    <property name="aspect_ratio">1</property>
    <property name="creation_time">2021-02-02T09:45:51</property>
    <property name="global_feed">1</property>
    <property name="xml">was here</property>
    <property name="shotcut:hash">719b5cea19fbbb3472a08b1390fb7204</property>
    <property name="shotcut:caption">2021-02-02 16-19-05.mkv</property>
    <filter id="filter94" in="00:05:02.167" out="00:05:03.850">
      <property name="window">75</property>
      <property name="max_gain">20dB</property>
      <property name="level">14.4</property>
      <property name="mlt_service">volume</property>
    </filter>
  </producer>
  <producer id="producer100" in="00:00:00.000" out="00:26:43.500">
    <property name="length">00:26:43.517</property>
    <property name="eof">pause</property>
    <property name="resource">C:/Users/Sahid/Videos/QGIS Basic/6_Layouting/2021-02-02 16-19-05.mkv</property>
    <property name="audio_index">1</property>
    <property name="video_index">0</property>
    <property name="mute_on_pause">0</property>
    <property name="mlt_service">avformat-novalidate</property>
    <property name="seekable">1</property>
    <property name="aspect_ratio">1</property>
    <property name="creation_time">2021-02-02T09:45:51</property>
    <property name="global_feed">1</property>
    <property name="xml">was here</property>
    <property name="shotcut:hash">719b5cea19fbbb3472a08b1390fb7204</property>
    <property name="shotcut:caption">2021-02-02 16-19-05.mkv</property>
    <filter id="filter95" in="00:05:04.517" out="00:05:08.050">
      <property name="window">75</property>
      <property name="max_gain">20dB</property>
      <property name="level">14.4</property>
      <property name="mlt_service">volume</property>
    </filter>
  </producer>
  <producer id="producer101" in="00:00:00.000" out="00:26:43.500">
    <property name="length">00:26:43.517</property>
    <property name="eof">pause</property>
    <property name="resource">C:/Users/Sahid/Videos/QGIS Basic/6_Layouting/2021-02-02 16-19-05.mkv</property>
    <property name="audio_index">1</property>
    <property name="video_index">0</property>
    <property name="mute_on_pause">0</property>
    <property name="mlt_service">avformat-novalidate</property>
    <property name="seekable">1</property>
    <property name="aspect_ratio">1</property>
    <property name="creation_time">2021-02-02T09:45:51</property>
    <property name="global_feed">1</property>
    <property name="xml">was here</property>
    <property name="shotcut:hash">719b5cea19fbbb3472a08b1390fb7204</property>
    <property name="shotcut:caption">2021-02-02 16-19-05.mkv</property>
    <filter id="filter96" in="00:05:08.850" out="00:05:11.367">
      <property name="window">75</property>
      <property name="max_gain">20dB</property>
      <property name="level">14.4</property>
      <property name="mlt_service">volume</property>
    </filter>
  </producer>
  <producer id="producer102" in="00:00:00.000" out="00:26:43.500">
    <property name="length">00:26:43.517</property>
    <property name="eof">pause</property>
    <property name="resource">C:/Users/Sahid/Videos/QGIS Basic/6_Layouting/2021-02-02 16-19-05.mkv</property>
    <property name="audio_index">1</property>
    <property name="video_index">0</property>
    <property name="mute_on_pause">0</property>
    <property name="mlt_service">avformat-novalidate</property>
    <property name="seekable">1</property>
    <property name="aspect_ratio">1</property>
    <property name="creation_time">2021-02-02T09:45:51</property>
    <property name="global_feed">1</property>
    <property name="xml">was here</property>
    <property name="shotcut:hash">719b5cea19fbbb3472a08b1390fb7204</property>
    <property name="shotcut:caption">2021-02-02 16-19-05.mkv</property>
    <filter id="filter97" in="00:05:12.183" out="00:05:16.300">
      <property name="window">75</property>
      <property name="max_gain">20dB</property>
      <property name="level">14.4</property>
      <property name="mlt_service">volume</property>
    </filter>
  </producer>
  <producer id="producer103" in="00:00:00.000" out="00:26:43.500">
    <property name="length">00:26:43.517</property>
    <property name="eof">pause</property>
    <property name="resource">C:/Users/Sahid/Videos/QGIS Basic/6_Layouting/2021-02-02 16-19-05.mkv</property>
    <property name="audio_index">1</property>
    <property name="video_index">0</property>
    <property name="mute_on_pause">0</property>
    <property name="mlt_service">avformat-novalidate</property>
    <property name="seekable">1</property>
    <property name="aspect_ratio">1</property>
    <property name="creation_time">2021-02-02T09:45:51</property>
    <property name="global_feed">1</property>
    <property name="xml">was here</property>
    <property name="shotcut:hash">719b5cea19fbbb3472a08b1390fb7204</property>
    <property name="shotcut:caption">2021-02-02 16-19-05.mkv</property>
    <filter id="filter98" in="00:05:16.983" out="00:05:23.600">
      <property name="window">75</property>
      <property name="max_gain">20dB</property>
      <property name="level">14.4</property>
      <property name="mlt_service">volume</property>
    </filter>
  </producer>
  <producer id="producer104" in="00:00:00.000" out="00:26:43.500">
    <property name="length">00:26:43.517</property>
    <property name="eof">pause</property>
    <property name="resource">C:/Users/Sahid/Videos/QGIS Basic/6_Layouting/2021-02-02 16-19-05.mkv</property>
    <property name="audio_index">1</property>
    <property name="video_index">0</property>
    <property name="mute_on_pause">0</property>
    <property name="mlt_service">avformat-novalidate</property>
    <property name="seekable">1</property>
    <property name="aspect_ratio">1</property>
    <property name="creation_time">2021-02-02T09:45:51</property>
    <property name="global_feed">1</property>
    <property name="xml">was here</property>
    <property name="shotcut:hash">719b5cea19fbbb3472a08b1390fb7204</property>
    <property name="shotcut:caption">2021-02-02 16-19-05.mkv</property>
    <filter id="filter99" in="00:05:24.233" out="00:05:26.200">
      <property name="window">75</property>
      <property name="max_gain">20dB</property>
      <property name="level">14.4</property>
      <property name="mlt_service">volume</property>
    </filter>
  </producer>
  <producer id="producer105" in="00:00:00.000" out="00:26:43.500">
    <property name="length">00:26:43.517</property>
    <property name="eof">pause</property>
    <property name="resource">C:/Users/Sahid/Videos/QGIS Basic/6_Layouting/2021-02-02 16-19-05.mkv</property>
    <property name="audio_index">1</property>
    <property name="video_index">0</property>
    <property name="mute_on_pause">0</property>
    <property name="mlt_service">avformat-novalidate</property>
    <property name="seekable">1</property>
    <property name="aspect_ratio">1</property>
    <property name="creation_time">2021-02-02T09:45:51</property>
    <property name="global_feed">1</property>
    <property name="xml">was here</property>
    <property name="shotcut:hash">719b5cea19fbbb3472a08b1390fb7204</property>
    <property name="shotcut:caption">2021-02-02 16-19-05.mkv</property>
    <filter id="filter100" in="00:05:26.633" out="00:05:35.000">
      <property name="window">75</property>
      <property name="max_gain">20dB</property>
      <property name="level">14.4</property>
      <property name="mlt_service">volume</property>
    </filter>
  </producer>
  <producer id="producer106" in="00:00:00.000" out="00:26:43.500">
    <property name="length">00:26:43.517</property>
    <property name="eof">pause</property>
    <property name="resource">C:/Users/Sahid/Videos/QGIS Basic/6_Layouting/2021-02-02 16-19-05.mkv</property>
    <property name="audio_index">1</property>
    <property name="video_index">0</property>
    <property name="mute_on_pause">0</property>
    <property name="mlt_service">avformat-novalidate</property>
    <property name="seekable">1</property>
    <property name="aspect_ratio">1</property>
    <property name="creation_time">2021-02-02T09:45:51</property>
    <property name="global_feed">1</property>
    <property name="xml">was here</property>
    <property name="shotcut:hash">719b5cea19fbbb3472a08b1390fb7204</property>
    <property name="shotcut:caption">2021-02-02 16-19-05.mkv</property>
    <filter id="filter101" in="00:05:35.733" out="00:05:37.267">
      <property name="window">75</property>
      <property name="max_gain">20dB</property>
      <property name="level">14.4</property>
      <property name="mlt_service">volume</property>
    </filter>
  </producer>
  <producer id="producer107" in="00:00:00.000" out="00:26:43.500">
    <property name="length">00:26:43.517</property>
    <property name="eof">pause</property>
    <property name="resource">C:/Users/Sahid/Videos/QGIS Basic/6_Layouting/2021-02-02 16-19-05.mkv</property>
    <property name="audio_index">1</property>
    <property name="video_index">0</property>
    <property name="mute_on_pause">0</property>
    <property name="mlt_service">avformat-novalidate</property>
    <property name="seekable">1</property>
    <property name="aspect_ratio">1</property>
    <property name="creation_time">2021-02-02T09:45:51</property>
    <property name="global_feed">1</property>
    <property name="xml">was here</property>
    <property name="shotcut:hash">719b5cea19fbbb3472a08b1390fb7204</property>
    <property name="shotcut:caption">2021-02-02 16-19-05.mkv</property>
    <filter id="filter102" in="00:05:38.200" out="00:05:40.300">
      <property name="window">75</property>
      <property name="max_gain">20dB</property>
      <property name="level">14.4</property>
      <property name="mlt_service">volume</property>
    </filter>
  </producer>
  <producer id="producer108" in="00:00:00.000" out="00:26:43.500">
    <property name="length">00:26:43.517</property>
    <property name="eof">pause</property>
    <property name="resource">C:/Users/Sahid/Videos/QGIS Basic/6_Layouting/2021-02-02 16-19-05.mkv</property>
    <property name="audio_index">1</property>
    <property name="video_index">0</property>
    <property name="mute_on_pause">0</property>
    <property name="mlt_service">avformat-novalidate</property>
    <property name="seekable">1</property>
    <property name="aspect_ratio">1</property>
    <property name="creation_time">2021-02-02T09:45:51</property>
    <property name="global_feed">1</property>
    <property name="xml">was here</property>
    <property name="shotcut:hash">719b5cea19fbbb3472a08b1390fb7204</property>
    <property name="shotcut:caption">2021-02-02 16-19-05.mkv</property>
    <filter id="filter103" in="00:06:15.233" out="00:06:18.567">
      <property name="window">75</property>
      <property name="max_gain">20dB</property>
      <property name="level">14.4</property>
      <property name="mlt_service">volume</property>
    </filter>
  </producer>
  <producer id="producer109" in="00:00:00.000" out="00:26:43.500">
    <property name="length">00:26:43.517</property>
    <property name="eof">pause</property>
    <property name="resource">C:/Users/Sahid/Videos/QGIS Basic/6_Layouting/2021-02-02 16-19-05.mkv</property>
    <property name="audio_index">1</property>
    <property name="video_index">0</property>
    <property name="mute_on_pause">0</property>
    <property name="mlt_service">avformat-novalidate</property>
    <property name="seekable">1</property>
    <property name="aspect_ratio">1</property>
    <property name="creation_time">2021-02-02T09:45:51</property>
    <property name="global_feed">1</property>
    <property name="xml">was here</property>
    <property name="shotcut:hash">719b5cea19fbbb3472a08b1390fb7204</property>
    <property name="shotcut:caption">2021-02-02 16-19-05.mkv</property>
    <filter id="filter104" in="00:06:19.250" out="00:06:20.367">
      <property name="window">75</property>
      <property name="max_gain">20dB</property>
      <property name="level">14.4</property>
      <property name="mlt_service">volume</property>
    </filter>
  </producer>
  <producer id="producer110" in="00:00:00.000" out="00:26:43.500">
    <property name="length">00:26:43.517</property>
    <property name="eof">pause</property>
    <property name="resource">C:/Users/Sahid/Videos/QGIS Basic/6_Layouting/2021-02-02 16-19-05.mkv</property>
    <property name="audio_index">1</property>
    <property name="video_index">0</property>
    <property name="mute_on_pause">0</property>
    <property name="mlt_service">avformat-novalidate</property>
    <property name="seekable">1</property>
    <property name="aspect_ratio">1</property>
    <property name="creation_time">2021-02-02T09:45:51</property>
    <property name="global_feed">1</property>
    <property name="xml">was here</property>
    <property name="shotcut:hash">719b5cea19fbbb3472a08b1390fb7204</property>
    <property name="shotcut:caption">2021-02-02 16-19-05.mkv</property>
    <filter id="filter105" in="00:06:21.000" out="00:06:24.650">
      <property name="window">75</property>
      <property name="max_gain">20dB</property>
      <property name="level">14.4</property>
      <property name="mlt_service">volume</property>
    </filter>
  </producer>
  <producer id="producer111" in="00:00:00.000" out="00:26:43.500">
    <property name="length">00:26:43.517</property>
    <property name="eof">pause</property>
    <property name="resource">C:/Users/Sahid/Videos/QGIS Basic/6_Layouting/2021-02-02 16-19-05.mkv</property>
    <property name="audio_index">1</property>
    <property name="video_index">0</property>
    <property name="mute_on_pause">0</property>
    <property name="mlt_service">avformat-novalidate</property>
    <property name="seekable">1</property>
    <property name="aspect_ratio">1</property>
    <property name="creation_time">2021-02-02T09:45:51</property>
    <property name="global_feed">1</property>
    <property name="xml">was here</property>
    <property name="shotcut:hash">719b5cea19fbbb3472a08b1390fb7204</property>
    <property name="shotcut:caption">2021-02-02 16-19-05.mkv</property>
    <filter id="filter106" in="00:06:25.550" out="00:06:28.050">
      <property name="window">75</property>
      <property name="max_gain">20dB</property>
      <property name="level">14.4</property>
      <property name="mlt_service">volume</property>
    </filter>
  </producer>
  <producer id="producer112" in="00:00:00.000" out="00:26:43.500">
    <property name="length">00:26:43.517</property>
    <property name="eof">pause</property>
    <property name="resource">C:/Users/Sahid/Videos/QGIS Basic/6_Layouting/2021-02-02 16-19-05.mkv</property>
    <property name="audio_index">1</property>
    <property name="video_index">0</property>
    <property name="mute_on_pause">0</property>
    <property name="mlt_service">avformat-novalidate</property>
    <property name="seekable">1</property>
    <property name="aspect_ratio">1</property>
    <property name="creation_time">2021-02-02T09:45:51</property>
    <property name="global_feed">1</property>
    <property name="xml">was here</property>
    <property name="shotcut:hash">719b5cea19fbbb3472a08b1390fb7204</property>
    <property name="shotcut:caption">2021-02-02 16-19-05.mkv</property>
    <filter id="filter107" in="00:06:28.883" out="00:06:30.017">
      <property name="window">75</property>
      <property name="max_gain">20dB</property>
      <property name="level">14.4</property>
      <property name="mlt_service">volume</property>
    </filter>
  </producer>
  <producer id="producer113" in="00:00:00.000" out="00:26:43.500">
    <property name="length">00:26:43.517</property>
    <property name="eof">pause</property>
    <property name="resource">C:/Users/Sahid/Videos/QGIS Basic/6_Layouting/2021-02-02 16-19-05.mkv</property>
    <property name="audio_index">1</property>
    <property name="video_index">0</property>
    <property name="mute_on_pause">0</property>
    <property name="mlt_service">avformat-novalidate</property>
    <property name="seekable">1</property>
    <property name="aspect_ratio">1</property>
    <property name="creation_time">2021-02-02T09:45:51</property>
    <property name="global_feed">1</property>
    <property name="xml">was here</property>
    <property name="shotcut:hash">719b5cea19fbbb3472a08b1390fb7204</property>
    <property name="shotcut:caption">2021-02-02 16-19-05.mkv</property>
    <filter id="filter108" in="00:06:30.933" out="00:06:35.483">
      <property name="window">75</property>
      <property name="max_gain">20dB</property>
      <property name="level">14.4</property>
      <property name="mlt_service">volume</property>
    </filter>
  </producer>
  <producer id="producer114" in="00:00:00.000" out="00:26:43.500">
    <property name="length">00:26:43.517</property>
    <property name="eof">pause</property>
    <property name="resource">C:/Users/Sahid/Videos/QGIS Basic/6_Layouting/2021-02-02 16-19-05.mkv</property>
    <property name="audio_index">1</property>
    <property name="video_index">0</property>
    <property name="mute_on_pause">0</property>
    <property name="mlt_service">avformat-novalidate</property>
    <property name="seekable">1</property>
    <property name="aspect_ratio">1</property>
    <property name="creation_time">2021-02-02T09:45:51</property>
    <property name="global_feed">1</property>
    <property name="xml">was here</property>
    <property name="shotcut:hash">719b5cea19fbbb3472a08b1390fb7204</property>
    <property name="shotcut:caption">2021-02-02 16-19-05.mkv</property>
    <filter id="filter109" in="00:06:35.983" out="00:06:36.833">
      <property name="window">75</property>
      <property name="max_gain">20dB</property>
      <property name="level">14.4</property>
      <property name="mlt_service">volume</property>
    </filter>
  </producer>
  <producer id="producer115" in="00:00:00.000" out="00:26:43.500">
    <property name="length">00:26:43.517</property>
    <property name="eof">pause</property>
    <property name="resource">C:/Users/Sahid/Videos/QGIS Basic/6_Layouting/2021-02-02 16-19-05.mkv</property>
    <property name="audio_index">1</property>
    <property name="video_index">0</property>
    <property name="mute_on_pause">0</property>
    <property name="mlt_service">avformat-novalidate</property>
    <property name="seekable">1</property>
    <property name="aspect_ratio">1</property>
    <property name="creation_time">2021-02-02T09:45:51</property>
    <property name="global_feed">1</property>
    <property name="xml">was here</property>
    <property name="shotcut:hash">719b5cea19fbbb3472a08b1390fb7204</property>
    <property name="shotcut:caption">2021-02-02 16-19-05.mkv</property>
    <filter id="filter110" in="00:06:37.100" out="00:06:39.850">
      <property name="window">75</property>
      <property name="max_gain">20dB</property>
      <property name="level">14.4</property>
      <property name="mlt_service">volume</property>
    </filter>
  </producer>
  <producer id="producer116" in="00:00:00.000" out="00:26:43.500">
    <property name="length">00:26:43.517</property>
    <property name="eof">pause</property>
    <property name="resource">C:/Users/Sahid/Videos/QGIS Basic/6_Layouting/2021-02-02 16-19-05.mkv</property>
    <property name="audio_index">1</property>
    <property name="video_index">0</property>
    <property name="mute_on_pause">0</property>
    <property name="mlt_service">avformat-novalidate</property>
    <property name="seekable">1</property>
    <property name="aspect_ratio">1</property>
    <property name="creation_time">2021-02-02T09:45:51</property>
    <property name="global_feed">1</property>
    <property name="xml">was here</property>
    <property name="shotcut:hash">719b5cea19fbbb3472a08b1390fb7204</property>
    <property name="shotcut:caption">2021-02-02 16-19-05.mkv</property>
    <filter id="filter111" in="00:06:40.350" out="00:06:42.483">
      <property name="window">75</property>
      <property name="max_gain">20dB</property>
      <property name="level">14.4</property>
      <property name="mlt_service">volume</property>
    </filter>
  </producer>
  <producer id="producer117" in="00:00:00.000" out="00:26:43.500">
    <property name="length">00:26:43.517</property>
    <property name="eof">pause</property>
    <property name="resource">C:/Users/Sahid/Videos/QGIS Basic/6_Layouting/2021-02-02 16-19-05.mkv</property>
    <property name="audio_index">1</property>
    <property name="video_index">0</property>
    <property name="mute_on_pause">0</property>
    <property name="mlt_service">avformat-novalidate</property>
    <property name="seekable">1</property>
    <property name="aspect_ratio">1</property>
    <property name="creation_time">2021-02-02T09:45:51</property>
    <property name="global_feed">1</property>
    <property name="xml">was here</property>
    <property name="shotcut:hash">719b5cea19fbbb3472a08b1390fb7204</property>
    <property name="shotcut:caption">2021-02-02 16-19-05.mkv</property>
    <filter id="filter112" in="00:06:43.783" out="00:06:44.233">
      <property name="window">75</property>
      <property name="max_gain">20dB</property>
      <property name="level">14.4</property>
      <property name="mlt_service">volume</property>
    </filter>
  </producer>
  <producer id="producer118" in="00:00:00.000" out="00:26:43.500">
    <property name="length">00:26:43.517</property>
    <property name="eof">pause</property>
    <property name="resource">C:/Users/Sahid/Videos/QGIS Basic/6_Layouting/2021-02-02 16-19-05.mkv</property>
    <property name="audio_index">1</property>
    <property name="video_index">0</property>
    <property name="mute_on_pause">0</property>
    <property name="mlt_service">avformat-novalidate</property>
    <property name="seekable">1</property>
    <property name="aspect_ratio">1</property>
    <property name="creation_time">2021-02-02T09:45:51</property>
    <property name="global_feed">1</property>
    <property name="xml">was here</property>
    <property name="shotcut:hash">719b5cea19fbbb3472a08b1390fb7204</property>
    <property name="shotcut:caption">2021-02-02 16-19-05.mkv</property>
    <filter id="filter113" in="00:06:44.700" out="00:06:47.133">
      <property name="window">75</property>
      <property name="max_gain">20dB</property>
      <property name="level">14.4</property>
      <property name="mlt_service">volume</property>
    </filter>
  </producer>
  <producer id="producer119" in="00:00:00.000" out="00:26:43.500">
    <property name="length">00:26:43.517</property>
    <property name="eof">pause</property>
    <property name="resource">C:/Users/Sahid/Videos/QGIS Basic/6_Layouting/2021-02-02 16-19-05.mkv</property>
    <property name="audio_index">1</property>
    <property name="video_index">0</property>
    <property name="mute_on_pause">0</property>
    <property name="mlt_service">avformat-novalidate</property>
    <property name="seekable">1</property>
    <property name="aspect_ratio">1</property>
    <property name="creation_time">2021-02-02T09:45:51</property>
    <property name="global_feed">1</property>
    <property name="xml">was here</property>
    <property name="shotcut:hash">719b5cea19fbbb3472a08b1390fb7204</property>
    <property name="shotcut:caption">2021-02-02 16-19-05.mkv</property>
    <filter id="filter114" in="00:06:47.650" out="00:06:49.750">
      <property name="window">75</property>
      <property name="max_gain">20dB</property>
      <property name="level">14.4</property>
      <property name="mlt_service">volume</property>
    </filter>
  </producer>
  <producer id="producer120" in="00:00:00.000" out="00:26:43.500">
    <property name="length">00:26:43.517</property>
    <property name="eof">pause</property>
    <property name="resource">C:/Users/Sahid/Videos/QGIS Basic/6_Layouting/2021-02-02 16-19-05.mkv</property>
    <property name="audio_index">1</property>
    <property name="video_index">0</property>
    <property name="mute_on_pause">0</property>
    <property name="mlt_service">avformat-novalidate</property>
    <property name="seekable">1</property>
    <property name="aspect_ratio">1</property>
    <property name="creation_time">2021-02-02T09:45:51</property>
    <property name="global_feed">1</property>
    <property name="xml">was here</property>
    <property name="shotcut:hash">719b5cea19fbbb3472a08b1390fb7204</property>
    <property name="shotcut:caption">2021-02-02 16-19-05.mkv</property>
    <filter id="filter115" in="00:07:05.350" out="00:07:08.217">
      <property name="window">75</property>
      <property name="max_gain">20dB</property>
      <property name="level">14.4</property>
      <property name="mlt_service">volume</property>
    </filter>
  </producer>
  <producer id="producer121" in="00:00:00.000" out="00:26:43.500">
    <property name="length">00:26:43.517</property>
    <property name="eof">pause</property>
    <property name="resource">C:/Users/Sahid/Videos/QGIS Basic/6_Layouting/2021-02-02 16-19-05.mkv</property>
    <property name="audio_index">1</property>
    <property name="video_index">0</property>
    <property name="mute_on_pause">0</property>
    <property name="mlt_service">avformat-novalidate</property>
    <property name="seekable">1</property>
    <property name="aspect_ratio">1</property>
    <property name="creation_time">2021-02-02T09:45:51</property>
    <property name="global_feed">1</property>
    <property name="xml">was here</property>
    <property name="shotcut:hash">719b5cea19fbbb3472a08b1390fb7204</property>
    <property name="shotcut:caption">2021-02-02 16-19-05.mkv</property>
    <filter id="filter116" in="00:07:08.683" out="00:07:11.450">
      <property name="window">75</property>
      <property name="max_gain">20dB</property>
      <property name="level">14.4</property>
      <property name="mlt_service">volume</property>
    </filter>
  </producer>
  <producer id="producer122" in="00:00:00.000" out="00:26:43.500">
    <property name="length">00:26:43.517</property>
    <property name="eof">pause</property>
    <property name="resource">C:/Users/Sahid/Videos/QGIS Basic/6_Layouting/2021-02-02 16-19-05.mkv</property>
    <property name="audio_index">1</property>
    <property name="video_index">0</property>
    <property name="mute_on_pause">0</property>
    <property name="mlt_service">avformat-novalidate</property>
    <property name="seekable">1</property>
    <property name="aspect_ratio">1</property>
    <property name="creation_time">2021-02-02T09:45:51</property>
    <property name="global_feed">1</property>
    <property name="xml">was here</property>
    <property name="shotcut:hash">719b5cea19fbbb3472a08b1390fb7204</property>
    <property name="shotcut:caption">2021-02-02 16-19-05.mkv</property>
    <filter id="filter117" in="00:07:11.883" out="00:07:14.633">
      <property name="window">75</property>
      <property name="max_gain">20dB</property>
      <property name="level">14.4</property>
      <property name="mlt_service">volume</property>
    </filter>
  </producer>
  <producer id="producer123" in="00:00:00.000" out="00:50:55.017">
    <property name="length">00:50:55.033</property>
    <property name="eof">pause</property>
    <property name="resource">C:/Users/Sahid/Videos/QGIS Basic/6_Layouting/2021-02-03 09-50-10.mkv</property>
    <property name="audio_index">1</property>
    <property name="video_index">0</property>
    <property name="mute_on_pause">0</property>
    <property name="mlt_service">avformat-novalidate</property>
    <property name="seekable">1</property>
    <property name="aspect_ratio">1</property>
    <property name="creation_time">2021-02-03T03:41:06</property>
    <property name="global_feed">1</property>
    <property name="xml">was here</property>
    <property name="shotcut:hash">8e392e48be4935f7d753048eef069fa1</property>
    <property name="shotcut:caption">2021-02-03 09-50-10.mkv</property>
    <filter id="filter118" in="00:00:15.667" out="00:00:21.817">
      <property name="window">75</property>
      <property name="max_gain">20dB</property>
      <property name="level">12</property>
      <property name="mlt_service">volume</property>
    </filter>
  </producer>
  <producer id="producer124" in="00:00:00.000" out="00:50:55.017">
    <property name="length">00:50:55.033</property>
    <property name="eof">pause</property>
    <property name="resource">C:/Users/Sahid/Videos/QGIS Basic/6_Layouting/2021-02-03 09-50-10.mkv</property>
    <property name="audio_index">1</property>
    <property name="video_index">0</property>
    <property name="mute_on_pause">0</property>
    <property name="mlt_service">avformat-novalidate</property>
    <property name="seekable">1</property>
    <property name="aspect_ratio">1</property>
    <property name="creation_time">2021-02-03T03:41:06</property>
    <property name="global_feed">1</property>
    <property name="xml">was here</property>
    <property name="shotcut:hash">8e392e48be4935f7d753048eef069fa1</property>
    <property name="shotcut:caption">2021-02-03 09-50-10.mkv</property>
    <filter id="filter119" in="00:00:22.750" out="00:00:27.350">
      <property name="window">75</property>
      <property name="max_gain">20dB</property>
      <property name="level">12</property>
      <property name="mlt_service">volume</property>
    </filter>
  </producer>
  <producer id="producer125" in="00:00:00.000" out="00:50:55.017">
    <property name="length">00:50:55.033</property>
    <property name="eof">pause</property>
    <property name="resource">C:/Users/Sahid/Videos/QGIS Basic/6_Layouting/2021-02-03 09-50-10.mkv</property>
    <property name="audio_index">1</property>
    <property name="video_index">0</property>
    <property name="mute_on_pause">0</property>
    <property name="mlt_service">avformat-novalidate</property>
    <property name="seekable">1</property>
    <property name="aspect_ratio">1</property>
    <property name="creation_time">2021-02-03T03:41:06</property>
    <property name="global_feed">1</property>
    <property name="xml">was here</property>
    <property name="shotcut:hash">8e392e48be4935f7d753048eef069fa1</property>
    <property name="shotcut:caption">2021-02-03 09-50-10.mkv</property>
    <filter id="filter120" in="00:00:27.817" out="00:00:33.750">
      <property name="window">75</property>
      <property name="max_gain">20dB</property>
      <property name="level">12</property>
      <property name="mlt_service">volume</property>
    </filter>
  </producer>
  <producer id="producer126" in="00:00:00.000" out="00:50:55.017">
    <property name="length">00:50:55.033</property>
    <property name="eof">pause</property>
    <property name="resource">C:/Users/Sahid/Videos/QGIS Basic/6_Layouting/2021-02-03 09-50-10.mkv</property>
    <property name="audio_index">1</property>
    <property name="video_index">0</property>
    <property name="mute_on_pause">0</property>
    <property name="mlt_service">avformat-novalidate</property>
    <property name="seekable">1</property>
    <property name="aspect_ratio">1</property>
    <property name="creation_time">2021-02-03T03:41:06</property>
    <property name="global_feed">1</property>
    <property name="xml">was here</property>
    <property name="shotcut:hash">8e392e48be4935f7d753048eef069fa1</property>
    <property name="shotcut:caption">2021-02-03 09-50-10.mkv</property>
    <filter id="filter121" in="00:00:34.383" out="00:00:39.300">
      <property name="window">75</property>
      <property name="max_gain">20dB</property>
      <property name="level">12</property>
      <property name="mlt_service">volume</property>
    </filter>
  </producer>
  <producer id="producer127" in="00:00:00.000" out="00:50:55.017">
    <property name="length">00:50:55.033</property>
    <property name="eof">pause</property>
    <property name="resource">C:/Users/Sahid/Videos/QGIS Basic/6_Layouting/2021-02-03 09-50-10.mkv</property>
    <property name="audio_index">1</property>
    <property name="video_index">0</property>
    <property name="mute_on_pause">0</property>
    <property name="mlt_service">avformat-novalidate</property>
    <property name="seekable">1</property>
    <property name="aspect_ratio">1</property>
    <property name="creation_time">2021-02-03T03:41:06</property>
    <property name="global_feed">1</property>
    <property name="xml">was here</property>
    <property name="shotcut:hash">8e392e48be4935f7d753048eef069fa1</property>
    <property name="shotcut:caption">2021-02-03 09-50-10.mkv</property>
    <filter id="filter122" in="00:00:39.933" out="00:00:41.700">
      <property name="window">75</property>
      <property name="max_gain">20dB</property>
      <property name="level">12</property>
      <property name="mlt_service">volume</property>
    </filter>
  </producer>
  <producer id="producer128" in="00:00:00.000" out="00:50:55.017">
    <property name="length">00:50:55.033</property>
    <property name="eof">pause</property>
    <property name="resource">C:/Users/Sahid/Videos/QGIS Basic/6_Layouting/2021-02-03 09-50-10.mkv</property>
    <property name="audio_index">1</property>
    <property name="video_index">0</property>
    <property name="mute_on_pause">0</property>
    <property name="mlt_service">avformat-novalidate</property>
    <property name="seekable">1</property>
    <property name="aspect_ratio">1</property>
    <property name="creation_time">2021-02-03T03:41:06</property>
    <property name="global_feed">1</property>
    <property name="xml">was here</property>
    <property name="shotcut:hash">8e392e48be4935f7d753048eef069fa1</property>
    <property name="shotcut:caption">2021-02-03 09-50-10.mkv</property>
    <filter id="filter123" in="00:00:45.283" out="00:00:47.583">
      <property name="window">75</property>
      <property name="max_gain">20dB</property>
      <property name="level">12</property>
      <property name="mlt_service">volume</property>
    </filter>
  </producer>
  <producer id="producer129" in="00:00:00.000" out="00:50:55.017">
    <property name="length">00:50:55.033</property>
    <property name="eof">pause</property>
    <property name="resource">C:/Users/Sahid/Videos/QGIS Basic/6_Layouting/2021-02-03 09-50-10.mkv</property>
    <property name="audio_index">1</property>
    <property name="video_index">0</property>
    <property name="mute_on_pause">0</property>
    <property name="mlt_service">avformat-novalidate</property>
    <property name="seekable">1</property>
    <property name="aspect_ratio">1</property>
    <property name="creation_time">2021-02-03T03:41:06</property>
    <property name="global_feed">1</property>
    <property name="xml">was here</property>
    <property name="shotcut:hash">8e392e48be4935f7d753048eef069fa1</property>
    <property name="shotcut:caption">2021-02-03 09-50-10.mkv</property>
    <filter id="filter124" in="00:00:49.067" out="00:00:54.250">
      <property name="window">75</property>
      <property name="max_gain">20dB</property>
      <property name="level">12</property>
      <property name="mlt_service">volume</property>
    </filter>
  </producer>
  <producer id="producer130" in="00:00:00.000" out="00:50:55.017">
    <property name="length">00:50:55.033</property>
    <property name="eof">pause</property>
    <property name="resource">C:/Users/Sahid/Videos/QGIS Basic/6_Layouting/2021-02-03 09-50-10.mkv</property>
    <property name="audio_index">1</property>
    <property name="video_index">0</property>
    <property name="mute_on_pause">0</property>
    <property name="mlt_service">avformat-novalidate</property>
    <property name="seekable">1</property>
    <property name="aspect_ratio">1</property>
    <property name="creation_time">2021-02-03T03:41:06</property>
    <property name="global_feed">1</property>
    <property name="xml">was here</property>
    <property name="shotcut:hash">8e392e48be4935f7d753048eef069fa1</property>
    <property name="shotcut:caption">2021-02-03 09-50-10.mkv</property>
    <filter id="filter125" in="00:00:54.950" out="00:00:59.667">
      <property name="window">75</property>
      <property name="max_gain">20dB</property>
      <property name="level">12</property>
      <property name="mlt_service">volume</property>
    </filter>
  </producer>
  <producer id="producer131" in="00:00:00.000" out="00:50:55.017">
    <property name="length">00:50:55.033</property>
    <property name="eof">pause</property>
    <property name="resource">C:/Users/Sahid/Videos/QGIS Basic/6_Layouting/2021-02-03 09-50-10.mkv</property>
    <property name="audio_index">1</property>
    <property name="video_index">0</property>
    <property name="mute_on_pause">0</property>
    <property name="mlt_service">avformat-novalidate</property>
    <property name="seekable">1</property>
    <property name="aspect_ratio">1</property>
    <property name="creation_time">2021-02-03T03:41:06</property>
    <property name="global_feed">1</property>
    <property name="xml">was here</property>
    <property name="shotcut:hash">8e392e48be4935f7d753048eef069fa1</property>
    <property name="shotcut:caption">2021-02-03 09-50-10.mkv</property>
    <filter id="filter126" in="00:01:00.567" out="00:01:02.433">
      <property name="window">75</property>
      <property name="max_gain">20dB</property>
      <property name="level">12</property>
      <property name="mlt_service">volume</property>
    </filter>
  </producer>
  <producer id="producer132" in="00:00:00.000" out="00:50:55.017">
    <property name="length">00:50:55.033</property>
    <property name="eof">pause</property>
    <property name="resource">C:/Users/Sahid/Videos/QGIS Basic/6_Layouting/2021-02-03 09-50-10.mkv</property>
    <property name="audio_index">1</property>
    <property name="video_index">0</property>
    <property name="mute_on_pause">0</property>
    <property name="mlt_service">avformat-novalidate</property>
    <property name="seekable">1</property>
    <property name="aspect_ratio">1</property>
    <property name="creation_time">2021-02-03T03:41:06</property>
    <property name="global_feed">1</property>
    <property name="xml">was here</property>
    <property name="shotcut:hash">8e392e48be4935f7d753048eef069fa1</property>
    <property name="shotcut:caption">2021-02-03 09-50-10.mkv</property>
    <filter id="filter127" in="00:01:13.833" out="00:01:15.367">
      <property name="window">75</property>
      <property name="max_gain">20dB</property>
      <property name="level">12</property>
      <property name="mlt_service">volume</property>
    </filter>
  </producer>
  <producer id="producer133" in="00:00:00.000" out="00:50:55.017">
    <property name="length">00:50:55.033</property>
    <property name="eof">pause</property>
    <property name="resource">C:/Users/Sahid/Videos/QGIS Basic/6_Layouting/2021-02-03 09-50-10.mkv</property>
    <property name="audio_index">1</property>
    <property name="video_index">0</property>
    <property name="mute_on_pause">0</property>
    <property name="mlt_service">avformat-novalidate</property>
    <property name="seekable">1</property>
    <property name="aspect_ratio">1</property>
    <property name="creation_time">2021-02-03T03:41:06</property>
    <property name="global_feed">1</property>
    <property name="xml">was here</property>
    <property name="shotcut:hash">8e392e48be4935f7d753048eef069fa1</property>
    <property name="shotcut:caption">2021-02-03 09-50-10.mkv</property>
    <filter id="filter128" in="00:01:31.433" out="00:01:34.433">
      <property name="window">75</property>
      <property name="max_gain">20dB</property>
      <property name="level">12</property>
      <property name="mlt_service">volume</property>
    </filter>
  </producer>
  <producer id="producer134" in="00:00:00.000" out="00:50:55.017">
    <property name="length">00:50:55.033</property>
    <property name="eof">pause</property>
    <property name="resource">C:/Users/Sahid/Videos/QGIS Basic/6_Layouting/2021-02-03 09-50-10.mkv</property>
    <property name="audio_index">1</property>
    <property name="video_index">0</property>
    <property name="mute_on_pause">0</property>
    <property name="mlt_service">avformat-novalidate</property>
    <property name="seekable">1</property>
    <property name="aspect_ratio">1</property>
    <property name="creation_time">2021-02-03T03:41:06</property>
    <property name="global_feed">1</property>
    <property name="xml">was here</property>
    <property name="shotcut:hash">8e392e48be4935f7d753048eef069fa1</property>
    <property name="shotcut:caption">2021-02-03 09-50-10.mkv</property>
    <filter id="filter129" in="00:01:34.950" out="00:01:35.783">
      <property name="window">75</property>
      <property name="max_gain">20dB</property>
      <property name="level">12</property>
      <property name="mlt_service">volume</property>
    </filter>
  </producer>
  <producer id="producer135" in="00:00:00.000" out="00:50:55.017">
    <property name="length">00:50:55.033</property>
    <property name="eof">pause</property>
    <property name="resource">C:/Users/Sahid/Videos/QGIS Basic/6_Layouting/2021-02-03 09-50-10.mkv</property>
    <property name="audio_index">1</property>
    <property name="video_index">0</property>
    <property name="mute_on_pause">0</property>
    <property name="mlt_service">avformat-novalidate</property>
    <property name="seekable">1</property>
    <property name="aspect_ratio">1</property>
    <property name="creation_time">2021-02-03T03:41:06</property>
    <property name="global_feed">1</property>
    <property name="xml">was here</property>
    <property name="shotcut:hash">8e392e48be4935f7d753048eef069fa1</property>
    <property name="shotcut:caption">2021-02-03 09-50-10.mkv</property>
    <filter id="filter130" in="00:01:36.083" out="00:01:38.000">
      <property name="window">75</property>
      <property name="max_gain">20dB</property>
      <property name="level">12</property>
      <property name="mlt_service">volume</property>
    </filter>
  </producer>
  <producer id="producer136" in="00:00:00.000" out="00:50:55.017">
    <property name="length">00:50:55.033</property>
    <property name="eof">pause</property>
    <property name="resource">C:/Users/Sahid/Videos/QGIS Basic/6_Layouting/2021-02-03 09-50-10.mkv</property>
    <property name="audio_index">1</property>
    <property name="video_index">0</property>
    <property name="mute_on_pause">0</property>
    <property name="mlt_service">avformat-novalidate</property>
    <property name="seekable">1</property>
    <property name="aspect_ratio">1</property>
    <property name="creation_time">2021-02-03T03:41:06</property>
    <property name="global_feed">1</property>
    <property name="xml">was here</property>
    <property name="shotcut:hash">8e392e48be4935f7d753048eef069fa1</property>
    <property name="shotcut:caption">2021-02-03 09-50-10.mkv</property>
    <filter id="filter131" in="00:01:38.700" out="00:01:40.433">
      <property name="window">75</property>
      <property name="max_gain">20dB</property>
      <property name="level">12</property>
      <property name="mlt_service">volume</property>
    </filter>
  </producer>
  <producer id="producer137" in="00:00:00.000" out="00:50:55.017">
    <property name="length">00:50:55.033</property>
    <property name="eof">pause</property>
    <property name="resource">C:/Users/Sahid/Videos/QGIS Basic/6_Layouting/2021-02-03 09-50-10.mkv</property>
    <property name="audio_index">1</property>
    <property name="video_index">0</property>
    <property name="mute_on_pause">0</property>
    <property name="mlt_service">avformat-novalidate</property>
    <property name="seekable">1</property>
    <property name="aspect_ratio">1</property>
    <property name="creation_time">2021-02-03T03:41:06</property>
    <property name="global_feed">1</property>
    <property name="xml">was here</property>
    <property name="shotcut:hash">8e392e48be4935f7d753048eef069fa1</property>
    <property name="shotcut:caption">2021-02-03 09-50-10.mkv</property>
    <filter id="filter132" in="00:01:40.700" out="00:01:44.000">
      <property name="window">75</property>
      <property name="max_gain">20dB</property>
      <property name="level">12</property>
      <property name="mlt_service">volume</property>
    </filter>
  </producer>
  <producer id="producer138" in="00:00:00.000" out="00:50:55.017">
    <property name="length">00:50:55.033</property>
    <property name="eof">pause</property>
    <property name="resource">C:/Users/Sahid/Videos/QGIS Basic/6_Layouting/2021-02-03 09-50-10.mkv</property>
    <property name="audio_index">1</property>
    <property name="video_index">0</property>
    <property name="mute_on_pause">0</property>
    <property name="mlt_service">avformat-novalidate</property>
    <property name="seekable">1</property>
    <property name="aspect_ratio">1</property>
    <property name="creation_time">2021-02-03T03:41:06</property>
    <property name="global_feed">1</property>
    <property name="xml">was here</property>
    <property name="shotcut:hash">8e392e48be4935f7d753048eef069fa1</property>
    <property name="shotcut:caption">2021-02-03 09-50-10.mkv</property>
    <filter id="filter133" in="00:01:44.517" out="00:01:48.000">
      <property name="window">75</property>
      <property name="max_gain">20dB</property>
      <property name="level">12</property>
      <property name="mlt_service">volume</property>
    </filter>
  </producer>
  <producer id="producer139" in="00:00:00.000" out="00:50:55.017">
    <property name="length">00:50:55.033</property>
    <property name="eof">pause</property>
    <property name="resource">C:/Users/Sahid/Videos/QGIS Basic/6_Layouting/2021-02-03 09-50-10.mkv</property>
    <property name="audio_index">1</property>
    <property name="video_index">0</property>
    <property name="mute_on_pause">0</property>
    <property name="mlt_service">avformat-novalidate</property>
    <property name="seekable">1</property>
    <property name="aspect_ratio">1</property>
    <property name="creation_time">2021-02-03T03:41:06</property>
    <property name="global_feed">1</property>
    <property name="xml">was here</property>
    <property name="shotcut:hash">8e392e48be4935f7d753048eef069fa1</property>
    <property name="shotcut:caption">2021-02-03 09-50-10.mkv</property>
    <filter id="filter134" in="00:01:49.083" out="00:01:53.900">
      <property name="window">75</property>
      <property name="max_gain">20dB</property>
      <property name="level">12</property>
      <property name="mlt_service">volume</property>
    </filter>
  </producer>
  <producer id="producer140" in="00:00:00.000" out="00:50:55.017">
    <property name="length">00:50:55.033</property>
    <property name="eof">pause</property>
    <property name="resource">C:/Users/Sahid/Videos/QGIS Basic/6_Layouting/2021-02-03 09-50-10.mkv</property>
    <property name="audio_index">1</property>
    <property name="video_index">0</property>
    <property name="mute_on_pause">0</property>
    <property name="mlt_service">avformat-novalidate</property>
    <property name="seekable">1</property>
    <property name="aspect_ratio">1</property>
    <property name="creation_time">2021-02-03T03:41:06</property>
    <property name="global_feed">1</property>
    <property name="xml">was here</property>
    <property name="shotcut:hash">8e392e48be4935f7d753048eef069fa1</property>
    <property name="shotcut:caption">2021-02-03 09-50-10.mkv</property>
    <filter id="filter135" in="00:02:03.417" out="00:02:06.683">
      <property name="window">75</property>
      <property name="max_gain">20dB</property>
      <property name="level">12</property>
      <property name="mlt_service">volume</property>
    </filter>
  </producer>
  <producer id="producer141" in="00:00:00.000" out="00:50:55.017">
    <property name="length">00:50:55.033</property>
    <property name="eof">pause</property>
    <property name="resource">C:/Users/Sahid/Videos/QGIS Basic/6_Layouting/2021-02-03 09-50-10.mkv</property>
    <property name="audio_index">1</property>
    <property name="video_index">0</property>
    <property name="mute_on_pause">0</property>
    <property name="mlt_service">avformat-novalidate</property>
    <property name="seekable">1</property>
    <property name="aspect_ratio">1</property>
    <property name="creation_time">2021-02-03T03:41:06</property>
    <property name="global_feed">1</property>
    <property name="xml">was here</property>
    <property name="shotcut:hash">8e392e48be4935f7d753048eef069fa1</property>
    <property name="shotcut:caption">2021-02-03 09-50-10.mkv</property>
    <filter id="filter136" in="00:02:08.650" out="00:02:10.767">
      <property name="window">75</property>
      <property name="max_gain">20dB</property>
      <property name="level">12</property>
      <property name="mlt_service">volume</property>
    </filter>
  </producer>
  <producer id="producer142" in="00:00:00.000" out="00:50:55.017">
    <property name="length">00:50:55.033</property>
    <property name="eof">pause</property>
    <property name="resource">C:/Users/Sahid/Videos/QGIS Basic/6_Layouting/2021-02-03 09-50-10.mkv</property>
    <property name="audio_index">1</property>
    <property name="video_index">0</property>
    <property name="mute_on_pause">0</property>
    <property name="mlt_service">avformat-novalidate</property>
    <property name="seekable">1</property>
    <property name="aspect_ratio">1</property>
    <property name="creation_time">2021-02-03T03:41:06</property>
    <property name="global_feed">1</property>
    <property name="xml">was here</property>
    <property name="shotcut:hash">8e392e48be4935f7d753048eef069fa1</property>
    <property name="shotcut:caption">2021-02-03 09-50-10.mkv</property>
    <filter id="filter137" in="00:02:11.267" out="00:02:13.033">
      <property name="window">75</property>
      <property name="max_gain">20dB</property>
      <property name="level">12</property>
      <property name="mlt_service">volume</property>
    </filter>
  </producer>
  <producer id="producer143" in="00:00:00.000" out="00:50:55.017">
    <property name="length">00:50:55.033</property>
    <property name="eof">pause</property>
    <property name="resource">C:/Users/Sahid/Videos/QGIS Basic/6_Layouting/2021-02-03 09-50-10.mkv</property>
    <property name="audio_index">1</property>
    <property name="video_index">0</property>
    <property name="mute_on_pause">0</property>
    <property name="mlt_service">avformat-novalidate</property>
    <property name="seekable">1</property>
    <property name="aspect_ratio">1</property>
    <property name="creation_time">2021-02-03T03:41:06</property>
    <property name="global_feed">1</property>
    <property name="xml">was here</property>
    <property name="shotcut:hash">8e392e48be4935f7d753048eef069fa1</property>
    <property name="shotcut:caption">2021-02-03 09-50-10.mkv</property>
    <filter id="filter138" in="00:02:14.083" out="00:02:16.017">
      <property name="window">75</property>
      <property name="max_gain">20dB</property>
      <property name="level">12</property>
      <property name="mlt_service">volume</property>
    </filter>
  </producer>
  <producer id="producer144" in="00:00:00.000" out="00:50:55.017">
    <property name="length">00:50:55.033</property>
    <property name="eof">pause</property>
    <property name="resource">C:/Users/Sahid/Videos/QGIS Basic/6_Layouting/2021-02-03 09-50-10.mkv</property>
    <property name="audio_index">1</property>
    <property name="video_index">0</property>
    <property name="mute_on_pause">0</property>
    <property name="mlt_service">avformat-novalidate</property>
    <property name="seekable">1</property>
    <property name="aspect_ratio">1</property>
    <property name="creation_time">2021-02-03T03:41:06</property>
    <property name="global_feed">1</property>
    <property name="xml">was here</property>
    <property name="shotcut:hash">8e392e48be4935f7d753048eef069fa1</property>
    <property name="shotcut:caption">2021-02-03 09-50-10.mkv</property>
    <filter id="filter139" in="00:02:16.617" out="00:02:18.200">
      <property name="window">75</property>
      <property name="max_gain">20dB</property>
      <property name="level">12</property>
      <property name="mlt_service">volume</property>
    </filter>
  </producer>
  <producer id="producer145" in="00:00:00.000" out="00:50:55.017">
    <property name="length">00:50:55.033</property>
    <property name="eof">pause</property>
    <property name="resource">C:/Users/Sahid/Videos/QGIS Basic/6_Layouting/2021-02-03 09-50-10.mkv</property>
    <property name="audio_index">1</property>
    <property name="video_index">0</property>
    <property name="mute_on_pause">0</property>
    <property name="mlt_service">avformat-novalidate</property>
    <property name="seekable">1</property>
    <property name="aspect_ratio">1</property>
    <property name="creation_time">2021-02-03T03:41:06</property>
    <property name="global_feed">1</property>
    <property name="xml">was here</property>
    <property name="shotcut:hash">8e392e48be4935f7d753048eef069fa1</property>
    <property name="shotcut:caption">2021-02-03 09-50-10.mkv</property>
    <filter id="filter140" in="00:02:19.133" out="00:02:22.400">
      <property name="window">75</property>
      <property name="max_gain">20dB</property>
      <property name="level">12</property>
      <property name="mlt_service">volume</property>
    </filter>
  </producer>
  <producer id="producer146" in="00:00:00.000" out="00:50:55.017">
    <property name="length">00:50:55.033</property>
    <property name="eof">pause</property>
    <property name="resource">C:/Users/Sahid/Videos/QGIS Basic/6_Layouting/2021-02-03 09-50-10.mkv</property>
    <property name="audio_index">1</property>
    <property name="video_index">0</property>
    <property name="mute_on_pause">0</property>
    <property name="mlt_service">avformat-novalidate</property>
    <property name="seekable">1</property>
    <property name="aspect_ratio">1</property>
    <property name="creation_time">2021-02-03T03:41:06</property>
    <property name="global_feed">1</property>
    <property name="xml">was here</property>
    <property name="shotcut:hash">8e392e48be4935f7d753048eef069fa1</property>
    <property name="shotcut:caption">2021-02-03 09-50-10.mkv</property>
    <filter id="filter141" in="00:02:23.100" out="00:02:24.667">
      <property name="window">75</property>
      <property name="max_gain">20dB</property>
      <property name="level">12</property>
      <property name="mlt_service">volume</property>
    </filter>
  </producer>
  <producer id="producer147" in="00:00:00.000" out="00:50:55.017">
    <property name="length">00:50:55.033</property>
    <property name="eof">pause</property>
    <property name="resource">C:/Users/Sahid/Videos/QGIS Basic/6_Layouting/2021-02-03 09-50-10.mkv</property>
    <property name="audio_index">1</property>
    <property name="video_index">0</property>
    <property name="mute_on_pause">0</property>
    <property name="mlt_service">avformat-novalidate</property>
    <property name="seekable">1</property>
    <property name="aspect_ratio">1</property>
    <property name="creation_time">2021-02-03T03:41:06</property>
    <property name="global_feed">1</property>
    <property name="xml">was here</property>
    <property name="shotcut:hash">8e392e48be4935f7d753048eef069fa1</property>
    <property name="shotcut:caption">2021-02-03 09-50-10.mkv</property>
    <filter id="filter142" in="00:02:26.333" out="00:02:30.050">
      <property name="window">75</property>
      <property name="max_gain">20dB</property>
      <property name="level">12</property>
      <property name="mlt_service">volume</property>
    </filter>
  </producer>
  <producer id="producer148" in="00:00:00.000" out="00:50:55.017">
    <property name="length">00:50:55.033</property>
    <property name="eof">pause</property>
    <property name="resource">C:/Users/Sahid/Videos/QGIS Basic/6_Layouting/2021-02-03 09-50-10.mkv</property>
    <property name="audio_index">1</property>
    <property name="video_index">0</property>
    <property name="mute_on_pause">0</property>
    <property name="mlt_service">avformat-novalidate</property>
    <property name="seekable">1</property>
    <property name="aspect_ratio">1</property>
    <property name="creation_time">2021-02-03T03:41:06</property>
    <property name="global_feed">1</property>
    <property name="xml">was here</property>
    <property name="shotcut:hash">8e392e48be4935f7d753048eef069fa1</property>
    <property name="shotcut:caption">2021-02-03 09-50-10.mkv</property>
    <filter id="filter143" in="00:02:30.683" out="00:02:36.017">
      <property name="window">75</property>
      <property name="max_gain">20dB</property>
      <property name="level">12</property>
      <property name="mlt_service">volume</property>
    </filter>
  </producer>
  <producer id="producer149" in="00:00:00.000" out="00:50:55.017">
    <property name="length">00:50:55.033</property>
    <property name="eof">pause</property>
    <property name="resource">C:/Users/Sahid/Videos/QGIS Basic/6_Layouting/2021-02-03 09-50-10.mkv</property>
    <property name="audio_index">1</property>
    <property name="video_index">0</property>
    <property name="mute_on_pause">0</property>
    <property name="mlt_service">avformat-novalidate</property>
    <property name="seekable">1</property>
    <property name="aspect_ratio">1</property>
    <property name="creation_time">2021-02-03T03:41:06</property>
    <property name="global_feed">1</property>
    <property name="xml">was here</property>
    <property name="shotcut:hash">8e392e48be4935f7d753048eef069fa1</property>
    <property name="shotcut:caption">2021-02-03 09-50-10.mkv</property>
    <filter id="filter144" in="00:02:37.533" out="00:02:39.033">
      <property name="window">75</property>
      <property name="max_gain">20dB</property>
      <property name="level">12</property>
      <property name="mlt_service">volume</property>
    </filter>
  </producer>
  <producer id="producer150" in="00:00:00.000" out="00:50:55.017">
    <property name="length">00:50:55.033</property>
    <property name="eof">pause</property>
    <property name="resource">C:/Users/Sahid/Videos/QGIS Basic/6_Layouting/2021-02-03 09-50-10.mkv</property>
    <property name="audio_index">1</property>
    <property name="video_index">0</property>
    <property name="mute_on_pause">0</property>
    <property name="mlt_service">avformat-novalidate</property>
    <property name="seekable">1</property>
    <property name="aspect_ratio">1</property>
    <property name="creation_time">2021-02-03T03:41:06</property>
    <property name="global_feed">1</property>
    <property name="xml">was here</property>
    <property name="shotcut:hash">8e392e48be4935f7d753048eef069fa1</property>
    <property name="shotcut:caption">2021-02-03 09-50-10.mkv</property>
    <filter id="filter145" in="00:02:39.050" out="00:02:42.333">
      <property name="window">75</property>
      <property name="max_gain">20dB</property>
      <property name="level">12</property>
      <property name="mlt_service">volume</property>
    </filter>
  </producer>
  <producer id="producer151" in="00:00:00.000" out="00:50:55.017">
    <property name="length">00:50:55.033</property>
    <property name="eof">pause</property>
    <property name="resource">C:/Users/Sahid/Videos/QGIS Basic/6_Layouting/2021-02-03 09-50-10.mkv</property>
    <property name="audio_index">1</property>
    <property name="video_index">0</property>
    <property name="mute_on_pause">0</property>
    <property name="mlt_service">avformat-novalidate</property>
    <property name="seekable">1</property>
    <property name="aspect_ratio">1</property>
    <property name="creation_time">2021-02-03T03:41:06</property>
    <property name="global_feed">1</property>
    <property name="xml">was here</property>
    <property name="shotcut:hash">8e392e48be4935f7d753048eef069fa1</property>
    <property name="shotcut:caption">2021-02-03 09-50-10.mkv</property>
    <filter id="filter146" in="00:02:44.167" out="00:02:49.050">
      <property name="window">75</property>
      <property name="max_gain">20dB</property>
      <property name="level">12</property>
      <property name="mlt_service">volume</property>
    </filter>
  </producer>
  <producer id="producer152" in="00:00:00.000" out="00:50:55.017">
    <property name="length">00:50:55.033</property>
    <property name="eof">pause</property>
    <property name="resource">C:/Users/Sahid/Videos/QGIS Basic/6_Layouting/2021-02-03 09-50-10.mkv</property>
    <property name="audio_index">1</property>
    <property name="video_index">0</property>
    <property name="mute_on_pause">0</property>
    <property name="mlt_service">avformat-novalidate</property>
    <property name="seekable">1</property>
    <property name="aspect_ratio">1</property>
    <property name="creation_time">2021-02-03T03:41:06</property>
    <property name="global_feed">1</property>
    <property name="xml">was here</property>
    <property name="shotcut:hash">8e392e48be4935f7d753048eef069fa1</property>
    <property name="shotcut:caption">2021-02-03 09-50-10.mkv</property>
    <filter id="filter147" in="00:02:49.850" out="00:02:53.683">
      <property name="window">75</property>
      <property name="max_gain">20dB</property>
      <property name="level">12</property>
      <property name="mlt_service">volume</property>
    </filter>
  </producer>
  <producer id="producer153" in="00:00:00.000" out="00:50:55.017">
    <property name="length">00:50:55.033</property>
    <property name="eof">pause</property>
    <property name="resource">C:/Users/Sahid/Videos/QGIS Basic/6_Layouting/2021-02-03 09-50-10.mkv</property>
    <property name="audio_index">1</property>
    <property name="video_index">0</property>
    <property name="mute_on_pause">0</property>
    <property name="mlt_service">avformat-novalidate</property>
    <property name="seekable">1</property>
    <property name="aspect_ratio">1</property>
    <property name="creation_time">2021-02-03T03:41:06</property>
    <property name="global_feed">1</property>
    <property name="xml">was here</property>
    <property name="shotcut:hash">8e392e48be4935f7d753048eef069fa1</property>
    <property name="shotcut:caption">2021-02-03 09-50-10.mkv</property>
    <filter id="filter148" in="00:02:55.267" out="00:02:57.867">
      <property name="window">75</property>
      <property name="max_gain">20dB</property>
      <property name="level">12</property>
      <property name="mlt_service">volume</property>
    </filter>
  </producer>
  <producer id="producer154" in="00:00:00.000" out="00:50:55.017">
    <property name="length">00:50:55.033</property>
    <property name="eof">pause</property>
    <property name="resource">C:/Users/Sahid/Videos/QGIS Basic/6_Layouting/2021-02-03 09-50-10.mkv</property>
    <property name="audio_index">1</property>
    <property name="video_index">0</property>
    <property name="mute_on_pause">0</property>
    <property name="mlt_service">avformat-novalidate</property>
    <property name="seekable">1</property>
    <property name="aspect_ratio">1</property>
    <property name="creation_time">2021-02-03T03:41:06</property>
    <property name="global_feed">1</property>
    <property name="xml">was here</property>
    <property name="shotcut:hash">8e392e48be4935f7d753048eef069fa1</property>
    <property name="shotcut:caption">2021-02-03 09-50-10.mkv</property>
    <filter id="filter149" in="00:02:58.450" out="00:03:00.433">
      <property name="window">75</property>
      <property name="max_gain">20dB</property>
      <property name="level">12</property>
      <property name="mlt_service">volume</property>
    </filter>
  </producer>
  <producer id="producer155" in="00:00:00.000" out="00:50:55.017">
    <property name="length">00:50:55.033</property>
    <property name="eof">pause</property>
    <property name="resource">C:/Users/Sahid/Videos/QGIS Basic/6_Layouting/2021-02-03 09-50-10.mkv</property>
    <property name="audio_index">1</property>
    <property name="video_index">0</property>
    <property name="mute_on_pause">0</property>
    <property name="mlt_service">avformat-novalidate</property>
    <property name="seekable">1</property>
    <property name="aspect_ratio">1</property>
    <property name="creation_time">2021-02-03T03:41:06</property>
    <property name="global_feed">1</property>
    <property name="xml">was here</property>
    <property name="shotcut:hash">8e392e48be4935f7d753048eef069fa1</property>
    <property name="shotcut:caption">2021-02-03 09-50-10.mkv</property>
    <filter id="filter150" in="00:03:01.000" out="00:03:03.850">
      <property name="window">75</property>
      <property name="max_gain">20dB</property>
      <property name="level">12</property>
      <property name="mlt_service">volume</property>
    </filter>
  </producer>
  <producer id="producer156" in="00:00:00.000" out="00:50:55.017">
    <property name="length">00:50:55.033</property>
    <property name="eof">pause</property>
    <property name="resource">C:/Users/Sahid/Videos/QGIS Basic/6_Layouting/2021-02-03 09-50-10.mkv</property>
    <property name="audio_index">1</property>
    <property name="video_index">0</property>
    <property name="mute_on_pause">0</property>
    <property name="mlt_service">avformat-novalidate</property>
    <property name="seekable">1</property>
    <property name="aspect_ratio">1</property>
    <property name="creation_time">2021-02-03T03:41:06</property>
    <property name="global_feed">1</property>
    <property name="xml">was here</property>
    <property name="shotcut:hash">8e392e48be4935f7d753048eef069fa1</property>
    <property name="shotcut:caption">2021-02-03 09-50-10.mkv</property>
    <filter id="filter151" in="00:03:07.817" out="00:03:12.733">
      <property name="window">75</property>
      <property name="max_gain">20dB</property>
      <property name="level">12</property>
      <property name="mlt_service">volume</property>
    </filter>
  </producer>
  <producer id="producer157" in="00:00:00.000" out="00:50:55.017">
    <property name="length">00:50:55.033</property>
    <property name="eof">pause</property>
    <property name="resource">C:/Users/Sahid/Videos/QGIS Basic/6_Layouting/2021-02-03 09-50-10.mkv</property>
    <property name="audio_index">1</property>
    <property name="video_index">0</property>
    <property name="mute_on_pause">0</property>
    <property name="mlt_service">avformat-novalidate</property>
    <property name="seekable">1</property>
    <property name="aspect_ratio">1</property>
    <property name="creation_time">2021-02-03T03:41:06</property>
    <property name="global_feed">1</property>
    <property name="xml">was here</property>
    <property name="shotcut:hash">8e392e48be4935f7d753048eef069fa1</property>
    <property name="shotcut:caption">2021-02-03 09-50-10.mkv</property>
    <filter id="filter152" in="00:03:13.417" out="00:03:18.817">
      <property name="window">75</property>
      <property name="max_gain">20dB</property>
      <property name="level">12</property>
      <property name="mlt_service">volume</property>
    </filter>
  </producer>
  <producer id="producer158" in="00:00:00.000" out="00:50:55.017">
    <property name="length">00:50:55.033</property>
    <property name="eof">pause</property>
    <property name="resource">C:/Users/Sahid/Videos/QGIS Basic/6_Layouting/2021-02-03 09-50-10.mkv</property>
    <property name="audio_index">1</property>
    <property name="video_index">0</property>
    <property name="mute_on_pause">0</property>
    <property name="mlt_service">avformat-novalidate</property>
    <property name="seekable">1</property>
    <property name="aspect_ratio">1</property>
    <property name="creation_time">2021-02-03T03:41:06</property>
    <property name="global_feed">1</property>
    <property name="xml">was here</property>
    <property name="shotcut:hash">8e392e48be4935f7d753048eef069fa1</property>
    <property name="shotcut:caption">2021-02-03 09-50-10.mkv</property>
    <filter id="filter153" in="00:03:20.067" out="00:03:25.867">
      <property name="window">75</property>
      <property name="max_gain">20dB</property>
      <property name="level">12</property>
      <property name="mlt_service">volume</property>
    </filter>
  </producer>
  <producer id="producer159" in="00:00:00.000" out="00:50:55.017">
    <property name="length">00:50:55.033</property>
    <property name="eof">pause</property>
    <property name="resource">C:/Users/Sahid/Videos/QGIS Basic/6_Layouting/2021-02-03 09-50-10.mkv</property>
    <property name="audio_index">1</property>
    <property name="video_index">0</property>
    <property name="mute_on_pause">0</property>
    <property name="mlt_service">avformat-novalidate</property>
    <property name="seekable">1</property>
    <property name="aspect_ratio">1</property>
    <property name="creation_time">2021-02-03T03:41:06</property>
    <property name="global_feed">1</property>
    <property name="xml">was here</property>
    <property name="shotcut:hash">8e392e48be4935f7d753048eef069fa1</property>
    <property name="shotcut:caption">2021-02-03 09-50-10.mkv</property>
    <filter id="filter154" in="00:03:26.567" out="00:03:29.050">
      <property name="window">75</property>
      <property name="max_gain">20dB</property>
      <property name="level">12</property>
      <property name="mlt_service">volume</property>
    </filter>
  </producer>
  <producer id="producer160" in="00:00:00.000" out="00:50:55.017">
    <property name="length">00:50:55.033</property>
    <property name="eof">pause</property>
    <property name="resource">C:/Users/Sahid/Videos/QGIS Basic/6_Layouting/2021-02-03 09-50-10.mkv</property>
    <property name="audio_index">1</property>
    <property name="video_index">0</property>
    <property name="mute_on_pause">0</property>
    <property name="mlt_service">avformat-novalidate</property>
    <property name="seekable">1</property>
    <property name="aspect_ratio">1</property>
    <property name="creation_time">2021-02-03T03:41:06</property>
    <property name="global_feed">1</property>
    <property name="xml">was here</property>
    <property name="shotcut:hash">8e392e48be4935f7d753048eef069fa1</property>
    <property name="shotcut:caption">2021-02-03 09-50-10.mkv</property>
    <filter id="filter155" in="00:03:29.450" out="00:03:32.700">
      <property name="window">75</property>
      <property name="max_gain">20dB</property>
      <property name="level">12</property>
      <property name="mlt_service">volume</property>
    </filter>
  </producer>
  <producer id="producer161" in="00:00:00.000" out="00:50:55.017">
    <property name="length">00:50:55.033</property>
    <property name="eof">pause</property>
    <property name="resource">C:/Users/Sahid/Videos/QGIS Basic/6_Layouting/2021-02-03 09-50-10.mkv</property>
    <property name="audio_index">1</property>
    <property name="video_index">0</property>
    <property name="mute_on_pause">0</property>
    <property name="mlt_service">avformat-novalidate</property>
    <property name="seekable">1</property>
    <property name="aspect_ratio">1</property>
    <property name="creation_time">2021-02-03T03:41:06</property>
    <property name="global_feed">1</property>
    <property name="xml">was here</property>
    <property name="shotcut:hash">8e392e48be4935f7d753048eef069fa1</property>
    <property name="shotcut:caption">2021-02-03 09-50-10.mkv</property>
    <filter id="filter156" in="00:03:33.350" out="00:03:37.950">
      <property name="window">75</property>
      <property name="max_gain">20dB</property>
      <property name="level">12</property>
      <property name="mlt_service">volume</property>
    </filter>
  </producer>
  <producer id="producer162" in="00:00:00.000" out="00:50:55.017">
    <property name="length">00:50:55.033</property>
    <property name="eof">pause</property>
    <property name="resource">C:/Users/Sahid/Videos/QGIS Basic/6_Layouting/2021-02-03 09-50-10.mkv</property>
    <property name="audio_index">1</property>
    <property name="video_index">0</property>
    <property name="mute_on_pause">0</property>
    <property name="mlt_service">avformat-novalidate</property>
    <property name="seekable">1</property>
    <property name="aspect_ratio">1</property>
    <property name="creation_time">2021-02-03T03:41:06</property>
    <property name="global_feed">1</property>
    <property name="xml">was here</property>
    <property name="shotcut:hash">8e392e48be4935f7d753048eef069fa1</property>
    <property name="shotcut:caption">2021-02-03 09-50-10.mkv</property>
    <filter id="filter157" in="00:03:40.683" out="00:03:47.117">
      <property name="window">75</property>
      <property name="max_gain">20dB</property>
      <property name="level">12</property>
      <property name="mlt_service">volume</property>
    </filter>
  </producer>
  <producer id="producer163" in="00:00:00.000" out="00:50:55.017">
    <property name="length">00:50:55.033</property>
    <property name="eof">pause</property>
    <property name="resource">C:/Users/Sahid/Videos/QGIS Basic/6_Layouting/2021-02-03 09-50-10.mkv</property>
    <property name="audio_index">1</property>
    <property name="video_index">0</property>
    <property name="mute_on_pause">0</property>
    <property name="mlt_service">avformat-novalidate</property>
    <property name="seekable">1</property>
    <property name="aspect_ratio">1</property>
    <property name="creation_time">2021-02-03T03:41:06</property>
    <property name="global_feed">1</property>
    <property name="xml">was here</property>
    <property name="shotcut:hash">8e392e48be4935f7d753048eef069fa1</property>
    <property name="shotcut:caption">2021-02-03 09-50-10.mkv</property>
    <filter id="filter158" in="00:03:50.000" out="00:03:54.450">
      <property name="window">75</property>
      <property name="max_gain">20dB</property>
      <property name="level">12</property>
      <property name="mlt_service">volume</property>
    </filter>
  </producer>
  <producer id="producer164" in="00:00:00.000" out="00:50:55.017">
    <property name="length">00:50:55.033</property>
    <property name="eof">pause</property>
    <property name="resource">C:/Users/Sahid/Videos/QGIS Basic/6_Layouting/2021-02-03 09-50-10.mkv</property>
    <property name="audio_index">1</property>
    <property name="video_index">0</property>
    <property name="mute_on_pause">0</property>
    <property name="mlt_service">avformat-novalidate</property>
    <property name="seekable">1</property>
    <property name="aspect_ratio">1</property>
    <property name="creation_time">2021-02-03T03:41:06</property>
    <property name="global_feed">1</property>
    <property name="xml">was here</property>
    <property name="shotcut:hash">8e392e48be4935f7d753048eef069fa1</property>
    <property name="shotcut:caption">2021-02-03 09-50-10.mkv</property>
    <filter id="filter159" in="00:03:56.050" out="00:03:56.583">
      <property name="window">75</property>
      <property name="max_gain">20dB</property>
      <property name="level">12</property>
      <property name="mlt_service">volume</property>
    </filter>
  </producer>
  <producer id="producer165" in="00:00:00.000" out="00:50:55.017">
    <property name="length">00:50:55.033</property>
    <property name="eof">pause</property>
    <property name="resource">C:/Users/Sahid/Videos/QGIS Basic/6_Layouting/2021-02-03 09-50-10.mkv</property>
    <property name="audio_index">1</property>
    <property name="video_index">0</property>
    <property name="mute_on_pause">0</property>
    <property name="mlt_service">avformat-novalidate</property>
    <property name="seekable">1</property>
    <property name="aspect_ratio">1</property>
    <property name="creation_time">2021-02-03T03:41:06</property>
    <property name="global_feed">1</property>
    <property name="xml">was here</property>
    <property name="shotcut:hash">8e392e48be4935f7d753048eef069fa1</property>
    <property name="shotcut:caption">2021-02-03 09-50-10.mkv</property>
    <filter id="filter160" in="00:03:56.600" out="00:03:58.183">
      <property name="window">75</property>
      <property name="max_gain">20dB</property>
      <property name="level">12</property>
      <property name="mlt_service">volume</property>
    </filter>
  </producer>
  <producer id="producer166" in="00:00:00.000" out="00:50:55.017">
    <property name="length">00:50:55.033</property>
    <property name="eof">pause</property>
    <property name="resource">C:/Users/Sahid/Videos/QGIS Basic/6_Layouting/2021-02-03 09-50-10.mkv</property>
    <property name="audio_index">1</property>
    <property name="video_index">0</property>
    <property name="mute_on_pause">0</property>
    <property name="mlt_service">avformat-novalidate</property>
    <property name="seekable">1</property>
    <property name="aspect_ratio">1</property>
    <property name="creation_time">2021-02-03T03:41:06</property>
    <property name="global_feed">1</property>
    <property name="xml">was here</property>
    <property name="shotcut:hash">8e392e48be4935f7d753048eef069fa1</property>
    <property name="shotcut:caption">2021-02-03 09-50-10.mkv</property>
    <filter id="filter161" in="00:03:58.417" out="00:03:59.167">
      <property name="window">75</property>
      <property name="max_gain">20dB</property>
      <property name="level">12</property>
      <property name="mlt_service">volume</property>
    </filter>
  </producer>
  <producer id="producer167" in="00:00:00.000" out="00:50:55.017">
    <property name="length">00:50:55.033</property>
    <property name="eof">pause</property>
    <property name="resource">C:/Users/Sahid/Videos/QGIS Basic/6_Layouting/2021-02-03 09-50-10.mkv</property>
    <property name="audio_index">1</property>
    <property name="video_index">0</property>
    <property name="mute_on_pause">0</property>
    <property name="mlt_service">avformat-novalidate</property>
    <property name="seekable">1</property>
    <property name="aspect_ratio">1</property>
    <property name="creation_time">2021-02-03T03:41:06</property>
    <property name="global_feed">1</property>
    <property name="xml">was here</property>
    <property name="shotcut:hash">8e392e48be4935f7d753048eef069fa1</property>
    <property name="shotcut:caption">2021-02-03 09-50-10.mkv</property>
    <filter id="filter162" in="00:03:59.950" out="00:04:01.117">
      <property name="window">75</property>
      <property name="max_gain">20dB</property>
      <property name="level">12</property>
      <property name="mlt_service">volume</property>
    </filter>
  </producer>
  <producer id="producer168" in="00:00:00.000" out="00:50:55.017">
    <property name="length">00:50:55.033</property>
    <property name="eof">pause</property>
    <property name="resource">C:/Users/Sahid/Videos/QGIS Basic/6_Layouting/2021-02-03 09-50-10.mkv</property>
    <property name="audio_index">1</property>
    <property name="video_index">0</property>
    <property name="mute_on_pause">0</property>
    <property name="mlt_service">avformat-novalidate</property>
    <property name="seekable">1</property>
    <property name="aspect_ratio">1</property>
    <property name="creation_time">2021-02-03T03:41:06</property>
    <property name="global_feed">1</property>
    <property name="xml">was here</property>
    <property name="shotcut:hash">8e392e48be4935f7d753048eef069fa1</property>
    <property name="shotcut:caption">2021-02-03 09-50-10.mkv</property>
    <filter id="filter163" in="00:04:01.433" out="00:04:02.100">
      <property name="window">75</property>
      <property name="max_gain">20dB</property>
      <property name="level">12</property>
      <property name="mlt_service">volume</property>
    </filter>
  </producer>
  <producer id="producer169" in="00:00:00.000" out="00:50:55.017">
    <property name="length">00:50:55.033</property>
    <property name="eof">pause</property>
    <property name="resource">C:/Users/Sahid/Videos/QGIS Basic/6_Layouting/2021-02-03 09-50-10.mkv</property>
    <property name="audio_index">1</property>
    <property name="video_index">0</property>
    <property name="mute_on_pause">0</property>
    <property name="mlt_service">avformat-novalidate</property>
    <property name="seekable">1</property>
    <property name="aspect_ratio">1</property>
    <property name="creation_time">2021-02-03T03:41:06</property>
    <property name="global_feed">1</property>
    <property name="xml">was here</property>
    <property name="shotcut:hash">8e392e48be4935f7d753048eef069fa1</property>
    <property name="shotcut:caption">2021-02-03 09-50-10.mkv</property>
    <filter id="filter164" in="00:04:02.150" out="00:04:02.817">
      <property name="window">75</property>
      <property name="max_gain">20dB</property>
      <property name="level">12</property>
      <property name="mlt_service">volume</property>
    </filter>
  </producer>
  <producer id="producer170" in="00:00:00.000" out="00:50:55.017">
    <property name="length">00:50:55.033</property>
    <property name="eof">pause</property>
    <property name="resource">C:/Users/Sahid/Videos/QGIS Basic/6_Layouting/2021-02-03 09-50-10.mkv</property>
    <property name="audio_index">1</property>
    <property name="video_index">0</property>
    <property name="mute_on_pause">0</property>
    <property name="mlt_service">avformat-novalidate</property>
    <property name="seekable">1</property>
    <property name="aspect_ratio">1</property>
    <property name="creation_time">2021-02-03T03:41:06</property>
    <property name="global_feed">1</property>
    <property name="xml">was here</property>
    <property name="shotcut:hash">8e392e48be4935f7d753048eef069fa1</property>
    <property name="shotcut:caption">2021-02-03 09-50-10.mkv</property>
    <filter id="filter165" in="00:04:04.017" out="00:04:08.000">
      <property name="window">75</property>
      <property name="max_gain">20dB</property>
      <property name="level">12</property>
      <property name="mlt_service">volume</property>
    </filter>
  </producer>
  <producer id="producer171" in="00:00:00.000" out="00:50:55.017">
    <property name="length">00:50:55.033</property>
    <property name="eof">pause</property>
    <property name="resource">C:/Users/Sahid/Videos/QGIS Basic/6_Layouting/2021-02-03 09-50-10.mkv</property>
    <property name="audio_index">1</property>
    <property name="video_index">0</property>
    <property name="mute_on_pause">0</property>
    <property name="mlt_service">avformat-novalidate</property>
    <property name="seekable">1</property>
    <property name="aspect_ratio">1</property>
    <property name="creation_time">2021-02-03T03:41:06</property>
    <property name="global_feed">1</property>
    <property name="xml">was here</property>
    <property name="shotcut:hash">8e392e48be4935f7d753048eef069fa1</property>
    <property name="shotcut:caption">2021-02-03 09-50-10.mkv</property>
    <filter id="filter166" in="00:04:09.200" out="00:04:09.983">
      <property name="window">75</property>
      <property name="max_gain">20dB</property>
      <property name="level">12</property>
      <property name="mlt_service">volume</property>
    </filter>
  </producer>
  <producer id="producer172" in="00:00:00.000" out="00:50:55.017">
    <property name="length">00:50:55.033</property>
    <property name="eof">pause</property>
    <property name="resource">C:/Users/Sahid/Videos/QGIS Basic/6_Layouting/2021-02-03 09-50-10.mkv</property>
    <property name="audio_index">1</property>
    <property name="video_index">0</property>
    <property name="mute_on_pause">0</property>
    <property name="mlt_service">avformat-novalidate</property>
    <property name="seekable">1</property>
    <property name="aspect_ratio">1</property>
    <property name="creation_time">2021-02-03T03:41:06</property>
    <property name="global_feed">1</property>
    <property name="xml">was here</property>
    <property name="shotcut:hash">8e392e48be4935f7d753048eef069fa1</property>
    <property name="shotcut:caption">2021-02-03 09-50-10.mkv</property>
    <filter id="filter167" in="00:04:11.083" out="00:04:12.133">
      <property name="window">75</property>
      <property name="max_gain">20dB</property>
      <property name="level">12</property>
      <property name="mlt_service">volume</property>
    </filter>
  </producer>
  <producer id="producer173" in="00:00:00.000" out="00:50:55.017">
    <property name="length">00:50:55.033</property>
    <property name="eof">pause</property>
    <property name="resource">C:/Users/Sahid/Videos/QGIS Basic/6_Layouting/2021-02-03 09-50-10.mkv</property>
    <property name="audio_index">1</property>
    <property name="video_index">0</property>
    <property name="mute_on_pause">0</property>
    <property name="mlt_service">avformat-novalidate</property>
    <property name="seekable">1</property>
    <property name="aspect_ratio">1</property>
    <property name="creation_time">2021-02-03T03:41:06</property>
    <property name="global_feed">1</property>
    <property name="xml">was here</property>
    <property name="shotcut:hash">8e392e48be4935f7d753048eef069fa1</property>
    <property name="shotcut:caption">2021-02-03 09-50-10.mkv</property>
    <filter id="filter168" in="00:04:12.150" out="00:04:13.367">
      <property name="window">75</property>
      <property name="max_gain">20dB</property>
      <property name="level">12</property>
      <property name="mlt_service">volume</property>
    </filter>
  </producer>
  <producer id="producer174" in="00:00:00.000" out="00:50:55.017">
    <property name="length">00:50:55.033</property>
    <property name="eof">pause</property>
    <property name="resource">C:/Users/Sahid/Videos/QGIS Basic/6_Layouting/2021-02-03 09-50-10.mkv</property>
    <property name="audio_index">1</property>
    <property name="video_index">0</property>
    <property name="mute_on_pause">0</property>
    <property name="mlt_service">avformat-novalidate</property>
    <property name="seekable">1</property>
    <property name="aspect_ratio">1</property>
    <property name="creation_time">2021-02-03T03:41:06</property>
    <property name="global_feed">1</property>
    <property name="xml">was here</property>
    <property name="shotcut:hash">8e392e48be4935f7d753048eef069fa1</property>
    <property name="shotcut:caption">2021-02-03 09-50-10.mkv</property>
    <filter id="filter169" in="00:04:14.400" out="00:04:18.500">
      <property name="window">75</property>
      <property name="max_gain">20dB</property>
      <property name="level">12</property>
      <property name="mlt_service">volume</property>
    </filter>
  </producer>
  <producer id="producer175" in="00:00:00.000" out="00:50:55.017">
    <property name="length">00:50:55.033</property>
    <property name="eof">pause</property>
    <property name="resource">C:/Users/Sahid/Videos/QGIS Basic/6_Layouting/2021-02-03 09-50-10.mkv</property>
    <property name="audio_index">1</property>
    <property name="video_index">0</property>
    <property name="mute_on_pause">0</property>
    <property name="mlt_service">avformat-novalidate</property>
    <property name="seekable">1</property>
    <property name="aspect_ratio">1</property>
    <property name="creation_time">2021-02-03T03:41:06</property>
    <property name="global_feed">1</property>
    <property name="xml">was here</property>
    <property name="shotcut:hash">8e392e48be4935f7d753048eef069fa1</property>
    <property name="shotcut:caption">2021-02-03 09-50-10.mkv</property>
    <filter id="filter170" in="00:04:19.383" out="00:04:22.300">
      <property name="window">75</property>
      <property name="max_gain">20dB</property>
      <property name="level">12</property>
      <property name="mlt_service">volume</property>
    </filter>
  </producer>
  <producer id="producer176" in="00:00:00.000" out="00:50:55.017">
    <property name="length">00:50:55.033</property>
    <property name="eof">pause</property>
    <property name="resource">C:/Users/Sahid/Videos/QGIS Basic/6_Layouting/2021-02-03 09-50-10.mkv</property>
    <property name="audio_index">1</property>
    <property name="video_index">0</property>
    <property name="mute_on_pause">0</property>
    <property name="mlt_service">avformat-novalidate</property>
    <property name="seekable">1</property>
    <property name="aspect_ratio">1</property>
    <property name="creation_time">2021-02-03T03:41:06</property>
    <property name="global_feed">1</property>
    <property name="xml">was here</property>
    <property name="shotcut:hash">8e392e48be4935f7d753048eef069fa1</property>
    <property name="shotcut:caption">2021-02-03 09-50-10.mkv</property>
    <filter id="filter171" in="00:04:24.500" out="00:04:31.983">
      <property name="window">75</property>
      <property name="max_gain">20dB</property>
      <property name="level">12</property>
      <property name="mlt_service">volume</property>
    </filter>
  </producer>
  <producer id="producer177" in="00:00:00.000" out="00:50:55.017">
    <property name="length">00:50:55.033</property>
    <property name="eof">pause</property>
    <property name="resource">C:/Users/Sahid/Videos/QGIS Basic/6_Layouting/2021-02-03 09-50-10.mkv</property>
    <property name="audio_index">1</property>
    <property name="video_index">0</property>
    <property name="mute_on_pause">0</property>
    <property name="mlt_service">avformat-novalidate</property>
    <property name="seekable">1</property>
    <property name="aspect_ratio">1</property>
    <property name="creation_time">2021-02-03T03:41:06</property>
    <property name="global_feed">1</property>
    <property name="xml">was here</property>
    <property name="shotcut:hash">8e392e48be4935f7d753048eef069fa1</property>
    <property name="shotcut:caption">2021-02-03 09-50-10.mkv</property>
    <filter id="filter172" in="00:04:32.333" out="00:04:33.700">
      <property name="window">75</property>
      <property name="max_gain">20dB</property>
      <property name="level">12</property>
      <property name="mlt_service">volume</property>
    </filter>
  </producer>
  <producer id="producer178" in="00:00:00.000" out="00:50:55.017">
    <property name="length">00:50:55.033</property>
    <property name="eof">pause</property>
    <property name="resource">C:/Users/Sahid/Videos/QGIS Basic/6_Layouting/2021-02-03 09-50-10.mkv</property>
    <property name="audio_index">1</property>
    <property name="video_index">0</property>
    <property name="mute_on_pause">0</property>
    <property name="mlt_service">avformat-novalidate</property>
    <property name="seekable">1</property>
    <property name="aspect_ratio">1</property>
    <property name="creation_time">2021-02-03T03:41:06</property>
    <property name="global_feed">1</property>
    <property name="xml">was here</property>
    <property name="shotcut:hash">8e392e48be4935f7d753048eef069fa1</property>
    <property name="shotcut:caption">2021-02-03 09-50-10.mkv</property>
    <filter id="filter173" in="00:04:34.150" out="00:04:34.683">
      <property name="window">75</property>
      <property name="max_gain">20dB</property>
      <property name="level">12</property>
      <property name="mlt_service">volume</property>
    </filter>
  </producer>
  <producer id="producer179" in="00:00:00.000" out="00:50:55.017">
    <property name="length">00:50:55.033</property>
    <property name="eof">pause</property>
    <property name="resource">C:/Users/Sahid/Videos/QGIS Basic/6_Layouting/2021-02-03 09-50-10.mkv</property>
    <property name="audio_index">1</property>
    <property name="video_index">0</property>
    <property name="mute_on_pause">0</property>
    <property name="mlt_service">avformat-novalidate</property>
    <property name="seekable">1</property>
    <property name="aspect_ratio">1</property>
    <property name="creation_time">2021-02-03T03:41:06</property>
    <property name="global_feed">1</property>
    <property name="xml">was here</property>
    <property name="shotcut:hash">8e392e48be4935f7d753048eef069fa1</property>
    <property name="shotcut:caption">2021-02-03 09-50-10.mkv</property>
    <filter id="filter174" in="00:04:37.550" out="00:04:39.533">
      <property name="window">75</property>
      <property name="max_gain">20dB</property>
      <property name="level">12</property>
      <property name="mlt_service">volume</property>
    </filter>
  </producer>
  <producer id="producer180" in="00:00:00.000" out="00:50:55.017">
    <property name="length">00:50:55.033</property>
    <property name="eof">pause</property>
    <property name="resource">C:/Users/Sahid/Videos/QGIS Basic/6_Layouting/2021-02-03 09-50-10.mkv</property>
    <property name="audio_index">1</property>
    <property name="video_index">0</property>
    <property name="mute_on_pause">0</property>
    <property name="mlt_service">avformat-novalidate</property>
    <property name="seekable">1</property>
    <property name="aspect_ratio">1</property>
    <property name="creation_time">2021-02-03T03:41:06</property>
    <property name="global_feed">1</property>
    <property name="xml">was here</property>
    <property name="shotcut:hash">8e392e48be4935f7d753048eef069fa1</property>
    <property name="shotcut:caption">2021-02-03 09-50-10.mkv</property>
    <filter id="filter175" in="00:04:39.550" out="00:04:42.783">
      <property name="window">75</property>
      <property name="max_gain">20dB</property>
      <property name="level">12</property>
      <property name="mlt_service">volume</property>
    </filter>
  </producer>
  <producer id="producer181" in="00:00:00.000" out="00:50:55.017">
    <property name="length">00:50:55.033</property>
    <property name="eof">pause</property>
    <property name="resource">C:/Users/Sahid/Videos/QGIS Basic/6_Layouting/2021-02-03 09-50-10.mkv</property>
    <property name="audio_index">1</property>
    <property name="video_index">0</property>
    <property name="mute_on_pause">0</property>
    <property name="mlt_service">avformat-novalidate</property>
    <property name="seekable">1</property>
    <property name="aspect_ratio">1</property>
    <property name="creation_time">2021-02-03T03:41:06</property>
    <property name="global_feed">1</property>
    <property name="xml">was here</property>
    <property name="shotcut:hash">8e392e48be4935f7d753048eef069fa1</property>
    <property name="shotcut:caption">2021-02-03 09-50-10.mkv</property>
    <filter id="filter176" in="00:04:48.117" out="00:04:51.717">
      <property name="window">75</property>
      <property name="max_gain">20dB</property>
      <property name="level">12</property>
      <property name="mlt_service">volume</property>
    </filter>
  </producer>
  <producer id="producer182" in="00:00:00.000" out="00:50:55.017">
    <property name="length">00:50:55.033</property>
    <property name="eof">pause</property>
    <property name="resource">C:/Users/Sahid/Videos/QGIS Basic/6_Layouting/2021-02-03 09-50-10.mkv</property>
    <property name="audio_index">1</property>
    <property name="video_index">0</property>
    <property name="mute_on_pause">0</property>
    <property name="mlt_service">avformat-novalidate</property>
    <property name="seekable">1</property>
    <property name="aspect_ratio">1</property>
    <property name="creation_time">2021-02-03T03:41:06</property>
    <property name="global_feed">1</property>
    <property name="xml">was here</property>
    <property name="shotcut:hash">8e392e48be4935f7d753048eef069fa1</property>
    <property name="shotcut:caption">2021-02-03 09-50-10.mkv</property>
    <filter id="filter177" in="00:04:52.467" out="00:04:56.750">
      <property name="window">75</property>
      <property name="max_gain">20dB</property>
      <property name="level">12</property>
      <property name="mlt_service">volume</property>
    </filter>
  </producer>
  <producer id="producer183" in="00:00:00.000" out="00:50:55.017">
    <property name="length">00:50:55.033</property>
    <property name="eof">pause</property>
    <property name="resource">C:/Users/Sahid/Videos/QGIS Basic/6_Layouting/2021-02-03 09-50-10.mkv</property>
    <property name="audio_index">1</property>
    <property name="video_index">0</property>
    <property name="mute_on_pause">0</property>
    <property name="mlt_service">avformat-novalidate</property>
    <property name="seekable">1</property>
    <property name="aspect_ratio">1</property>
    <property name="creation_time">2021-02-03T03:41:06</property>
    <property name="global_feed">1</property>
    <property name="xml">was here</property>
    <property name="shotcut:hash">8e392e48be4935f7d753048eef069fa1</property>
    <property name="shotcut:caption">2021-02-03 09-50-10.mkv</property>
    <filter id="filter178" in="00:04:58.233" out="00:04:59.583">
      <property name="window">75</property>
      <property name="max_gain">20dB</property>
      <property name="level">12</property>
      <property name="mlt_service">volume</property>
    </filter>
  </producer>
  <producer id="producer184" in="00:00:00.000" out="00:50:55.017">
    <property name="length">00:50:55.033</property>
    <property name="eof">pause</property>
    <property name="resource">C:/Users/Sahid/Videos/QGIS Basic/6_Layouting/2021-02-03 09-50-10.mkv</property>
    <property name="audio_index">1</property>
    <property name="video_index">0</property>
    <property name="mute_on_pause">0</property>
    <property name="mlt_service">avformat-novalidate</property>
    <property name="seekable">1</property>
    <property name="aspect_ratio">1</property>
    <property name="creation_time">2021-02-03T03:41:06</property>
    <property name="global_feed">1</property>
    <property name="xml">was here</property>
    <property name="shotcut:hash">8e392e48be4935f7d753048eef069fa1</property>
    <property name="shotcut:caption">2021-02-03 09-50-10.mkv</property>
    <filter id="filter179" in="00:05:00.633" out="00:05:02.950">
      <property name="window">75</property>
      <property name="max_gain">20dB</property>
      <property name="level">12</property>
      <property name="mlt_service">volume</property>
    </filter>
  </producer>
  <producer id="producer185" in="00:00:00.000" out="00:50:55.017">
    <property name="length">00:50:55.033</property>
    <property name="eof">pause</property>
    <property name="resource">C:/Users/Sahid/Videos/QGIS Basic/6_Layouting/2021-02-03 09-50-10.mkv</property>
    <property name="audio_index">1</property>
    <property name="video_index">0</property>
    <property name="mute_on_pause">0</property>
    <property name="mlt_service">avformat-novalidate</property>
    <property name="seekable">1</property>
    <property name="aspect_ratio">1</property>
    <property name="creation_time">2021-02-03T03:41:06</property>
    <property name="global_feed">1</property>
    <property name="xml">was here</property>
    <property name="shotcut:hash">8e392e48be4935f7d753048eef069fa1</property>
    <property name="shotcut:caption">2021-02-03 09-50-10.mkv</property>
    <filter id="filter180" in="00:05:09.967" out="00:05:14.700">
      <property name="window">75</property>
      <property name="max_gain">20dB</property>
      <property name="level">12</property>
      <property name="mlt_service">volume</property>
    </filter>
  </producer>
  <producer id="producer186" in="00:00:00.000" out="00:50:55.017">
    <property name="length">00:50:55.033</property>
    <property name="eof">pause</property>
    <property name="resource">C:/Users/Sahid/Videos/QGIS Basic/6_Layouting/2021-02-03 09-50-10.mkv</property>
    <property name="audio_index">1</property>
    <property name="video_index">0</property>
    <property name="mute_on_pause">0</property>
    <property name="mlt_service">avformat-novalidate</property>
    <property name="seekable">1</property>
    <property name="aspect_ratio">1</property>
    <property name="creation_time">2021-02-03T03:41:06</property>
    <property name="global_feed">1</property>
    <property name="xml">was here</property>
    <property name="shotcut:hash">8e392e48be4935f7d753048eef069fa1</property>
    <property name="shotcut:caption">2021-02-03 09-50-10.mkv</property>
    <filter id="filter181" in="00:05:16.867" out="00:05:19.717">
      <property name="window">75</property>
      <property name="max_gain">20dB</property>
      <property name="level">12</property>
      <property name="mlt_service">volume</property>
    </filter>
  </producer>
  <producer id="producer187" in="00:00:00.000" out="00:50:55.017">
    <property name="length">00:50:55.033</property>
    <property name="eof">pause</property>
    <property name="resource">C:/Users/Sahid/Videos/QGIS Basic/6_Layouting/2021-02-03 09-50-10.mkv</property>
    <property name="audio_index">1</property>
    <property name="video_index">0</property>
    <property name="mute_on_pause">0</property>
    <property name="mlt_service">avformat-novalidate</property>
    <property name="seekable">1</property>
    <property name="aspect_ratio">1</property>
    <property name="creation_time">2021-02-03T03:41:06</property>
    <property name="global_feed">1</property>
    <property name="xml">was here</property>
    <property name="shotcut:hash">8e392e48be4935f7d753048eef069fa1</property>
    <property name="shotcut:caption">2021-02-03 09-50-10.mkv</property>
    <filter id="filter182" in="00:05:24.800" out="00:05:26.683">
      <property name="window">75</property>
      <property name="max_gain">20dB</property>
      <property name="level">12</property>
      <property name="mlt_service">volume</property>
    </filter>
  </producer>
  <producer id="producer188" in="00:00:00.000" out="00:50:55.017">
    <property name="length">00:50:55.033</property>
    <property name="eof">pause</property>
    <property name="resource">C:/Users/Sahid/Videos/QGIS Basic/6_Layouting/2021-02-03 09-50-10.mkv</property>
    <property name="audio_index">1</property>
    <property name="video_index">0</property>
    <property name="mute_on_pause">0</property>
    <property name="mlt_service">avformat-novalidate</property>
    <property name="seekable">1</property>
    <property name="aspect_ratio">1</property>
    <property name="creation_time">2021-02-03T03:41:06</property>
    <property name="global_feed">1</property>
    <property name="xml">was here</property>
    <property name="shotcut:hash">8e392e48be4935f7d753048eef069fa1</property>
    <property name="shotcut:caption">2021-02-03 09-50-10.mkv</property>
    <filter id="filter183" in="00:05:26.700" out="00:05:28.767">
      <property name="window">75</property>
      <property name="max_gain">20dB</property>
      <property name="level">-70</property>
      <property name="mlt_service">volume</property>
    </filter>
  </producer>
  <producer id="producer189" in="00:00:00.000" out="00:50:55.017">
    <property name="length">00:50:55.033</property>
    <property name="eof">pause</property>
    <property name="resource">C:/Users/Sahid/Videos/QGIS Basic/6_Layouting/2021-02-03 09-50-10.mkv</property>
    <property name="audio_index">1</property>
    <property name="video_index">0</property>
    <property name="mute_on_pause">0</property>
    <property name="mlt_service">avformat-novalidate</property>
    <property name="seekable">1</property>
    <property name="aspect_ratio">1</property>
    <property name="creation_time">2021-02-03T03:41:06</property>
    <property name="global_feed">1</property>
    <property name="xml">was here</property>
    <property name="shotcut:hash">8e392e48be4935f7d753048eef069fa1</property>
    <property name="shotcut:caption">2021-02-03 09-50-10.mkv</property>
    <filter id="filter184" in="00:05:28.783" out="00:05:30.450">
      <property name="window">75</property>
      <property name="max_gain">20dB</property>
      <property name="level">12</property>
      <property name="mlt_service">volume</property>
    </filter>
  </producer>
  <producer id="producer190" in="00:00:00.000" out="00:50:55.017">
    <property name="length">00:50:55.033</property>
    <property name="eof">pause</property>
    <property name="resource">C:/Users/Sahid/Videos/QGIS Basic/6_Layouting/2021-02-03 09-50-10.mkv</property>
    <property name="audio_index">1</property>
    <property name="video_index">0</property>
    <property name="mute_on_pause">0</property>
    <property name="mlt_service">avformat-novalidate</property>
    <property name="seekable">1</property>
    <property name="aspect_ratio">1</property>
    <property name="creation_time">2021-02-03T03:41:06</property>
    <property name="global_feed">1</property>
    <property name="xml">was here</property>
    <property name="shotcut:hash">8e392e48be4935f7d753048eef069fa1</property>
    <property name="shotcut:caption">2021-02-03 09-50-10.mkv</property>
    <filter id="filter185" in="00:05:42.367" out="00:05:46.767">
      <property name="window">75</property>
      <property name="max_gain">20dB</property>
      <property name="level">12</property>
      <property name="mlt_service">volume</property>
    </filter>
  </producer>
  <producer id="producer191" in="00:00:00.000" out="00:50:55.017">
    <property name="length">00:50:55.033</property>
    <property name="eof">pause</property>
    <property name="resource">C:/Users/Sahid/Videos/QGIS Basic/6_Layouting/2021-02-03 09-50-10.mkv</property>
    <property name="audio_index">1</property>
    <property name="video_index">0</property>
    <property name="mute_on_pause">0</property>
    <property name="mlt_service">avformat-novalidate</property>
    <property name="seekable">1</property>
    <property name="aspect_ratio">1</property>
    <property name="creation_time">2021-02-03T03:41:06</property>
    <property name="global_feed">1</property>
    <property name="xml">was here</property>
    <property name="shotcut:hash">8e392e48be4935f7d753048eef069fa1</property>
    <property name="shotcut:caption">2021-02-03 09-50-10.mkv</property>
    <filter id="filter186" in="00:05:48.817" out="00:05:51.733">
      <property name="window">75</property>
      <property name="max_gain">20dB</property>
      <property name="level">-70</property>
      <property name="mlt_service">volume</property>
    </filter>
  </producer>
  <producer id="producer192" in="00:00:00.000" out="00:50:55.017">
    <property name="length">00:50:55.033</property>
    <property name="eof">pause</property>
    <property name="resource">C:/Users/Sahid/Videos/QGIS Basic/6_Layouting/2021-02-03 09-50-10.mkv</property>
    <property name="audio_index">1</property>
    <property name="video_index">0</property>
    <property name="mute_on_pause">0</property>
    <property name="mlt_service">avformat-novalidate</property>
    <property name="seekable">1</property>
    <property name="aspect_ratio">1</property>
    <property name="creation_time">2021-02-03T03:41:06</property>
    <property name="global_feed">1</property>
    <property name="xml">was here</property>
    <property name="shotcut:hash">8e392e48be4935f7d753048eef069fa1</property>
    <property name="shotcut:caption">2021-02-03 09-50-10.mkv</property>
    <filter id="filter187" in="00:05:53.050" out="00:05:55.983">
      <property name="window">75</property>
      <property name="max_gain">20dB</property>
      <property name="level">12</property>
      <property name="mlt_service">volume</property>
    </filter>
  </producer>
  <producer id="producer193" in="00:00:00.000" out="00:50:55.017">
    <property name="length">00:50:55.033</property>
    <property name="eof">pause</property>
    <property name="resource">C:/Users/Sahid/Videos/QGIS Basic/6_Layouting/2021-02-03 09-50-10.mkv</property>
    <property name="audio_index">1</property>
    <property name="video_index">0</property>
    <property name="mute_on_pause">0</property>
    <property name="mlt_service">avformat-novalidate</property>
    <property name="seekable">1</property>
    <property name="aspect_ratio">1</property>
    <property name="creation_time">2021-02-03T03:41:06</property>
    <property name="global_feed">1</property>
    <property name="xml">was here</property>
    <property name="shotcut:hash">8e392e48be4935f7d753048eef069fa1</property>
    <property name="shotcut:caption">2021-02-03 09-50-10.mkv</property>
    <filter id="filter188" in="00:05:57.117" out="00:06:01.733">
      <property name="window">75</property>
      <property name="max_gain">20dB</property>
      <property name="level">12</property>
      <property name="mlt_service">volume</property>
    </filter>
  </producer>
  <producer id="producer194" in="00:00:00.000" out="00:50:55.017">
    <property name="length">00:50:55.033</property>
    <property name="eof">pause</property>
    <property name="resource">C:/Users/Sahid/Videos/QGIS Basic/6_Layouting/2021-02-03 09-50-10.mkv</property>
    <property name="audio_index">1</property>
    <property name="video_index">0</property>
    <property name="mute_on_pause">0</property>
    <property name="mlt_service">avformat-novalidate</property>
    <property name="seekable">1</property>
    <property name="aspect_ratio">1</property>
    <property name="creation_time">2021-02-03T03:41:06</property>
    <property name="global_feed">1</property>
    <property name="xml">was here</property>
    <property name="shotcut:hash">8e392e48be4935f7d753048eef069fa1</property>
    <property name="shotcut:caption">2021-02-03 09-50-10.mkv</property>
    <filter id="filter189" in="00:06:14.333" out="00:06:17.033">
      <property name="window">75</property>
      <property name="max_gain">20dB</property>
      <property name="level">12</property>
      <property name="mlt_service">volume</property>
    </filter>
  </producer>
  <producer id="producer195" in="00:00:00.000" out="00:50:55.017">
    <property name="length">00:50:55.033</property>
    <property name="eof">pause</property>
    <property name="resource">C:/Users/Sahid/Videos/QGIS Basic/6_Layouting/2021-02-03 09-50-10.mkv</property>
    <property name="audio_index">1</property>
    <property name="video_index">0</property>
    <property name="mute_on_pause">0</property>
    <property name="mlt_service">avformat-novalidate</property>
    <property name="seekable">1</property>
    <property name="aspect_ratio">1</property>
    <property name="creation_time">2021-02-03T03:41:06</property>
    <property name="global_feed">1</property>
    <property name="xml">was here</property>
    <property name="shotcut:hash">8e392e48be4935f7d753048eef069fa1</property>
    <property name="shotcut:caption">2021-02-03 09-50-10.mkv</property>
    <filter id="filter190" in="00:06:35.733" out="00:06:38.433">
      <property name="window">75</property>
      <property name="max_gain">20dB</property>
      <property name="level">12</property>
      <property name="mlt_service">volume</property>
    </filter>
  </producer>
  <producer id="producer196" in="00:00:00.000" out="00:50:55.017">
    <property name="length">00:50:55.033</property>
    <property name="eof">pause</property>
    <property name="resource">C:/Users/Sahid/Videos/QGIS Basic/6_Layouting/2021-02-03 09-50-10.mkv</property>
    <property name="audio_index">1</property>
    <property name="video_index">0</property>
    <property name="mute_on_pause">0</property>
    <property name="mlt_service">avformat-novalidate</property>
    <property name="seekable">1</property>
    <property name="aspect_ratio">1</property>
    <property name="creation_time">2021-02-03T03:41:06</property>
    <property name="global_feed">1</property>
    <property name="xml">was here</property>
    <property name="shotcut:hash">8e392e48be4935f7d753048eef069fa1</property>
    <property name="shotcut:caption">2021-02-03 09-50-10.mkv</property>
    <filter id="filter191" in="00:06:40.917" out="00:06:44.417">
      <property name="window">75</property>
      <property name="max_gain">20dB</property>
      <property name="level">12</property>
      <property name="mlt_service">volume</property>
    </filter>
  </producer>
  <producer id="producer197" in="00:00:00.000" out="00:50:55.017">
    <property name="length">00:50:55.033</property>
    <property name="eof">pause</property>
    <property name="resource">C:/Users/Sahid/Videos/QGIS Basic/6_Layouting/2021-02-03 09-50-10.mkv</property>
    <property name="audio_index">1</property>
    <property name="video_index">0</property>
    <property name="mute_on_pause">0</property>
    <property name="mlt_service">avformat-novalidate</property>
    <property name="seekable">1</property>
    <property name="aspect_ratio">1</property>
    <property name="creation_time">2021-02-03T03:41:06</property>
    <property name="global_feed">1</property>
    <property name="xml">was here</property>
    <property name="shotcut:hash">8e392e48be4935f7d753048eef069fa1</property>
    <property name="shotcut:caption">2021-02-03 09-50-10.mkv</property>
    <filter id="filter192" in="00:07:13.283" out="00:07:14.083">
      <property name="window">75</property>
      <property name="max_gain">20dB</property>
      <property name="level">12</property>
      <property name="mlt_service">volume</property>
    </filter>
  </producer>
  <producer id="producer198" in="00:00:00.000" out="00:50:55.017">
    <property name="length">00:50:55.033</property>
    <property name="eof">pause</property>
    <property name="resource">C:/Users/Sahid/Videos/QGIS Basic/6_Layouting/2021-02-03 09-50-10.mkv</property>
    <property name="audio_index">1</property>
    <property name="video_index">0</property>
    <property name="mute_on_pause">0</property>
    <property name="mlt_service">avformat-novalidate</property>
    <property name="seekable">1</property>
    <property name="aspect_ratio">1</property>
    <property name="creation_time">2021-02-03T03:41:06</property>
    <property name="global_feed">1</property>
    <property name="xml">was here</property>
    <property name="shotcut:hash">8e392e48be4935f7d753048eef069fa1</property>
    <property name="shotcut:caption">2021-02-03 09-50-10.mkv</property>
    <filter id="filter193" in="00:07:14.950" out="00:07:19.017">
      <property name="window">75</property>
      <property name="max_gain">20dB</property>
      <property name="level">12</property>
      <property name="mlt_service">volume</property>
    </filter>
  </producer>
  <producer id="producer199" in="00:00:00.000" out="00:50:55.017">
    <property name="length">00:50:55.033</property>
    <property name="eof">pause</property>
    <property name="resource">C:/Users/Sahid/Videos/QGIS Basic/6_Layouting/2021-02-03 09-50-10.mkv</property>
    <property name="audio_index">1</property>
    <property name="video_index">0</property>
    <property name="mute_on_pause">0</property>
    <property name="mlt_service">avformat-novalidate</property>
    <property name="seekable">1</property>
    <property name="aspect_ratio">1</property>
    <property name="creation_time">2021-02-03T03:41:06</property>
    <property name="global_feed">1</property>
    <property name="xml">was here</property>
    <property name="shotcut:hash">8e392e48be4935f7d753048eef069fa1</property>
    <property name="shotcut:caption">2021-02-03 09-50-10.mkv</property>
    <filter id="filter194" in="00:07:36.567" out="00:07:41.317">
      <property name="window">75</property>
      <property name="max_gain">20dB</property>
      <property name="level">12</property>
      <property name="mlt_service">volume</property>
    </filter>
  </producer>
  <producer id="producer200" in="00:00:00.000" out="00:50:55.017">
    <property name="length">00:50:55.033</property>
    <property name="eof">pause</property>
    <property name="resource">C:/Users/Sahid/Videos/QGIS Basic/6_Layouting/2021-02-03 09-50-10.mkv</property>
    <property name="audio_index">1</property>
    <property name="video_index">0</property>
    <property name="mute_on_pause">0</property>
    <property name="mlt_service">avformat-novalidate</property>
    <property name="seekable">1</property>
    <property name="aspect_ratio">1</property>
    <property name="creation_time">2021-02-03T03:41:06</property>
    <property name="global_feed">1</property>
    <property name="xml">was here</property>
    <property name="shotcut:hash">8e392e48be4935f7d753048eef069fa1</property>
    <property name="shotcut:caption">2021-02-03 09-50-10.mkv</property>
    <filter id="filter195" in="00:07:41.333" out="00:07:44.033">
      <property name="window">75</property>
      <property name="max_gain">20dB</property>
      <property name="level">12</property>
      <property name="mlt_service">volume</property>
    </filter>
  </producer>
  <producer id="producer201" in="00:00:00.000" out="00:50:55.017">
    <property name="length">00:50:55.033</property>
    <property name="eof">pause</property>
    <property name="resource">C:/Users/Sahid/Videos/QGIS Basic/6_Layouting/2021-02-03 09-50-10.mkv</property>
    <property name="audio_index">1</property>
    <property name="video_index">0</property>
    <property name="mute_on_pause">0</property>
    <property name="mlt_service">avformat-novalidate</property>
    <property name="seekable">1</property>
    <property name="aspect_ratio">1</property>
    <property name="creation_time">2021-02-03T03:41:06</property>
    <property name="global_feed">1</property>
    <property name="xml">was here</property>
    <property name="shotcut:hash">8e392e48be4935f7d753048eef069fa1</property>
    <property name="shotcut:caption">2021-02-03 09-50-10.mkv</property>
    <filter id="filter196" in="00:07:44.050" out="00:07:46.883">
      <property name="window">75</property>
      <property name="max_gain">20dB</property>
      <property name="level">12</property>
      <property name="mlt_service">volume</property>
    </filter>
  </producer>
  <producer id="producer202" in="00:00:00.000" out="00:50:55.017">
    <property name="length">00:50:55.033</property>
    <property name="eof">pause</property>
    <property name="resource">C:/Users/Sahid/Videos/QGIS Basic/6_Layouting/2021-02-03 09-50-10.mkv</property>
    <property name="audio_index">1</property>
    <property name="video_index">0</property>
    <property name="mute_on_pause">0</property>
    <property name="mlt_service">avformat-novalidate</property>
    <property name="seekable">1</property>
    <property name="aspect_ratio">1</property>
    <property name="creation_time">2021-02-03T03:41:06</property>
    <property name="global_feed">1</property>
    <property name="xml">was here</property>
    <property name="shotcut:hash">8e392e48be4935f7d753048eef069fa1</property>
    <property name="shotcut:caption">2021-02-03 09-50-10.mkv</property>
    <filter id="filter197" in="00:07:50.150" out="00:07:52.483">
      <property name="window">75</property>
      <property name="max_gain">20dB</property>
      <property name="level">12</property>
      <property name="mlt_service">volume</property>
    </filter>
  </producer>
  <producer id="producer203" in="00:00:00.000" out="00:50:55.017">
    <property name="length">00:50:55.033</property>
    <property name="eof">pause</property>
    <property name="resource">C:/Users/Sahid/Videos/QGIS Basic/6_Layouting/2021-02-03 09-50-10.mkv</property>
    <property name="audio_index">1</property>
    <property name="video_index">0</property>
    <property name="mute_on_pause">0</property>
    <property name="mlt_service">avformat-novalidate</property>
    <property name="seekable">1</property>
    <property name="aspect_ratio">1</property>
    <property name="creation_time">2021-02-03T03:41:06</property>
    <property name="global_feed">1</property>
    <property name="xml">was here</property>
    <property name="shotcut:hash">8e392e48be4935f7d753048eef069fa1</property>
    <property name="shotcut:caption">2021-02-03 09-50-10.mkv</property>
    <filter id="filter198" in="00:07:52.500" out="00:07:55.167">
      <property name="window">75</property>
      <property name="max_gain">20dB</property>
      <property name="level">12</property>
      <property name="mlt_service">volume</property>
    </filter>
  </producer>
  <producer id="producer204" in="00:00:00.000" out="00:50:55.017">
    <property name="length">00:50:55.033</property>
    <property name="eof">pause</property>
    <property name="resource">C:/Users/Sahid/Videos/QGIS Basic/6_Layouting/2021-02-03 09-50-10.mkv</property>
    <property name="audio_index">1</property>
    <property name="video_index">0</property>
    <property name="mute_on_pause">0</property>
    <property name="mlt_service">avformat-novalidate</property>
    <property name="seekable">1</property>
    <property name="aspect_ratio">1</property>
    <property name="creation_time">2021-02-03T03:41:06</property>
    <property name="global_feed">1</property>
    <property name="xml">was here</property>
    <property name="shotcut:hash">8e392e48be4935f7d753048eef069fa1</property>
    <property name="shotcut:caption">2021-02-03 09-50-10.mkv</property>
    <filter id="filter199" in="00:07:55.800" out="00:08:00.117">
      <property name="window">75</property>
      <property name="max_gain">20dB</property>
      <property name="level">12</property>
      <property name="mlt_service">volume</property>
    </filter>
  </producer>
  <producer id="producer205" in="00:00:00.000" out="00:50:55.017">
    <property name="length">00:50:55.033</property>
    <property name="eof">pause</property>
    <property name="resource">C:/Users/Sahid/Videos/QGIS Basic/6_Layouting/2021-02-03 09-50-10.mkv</property>
    <property name="audio_index">1</property>
    <property name="video_index">0</property>
    <property name="mute_on_pause">0</property>
    <property name="mlt_service">avformat-novalidate</property>
    <property name="seekable">1</property>
    <property name="aspect_ratio">1</property>
    <property name="creation_time">2021-02-03T03:41:06</property>
    <property name="global_feed">1</property>
    <property name="xml">was here</property>
    <property name="shotcut:hash">8e392e48be4935f7d753048eef069fa1</property>
    <property name="shotcut:caption">2021-02-03 09-50-10.mkv</property>
    <filter id="filter200" in="00:08:02.150" out="00:08:05.467">
      <property name="window">75</property>
      <property name="max_gain">20dB</property>
      <property name="level">12</property>
      <property name="mlt_service">volume</property>
    </filter>
  </producer>
  <producer id="producer206" in="00:00:00.000" out="00:50:55.017">
    <property name="length">00:50:55.033</property>
    <property name="eof">pause</property>
    <property name="resource">C:/Users/Sahid/Videos/QGIS Basic/6_Layouting/2021-02-03 09-50-10.mkv</property>
    <property name="audio_index">1</property>
    <property name="video_index">0</property>
    <property name="mute_on_pause">0</property>
    <property name="mlt_service">avformat-novalidate</property>
    <property name="seekable">1</property>
    <property name="aspect_ratio">1</property>
    <property name="creation_time">2021-02-03T03:41:06</property>
    <property name="global_feed">1</property>
    <property name="xml">was here</property>
    <property name="shotcut:hash">8e392e48be4935f7d753048eef069fa1</property>
    <property name="shotcut:caption">2021-02-03 09-50-10.mkv</property>
    <filter id="filter201" in="00:08:18.050" out="00:08:23.417">
      <property name="window">75</property>
      <property name="max_gain">20dB</property>
      <property name="level">12</property>
      <property name="mlt_service">volume</property>
    </filter>
  </producer>
  <producer id="producer207" in="00:00:00.000" out="00:50:55.017">
    <property name="length">00:50:55.033</property>
    <property name="eof">pause</property>
    <property name="resource">C:/Users/Sahid/Videos/QGIS Basic/6_Layouting/2021-02-03 09-50-10.mkv</property>
    <property name="audio_index">1</property>
    <property name="video_index">0</property>
    <property name="mute_on_pause">0</property>
    <property name="mlt_service">avformat-novalidate</property>
    <property name="seekable">1</property>
    <property name="aspect_ratio">1</property>
    <property name="creation_time">2021-02-03T03:41:06</property>
    <property name="global_feed">1</property>
    <property name="xml">was here</property>
    <property name="shotcut:hash">8e392e48be4935f7d753048eef069fa1</property>
    <property name="shotcut:caption">2021-02-03 09-50-10.mkv</property>
    <filter id="filter202" in="00:08:23.900" out="00:08:26.633">
      <property name="window">75</property>
      <property name="max_gain">20dB</property>
      <property name="level">12</property>
      <property name="mlt_service">volume</property>
    </filter>
  </producer>
  <producer id="producer208" in="00:00:00.000" out="00:50:55.017">
    <property name="length">00:50:55.033</property>
    <property name="eof">pause</property>
    <property name="resource">C:/Users/Sahid/Videos/QGIS Basic/6_Layouting/2021-02-03 09-50-10.mkv</property>
    <property name="audio_index">1</property>
    <property name="video_index">0</property>
    <property name="mute_on_pause">0</property>
    <property name="mlt_service">avformat-novalidate</property>
    <property name="seekable">1</property>
    <property name="aspect_ratio">1</property>
    <property name="creation_time">2021-02-03T03:41:06</property>
    <property name="global_feed">1</property>
    <property name="xml">was here</property>
    <property name="shotcut:hash">8e392e48be4935f7d753048eef069fa1</property>
    <property name="shotcut:caption">2021-02-03 09-50-10.mkv</property>
    <filter id="filter203" in="00:08:32.450" out="00:08:35.217">
      <property name="window">75</property>
      <property name="max_gain">20dB</property>
      <property name="level">12</property>
      <property name="mlt_service">volume</property>
    </filter>
  </producer>
  <producer id="producer209" in="00:00:00.000" out="00:50:55.017">
    <property name="length">00:50:55.033</property>
    <property name="eof">pause</property>
    <property name="resource">C:/Users/Sahid/Videos/QGIS Basic/6_Layouting/2021-02-03 09-50-10.mkv</property>
    <property name="audio_index">1</property>
    <property name="video_index">0</property>
    <property name="mute_on_pause">0</property>
    <property name="mlt_service">avformat-novalidate</property>
    <property name="seekable">1</property>
    <property name="aspect_ratio">1</property>
    <property name="creation_time">2021-02-03T03:41:06</property>
    <property name="global_feed">1</property>
    <property name="xml">was here</property>
    <property name="shotcut:hash">8e392e48be4935f7d753048eef069fa1</property>
    <property name="shotcut:caption">2021-02-03 09-50-10.mkv</property>
    <filter id="filter204" in="00:08:37.083" out="00:08:39.150">
      <property name="window">75</property>
      <property name="max_gain">20dB</property>
      <property name="level">12</property>
      <property name="mlt_service">volume</property>
    </filter>
  </producer>
  <producer id="producer210" in="00:00:00.000" out="00:50:55.017">
    <property name="length">00:50:55.033</property>
    <property name="eof">pause</property>
    <property name="resource">C:/Users/Sahid/Videos/QGIS Basic/6_Layouting/2021-02-03 09-50-10.mkv</property>
    <property name="audio_index">1</property>
    <property name="video_index">0</property>
    <property name="mute_on_pause">0</property>
    <property name="mlt_service">avformat-novalidate</property>
    <property name="seekable">1</property>
    <property name="aspect_ratio">1</property>
    <property name="creation_time">2021-02-03T03:41:06</property>
    <property name="global_feed">1</property>
    <property name="xml">was here</property>
    <property name="shotcut:hash">8e392e48be4935f7d753048eef069fa1</property>
    <property name="shotcut:caption">2021-02-03 09-50-10.mkv</property>
    <filter id="filter205" in="00:08:42.267" out="00:08:47.833">
      <property name="window">75</property>
      <property name="max_gain">20dB</property>
      <property name="level">12</property>
      <property name="mlt_service">volume</property>
    </filter>
  </producer>
  <producer id="producer211" in="00:00:00.000" out="00:50:55.017">
    <property name="length">00:50:55.033</property>
    <property name="eof">pause</property>
    <property name="resource">C:/Users/Sahid/Videos/QGIS Basic/6_Layouting/2021-02-03 09-50-10.mkv</property>
    <property name="audio_index">1</property>
    <property name="video_index">0</property>
    <property name="mute_on_pause">0</property>
    <property name="mlt_service">avformat-novalidate</property>
    <property name="seekable">1</property>
    <property name="aspect_ratio">1</property>
    <property name="creation_time">2021-02-03T03:41:06</property>
    <property name="global_feed">1</property>
    <property name="xml">was here</property>
    <property name="shotcut:hash">8e392e48be4935f7d753048eef069fa1</property>
    <property name="shotcut:caption">2021-02-03 09-50-10.mkv</property>
    <filter id="filter206" in="00:08:50.450" out="00:09:01.417">
      <property name="window">75</property>
      <property name="max_gain">20dB</property>
      <property name="level">12</property>
      <property name="mlt_service">volume</property>
    </filter>
  </producer>
  <producer id="producer212" in="00:00:00.000" out="00:50:55.017">
    <property name="length">00:50:55.033</property>
    <property name="eof">pause</property>
    <property name="resource">C:/Users/Sahid/Videos/QGIS Basic/6_Layouting/2021-02-03 09-50-10.mkv</property>
    <property name="audio_index">1</property>
    <property name="video_index">0</property>
    <property name="mute_on_pause">0</property>
    <property name="mlt_service">avformat-novalidate</property>
    <property name="seekable">1</property>
    <property name="aspect_ratio">1</property>
    <property name="creation_time">2021-02-03T03:41:06</property>
    <property name="global_feed">1</property>
    <property name="xml">was here</property>
    <property name="shotcut:hash">8e392e48be4935f7d753048eef069fa1</property>
    <property name="shotcut:caption">2021-02-03 09-50-10.mkv</property>
    <filter id="filter207" in="00:09:02.300" out="00:09:05.133">
      <property name="window">75</property>
      <property name="max_gain">20dB</property>
      <property name="level">12</property>
      <property name="mlt_service">volume</property>
    </filter>
  </producer>
  <producer id="producer213" in="00:00:00.000" out="00:50:55.017">
    <property name="length">00:50:55.033</property>
    <property name="eof">pause</property>
    <property name="resource">C:/Users/Sahid/Videos/QGIS Basic/6_Layouting/2021-02-03 09-50-10.mkv</property>
    <property name="audio_index">1</property>
    <property name="video_index">0</property>
    <property name="mute_on_pause">0</property>
    <property name="mlt_service">avformat-novalidate</property>
    <property name="seekable">1</property>
    <property name="aspect_ratio">1</property>
    <property name="creation_time">2021-02-03T03:41:06</property>
    <property name="global_feed">1</property>
    <property name="xml">was here</property>
    <property name="shotcut:hash">8e392e48be4935f7d753048eef069fa1</property>
    <property name="shotcut:caption">2021-02-03 09-50-10.mkv</property>
    <filter id="filter208" in="00:09:09.450" out="00:09:13.283">
      <property name="window">75</property>
      <property name="max_gain">20dB</property>
      <property name="level">12</property>
      <property name="mlt_service">volume</property>
    </filter>
  </producer>
  <producer id="producer214" in="00:00:00.000" out="00:50:55.017">
    <property name="length">00:50:55.033</property>
    <property name="eof">pause</property>
    <property name="resource">C:/Users/Sahid/Videos/QGIS Basic/6_Layouting/2021-02-03 09-50-10.mkv</property>
    <property name="audio_index">1</property>
    <property name="video_index">0</property>
    <property name="mute_on_pause">0</property>
    <property name="mlt_service">avformat-novalidate</property>
    <property name="seekable">1</property>
    <property name="aspect_ratio">1</property>
    <property name="creation_time">2021-02-03T03:41:06</property>
    <property name="global_feed">1</property>
    <property name="xml">was here</property>
    <property name="shotcut:hash">8e392e48be4935f7d753048eef069fa1</property>
    <property name="shotcut:caption">2021-02-03 09-50-10.mkv</property>
    <filter id="filter209" in="00:09:18.233" out="00:09:24.217">
      <property name="window">75</property>
      <property name="max_gain">20dB</property>
      <property name="level">12</property>
      <property name="mlt_service">volume</property>
    </filter>
  </producer>
  <producer id="producer215" in="00:00:00.000" out="00:50:55.017">
    <property name="length">00:50:55.033</property>
    <property name="eof">pause</property>
    <property name="resource">C:/Users/Sahid/Videos/QGIS Basic/6_Layouting/2021-02-03 09-50-10.mkv</property>
    <property name="audio_index">1</property>
    <property name="video_index">0</property>
    <property name="mute_on_pause">0</property>
    <property name="mlt_service">avformat-novalidate</property>
    <property name="seekable">1</property>
    <property name="aspect_ratio">1</property>
    <property name="creation_time">2021-02-03T03:41:06</property>
    <property name="global_feed">1</property>
    <property name="xml">was here</property>
    <property name="shotcut:hash">8e392e48be4935f7d753048eef069fa1</property>
    <property name="shotcut:caption">2021-02-03 09-50-10.mkv</property>
    <filter id="filter210" in="00:09:24.233" out="00:09:29.267">
      <property name="window">75</property>
      <property name="max_gain">20dB</property>
      <property name="level">12</property>
      <property name="mlt_service">volume</property>
    </filter>
  </producer>
  <producer id="producer216" in="00:00:00.000" out="00:50:55.017">
    <property name="length">00:50:55.033</property>
    <property name="eof">pause</property>
    <property name="resource">C:/Users/Sahid/Videos/QGIS Basic/6_Layouting/2021-02-03 09-50-10.mkv</property>
    <property name="audio_index">1</property>
    <property name="video_index">0</property>
    <property name="mute_on_pause">0</property>
    <property name="mlt_service">avformat-novalidate</property>
    <property name="seekable">1</property>
    <property name="aspect_ratio">1</property>
    <property name="creation_time">2021-02-03T03:41:06</property>
    <property name="global_feed">1</property>
    <property name="xml">was here</property>
    <property name="shotcut:hash">8e392e48be4935f7d753048eef069fa1</property>
    <property name="shotcut:caption">2021-02-03 09-50-10.mkv</property>
    <filter id="filter211" in="00:09:38.217" out="00:09:42.250">
      <property name="window">75</property>
      <property name="max_gain">20dB</property>
      <property name="level">12</property>
      <property name="mlt_service">volume</property>
    </filter>
  </producer>
  <producer id="producer217" in="00:00:00.000" out="00:50:55.017">
    <property name="length">00:50:55.033</property>
    <property name="eof">pause</property>
    <property name="resource">C:/Users/Sahid/Videos/QGIS Basic/6_Layouting/2021-02-03 09-50-10.mkv</property>
    <property name="audio_index">1</property>
    <property name="video_index">0</property>
    <property name="mute_on_pause">0</property>
    <property name="mlt_service">avformat-novalidate</property>
    <property name="seekable">1</property>
    <property name="aspect_ratio">1</property>
    <property name="creation_time">2021-02-03T03:41:06</property>
    <property name="global_feed">1</property>
    <property name="xml">was here</property>
    <property name="shotcut:hash">8e392e48be4935f7d753048eef069fa1</property>
    <property name="shotcut:caption">2021-02-03 09-50-10.mkv</property>
    <filter id="filter212" in="00:09:53.700" out="00:09:57.917">
      <property name="window">75</property>
      <property name="max_gain">20dB</property>
      <property name="level">12</property>
      <property name="mlt_service">volume</property>
    </filter>
  </producer>
  <producer id="producer218" in="00:00:00.000" out="00:50:55.017">
    <property name="length">00:50:55.033</property>
    <property name="eof">pause</property>
    <property name="resource">C:/Users/Sahid/Videos/QGIS Basic/6_Layouting/2021-02-03 09-50-10.mkv</property>
    <property name="audio_index">1</property>
    <property name="video_index">0</property>
    <property name="mute_on_pause">0</property>
    <property name="mlt_service">avformat-novalidate</property>
    <property name="seekable">1</property>
    <property name="aspect_ratio">1</property>
    <property name="creation_time">2021-02-03T03:41:06</property>
    <property name="global_feed">1</property>
    <property name="xml">was here</property>
    <property name="shotcut:hash">8e392e48be4935f7d753048eef069fa1</property>
    <property name="shotcut:caption">2021-02-03 09-50-10.mkv</property>
    <filter id="filter213" in="00:10:00.333" out="00:10:03.150">
      <property name="window">75</property>
      <property name="max_gain">20dB</property>
      <property name="level">12</property>
      <property name="mlt_service">volume</property>
    </filter>
  </producer>
  <producer id="producer219" in="00:00:00.000" out="00:50:55.017">
    <property name="length">00:50:55.033</property>
    <property name="eof">pause</property>
    <property name="resource">C:/Users/Sahid/Videos/QGIS Basic/6_Layouting/2021-02-03 09-50-10.mkv</property>
    <property name="audio_index">1</property>
    <property name="video_index">0</property>
    <property name="mute_on_pause">0</property>
    <property name="mlt_service">avformat-novalidate</property>
    <property name="seekable">1</property>
    <property name="aspect_ratio">1</property>
    <property name="creation_time">2021-02-03T03:41:06</property>
    <property name="global_feed">1</property>
    <property name="xml">was here</property>
    <property name="shotcut:hash">8e392e48be4935f7d753048eef069fa1</property>
    <property name="shotcut:caption">2021-02-03 09-50-10.mkv</property>
    <filter id="filter214" in="00:10:09.017" out="00:10:13.000">
      <property name="window">75</property>
      <property name="max_gain">20dB</property>
      <property name="level">12</property>
      <property name="mlt_service">volume</property>
    </filter>
  </producer>
  <producer id="producer220" in="00:00:00.000" out="00:50:55.017">
    <property name="length">00:50:55.033</property>
    <property name="eof">pause</property>
    <property name="resource">C:/Users/Sahid/Videos/QGIS Basic/6_Layouting/2021-02-03 09-50-10.mkv</property>
    <property name="audio_index">1</property>
    <property name="video_index">0</property>
    <property name="mute_on_pause">0</property>
    <property name="mlt_service">avformat-novalidate</property>
    <property name="seekable">1</property>
    <property name="aspect_ratio">1</property>
    <property name="creation_time">2021-02-03T03:41:06</property>
    <property name="global_feed">1</property>
    <property name="xml">was here</property>
    <property name="shotcut:hash">8e392e48be4935f7d753048eef069fa1</property>
    <property name="shotcut:caption">2021-02-03 09-50-10.mkv</property>
    <filter id="filter215" in="00:10:14.600" out="00:10:17.100">
      <property name="window">75</property>
      <property name="max_gain">20dB</property>
      <property name="level">12</property>
      <property name="mlt_service">volume</property>
    </filter>
  </producer>
  <producer id="producer221" in="00:00:00.000" out="00:50:55.017">
    <property name="length">00:50:55.033</property>
    <property name="eof">pause</property>
    <property name="resource">C:/Users/Sahid/Videos/QGIS Basic/6_Layouting/2021-02-03 09-50-10.mkv</property>
    <property name="audio_index">1</property>
    <property name="video_index">0</property>
    <property name="mute_on_pause">0</property>
    <property name="mlt_service">avformat-novalidate</property>
    <property name="seekable">1</property>
    <property name="aspect_ratio">1</property>
    <property name="creation_time">2021-02-03T03:41:06</property>
    <property name="global_feed">1</property>
    <property name="xml">was here</property>
    <property name="shotcut:hash">8e392e48be4935f7d753048eef069fa1</property>
    <property name="shotcut:caption">2021-02-03 09-50-10.mkv</property>
    <filter id="filter216" in="00:10:17.117" out="00:10:20.050">
      <property name="window">75</property>
      <property name="max_gain">20dB</property>
      <property name="level">12</property>
      <property name="mlt_service">volume</property>
    </filter>
  </producer>
  <producer id="producer222" in="00:00:00.000" out="00:50:55.017">
    <property name="length">00:50:55.033</property>
    <property name="eof">pause</property>
    <property name="resource">C:/Users/Sahid/Videos/QGIS Basic/6_Layouting/2021-02-03 09-50-10.mkv</property>
    <property name="audio_index">1</property>
    <property name="video_index">0</property>
    <property name="mute_on_pause">0</property>
    <property name="mlt_service">avformat-novalidate</property>
    <property name="seekable">1</property>
    <property name="aspect_ratio">1</property>
    <property name="creation_time">2021-02-03T03:41:06</property>
    <property name="global_feed">1</property>
    <property name="xml">was here</property>
    <property name="shotcut:hash">8e392e48be4935f7d753048eef069fa1</property>
    <property name="shotcut:caption">2021-02-03 09-50-10.mkv</property>
    <filter id="filter217" in="00:10:21.433" out="00:10:23.217">
      <property name="window">75</property>
      <property name="max_gain">20dB</property>
      <property name="level">12</property>
      <property name="mlt_service">volume</property>
    </filter>
  </producer>
  <producer id="producer223" in="00:00:00.000" out="00:50:55.017">
    <property name="length">00:50:55.033</property>
    <property name="eof">pause</property>
    <property name="resource">C:/Users/Sahid/Videos/QGIS Basic/6_Layouting/2021-02-03 09-50-10.mkv</property>
    <property name="audio_index">1</property>
    <property name="video_index">0</property>
    <property name="mute_on_pause">0</property>
    <property name="mlt_service">avformat-novalidate</property>
    <property name="seekable">1</property>
    <property name="aspect_ratio">1</property>
    <property name="creation_time">2021-02-03T03:41:06</property>
    <property name="global_feed">1</property>
    <property name="xml">was here</property>
    <property name="shotcut:hash">8e392e48be4935f7d753048eef069fa1</property>
    <property name="shotcut:caption">2021-02-03 09-50-10.mkv</property>
    <filter id="filter218" in="00:10:23.233" out="00:10:25.067">
      <property name="window">75</property>
      <property name="max_gain">20dB</property>
      <property name="level">12</property>
      <property name="mlt_service">volume</property>
    </filter>
  </producer>
  <producer id="producer224" in="00:00:00.000" out="00:50:55.017">
    <property name="length">00:50:55.033</property>
    <property name="eof">pause</property>
    <property name="resource">C:/Users/Sahid/Videos/QGIS Basic/6_Layouting/2021-02-03 09-50-10.mkv</property>
    <property name="audio_index">1</property>
    <property name="video_index">0</property>
    <property name="mute_on_pause">0</property>
    <property name="mlt_service">avformat-novalidate</property>
    <property name="seekable">1</property>
    <property name="aspect_ratio">1</property>
    <property name="creation_time">2021-02-03T03:41:06</property>
    <property name="global_feed">1</property>
    <property name="xml">was here</property>
    <property name="shotcut:hash">8e392e48be4935f7d753048eef069fa1</property>
    <property name="shotcut:caption">2021-02-03 09-50-10.mkv</property>
    <filter id="filter219" in="00:10:26.467" out="00:10:27.483">
      <property name="window">75</property>
      <property name="max_gain">20dB</property>
      <property name="level">12</property>
      <property name="mlt_service">volume</property>
    </filter>
  </producer>
  <producer id="producer225" in="00:00:00.000" out="00:50:55.017">
    <property name="length">00:50:55.033</property>
    <property name="eof">pause</property>
    <property name="resource">C:/Users/Sahid/Videos/QGIS Basic/6_Layouting/2021-02-03 09-50-10.mkv</property>
    <property name="audio_index">1</property>
    <property name="video_index">0</property>
    <property name="mute_on_pause">0</property>
    <property name="mlt_service">avformat-novalidate</property>
    <property name="seekable">1</property>
    <property name="aspect_ratio">1</property>
    <property name="creation_time">2021-02-03T03:41:06</property>
    <property name="global_feed">1</property>
    <property name="xml">was here</property>
    <property name="shotcut:hash">8e392e48be4935f7d753048eef069fa1</property>
    <property name="shotcut:caption">2021-02-03 09-50-10.mkv</property>
    <filter id="filter220" in="00:10:37.967" out="00:10:46.100">
      <property name="window">75</property>
      <property name="max_gain">20dB</property>
      <property name="level">12</property>
      <property name="mlt_service">volume</property>
    </filter>
  </producer>
  <producer id="producer226" in="00:00:00.000" out="00:50:55.017">
    <property name="length">00:50:55.033</property>
    <property name="eof">pause</property>
    <property name="resource">C:/Users/Sahid/Videos/QGIS Basic/6_Layouting/2021-02-03 09-50-10.mkv</property>
    <property name="audio_index">1</property>
    <property name="video_index">0</property>
    <property name="mute_on_pause">0</property>
    <property name="mlt_service">avformat-novalidate</property>
    <property name="seekable">1</property>
    <property name="aspect_ratio">1</property>
    <property name="creation_time">2021-02-03T03:41:06</property>
    <property name="global_feed">1</property>
    <property name="xml">was here</property>
    <property name="shotcut:hash">8e392e48be4935f7d753048eef069fa1</property>
    <property name="shotcut:caption">2021-02-03 09-50-10.mkv</property>
    <filter id="filter221" in="00:10:47.067" out="00:10:50.200">
      <property name="window">75</property>
      <property name="max_gain">20dB</property>
      <property name="level">12</property>
      <property name="mlt_service">volume</property>
    </filter>
  </producer>
  <producer id="producer227" in="00:00:00.000" out="00:50:55.017">
    <property name="length">00:50:55.033</property>
    <property name="eof">pause</property>
    <property name="resource">C:/Users/Sahid/Videos/QGIS Basic/6_Layouting/2021-02-03 09-50-10.mkv</property>
    <property name="audio_index">1</property>
    <property name="video_index">0</property>
    <property name="mute_on_pause">0</property>
    <property name="mlt_service">avformat-novalidate</property>
    <property name="seekable">1</property>
    <property name="aspect_ratio">1</property>
    <property name="creation_time">2021-02-03T03:41:06</property>
    <property name="global_feed">1</property>
    <property name="xml">was here</property>
    <property name="shotcut:hash">8e392e48be4935f7d753048eef069fa1</property>
    <property name="shotcut:caption">2021-02-03 09-50-10.mkv</property>
    <filter id="filter222" in="00:10:50.217" out="00:10:51.083">
      <property name="window">75</property>
      <property name="max_gain">20dB</property>
      <property name="level">12</property>
      <property name="mlt_service">volume</property>
    </filter>
  </producer>
  <producer id="producer228" in="00:00:00.000" out="00:50:55.017">
    <property name="length">00:50:55.033</property>
    <property name="eof">pause</property>
    <property name="resource">C:/Users/Sahid/Videos/QGIS Basic/6_Layouting/2021-02-03 09-50-10.mkv</property>
    <property name="audio_index">1</property>
    <property name="video_index">0</property>
    <property name="mute_on_pause">0</property>
    <property name="mlt_service">avformat-novalidate</property>
    <property name="seekable">1</property>
    <property name="aspect_ratio">1</property>
    <property name="creation_time">2021-02-03T03:41:06</property>
    <property name="global_feed">1</property>
    <property name="xml">was here</property>
    <property name="shotcut:hash">8e392e48be4935f7d753048eef069fa1</property>
    <property name="shotcut:caption">2021-02-03 09-50-10.mkv</property>
    <filter id="filter223" in="00:10:52.317" out="00:10:54.467">
      <property name="window">75</property>
      <property name="max_gain">20dB</property>
      <property name="level">12</property>
      <property name="mlt_service">volume</property>
    </filter>
  </producer>
  <producer id="producer229" in="00:00:00.000" out="00:50:55.017">
    <property name="length">00:50:55.033</property>
    <property name="eof">pause</property>
    <property name="resource">C:/Users/Sahid/Videos/QGIS Basic/6_Layouting/2021-02-03 09-50-10.mkv</property>
    <property name="audio_index">1</property>
    <property name="video_index">0</property>
    <property name="mute_on_pause">0</property>
    <property name="mlt_service">avformat-novalidate</property>
    <property name="seekable">1</property>
    <property name="aspect_ratio">1</property>
    <property name="creation_time">2021-02-03T03:41:06</property>
    <property name="global_feed">1</property>
    <property name="xml">was here</property>
    <property name="shotcut:hash">8e392e48be4935f7d753048eef069fa1</property>
    <property name="shotcut:caption">2021-02-03 09-50-10.mkv</property>
    <filter id="filter224" in="00:10:56.767" out="00:11:00.867">
      <property name="window">75</property>
      <property name="max_gain">20dB</property>
      <property name="level">12</property>
      <property name="mlt_service">volume</property>
    </filter>
  </producer>
  <producer id="producer230" in="00:00:00.000" out="00:50:55.017">
    <property name="length">00:50:55.033</property>
    <property name="eof">pause</property>
    <property name="resource">C:/Users/Sahid/Videos/QGIS Basic/6_Layouting/2021-02-03 09-50-10.mkv</property>
    <property name="audio_index">1</property>
    <property name="video_index">0</property>
    <property name="mute_on_pause">0</property>
    <property name="mlt_service">avformat-novalidate</property>
    <property name="seekable">1</property>
    <property name="aspect_ratio">1</property>
    <property name="creation_time">2021-02-03T03:41:06</property>
    <property name="global_feed">1</property>
    <property name="xml">was here</property>
    <property name="shotcut:hash">8e392e48be4935f7d753048eef069fa1</property>
    <property name="shotcut:caption">2021-02-03 09-50-10.mkv</property>
    <filter id="filter225" in="00:11:04.883" out="00:11:06.383">
      <property name="window">75</property>
      <property name="max_gain">20dB</property>
      <property name="level">12</property>
      <property name="mlt_service">volume</property>
    </filter>
  </producer>
  <producer id="producer231" in="00:00:00.000" out="00:50:55.017">
    <property name="length">00:50:55.033</property>
    <property name="eof">pause</property>
    <property name="resource">C:/Users/Sahid/Videos/QGIS Basic/6_Layouting/2021-02-03 09-50-10.mkv</property>
    <property name="audio_index">1</property>
    <property name="video_index">0</property>
    <property name="mute_on_pause">0</property>
    <property name="mlt_service">avformat-novalidate</property>
    <property name="seekable">1</property>
    <property name="aspect_ratio">1</property>
    <property name="creation_time">2021-02-03T03:41:06</property>
    <property name="global_feed">1</property>
    <property name="xml">was here</property>
    <property name="shotcut:hash">8e392e48be4935f7d753048eef069fa1</property>
    <property name="shotcut:caption">2021-02-03 09-50-10.mkv</property>
    <filter id="filter226" in="00:11:07.300" out="00:11:10.300">
      <property name="window">75</property>
      <property name="max_gain">20dB</property>
      <property name="level">12</property>
      <property name="mlt_service">volume</property>
    </filter>
  </producer>
  <producer id="producer232" in="00:00:00.000" out="00:50:55.017">
    <property name="length">00:50:55.033</property>
    <property name="eof">pause</property>
    <property name="resource">C:/Users/Sahid/Videos/QGIS Basic/6_Layouting/2021-02-03 09-50-10.mkv</property>
    <property name="audio_index">1</property>
    <property name="video_index">0</property>
    <property name="mute_on_pause">0</property>
    <property name="mlt_service">avformat-novalidate</property>
    <property name="seekable">1</property>
    <property name="aspect_ratio">1</property>
    <property name="creation_time">2021-02-03T03:41:06</property>
    <property name="global_feed">1</property>
    <property name="xml">was here</property>
    <property name="shotcut:hash">8e392e48be4935f7d753048eef069fa1</property>
    <property name="shotcut:caption">2021-02-03 09-50-10.mkv</property>
    <filter id="filter227" in="00:11:10.967" out="00:11:14.700">
      <property name="window">75</property>
      <property name="max_gain">20dB</property>
      <property name="level">12</property>
      <property name="mlt_service">volume</property>
    </filter>
  </producer>
  <producer id="producer233" in="00:00:00.000" out="00:50:55.017">
    <property name="length">00:50:55.033</property>
    <property name="eof">pause</property>
    <property name="resource">C:/Users/Sahid/Videos/QGIS Basic/6_Layouting/2021-02-03 09-50-10.mkv</property>
    <property name="audio_index">1</property>
    <property name="video_index">0</property>
    <property name="mute_on_pause">0</property>
    <property name="mlt_service">avformat-novalidate</property>
    <property name="seekable">1</property>
    <property name="aspect_ratio">1</property>
    <property name="creation_time">2021-02-03T03:41:06</property>
    <property name="global_feed">1</property>
    <property name="xml">was here</property>
    <property name="shotcut:hash">8e392e48be4935f7d753048eef069fa1</property>
    <property name="shotcut:caption">2021-02-03 09-50-10.mkv</property>
    <filter id="filter228" in="00:11:20.817" out="00:11:25.250">
      <property name="window">75</property>
      <property name="max_gain">20dB</property>
      <property name="level">12</property>
      <property name="mlt_service">volume</property>
    </filter>
  </producer>
  <producer id="producer234" in="00:00:00.000" out="00:50:55.017">
    <property name="length">00:50:55.033</property>
    <property name="eof">pause</property>
    <property name="resource">C:/Users/Sahid/Videos/QGIS Basic/6_Layouting/2021-02-03 09-50-10.mkv</property>
    <property name="audio_index">1</property>
    <property name="video_index">0</property>
    <property name="mute_on_pause">0</property>
    <property name="mlt_service">avformat-novalidate</property>
    <property name="seekable">1</property>
    <property name="aspect_ratio">1</property>
    <property name="creation_time">2021-02-03T03:41:06</property>
    <property name="global_feed">1</property>
    <property name="xml">was here</property>
    <property name="shotcut:hash">8e392e48be4935f7d753048eef069fa1</property>
    <property name="shotcut:caption">2021-02-03 09-50-10.mkv</property>
    <filter id="filter229" in="00:11:25.533" out="00:11:26.617">
      <property name="window">75</property>
      <property name="max_gain">20dB</property>
      <property name="level">12</property>
      <property name="mlt_service">volume</property>
    </filter>
  </producer>
  <producer id="producer235" in="00:00:00.000" out="00:50:55.017">
    <property name="length">00:50:55.033</property>
    <property name="eof">pause</property>
    <property name="resource">C:/Users/Sahid/Videos/QGIS Basic/6_Layouting/2021-02-03 09-50-10.mkv</property>
    <property name="audio_index">1</property>
    <property name="video_index">0</property>
    <property name="mute_on_pause">0</property>
    <property name="mlt_service">avformat-novalidate</property>
    <property name="seekable">1</property>
    <property name="aspect_ratio">1</property>
    <property name="creation_time">2021-02-03T03:41:06</property>
    <property name="global_feed">1</property>
    <property name="xml">was here</property>
    <property name="shotcut:hash">8e392e48be4935f7d753048eef069fa1</property>
    <property name="shotcut:caption">2021-02-03 09-50-10.mkv</property>
    <filter id="filter230" in="00:11:26.950" out="00:11:28.800">
      <property name="window">75</property>
      <property name="max_gain">20dB</property>
      <property name="level">12</property>
      <property name="mlt_service">volume</property>
    </filter>
  </producer>
  <producer id="producer236" in="00:00:00.000" out="00:50:55.017">
    <property name="length">00:50:55.033</property>
    <property name="eof">pause</property>
    <property name="resource">C:/Users/Sahid/Videos/QGIS Basic/6_Layouting/2021-02-03 09-50-10.mkv</property>
    <property name="audio_index">1</property>
    <property name="video_index">0</property>
    <property name="mute_on_pause">0</property>
    <property name="mlt_service">avformat-novalidate</property>
    <property name="seekable">1</property>
    <property name="aspect_ratio">1</property>
    <property name="creation_time">2021-02-03T03:41:06</property>
    <property name="global_feed">1</property>
    <property name="xml">was here</property>
    <property name="shotcut:hash">8e392e48be4935f7d753048eef069fa1</property>
    <property name="shotcut:caption">2021-02-03 09-50-10.mkv</property>
    <filter id="filter231" in="00:11:29.417" out="00:11:41.017">
      <property name="window">75</property>
      <property name="max_gain">20dB</property>
      <property name="level">12</property>
      <property name="mlt_service">volume</property>
    </filter>
  </producer>
  <producer id="producer237" in="00:00:00.000" out="00:50:55.017">
    <property name="length">00:50:55.033</property>
    <property name="eof">pause</property>
    <property name="resource">C:/Users/Sahid/Videos/QGIS Basic/6_Layouting/2021-02-03 09-50-10.mkv</property>
    <property name="audio_index">1</property>
    <property name="video_index">0</property>
    <property name="mute_on_pause">0</property>
    <property name="mlt_service">avformat-novalidate</property>
    <property name="seekable">1</property>
    <property name="aspect_ratio">1</property>
    <property name="creation_time">2021-02-03T03:41:06</property>
    <property name="global_feed">1</property>
    <property name="xml">was here</property>
    <property name="shotcut:hash">8e392e48be4935f7d753048eef069fa1</property>
    <property name="shotcut:caption">2021-02-03 09-50-10.mkv</property>
    <filter id="filter232" in="00:11:41.417" out="00:11:45.917">
      <property name="window">75</property>
      <property name="max_gain">20dB</property>
      <property name="level">12</property>
      <property name="mlt_service">volume</property>
    </filter>
  </producer>
  <producer id="producer238" in="00:00:00.000" out="00:50:55.017">
    <property name="length">00:50:55.033</property>
    <property name="eof">pause</property>
    <property name="resource">C:/Users/Sahid/Videos/QGIS Basic/6_Layouting/2021-02-03 09-50-10.mkv</property>
    <property name="audio_index">1</property>
    <property name="video_index">0</property>
    <property name="mute_on_pause">0</property>
    <property name="mlt_service">avformat-novalidate</property>
    <property name="seekable">1</property>
    <property name="aspect_ratio">1</property>
    <property name="creation_time">2021-02-03T03:41:06</property>
    <property name="global_feed">1</property>
    <property name="xml">was here</property>
    <property name="shotcut:hash">8e392e48be4935f7d753048eef069fa1</property>
    <property name="shotcut:caption">2021-02-03 09-50-10.mkv</property>
    <filter id="filter233" in="00:11:46.550" out="00:11:47.783">
      <property name="window">75</property>
      <property name="max_gain">20dB</property>
      <property name="level">12</property>
      <property name="mlt_service">volume</property>
    </filter>
  </producer>
  <producer id="producer239" in="00:00:00.000" out="00:50:55.017">
    <property name="length">00:50:55.033</property>
    <property name="eof">pause</property>
    <property name="resource">C:/Users/Sahid/Videos/QGIS Basic/6_Layouting/2021-02-03 09-50-10.mkv</property>
    <property name="audio_index">1</property>
    <property name="video_index">0</property>
    <property name="mute_on_pause">0</property>
    <property name="mlt_service">avformat-novalidate</property>
    <property name="seekable">1</property>
    <property name="aspect_ratio">1</property>
    <property name="creation_time">2021-02-03T03:41:06</property>
    <property name="global_feed">1</property>
    <property name="xml">was here</property>
    <property name="shotcut:hash">8e392e48be4935f7d753048eef069fa1</property>
    <property name="shotcut:caption">2021-02-03 09-50-10.mkv</property>
    <filter id="filter234" in="00:11:48.683" out="00:11:52.033">
      <property name="window">75</property>
      <property name="max_gain">20dB</property>
      <property name="level">12</property>
      <property name="mlt_service">volume</property>
    </filter>
  </producer>
  <producer id="producer240" in="00:00:00.000" out="00:50:55.017">
    <property name="length">00:50:55.033</property>
    <property name="eof">pause</property>
    <property name="resource">C:/Users/Sahid/Videos/QGIS Basic/6_Layouting/2021-02-03 09-50-10.mkv</property>
    <property name="audio_index">1</property>
    <property name="video_index">0</property>
    <property name="mute_on_pause">0</property>
    <property name="mlt_service">avformat-novalidate</property>
    <property name="seekable">1</property>
    <property name="aspect_ratio">1</property>
    <property name="creation_time">2021-02-03T03:41:06</property>
    <property name="global_feed">1</property>
    <property name="xml">was here</property>
    <property name="shotcut:hash">8e392e48be4935f7d753048eef069fa1</property>
    <property name="shotcut:caption">2021-02-03 09-50-10.mkv</property>
    <filter id="filter235" in="00:11:52.767" out="00:11:56.767">
      <property name="window">75</property>
      <property name="max_gain">20dB</property>
      <property name="level">12</property>
      <property name="mlt_service">volume</property>
    </filter>
  </producer>
  <producer id="producer241" in="00:00:00.000" out="00:50:55.017">
    <property name="length">00:50:55.033</property>
    <property name="eof">pause</property>
    <property name="resource">C:/Users/Sahid/Videos/QGIS Basic/6_Layouting/2021-02-03 09-50-10.mkv</property>
    <property name="audio_index">1</property>
    <property name="video_index">0</property>
    <property name="mute_on_pause">0</property>
    <property name="mlt_service">avformat-novalidate</property>
    <property name="seekable">1</property>
    <property name="aspect_ratio">1</property>
    <property name="creation_time">2021-02-03T03:41:06</property>
    <property name="global_feed">1</property>
    <property name="xml">was here</property>
    <property name="shotcut:hash">8e392e48be4935f7d753048eef069fa1</property>
    <property name="shotcut:caption">2021-02-03 09-50-10.mkv</property>
    <filter id="filter236" in="00:11:57.783" out="00:12:01.183">
      <property name="window">75</property>
      <property name="max_gain">20dB</property>
      <property name="level">12</property>
      <property name="mlt_service">volume</property>
    </filter>
  </producer>
  <producer id="producer242" in="00:00:00.000" out="00:50:55.017">
    <property name="length">00:50:55.033</property>
    <property name="eof">pause</property>
    <property name="resource">C:/Users/Sahid/Videos/QGIS Basic/6_Layouting/2021-02-03 09-50-10.mkv</property>
    <property name="audio_index">1</property>
    <property name="video_index">0</property>
    <property name="mute_on_pause">0</property>
    <property name="mlt_service">avformat-novalidate</property>
    <property name="seekable">1</property>
    <property name="aspect_ratio">1</property>
    <property name="creation_time">2021-02-03T03:41:06</property>
    <property name="global_feed">1</property>
    <property name="xml">was here</property>
    <property name="shotcut:hash">8e392e48be4935f7d753048eef069fa1</property>
    <property name="shotcut:caption">2021-02-03 09-50-10.mkv</property>
    <filter id="filter237" in="00:12:02.250" out="00:12:04.550">
      <property name="window">75</property>
      <property name="max_gain">20dB</property>
      <property name="level">12</property>
      <property name="mlt_service">volume</property>
    </filter>
  </producer>
  <producer id="producer243" in="00:00:00.000" out="00:50:55.017">
    <property name="length">00:50:55.033</property>
    <property name="eof">pause</property>
    <property name="resource">C:/Users/Sahid/Videos/QGIS Basic/6_Layouting/2021-02-03 09-50-10.mkv</property>
    <property name="audio_index">1</property>
    <property name="video_index">0</property>
    <property name="mute_on_pause">0</property>
    <property name="mlt_service">avformat-novalidate</property>
    <property name="seekable">1</property>
    <property name="aspect_ratio">1</property>
    <property name="creation_time">2021-02-03T03:41:06</property>
    <property name="global_feed">1</property>
    <property name="xml">was here</property>
    <property name="shotcut:hash">8e392e48be4935f7d753048eef069fa1</property>
    <property name="shotcut:caption">2021-02-03 09-50-10.mkv</property>
    <filter id="filter238" in="00:12:05.383" out="00:12:08.200">
      <property name="window">75</property>
      <property name="max_gain">20dB</property>
      <property name="level">12</property>
      <property name="mlt_service">volume</property>
    </filter>
  </producer>
  <producer id="producer244" in="00:00:00.000" out="00:50:55.017">
    <property name="length">00:50:55.033</property>
    <property name="eof">pause</property>
    <property name="resource">C:/Users/Sahid/Videos/QGIS Basic/6_Layouting/2021-02-03 09-50-10.mkv</property>
    <property name="audio_index">1</property>
    <property name="video_index">0</property>
    <property name="mute_on_pause">0</property>
    <property name="mlt_service">avformat-novalidate</property>
    <property name="seekable">1</property>
    <property name="aspect_ratio">1</property>
    <property name="creation_time">2021-02-03T03:41:06</property>
    <property name="global_feed">1</property>
    <property name="xml">was here</property>
    <property name="shotcut:hash">8e392e48be4935f7d753048eef069fa1</property>
    <property name="shotcut:caption">2021-02-03 09-50-10.mkv</property>
    <filter id="filter239" in="00:12:13.050" out="00:12:16.300">
      <property name="window">75</property>
      <property name="max_gain">20dB</property>
      <property name="level">12</property>
      <property name="mlt_service">volume</property>
    </filter>
  </producer>
  <producer id="producer245" in="00:00:00.000" out="00:50:55.017">
    <property name="length">00:50:55.033</property>
    <property name="eof">pause</property>
    <property name="resource">C:/Users/Sahid/Videos/QGIS Basic/6_Layouting/2021-02-03 09-50-10.mkv</property>
    <property name="audio_index">1</property>
    <property name="video_index">0</property>
    <property name="mute_on_pause">0</property>
    <property name="mlt_service">avformat-novalidate</property>
    <property name="seekable">1</property>
    <property name="aspect_ratio">1</property>
    <property name="creation_time">2021-02-03T03:41:06</property>
    <property name="global_feed">1</property>
    <property name="xml">was here</property>
    <property name="shotcut:hash">8e392e48be4935f7d753048eef069fa1</property>
    <property name="shotcut:caption">2021-02-03 09-50-10.mkv</property>
    <filter id="filter240" in="00:12:17.833" out="00:12:20.283">
      <property name="window">75</property>
      <property name="max_gain">20dB</property>
      <property name="level">12</property>
      <property name="mlt_service">volume</property>
    </filter>
  </producer>
  <producer id="producer246" in="00:00:00.000" out="00:50:55.017">
    <property name="length">00:50:55.033</property>
    <property name="eof">pause</property>
    <property name="resource">C:/Users/Sahid/Videos/QGIS Basic/6_Layouting/2021-02-03 09-50-10.mkv</property>
    <property name="audio_index">1</property>
    <property name="video_index">0</property>
    <property name="mute_on_pause">0</property>
    <property name="mlt_service">avformat-novalidate</property>
    <property name="seekable">1</property>
    <property name="aspect_ratio">1</property>
    <property name="creation_time">2021-02-03T03:41:06</property>
    <property name="global_feed">1</property>
    <property name="xml">was here</property>
    <property name="shotcut:hash">8e392e48be4935f7d753048eef069fa1</property>
    <property name="shotcut:caption">2021-02-03 09-50-10.mkv</property>
    <filter id="filter241" in="00:12:21.617" out="00:12:24.033">
      <property name="window">75</property>
      <property name="max_gain">20dB</property>
      <property name="level">12</property>
      <property name="mlt_service">volume</property>
    </filter>
  </producer>
  <producer id="producer247" in="00:00:00.000" out="00:50:55.017">
    <property name="length">00:50:55.033</property>
    <property name="eof">pause</property>
    <property name="resource">C:/Users/Sahid/Videos/QGIS Basic/6_Layouting/2021-02-03 09-50-10.mkv</property>
    <property name="audio_index">1</property>
    <property name="video_index">0</property>
    <property name="mute_on_pause">0</property>
    <property name="mlt_service">avformat-novalidate</property>
    <property name="seekable">1</property>
    <property name="aspect_ratio">1</property>
    <property name="creation_time">2021-02-03T03:41:06</property>
    <property name="global_feed">1</property>
    <property name="xml">was here</property>
    <property name="shotcut:hash">8e392e48be4935f7d753048eef069fa1</property>
    <property name="shotcut:caption">2021-02-03 09-50-10.mkv</property>
    <filter id="filter242" in="00:12:24.050" out="00:12:25.283">
      <property name="window">75</property>
      <property name="max_gain">20dB</property>
      <property name="level">12</property>
      <property name="mlt_service">volume</property>
    </filter>
  </producer>
  <producer id="producer248" in="00:00:00.000" out="00:50:55.017">
    <property name="length">00:50:55.033</property>
    <property name="eof">pause</property>
    <property name="resource">C:/Users/Sahid/Videos/QGIS Basic/6_Layouting/2021-02-03 09-50-10.mkv</property>
    <property name="audio_index">1</property>
    <property name="video_index">0</property>
    <property name="mute_on_pause">0</property>
    <property name="mlt_service">avformat-novalidate</property>
    <property name="seekable">1</property>
    <property name="aspect_ratio">1</property>
    <property name="creation_time">2021-02-03T03:41:06</property>
    <property name="global_feed">1</property>
    <property name="xml">was here</property>
    <property name="shotcut:hash">8e392e48be4935f7d753048eef069fa1</property>
    <property name="shotcut:caption">2021-02-03 09-50-10.mkv</property>
    <filter id="filter243" in="00:12:25.300" out="00:12:30.383">
      <property name="window">75</property>
      <property name="max_gain">20dB</property>
      <property name="level">12</property>
      <property name="mlt_service">volume</property>
    </filter>
  </producer>
  <producer id="producer249" in="00:00:00.000" out="00:50:55.017">
    <property name="length">00:50:55.033</property>
    <property name="eof">pause</property>
    <property name="resource">C:/Users/Sahid/Videos/QGIS Basic/6_Layouting/2021-02-03 09-50-10.mkv</property>
    <property name="audio_index">1</property>
    <property name="video_index">0</property>
    <property name="mute_on_pause">0</property>
    <property name="mlt_service">avformat-novalidate</property>
    <property name="seekable">1</property>
    <property name="aspect_ratio">1</property>
    <property name="creation_time">2021-02-03T03:41:06</property>
    <property name="global_feed">1</property>
    <property name="xml">was here</property>
    <property name="shotcut:hash">8e392e48be4935f7d753048eef069fa1</property>
    <property name="shotcut:caption">2021-02-03 09-50-10.mkv</property>
    <filter id="filter244" in="00:13:13.333" out="00:13:17.783">
      <property name="window">75</property>
      <property name="max_gain">20dB</property>
      <property name="level">12</property>
      <property name="mlt_service">volume</property>
    </filter>
  </producer>
  <producer id="producer250" in="00:00:00.000" out="00:50:55.017">
    <property name="length">00:50:55.033</property>
    <property name="eof">pause</property>
    <property name="resource">C:/Users/Sahid/Videos/QGIS Basic/6_Layouting/2021-02-03 09-50-10.mkv</property>
    <property name="audio_index">1</property>
    <property name="video_index">0</property>
    <property name="mute_on_pause">0</property>
    <property name="mlt_service">avformat-novalidate</property>
    <property name="seekable">1</property>
    <property name="aspect_ratio">1</property>
    <property name="creation_time">2021-02-03T03:41:06</property>
    <property name="global_feed">1</property>
    <property name="xml">was here</property>
    <property name="shotcut:hash">8e392e48be4935f7d753048eef069fa1</property>
    <property name="shotcut:caption">2021-02-03 09-50-10.mkv</property>
    <filter id="filter245" in="00:13:18.567" out="00:13:20.083">
      <property name="window">75</property>
      <property name="max_gain">20dB</property>
      <property name="level">12</property>
      <property name="mlt_service">volume</property>
    </filter>
  </producer>
  <producer id="producer251" in="00:00:00.000" out="00:50:55.017">
    <property name="length">00:50:55.033</property>
    <property name="eof">pause</property>
    <property name="resource">C:/Users/Sahid/Videos/QGIS Basic/6_Layouting/2021-02-03 09-50-10.mkv</property>
    <property name="audio_index">1</property>
    <property name="video_index">0</property>
    <property name="mute_on_pause">0</property>
    <property name="mlt_service">avformat-novalidate</property>
    <property name="seekable">1</property>
    <property name="aspect_ratio">1</property>
    <property name="creation_time">2021-02-03T03:41:06</property>
    <property name="global_feed">1</property>
    <property name="xml">was here</property>
    <property name="shotcut:hash">8e392e48be4935f7d753048eef069fa1</property>
    <property name="shotcut:caption">2021-02-03 09-50-10.mkv</property>
    <filter id="filter246" in="00:13:20.850" out="00:13:22.833">
      <property name="window">75</property>
      <property name="max_gain">20dB</property>
      <property name="level">12</property>
      <property name="mlt_service">volume</property>
    </filter>
  </producer>
  <producer id="producer252" in="00:00:00.000" out="00:50:55.017">
    <property name="length">00:50:55.033</property>
    <property name="eof">pause</property>
    <property name="resource">C:/Users/Sahid/Videos/QGIS Basic/6_Layouting/2021-02-03 09-50-10.mkv</property>
    <property name="audio_index">1</property>
    <property name="video_index">0</property>
    <property name="mute_on_pause">0</property>
    <property name="mlt_service">avformat-novalidate</property>
    <property name="seekable">1</property>
    <property name="aspect_ratio">1</property>
    <property name="creation_time">2021-02-03T03:41:06</property>
    <property name="global_feed">1</property>
    <property name="xml">was here</property>
    <property name="shotcut:hash">8e392e48be4935f7d753048eef069fa1</property>
    <property name="shotcut:caption">2021-02-03 09-50-10.mkv</property>
    <filter id="filter247" in="00:13:23.517" out="00:13:27.800">
      <property name="window">75</property>
      <property name="max_gain">20dB</property>
      <property name="level">12</property>
      <property name="mlt_service">volume</property>
    </filter>
  </producer>
  <producer id="producer253" in="00:00:00.000" out="00:50:55.017">
    <property name="length">00:50:55.033</property>
    <property name="eof">pause</property>
    <property name="resource">C:/Users/Sahid/Videos/QGIS Basic/6_Layouting/2021-02-03 09-50-10.mkv</property>
    <property name="audio_index">1</property>
    <property name="video_index">0</property>
    <property name="mute_on_pause">0</property>
    <property name="mlt_service">avformat-novalidate</property>
    <property name="seekable">1</property>
    <property name="aspect_ratio">1</property>
    <property name="creation_time">2021-02-03T03:41:06</property>
    <property name="global_feed">1</property>
    <property name="xml">was here</property>
    <property name="shotcut:hash">8e392e48be4935f7d753048eef069fa1</property>
    <property name="shotcut:caption">2021-02-03 09-50-10.mkv</property>
    <filter id="filter248" in="00:13:28.200" out="00:13:31.083">
      <property name="window">75</property>
      <property name="max_gain">20dB</property>
      <property name="level">12</property>
      <property name="mlt_service">volume</property>
    </filter>
  </producer>
  <producer id="producer254" in="00:00:00.000" out="00:50:55.017">
    <property name="length">00:50:55.033</property>
    <property name="eof">pause</property>
    <property name="resource">C:/Users/Sahid/Videos/QGIS Basic/6_Layouting/2021-02-03 09-50-10.mkv</property>
    <property name="audio_index">1</property>
    <property name="video_index">0</property>
    <property name="mute_on_pause">0</property>
    <property name="mlt_service">avformat-novalidate</property>
    <property name="seekable">1</property>
    <property name="aspect_ratio">1</property>
    <property name="creation_time">2021-02-03T03:41:06</property>
    <property name="global_feed">1</property>
    <property name="xml">was here</property>
    <property name="shotcut:hash">8e392e48be4935f7d753048eef069fa1</property>
    <property name="shotcut:caption">2021-02-03 09-50-10.mkv</property>
    <filter id="filter249" in="00:13:31.433" out="00:13:34.700">
      <property name="window">75</property>
      <property name="max_gain">20dB</property>
      <property name="level">12</property>
      <property name="mlt_service">volume</property>
    </filter>
  </producer>
  <producer id="producer255" in="00:00:00.000" out="00:50:55.017">
    <property name="length">00:50:55.033</property>
    <property name="eof">pause</property>
    <property name="resource">C:/Users/Sahid/Videos/QGIS Basic/6_Layouting/2021-02-03 09-50-10.mkv</property>
    <property name="audio_index">1</property>
    <property name="video_index">0</property>
    <property name="mute_on_pause">0</property>
    <property name="mlt_service">avformat-novalidate</property>
    <property name="seekable">1</property>
    <property name="aspect_ratio">1</property>
    <property name="creation_time">2021-02-03T03:41:06</property>
    <property name="global_feed">1</property>
    <property name="xml">was here</property>
    <property name="shotcut:hash">8e392e48be4935f7d753048eef069fa1</property>
    <property name="shotcut:caption">2021-02-03 09-50-10.mkv</property>
    <filter id="filter250" in="00:13:35.183" out="00:13:36.950">
      <property name="window">75</property>
      <property name="max_gain">20dB</property>
      <property name="level">12</property>
      <property name="mlt_service">volume</property>
    </filter>
  </producer>
  <producer id="producer256" in="00:00:00.000" out="00:50:55.017">
    <property name="length">00:50:55.033</property>
    <property name="eof">pause</property>
    <property name="resource">C:/Users/Sahid/Videos/QGIS Basic/6_Layouting/2021-02-03 09-50-10.mkv</property>
    <property name="audio_index">1</property>
    <property name="video_index">0</property>
    <property name="mute_on_pause">0</property>
    <property name="mlt_service">avformat-novalidate</property>
    <property name="seekable">1</property>
    <property name="aspect_ratio">1</property>
    <property name="creation_time">2021-02-03T03:41:06</property>
    <property name="global_feed">1</property>
    <property name="xml">was here</property>
    <property name="shotcut:hash">8e392e48be4935f7d753048eef069fa1</property>
    <property name="shotcut:caption">2021-02-03 09-50-10.mkv</property>
    <filter id="filter251" in="00:13:36.967" out="00:13:38.067">
      <property name="window">75</property>
      <property name="max_gain">20dB</property>
      <property name="level">12</property>
      <property name="mlt_service">volume</property>
    </filter>
  </producer>
  <producer id="producer257" in="00:00:00.000" out="00:50:55.017">
    <property name="length">00:50:55.033</property>
    <property name="eof">pause</property>
    <property name="resource">C:/Users/Sahid/Videos/QGIS Basic/6_Layouting/2021-02-03 09-50-10.mkv</property>
    <property name="audio_index">1</property>
    <property name="video_index">0</property>
    <property name="mute_on_pause">0</property>
    <property name="mlt_service">avformat-novalidate</property>
    <property name="seekable">1</property>
    <property name="aspect_ratio">1</property>
    <property name="creation_time">2021-02-03T03:41:06</property>
    <property name="global_feed">1</property>
    <property name="xml">was here</property>
    <property name="shotcut:hash">8e392e48be4935f7d753048eef069fa1</property>
    <property name="shotcut:caption">2021-02-03 09-50-10.mkv</property>
    <filter id="filter252" in="00:13:41.100" out="00:13:44.867">
      <property name="window">75</property>
      <property name="max_gain">20dB</property>
      <property name="level">12</property>
      <property name="mlt_service">volume</property>
    </filter>
  </producer>
  <producer id="producer258" in="00:00:00.000" out="00:50:55.017">
    <property name="length">00:50:55.033</property>
    <property name="eof">pause</property>
    <property name="resource">C:/Users/Sahid/Videos/QGIS Basic/6_Layouting/2021-02-03 09-50-10.mkv</property>
    <property name="audio_index">1</property>
    <property name="video_index">0</property>
    <property name="mute_on_pause">0</property>
    <property name="mlt_service">avformat-novalidate</property>
    <property name="seekable">1</property>
    <property name="aspect_ratio">1</property>
    <property name="creation_time">2021-02-03T03:41:06</property>
    <property name="global_feed">1</property>
    <property name="xml">was here</property>
    <property name="shotcut:hash">8e392e48be4935f7d753048eef069fa1</property>
    <property name="shotcut:caption">2021-02-03 09-50-10.mkv</property>
    <filter id="filter253" in="00:13:45.433" out="00:13:48.183">
      <property name="window">75</property>
      <property name="max_gain">20dB</property>
      <property name="level">12</property>
      <property name="mlt_service">volume</property>
    </filter>
  </producer>
  <producer id="producer259" in="00:00:00.000" out="00:50:55.017">
    <property name="length">00:50:55.033</property>
    <property name="eof">pause</property>
    <property name="resource">C:/Users/Sahid/Videos/QGIS Basic/6_Layouting/2021-02-03 09-50-10.mkv</property>
    <property name="audio_index">1</property>
    <property name="video_index">0</property>
    <property name="mute_on_pause">0</property>
    <property name="mlt_service">avformat-novalidate</property>
    <property name="seekable">1</property>
    <property name="aspect_ratio">1</property>
    <property name="creation_time">2021-02-03T03:41:06</property>
    <property name="global_feed">1</property>
    <property name="xml">was here</property>
    <property name="shotcut:hash">8e392e48be4935f7d753048eef069fa1</property>
    <property name="shotcut:caption">2021-02-03 09-50-10.mkv</property>
    <filter id="filter254" in="00:13:48.900" out="00:13:50.867">
      <property name="window">75</property>
      <property name="max_gain">20dB</property>
      <property name="level">12</property>
      <property name="mlt_service">volume</property>
    </filter>
  </producer>
  <producer id="producer260" in="00:00:00.000" out="00:50:55.017">
    <property name="length">00:50:55.033</property>
    <property name="eof">pause</property>
    <property name="resource">C:/Users/Sahid/Videos/QGIS Basic/6_Layouting/2021-02-03 09-50-10.mkv</property>
    <property name="audio_index">1</property>
    <property name="video_index">0</property>
    <property name="mute_on_pause">0</property>
    <property name="mlt_service">avformat-novalidate</property>
    <property name="seekable">1</property>
    <property name="aspect_ratio">1</property>
    <property name="creation_time">2021-02-03T03:41:06</property>
    <property name="global_feed">1</property>
    <property name="xml">was here</property>
    <property name="shotcut:hash">8e392e48be4935f7d753048eef069fa1</property>
    <property name="shotcut:caption">2021-02-03 09-50-10.mkv</property>
    <filter id="filter255" in="00:13:56.183" out="00:13:57.683">
      <property name="window">75</property>
      <property name="max_gain">20dB</property>
      <property name="level">12</property>
      <property name="mlt_service">volume</property>
    </filter>
  </producer>
  <producer id="producer261" in="00:00:00.000" out="00:50:55.017">
    <property name="length">00:50:55.033</property>
    <property name="eof">pause</property>
    <property name="resource">C:/Users/Sahid/Videos/QGIS Basic/6_Layouting/2021-02-03 09-50-10.mkv</property>
    <property name="audio_index">1</property>
    <property name="video_index">0</property>
    <property name="mute_on_pause">0</property>
    <property name="mlt_service">avformat-novalidate</property>
    <property name="seekable">1</property>
    <property name="aspect_ratio">1</property>
    <property name="creation_time">2021-02-03T03:41:06</property>
    <property name="global_feed">1</property>
    <property name="xml">was here</property>
    <property name="shotcut:hash">8e392e48be4935f7d753048eef069fa1</property>
    <property name="shotcut:caption">2021-02-03 09-50-10.mkv</property>
    <filter id="filter256" in="00:13:58.083" out="00:14:01.750">
      <property name="window">75</property>
      <property name="max_gain">20dB</property>
      <property name="level">12</property>
      <property name="mlt_service">volume</property>
    </filter>
  </producer>
  <producer id="producer262" in="00:00:00.000" out="00:50:55.017">
    <property name="length">00:50:55.033</property>
    <property name="eof">pause</property>
    <property name="resource">C:/Users/Sahid/Videos/QGIS Basic/6_Layouting/2021-02-03 09-50-10.mkv</property>
    <property name="audio_index">1</property>
    <property name="video_index">0</property>
    <property name="mute_on_pause">0</property>
    <property name="mlt_service">avformat-novalidate</property>
    <property name="seekable">1</property>
    <property name="aspect_ratio">1</property>
    <property name="creation_time">2021-02-03T03:41:06</property>
    <property name="global_feed">1</property>
    <property name="xml">was here</property>
    <property name="shotcut:hash">8e392e48be4935f7d753048eef069fa1</property>
    <property name="shotcut:caption">2021-02-03 09-50-10.mkv</property>
    <filter id="filter257" in="00:14:02.300" out="00:14:04.083">
      <property name="window">75</property>
      <property name="max_gain">20dB</property>
      <property name="level">12</property>
      <property name="mlt_service">volume</property>
    </filter>
  </producer>
  <producer id="producer263" in="00:00:00.000" out="00:50:55.017">
    <property name="length">00:50:55.033</property>
    <property name="eof">pause</property>
    <property name="resource">C:/Users/Sahid/Videos/QGIS Basic/6_Layouting/2021-02-03 09-50-10.mkv</property>
    <property name="audio_index">1</property>
    <property name="video_index">0</property>
    <property name="mute_on_pause">0</property>
    <property name="mlt_service">avformat-novalidate</property>
    <property name="seekable">1</property>
    <property name="aspect_ratio">1</property>
    <property name="creation_time">2021-02-03T03:41:06</property>
    <property name="global_feed">1</property>
    <property name="xml">was here</property>
    <property name="shotcut:hash">8e392e48be4935f7d753048eef069fa1</property>
    <property name="shotcut:caption">2021-02-03 09-50-10.mkv</property>
    <filter id="filter258" in="00:14:06.617" out="00:14:10.433">
      <property name="window">75</property>
      <property name="max_gain">20dB</property>
      <property name="level">12</property>
      <property name="mlt_service">volume</property>
    </filter>
  </producer>
  <producer id="producer264" in="00:00:00.000" out="00:50:55.017">
    <property name="length">00:50:55.033</property>
    <property name="eof">pause</property>
    <property name="resource">C:/Users/Sahid/Videos/QGIS Basic/6_Layouting/2021-02-03 09-50-10.mkv</property>
    <property name="audio_index">1</property>
    <property name="video_index">0</property>
    <property name="mute_on_pause">0</property>
    <property name="mlt_service">avformat-novalidate</property>
    <property name="seekable">1</property>
    <property name="aspect_ratio">1</property>
    <property name="creation_time">2021-02-03T03:41:06</property>
    <property name="global_feed">1</property>
    <property name="xml">was here</property>
    <property name="shotcut:hash">8e392e48be4935f7d753048eef069fa1</property>
    <property name="shotcut:caption">2021-02-03 09-50-10.mkv</property>
    <filter id="filter259" in="00:14:10.883" out="00:14:13.067">
      <property name="window">75</property>
      <property name="max_gain">20dB</property>
      <property name="level">12</property>
      <property name="mlt_service">volume</property>
    </filter>
  </producer>
  <producer id="producer265" in="00:00:00.000" out="00:50:55.017">
    <property name="length">00:50:55.033</property>
    <property name="eof">pause</property>
    <property name="resource">C:/Users/Sahid/Videos/QGIS Basic/6_Layouting/2021-02-03 09-50-10.mkv</property>
    <property name="audio_index">1</property>
    <property name="video_index">0</property>
    <property name="mute_on_pause">0</property>
    <property name="mlt_service">avformat-novalidate</property>
    <property name="seekable">1</property>
    <property name="aspect_ratio">1</property>
    <property name="creation_time">2021-02-03T03:41:06</property>
    <property name="global_feed">1</property>
    <property name="xml">was here</property>
    <property name="shotcut:hash">8e392e48be4935f7d753048eef069fa1</property>
    <property name="shotcut:caption">2021-02-03 09-50-10.mkv</property>
    <filter id="filter260" in="00:14:13.900" out="00:14:15.500">
      <property name="window">75</property>
      <property name="max_gain">20dB</property>
      <property name="level">12</property>
      <property name="mlt_service">volume</property>
    </filter>
  </producer>
  <producer id="producer266" in="00:00:00.000" out="00:50:55.017">
    <property name="length">00:50:55.033</property>
    <property name="eof">pause</property>
    <property name="resource">C:/Users/Sahid/Videos/QGIS Basic/6_Layouting/2021-02-03 09-50-10.mkv</property>
    <property name="audio_index">1</property>
    <property name="video_index">0</property>
    <property name="mute_on_pause">0</property>
    <property name="mlt_service">avformat-novalidate</property>
    <property name="seekable">1</property>
    <property name="aspect_ratio">1</property>
    <property name="creation_time">2021-02-03T03:41:06</property>
    <property name="global_feed">1</property>
    <property name="xml">was here</property>
    <property name="shotcut:hash">8e392e48be4935f7d753048eef069fa1</property>
    <property name="shotcut:caption">2021-02-03 09-50-10.mkv</property>
    <filter id="filter261" in="00:14:16.117" out="00:14:20.017">
      <property name="window">75</property>
      <property name="max_gain">20dB</property>
      <property name="level">12</property>
      <property name="mlt_service">volume</property>
    </filter>
  </producer>
  <producer id="producer267" in="00:00:00.000" out="00:50:55.017">
    <property name="length">00:50:55.033</property>
    <property name="eof">pause</property>
    <property name="resource">C:/Users/Sahid/Videos/QGIS Basic/6_Layouting/2021-02-03 09-50-10.mkv</property>
    <property name="audio_index">1</property>
    <property name="video_index">0</property>
    <property name="mute_on_pause">0</property>
    <property name="mlt_service">avformat-novalidate</property>
    <property name="seekable">1</property>
    <property name="aspect_ratio">1</property>
    <property name="creation_time">2021-02-03T03:41:06</property>
    <property name="global_feed">1</property>
    <property name="xml">was here</property>
    <property name="shotcut:hash">8e392e48be4935f7d753048eef069fa1</property>
    <property name="shotcut:caption">2021-02-03 09-50-10.mkv</property>
    <filter id="filter262" in="00:14:20.483" out="00:14:22.750">
      <property name="window">75</property>
      <property name="max_gain">20dB</property>
      <property name="level">12</property>
      <property name="mlt_service">volume</property>
    </filter>
  </producer>
  <producer id="producer268" in="00:00:00.000" out="00:50:55.017">
    <property name="length">00:50:55.033</property>
    <property name="eof">pause</property>
    <property name="resource">C:/Users/Sahid/Videos/QGIS Basic/6_Layouting/2021-02-03 09-50-10.mkv</property>
    <property name="audio_index">1</property>
    <property name="video_index">0</property>
    <property name="mute_on_pause">0</property>
    <property name="mlt_service">avformat-novalidate</property>
    <property name="seekable">1</property>
    <property name="aspect_ratio">1</property>
    <property name="creation_time">2021-02-03T03:41:06</property>
    <property name="global_feed">1</property>
    <property name="xml">was here</property>
    <property name="shotcut:hash">8e392e48be4935f7d753048eef069fa1</property>
    <property name="shotcut:caption">2021-02-03 09-50-10.mkv</property>
    <filter id="filter263" in="00:14:23.200" out="00:14:24.483">
      <property name="window">75</property>
      <property name="max_gain">20dB</property>
      <property name="level">12</property>
      <property name="mlt_service">volume</property>
    </filter>
  </producer>
  <producer id="producer269" in="00:00:00.000" out="00:50:55.017">
    <property name="length">00:50:55.033</property>
    <property name="eof">pause</property>
    <property name="resource">C:/Users/Sahid/Videos/QGIS Basic/6_Layouting/2021-02-03 09-50-10.mkv</property>
    <property name="audio_index">1</property>
    <property name="video_index">0</property>
    <property name="mute_on_pause">0</property>
    <property name="mlt_service">avformat-novalidate</property>
    <property name="seekable">1</property>
    <property name="aspect_ratio">1</property>
    <property name="creation_time">2021-02-03T03:41:06</property>
    <property name="global_feed">1</property>
    <property name="xml">was here</property>
    <property name="shotcut:hash">8e392e48be4935f7d753048eef069fa1</property>
    <property name="shotcut:caption">2021-02-03 09-50-10.mkv</property>
    <filter id="filter264" in="00:14:24.867" out="00:14:27.317">
      <property name="window">75</property>
      <property name="max_gain">20dB</property>
      <property name="level">12</property>
      <property name="mlt_service">volume</property>
    </filter>
  </producer>
  <producer id="producer270" in="00:00:00.000" out="00:50:55.017">
    <property name="length">00:50:55.033</property>
    <property name="eof">pause</property>
    <property name="resource">C:/Users/Sahid/Videos/QGIS Basic/6_Layouting/2021-02-03 09-50-10.mkv</property>
    <property name="audio_index">1</property>
    <property name="video_index">0</property>
    <property name="mute_on_pause">0</property>
    <property name="mlt_service">avformat-novalidate</property>
    <property name="seekable">1</property>
    <property name="aspect_ratio">1</property>
    <property name="creation_time">2021-02-03T03:41:06</property>
    <property name="global_feed">1</property>
    <property name="xml">was here</property>
    <property name="shotcut:hash">8e392e48be4935f7d753048eef069fa1</property>
    <property name="shotcut:caption">2021-02-03 09-50-10.mkv</property>
    <filter id="filter265" in="00:14:27.917" out="00:14:32.617">
      <property name="window">75</property>
      <property name="max_gain">20dB</property>
      <property name="level">12</property>
      <property name="mlt_service">volume</property>
    </filter>
  </producer>
  <producer id="producer271" in="00:00:00.000" out="00:50:55.017">
    <property name="length">00:50:55.033</property>
    <property name="eof">pause</property>
    <property name="resource">C:/Users/Sahid/Videos/QGIS Basic/6_Layouting/2021-02-03 09-50-10.mkv</property>
    <property name="audio_index">1</property>
    <property name="video_index">0</property>
    <property name="mute_on_pause">0</property>
    <property name="mlt_service">avformat-novalidate</property>
    <property name="seekable">1</property>
    <property name="aspect_ratio">1</property>
    <property name="creation_time">2021-02-03T03:41:06</property>
    <property name="global_feed">1</property>
    <property name="xml">was here</property>
    <property name="shotcut:hash">8e392e48be4935f7d753048eef069fa1</property>
    <property name="shotcut:caption">2021-02-03 09-50-10.mkv</property>
    <filter id="filter266" in="00:14:33.650" out="00:14:37.017">
      <property name="window">75</property>
      <property name="max_gain">20dB</property>
      <property name="level">12</property>
      <property name="mlt_service">volume</property>
    </filter>
  </producer>
  <producer id="producer272" in="00:00:00.000" out="00:50:55.017">
    <property name="length">00:50:55.033</property>
    <property name="eof">pause</property>
    <property name="resource">C:/Users/Sahid/Videos/QGIS Basic/6_Layouting/2021-02-03 09-50-10.mkv</property>
    <property name="audio_index">1</property>
    <property name="video_index">0</property>
    <property name="mute_on_pause">0</property>
    <property name="mlt_service">avformat-novalidate</property>
    <property name="seekable">1</property>
    <property name="aspect_ratio">1</property>
    <property name="creation_time">2021-02-03T03:41:06</property>
    <property name="global_feed">1</property>
    <property name="xml">was here</property>
    <property name="shotcut:hash">8e392e48be4935f7d753048eef069fa1</property>
    <property name="shotcut:caption">2021-02-03 09-50-10.mkv</property>
    <filter id="filter267" in="00:14:39.033" out="00:14:44.833">
      <property name="window">75</property>
      <property name="max_gain">20dB</property>
      <property name="level">12</property>
      <property name="mlt_service">volume</property>
    </filter>
  </producer>
  <producer id="producer273" in="00:00:00.000" out="00:50:55.017">
    <property name="length">00:50:55.033</property>
    <property name="eof">pause</property>
    <property name="resource">C:/Users/Sahid/Videos/QGIS Basic/6_Layouting/2021-02-03 09-50-10.mkv</property>
    <property name="audio_index">1</property>
    <property name="video_index">0</property>
    <property name="mute_on_pause">0</property>
    <property name="mlt_service">avformat-novalidate</property>
    <property name="seekable">1</property>
    <property name="aspect_ratio">1</property>
    <property name="creation_time">2021-02-03T03:41:06</property>
    <property name="global_feed">1</property>
    <property name="xml">was here</property>
    <property name="shotcut:hash">8e392e48be4935f7d753048eef069fa1</property>
    <property name="shotcut:caption">2021-02-03 09-50-10.mkv</property>
    <filter id="filter268" in="00:14:45.483" out="00:14:49.433">
      <property name="window">75</property>
      <property name="max_gain">20dB</property>
      <property name="level">12</property>
      <property name="mlt_service">volume</property>
    </filter>
  </producer>
  <producer id="producer274" in="00:00:00.000" out="00:50:55.017">
    <property name="length">00:50:55.033</property>
    <property name="eof">pause</property>
    <property name="resource">C:/Users/Sahid/Videos/QGIS Basic/6_Layouting/2021-02-03 09-50-10.mkv</property>
    <property name="audio_index">1</property>
    <property name="video_index">0</property>
    <property name="mute_on_pause">0</property>
    <property name="mlt_service">avformat-novalidate</property>
    <property name="seekable">1</property>
    <property name="aspect_ratio">1</property>
    <property name="creation_time">2021-02-03T03:41:06</property>
    <property name="global_feed">1</property>
    <property name="xml">was here</property>
    <property name="shotcut:hash">8e392e48be4935f7d753048eef069fa1</property>
    <property name="shotcut:caption">2021-02-03 09-50-10.mkv</property>
    <filter id="filter269" in="00:14:49.783" out="00:14:54.783">
      <property name="window">75</property>
      <property name="max_gain">20dB</property>
      <property name="level">12</property>
      <property name="mlt_service">volume</property>
    </filter>
  </producer>
  <producer id="producer275" in="00:00:00.000" out="00:50:55.017">
    <property name="length">00:50:55.033</property>
    <property name="eof">pause</property>
    <property name="resource">C:/Users/Sahid/Videos/QGIS Basic/6_Layouting/2021-02-03 09-50-10.mkv</property>
    <property name="audio_index">1</property>
    <property name="video_index">0</property>
    <property name="mute_on_pause">0</property>
    <property name="mlt_service">avformat-novalidate</property>
    <property name="seekable">1</property>
    <property name="aspect_ratio">1</property>
    <property name="creation_time">2021-02-03T03:41:06</property>
    <property name="global_feed">1</property>
    <property name="xml">was here</property>
    <property name="shotcut:hash">8e392e48be4935f7d753048eef069fa1</property>
    <property name="shotcut:caption">2021-02-03 09-50-10.mkv</property>
    <filter id="filter270" in="00:14:58.800" out="00:15:03.183">
      <property name="window">75</property>
      <property name="max_gain">20dB</property>
      <property name="level">12</property>
      <property name="mlt_service">volume</property>
    </filter>
  </producer>
  <producer id="producer276" in="00:00:00.000" out="00:50:55.017">
    <property name="length">00:50:55.033</property>
    <property name="eof">pause</property>
    <property name="resource">C:/Users/Sahid/Videos/QGIS Basic/6_Layouting/2021-02-03 09-50-10.mkv</property>
    <property name="audio_index">1</property>
    <property name="video_index">0</property>
    <property name="mute_on_pause">0</property>
    <property name="mlt_service">avformat-novalidate</property>
    <property name="seekable">1</property>
    <property name="aspect_ratio">1</property>
    <property name="creation_time">2021-02-03T03:41:06</property>
    <property name="global_feed">1</property>
    <property name="xml">was here</property>
    <property name="shotcut:hash">8e392e48be4935f7d753048eef069fa1</property>
    <property name="shotcut:caption">2021-02-03 09-50-10.mkv</property>
    <filter id="filter271" in="00:15:03.750" out="00:15:06.600">
      <property name="window">75</property>
      <property name="max_gain">20dB</property>
      <property name="level">12</property>
      <property name="mlt_service">volume</property>
    </filter>
  </producer>
  <producer id="producer277" in="00:00:00.000" out="00:50:55.017">
    <property name="length">00:50:55.033</property>
    <property name="eof">pause</property>
    <property name="resource">C:/Users/Sahid/Videos/QGIS Basic/6_Layouting/2021-02-03 09-50-10.mkv</property>
    <property name="audio_index">1</property>
    <property name="video_index">0</property>
    <property name="mute_on_pause">0</property>
    <property name="mlt_service">avformat-novalidate</property>
    <property name="seekable">1</property>
    <property name="aspect_ratio">1</property>
    <property name="creation_time">2021-02-03T03:41:06</property>
    <property name="global_feed">1</property>
    <property name="xml">was here</property>
    <property name="shotcut:hash">8e392e48be4935f7d753048eef069fa1</property>
    <property name="shotcut:caption">2021-02-03 09-50-10.mkv</property>
    <filter id="filter272" in="00:15:07.067" out="00:15:09.767">
      <property name="window">75</property>
      <property name="max_gain">20dB</property>
      <property name="level">12</property>
      <property name="mlt_service">volume</property>
    </filter>
  </producer>
  <producer id="producer278" in="00:00:00.000" out="00:50:55.017">
    <property name="length">00:50:55.033</property>
    <property name="eof">pause</property>
    <property name="resource">C:/Users/Sahid/Videos/QGIS Basic/6_Layouting/2021-02-03 09-50-10.mkv</property>
    <property name="audio_index">1</property>
    <property name="video_index">0</property>
    <property name="mute_on_pause">0</property>
    <property name="mlt_service">avformat-novalidate</property>
    <property name="seekable">1</property>
    <property name="aspect_ratio">1</property>
    <property name="creation_time">2021-02-03T03:41:06</property>
    <property name="global_feed">1</property>
    <property name="xml">was here</property>
    <property name="shotcut:hash">8e392e48be4935f7d753048eef069fa1</property>
    <property name="shotcut:caption">2021-02-03 09-50-10.mkv</property>
    <filter id="filter273" in="00:15:10.433" out="00:15:13.367">
      <property name="window">75</property>
      <property name="max_gain">20dB</property>
      <property name="level">12</property>
      <property name="mlt_service">volume</property>
    </filter>
  </producer>
  <producer id="producer279" in="00:00:00.000" out="00:50:55.017">
    <property name="length">00:50:55.033</property>
    <property name="eof">pause</property>
    <property name="resource">C:/Users/Sahid/Videos/QGIS Basic/6_Layouting/2021-02-03 09-50-10.mkv</property>
    <property name="audio_index">1</property>
    <property name="video_index">0</property>
    <property name="mute_on_pause">0</property>
    <property name="mlt_service">avformat-novalidate</property>
    <property name="seekable">1</property>
    <property name="aspect_ratio">1</property>
    <property name="creation_time">2021-02-03T03:41:06</property>
    <property name="global_feed">1</property>
    <property name="xml">was here</property>
    <property name="shotcut:hash">8e392e48be4935f7d753048eef069fa1</property>
    <property name="shotcut:caption">2021-02-03 09-50-10.mkv</property>
    <filter id="filter274" in="00:15:14.050" out="00:15:17.517">
      <property name="window">75</property>
      <property name="max_gain">20dB</property>
      <property name="level">12</property>
      <property name="mlt_service">volume</property>
    </filter>
  </producer>
  <producer id="producer280" in="00:00:00.000" out="00:50:55.017">
    <property name="length">00:50:55.033</property>
    <property name="eof">pause</property>
    <property name="resource">C:/Users/Sahid/Videos/QGIS Basic/6_Layouting/2021-02-03 09-50-10.mkv</property>
    <property name="audio_index">1</property>
    <property name="video_index">0</property>
    <property name="mute_on_pause">0</property>
    <property name="mlt_service">avformat-novalidate</property>
    <property name="seekable">1</property>
    <property name="aspect_ratio">1</property>
    <property name="creation_time">2021-02-03T03:41:06</property>
    <property name="global_feed">1</property>
    <property name="xml">was here</property>
    <property name="shotcut:hash">8e392e48be4935f7d753048eef069fa1</property>
    <property name="shotcut:caption">2021-02-03 09-50-10.mkv</property>
    <filter id="filter275" in="00:15:18.083" out="00:15:20.500">
      <property name="window">75</property>
      <property name="max_gain">20dB</property>
      <property name="level">12</property>
      <property name="mlt_service">volume</property>
    </filter>
  </producer>
  <producer id="producer281" in="00:00:00.000" out="00:50:55.017">
    <property name="length">00:50:55.033</property>
    <property name="eof">pause</property>
    <property name="resource">C:/Users/Sahid/Videos/QGIS Basic/6_Layouting/2021-02-03 09-50-10.mkv</property>
    <property name="audio_index">1</property>
    <property name="video_index">0</property>
    <property name="mute_on_pause">0</property>
    <property name="mlt_service">avformat-novalidate</property>
    <property name="seekable">1</property>
    <property name="aspect_ratio">1</property>
    <property name="creation_time">2021-02-03T03:41:06</property>
    <property name="global_feed">1</property>
    <property name="xml">was here</property>
    <property name="shotcut:hash">8e392e48be4935f7d753048eef069fa1</property>
    <property name="shotcut:caption">2021-02-03 09-50-10.mkv</property>
    <filter id="filter276" in="00:15:22.017" out="00:15:27.917">
      <property name="window">75</property>
      <property name="max_gain">20dB</property>
      <property name="level">12</property>
      <property name="mlt_service">volume</property>
    </filter>
  </producer>
  <producer id="producer282" in="00:00:00.000" out="00:50:55.017">
    <property name="length">00:50:55.033</property>
    <property name="eof">pause</property>
    <property name="resource">C:/Users/Sahid/Videos/QGIS Basic/6_Layouting/2021-02-03 09-50-10.mkv</property>
    <property name="audio_index">1</property>
    <property name="video_index">0</property>
    <property name="mute_on_pause">0</property>
    <property name="mlt_service">avformat-novalidate</property>
    <property name="seekable">1</property>
    <property name="aspect_ratio">1</property>
    <property name="creation_time">2021-02-03T03:41:06</property>
    <property name="global_feed">1</property>
    <property name="xml">was here</property>
    <property name="shotcut:hash">8e392e48be4935f7d753048eef069fa1</property>
    <property name="shotcut:caption">2021-02-03 09-50-10.mkv</property>
    <filter id="filter277" in="00:15:28.417" out="00:15:30.867">
      <property name="window">75</property>
      <property name="max_gain">20dB</property>
      <property name="level">12</property>
      <property name="mlt_service">volume</property>
    </filter>
  </producer>
  <producer id="producer283" in="00:00:00.000" out="00:50:55.017">
    <property name="length">00:50:55.033</property>
    <property name="eof">pause</property>
    <property name="resource">C:/Users/Sahid/Videos/QGIS Basic/6_Layouting/2021-02-03 09-50-10.mkv</property>
    <property name="audio_index">1</property>
    <property name="video_index">0</property>
    <property name="mute_on_pause">0</property>
    <property name="mlt_service">avformat-novalidate</property>
    <property name="seekable">1</property>
    <property name="aspect_ratio">1</property>
    <property name="creation_time">2021-02-03T03:41:06</property>
    <property name="global_feed">1</property>
    <property name="xml">was here</property>
    <property name="shotcut:hash">8e392e48be4935f7d753048eef069fa1</property>
    <property name="shotcut:caption">2021-02-03 09-50-10.mkv</property>
    <filter id="filter278" in="00:15:31.850" out="00:15:35.233">
      <property name="window">75</property>
      <property name="max_gain">20dB</property>
      <property name="level">12</property>
      <property name="mlt_service">volume</property>
    </filter>
  </producer>
  <producer id="producer284" in="00:00:00.000" out="00:50:55.017">
    <property name="length">00:50:55.033</property>
    <property name="eof">pause</property>
    <property name="resource">C:/Users/Sahid/Videos/QGIS Basic/6_Layouting/2021-02-03 09-50-10.mkv</property>
    <property name="audio_index">1</property>
    <property name="video_index">0</property>
    <property name="mute_on_pause">0</property>
    <property name="mlt_service">avformat-novalidate</property>
    <property name="seekable">1</property>
    <property name="aspect_ratio">1</property>
    <property name="creation_time">2021-02-03T03:41:06</property>
    <property name="global_feed">1</property>
    <property name="xml">was here</property>
    <property name="shotcut:hash">8e392e48be4935f7d753048eef069fa1</property>
    <property name="shotcut:caption">2021-02-03 09-50-10.mkv</property>
    <filter id="filter279" in="00:15:35.450" out="00:15:36.933">
      <property name="window">75</property>
      <property name="max_gain">20dB</property>
      <property name="level">12</property>
      <property name="mlt_service">volume</property>
    </filter>
  </producer>
  <producer id="producer285" in="00:00:00.000" out="00:50:55.017">
    <property name="length">00:50:55.033</property>
    <property name="eof">pause</property>
    <property name="resource">C:/Users/Sahid/Videos/QGIS Basic/6_Layouting/2021-02-03 09-50-10.mkv</property>
    <property name="audio_index">1</property>
    <property name="video_index">0</property>
    <property name="mute_on_pause">0</property>
    <property name="mlt_service">avformat-novalidate</property>
    <property name="seekable">1</property>
    <property name="aspect_ratio">1</property>
    <property name="creation_time">2021-02-03T03:41:06</property>
    <property name="global_feed">1</property>
    <property name="xml">was here</property>
    <property name="shotcut:hash">8e392e48be4935f7d753048eef069fa1</property>
    <property name="shotcut:caption">2021-02-03 09-50-10.mkv</property>
    <filter id="filter280" in="00:15:37.817" out="00:15:41.050">
      <property name="window">75</property>
      <property name="max_gain">20dB</property>
      <property name="level">12</property>
      <property name="mlt_service">volume</property>
    </filter>
  </producer>
  <producer id="producer286" in="00:00:00.000" out="00:50:55.017">
    <property name="length">00:50:55.033</property>
    <property name="eof">pause</property>
    <property name="resource">C:/Users/Sahid/Videos/QGIS Basic/6_Layouting/2021-02-03 09-50-10.mkv</property>
    <property name="audio_index">1</property>
    <property name="video_index">0</property>
    <property name="mute_on_pause">0</property>
    <property name="mlt_service">avformat-novalidate</property>
    <property name="seekable">1</property>
    <property name="aspect_ratio">1</property>
    <property name="creation_time">2021-02-03T03:41:06</property>
    <property name="global_feed">1</property>
    <property name="xml">was here</property>
    <property name="shotcut:hash">8e392e48be4935f7d753048eef069fa1</property>
    <property name="shotcut:caption">2021-02-03 09-50-10.mkv</property>
    <filter id="filter281" in="00:15:41.367" out="00:15:42.333">
      <property name="window">75</property>
      <property name="max_gain">20dB</property>
      <property name="level">12</property>
      <property name="mlt_service">volume</property>
    </filter>
  </producer>
  <producer id="producer287" in="00:00:00.000" out="00:50:55.017">
    <property name="length">00:50:55.033</property>
    <property name="eof">pause</property>
    <property name="resource">C:/Users/Sahid/Videos/QGIS Basic/6_Layouting/2021-02-03 09-50-10.mkv</property>
    <property name="audio_index">1</property>
    <property name="video_index">0</property>
    <property name="mute_on_pause">0</property>
    <property name="mlt_service">avformat-novalidate</property>
    <property name="seekable">1</property>
    <property name="aspect_ratio">1</property>
    <property name="creation_time">2021-02-03T03:41:06</property>
    <property name="global_feed">1</property>
    <property name="xml">was here</property>
    <property name="shotcut:hash">8e392e48be4935f7d753048eef069fa1</property>
    <property name="shotcut:caption">2021-02-03 09-50-10.mkv</property>
    <filter id="filter282" in="00:15:42.717" out="00:15:44.500">
      <property name="window">75</property>
      <property name="max_gain">20dB</property>
      <property name="level">12</property>
      <property name="mlt_service">volume</property>
    </filter>
  </producer>
  <producer id="producer288" in="00:00:00.000" out="00:50:55.017">
    <property name="length">00:50:55.033</property>
    <property name="eof">pause</property>
    <property name="resource">C:/Users/Sahid/Videos/QGIS Basic/6_Layouting/2021-02-03 09-50-10.mkv</property>
    <property name="audio_index">1</property>
    <property name="video_index">0</property>
    <property name="mute_on_pause">0</property>
    <property name="mlt_service">avformat-novalidate</property>
    <property name="seekable">1</property>
    <property name="aspect_ratio">1</property>
    <property name="creation_time">2021-02-03T03:41:06</property>
    <property name="global_feed">1</property>
    <property name="xml">was here</property>
    <property name="shotcut:hash">8e392e48be4935f7d753048eef069fa1</property>
    <property name="shotcut:caption">2021-02-03 09-50-10.mkv</property>
    <filter id="filter283" in="00:15:45.567" out="00:15:47.917">
      <property name="window">75</property>
      <property name="max_gain">20dB</property>
      <property name="level">12</property>
      <property name="mlt_service">volume</property>
    </filter>
  </producer>
  <producer id="producer289" in="00:00:00.000" out="00:50:55.017">
    <property name="length">00:50:55.033</property>
    <property name="eof">pause</property>
    <property name="resource">C:/Users/Sahid/Videos/QGIS Basic/6_Layouting/2021-02-03 09-50-10.mkv</property>
    <property name="audio_index">1</property>
    <property name="video_index">0</property>
    <property name="mute_on_pause">0</property>
    <property name="mlt_service">avformat-novalidate</property>
    <property name="seekable">1</property>
    <property name="aspect_ratio">1</property>
    <property name="creation_time">2021-02-03T03:41:06</property>
    <property name="global_feed">1</property>
    <property name="xml">was here</property>
    <property name="shotcut:hash">8e392e48be4935f7d753048eef069fa1</property>
    <property name="shotcut:caption">2021-02-03 09-50-10.mkv</property>
    <filter id="filter284" in="00:15:50.983" out="00:15:52.150">
      <property name="window">75</property>
      <property name="max_gain">20dB</property>
      <property name="level">12</property>
      <property name="mlt_service">volume</property>
    </filter>
  </producer>
  <producer id="producer290" in="00:00:00.000" out="00:50:55.017">
    <property name="length">00:50:55.033</property>
    <property name="eof">pause</property>
    <property name="resource">C:/Users/Sahid/Videos/QGIS Basic/6_Layouting/2021-02-03 09-50-10.mkv</property>
    <property name="audio_index">1</property>
    <property name="video_index">0</property>
    <property name="mute_on_pause">0</property>
    <property name="mlt_service">avformat-novalidate</property>
    <property name="seekable">1</property>
    <property name="aspect_ratio">1</property>
    <property name="creation_time">2021-02-03T03:41:06</property>
    <property name="global_feed">1</property>
    <property name="xml">was here</property>
    <property name="shotcut:hash">8e392e48be4935f7d753048eef069fa1</property>
    <property name="shotcut:caption">2021-02-03 09-50-10.mkv</property>
    <filter id="filter285" in="00:15:52.867" out="00:15:56.283">
      <property name="window">75</property>
      <property name="max_gain">20dB</property>
      <property name="level">12</property>
      <property name="mlt_service">volume</property>
    </filter>
  </producer>
  <producer id="producer291" in="00:00:00.000" out="00:50:55.017">
    <property name="length">00:50:55.033</property>
    <property name="eof">pause</property>
    <property name="resource">C:/Users/Sahid/Videos/QGIS Basic/6_Layouting/2021-02-03 09-50-10.mkv</property>
    <property name="audio_index">1</property>
    <property name="video_index">0</property>
    <property name="mute_on_pause">0</property>
    <property name="mlt_service">avformat-novalidate</property>
    <property name="seekable">1</property>
    <property name="aspect_ratio">1</property>
    <property name="creation_time">2021-02-03T03:41:06</property>
    <property name="global_feed">1</property>
    <property name="xml">was here</property>
    <property name="shotcut:hash">8e392e48be4935f7d753048eef069fa1</property>
    <property name="shotcut:caption">2021-02-03 09-50-10.mkv</property>
    <filter id="filter286" in="00:15:56.583" out="00:15:59.233">
      <property name="window">75</property>
      <property name="max_gain">20dB</property>
      <property name="level">12</property>
      <property name="mlt_service">volume</property>
    </filter>
  </producer>
  <producer id="producer292" in="00:00:00.000" out="00:50:55.017">
    <property name="length">00:50:55.033</property>
    <property name="eof">pause</property>
    <property name="resource">C:/Users/Sahid/Videos/QGIS Basic/6_Layouting/2021-02-03 09-50-10.mkv</property>
    <property name="audio_index">1</property>
    <property name="video_index">0</property>
    <property name="mute_on_pause">0</property>
    <property name="mlt_service">avformat-novalidate</property>
    <property name="seekable">1</property>
    <property name="aspect_ratio">1</property>
    <property name="creation_time">2021-02-03T03:41:06</property>
    <property name="global_feed">1</property>
    <property name="xml">was here</property>
    <property name="shotcut:hash">8e392e48be4935f7d753048eef069fa1</property>
    <property name="shotcut:caption">2021-02-03 09-50-10.mkv</property>
    <filter id="filter287" in="00:16:00.100" out="00:16:00.933">
      <property name="window">75</property>
      <property name="max_gain">20dB</property>
      <property name="level">12</property>
      <property name="mlt_service">volume</property>
    </filter>
  </producer>
  <producer id="producer293" in="00:00:00.000" out="00:50:55.017">
    <property name="length">00:50:55.033</property>
    <property name="eof">pause</property>
    <property name="resource">C:/Users/Sahid/Videos/QGIS Basic/6_Layouting/2021-02-03 09-50-10.mkv</property>
    <property name="audio_index">1</property>
    <property name="video_index">0</property>
    <property name="mute_on_pause">0</property>
    <property name="mlt_service">avformat-novalidate</property>
    <property name="seekable">1</property>
    <property name="aspect_ratio">1</property>
    <property name="creation_time">2021-02-03T03:41:06</property>
    <property name="global_feed">1</property>
    <property name="xml">was here</property>
    <property name="shotcut:hash">8e392e48be4935f7d753048eef069fa1</property>
    <property name="shotcut:caption">2021-02-03 09-50-10.mkv</property>
    <filter id="filter288" in="00:16:01.200" out="00:16:04.567">
      <property name="window">75</property>
      <property name="max_gain">20dB</property>
      <property name="level">12</property>
      <property name="mlt_service">volume</property>
    </filter>
  </producer>
  <producer id="producer294" in="00:00:00.000" out="00:50:55.017">
    <property name="length">00:50:55.033</property>
    <property name="eof">pause</property>
    <property name="resource">C:/Users/Sahid/Videos/QGIS Basic/6_Layouting/2021-02-03 09-50-10.mkv</property>
    <property name="audio_index">1</property>
    <property name="video_index">0</property>
    <property name="mute_on_pause">0</property>
    <property name="mlt_service">avformat-novalidate</property>
    <property name="seekable">1</property>
    <property name="aspect_ratio">1</property>
    <property name="creation_time">2021-02-03T03:41:06</property>
    <property name="global_feed">1</property>
    <property name="xml">was here</property>
    <property name="shotcut:hash">8e392e48be4935f7d753048eef069fa1</property>
    <property name="shotcut:caption">2021-02-03 09-50-10.mkv</property>
    <filter id="filter289" in="00:16:08.567" out="00:16:10.033">
      <property name="window">75</property>
      <property name="max_gain">20dB</property>
      <property name="level">12</property>
      <property name="mlt_service">volume</property>
    </filter>
  </producer>
  <producer id="producer295" in="00:00:00.000" out="00:50:55.017">
    <property name="length">00:50:55.033</property>
    <property name="eof">pause</property>
    <property name="resource">C:/Users/Sahid/Videos/QGIS Basic/6_Layouting/2021-02-03 09-50-10.mkv</property>
    <property name="audio_index">1</property>
    <property name="video_index">0</property>
    <property name="mute_on_pause">0</property>
    <property name="mlt_service">avformat-novalidate</property>
    <property name="seekable">1</property>
    <property name="aspect_ratio">1</property>
    <property name="creation_time">2021-02-03T03:41:06</property>
    <property name="global_feed">1</property>
    <property name="xml">was here</property>
    <property name="shotcut:hash">8e392e48be4935f7d753048eef069fa1</property>
    <property name="shotcut:caption">2021-02-03 09-50-10.mkv</property>
    <filter id="filter290" in="00:16:10.600" out="00:16:12.083">
      <property name="window">75</property>
      <property name="max_gain">20dB</property>
      <property name="level">12</property>
      <property name="mlt_service">volume</property>
    </filter>
  </producer>
  <producer id="producer296" in="00:00:00.000" out="00:50:55.017">
    <property name="length">00:50:55.033</property>
    <property name="eof">pause</property>
    <property name="resource">C:/Users/Sahid/Videos/QGIS Basic/6_Layouting/2021-02-03 09-50-10.mkv</property>
    <property name="audio_index">1</property>
    <property name="video_index">0</property>
    <property name="mute_on_pause">0</property>
    <property name="mlt_service">avformat-novalidate</property>
    <property name="seekable">1</property>
    <property name="aspect_ratio">1</property>
    <property name="creation_time">2021-02-03T03:41:06</property>
    <property name="global_feed">1</property>
    <property name="xml">was here</property>
    <property name="shotcut:hash">8e392e48be4935f7d753048eef069fa1</property>
    <property name="shotcut:caption">2021-02-03 09-50-10.mkv</property>
    <filter id="filter291" in="00:16:12.700" out="00:16:15.133">
      <property name="window">75</property>
      <property name="max_gain">20dB</property>
      <property name="level">12</property>
      <property name="mlt_service">volume</property>
    </filter>
  </producer>
  <producer id="producer297" in="00:00:00.000" out="00:50:55.017">
    <property name="length">00:50:55.033</property>
    <property name="eof">pause</property>
    <property name="resource">C:/Users/Sahid/Videos/QGIS Basic/6_Layouting/2021-02-03 09-50-10.mkv</property>
    <property name="audio_index">1</property>
    <property name="video_index">0</property>
    <property name="mute_on_pause">0</property>
    <property name="mlt_service">avformat-novalidate</property>
    <property name="seekable">1</property>
    <property name="aspect_ratio">1</property>
    <property name="creation_time">2021-02-03T03:41:06</property>
    <property name="global_feed">1</property>
    <property name="xml">was here</property>
    <property name="shotcut:hash">8e392e48be4935f7d753048eef069fa1</property>
    <property name="shotcut:caption">2021-02-03 09-50-10.mkv</property>
    <filter id="filter292" in="00:16:15.467" out="00:16:17.550">
      <property name="window">75</property>
      <property name="max_gain">20dB</property>
      <property name="level">12</property>
      <property name="mlt_service">volume</property>
    </filter>
  </producer>
  <producer id="producer298" in="00:00:00.000" out="00:50:55.017">
    <property name="length">00:50:55.033</property>
    <property name="eof">pause</property>
    <property name="resource">C:/Users/Sahid/Videos/QGIS Basic/6_Layouting/2021-02-03 09-50-10.mkv</property>
    <property name="audio_index">1</property>
    <property name="video_index">0</property>
    <property name="mute_on_pause">0</property>
    <property name="mlt_service">avformat-novalidate</property>
    <property name="seekable">1</property>
    <property name="aspect_ratio">1</property>
    <property name="creation_time">2021-02-03T03:41:06</property>
    <property name="global_feed">1</property>
    <property name="xml">was here</property>
    <property name="shotcut:hash">8e392e48be4935f7d753048eef069fa1</property>
    <property name="shotcut:caption">2021-02-03 09-50-10.mkv</property>
    <filter id="filter293" in="00:16:18.283" out="00:16:22.483">
      <property name="window">75</property>
      <property name="max_gain">20dB</property>
      <property name="level">12</property>
      <property name="mlt_service">volume</property>
    </filter>
  </producer>
  <producer id="producer299" in="00:00:00.000" out="00:50:55.017">
    <property name="length">00:50:55.033</property>
    <property name="eof">pause</property>
    <property name="resource">C:/Users/Sahid/Videos/QGIS Basic/6_Layouting/2021-02-03 09-50-10.mkv</property>
    <property name="audio_index">1</property>
    <property name="video_index">0</property>
    <property name="mute_on_pause">0</property>
    <property name="mlt_service">avformat-novalidate</property>
    <property name="seekable">1</property>
    <property name="aspect_ratio">1</property>
    <property name="creation_time">2021-02-03T03:41:06</property>
    <property name="global_feed">1</property>
    <property name="xml">was here</property>
    <property name="shotcut:hash">8e392e48be4935f7d753048eef069fa1</property>
    <property name="shotcut:caption">2021-02-03 09-50-10.mkv</property>
    <filter id="filter294" in="00:16:22.950" out="00:16:24.850">
      <property name="window">75</property>
      <property name="max_gain">20dB</property>
      <property name="level">12</property>
      <property name="mlt_service">volume</property>
    </filter>
  </producer>
  <producer id="producer300" in="00:00:00.000" out="00:50:55.017">
    <property name="length">00:50:55.033</property>
    <property name="eof">pause</property>
    <property name="resource">C:/Users/Sahid/Videos/QGIS Basic/6_Layouting/2021-02-03 09-50-10.mkv</property>
    <property name="audio_index">1</property>
    <property name="video_index">0</property>
    <property name="mute_on_pause">0</property>
    <property name="mlt_service">avformat-novalidate</property>
    <property name="seekable">1</property>
    <property name="aspect_ratio">1</property>
    <property name="creation_time">2021-02-03T03:41:06</property>
    <property name="global_feed">1</property>
    <property name="xml">was here</property>
    <property name="shotcut:hash">8e392e48be4935f7d753048eef069fa1</property>
    <property name="shotcut:caption">2021-02-03 09-50-10.mkv</property>
    <filter id="filter295" in="00:16:25.350" out="00:16:26.983">
      <property name="window">75</property>
      <property name="max_gain">20dB</property>
      <property name="level">12</property>
      <property name="mlt_service">volume</property>
    </filter>
  </producer>
  <producer id="producer301" in="00:00:00.000" out="00:50:55.017">
    <property name="length">00:50:55.033</property>
    <property name="eof">pause</property>
    <property name="resource">C:/Users/Sahid/Videos/QGIS Basic/6_Layouting/2021-02-03 09-50-10.mkv</property>
    <property name="audio_index">1</property>
    <property name="video_index">0</property>
    <property name="mute_on_pause">0</property>
    <property name="mlt_service">avformat-novalidate</property>
    <property name="seekable">1</property>
    <property name="aspect_ratio">1</property>
    <property name="creation_time">2021-02-03T03:41:06</property>
    <property name="global_feed">1</property>
    <property name="xml">was here</property>
    <property name="shotcut:hash">8e392e48be4935f7d753048eef069fa1</property>
    <property name="shotcut:caption">2021-02-03 09-50-10.mkv</property>
    <filter id="filter296" in="00:16:27.367" out="00:16:30.350">
      <property name="window">75</property>
      <property name="max_gain">20dB</property>
      <property name="level">12</property>
      <property name="mlt_service">volume</property>
    </filter>
  </producer>
  <producer id="producer302" in="00:00:00.000" out="00:50:55.017">
    <property name="length">00:50:55.033</property>
    <property name="eof">pause</property>
    <property name="resource">C:/Users/Sahid/Videos/QGIS Basic/6_Layouting/2021-02-03 09-50-10.mkv</property>
    <property name="audio_index">1</property>
    <property name="video_index">0</property>
    <property name="mute_on_pause">0</property>
    <property name="mlt_service">avformat-novalidate</property>
    <property name="seekable">1</property>
    <property name="aspect_ratio">1</property>
    <property name="creation_time">2021-02-03T03:41:06</property>
    <property name="global_feed">1</property>
    <property name="xml">was here</property>
    <property name="shotcut:hash">8e392e48be4935f7d753048eef069fa1</property>
    <property name="shotcut:caption">2021-02-03 09-50-10.mkv</property>
    <filter id="filter297" in="00:16:31.467" out="00:16:35.767">
      <property name="window">75</property>
      <property name="max_gain">20dB</property>
      <property name="level">12</property>
      <property name="mlt_service">volume</property>
    </filter>
  </producer>
  <producer id="producer303" in="00:00:00.000" out="00:50:55.017">
    <property name="length">00:50:55.033</property>
    <property name="eof">pause</property>
    <property name="resource">C:/Users/Sahid/Videos/QGIS Basic/6_Layouting/2021-02-03 09-50-10.mkv</property>
    <property name="audio_index">1</property>
    <property name="video_index">0</property>
    <property name="mute_on_pause">0</property>
    <property name="mlt_service">avformat-novalidate</property>
    <property name="seekable">1</property>
    <property name="aspect_ratio">1</property>
    <property name="creation_time">2021-02-03T03:41:06</property>
    <property name="global_feed">1</property>
    <property name="xml">was here</property>
    <property name="shotcut:hash">8e392e48be4935f7d753048eef069fa1</property>
    <property name="shotcut:caption">2021-02-03 09-50-10.mkv</property>
    <filter id="filter298" in="00:16:39.167" out="00:16:43.217">
      <property name="window">75</property>
      <property name="max_gain">20dB</property>
      <property name="level">12</property>
      <property name="mlt_service">volume</property>
    </filter>
  </producer>
  <producer id="producer304" in="00:00:00.000" out="00:50:55.017">
    <property name="length">00:50:55.033</property>
    <property name="eof">pause</property>
    <property name="resource">C:/Users/Sahid/Videos/QGIS Basic/6_Layouting/2021-02-03 09-50-10.mkv</property>
    <property name="audio_index">1</property>
    <property name="video_index">0</property>
    <property name="mute_on_pause">0</property>
    <property name="mlt_service">avformat-novalidate</property>
    <property name="seekable">1</property>
    <property name="aspect_ratio">1</property>
    <property name="creation_time">2021-02-03T03:41:06</property>
    <property name="global_feed">1</property>
    <property name="xml">was here</property>
    <property name="shotcut:hash">8e392e48be4935f7d753048eef069fa1</property>
    <property name="shotcut:caption">2021-02-03 09-50-10.mkv</property>
    <filter id="filter299" in="00:16:46.133" out="00:16:47.467">
      <property name="window">75</property>
      <property name="max_gain">20dB</property>
      <property name="level">12</property>
      <property name="mlt_service">volume</property>
    </filter>
  </producer>
  <producer id="producer305" in="00:00:00.000" out="00:50:55.017">
    <property name="length">00:50:55.033</property>
    <property name="eof">pause</property>
    <property name="resource">C:/Users/Sahid/Videos/QGIS Basic/6_Layouting/2021-02-03 09-50-10.mkv</property>
    <property name="audio_index">1</property>
    <property name="video_index">0</property>
    <property name="mute_on_pause">0</property>
    <property name="mlt_service">avformat-novalidate</property>
    <property name="seekable">1</property>
    <property name="aspect_ratio">1</property>
    <property name="creation_time">2021-02-03T03:41:06</property>
    <property name="global_feed">1</property>
    <property name="xml">was here</property>
    <property name="shotcut:hash">8e392e48be4935f7d753048eef069fa1</property>
    <property name="shotcut:caption">2021-02-03 09-50-10.mkv</property>
    <filter id="filter300" in="00:16:47.800" out="00:16:48.700">
      <property name="window">75</property>
      <property name="max_gain">20dB</property>
      <property name="level">12</property>
      <property name="mlt_service">volume</property>
    </filter>
  </producer>
  <producer id="producer306" in="00:00:00.000" out="00:50:55.017">
    <property name="length">00:50:55.033</property>
    <property name="eof">pause</property>
    <property name="resource">C:/Users/Sahid/Videos/QGIS Basic/6_Layouting/2021-02-03 09-50-10.mkv</property>
    <property name="audio_index">1</property>
    <property name="video_index">0</property>
    <property name="mute_on_pause">0</property>
    <property name="mlt_service">avformat-novalidate</property>
    <property name="seekable">1</property>
    <property name="aspect_ratio">1</property>
    <property name="creation_time">2021-02-03T03:41:06</property>
    <property name="global_feed">1</property>
    <property name="xml">was here</property>
    <property name="shotcut:hash">8e392e48be4935f7d753048eef069fa1</property>
    <property name="shotcut:caption">2021-02-03 09-50-10.mkv</property>
    <filter id="filter301" in="00:16:59.000" out="00:17:02.650">
      <property name="window">75</property>
      <property name="max_gain">20dB</property>
      <property name="level">12</property>
      <property name="mlt_service">volume</property>
    </filter>
  </producer>
  <producer id="producer307" in="00:00:00.000" out="00:50:55.017">
    <property name="length">00:50:55.033</property>
    <property name="eof">pause</property>
    <property name="resource">C:/Users/Sahid/Videos/QGIS Basic/6_Layouting/2021-02-03 09-50-10.mkv</property>
    <property name="audio_index">1</property>
    <property name="video_index">0</property>
    <property name="mute_on_pause">0</property>
    <property name="mlt_service">avformat-novalidate</property>
    <property name="seekable">1</property>
    <property name="aspect_ratio">1</property>
    <property name="creation_time">2021-02-03T03:41:06</property>
    <property name="global_feed">1</property>
    <property name="xml">was here</property>
    <property name="shotcut:hash">8e392e48be4935f7d753048eef069fa1</property>
    <property name="shotcut:caption">2021-02-03 09-50-10.mkv</property>
    <filter id="filter302" in="00:17:02.767" out="00:17:03.250">
      <property name="window">75</property>
      <property name="max_gain">20dB</property>
      <property name="level">12</property>
      <property name="mlt_service">volume</property>
    </filter>
  </producer>
  <producer id="producer308" in="00:00:00.000" out="00:50:55.017">
    <property name="length">00:50:55.033</property>
    <property name="eof">pause</property>
    <property name="resource">C:/Users/Sahid/Videos/QGIS Basic/6_Layouting/2021-02-03 09-50-10.mkv</property>
    <property name="audio_index">1</property>
    <property name="video_index">0</property>
    <property name="mute_on_pause">0</property>
    <property name="mlt_service">avformat-novalidate</property>
    <property name="seekable">1</property>
    <property name="aspect_ratio">1</property>
    <property name="creation_time">2021-02-03T03:41:06</property>
    <property name="global_feed">1</property>
    <property name="xml">was here</property>
    <property name="shotcut:hash">8e392e48be4935f7d753048eef069fa1</property>
    <property name="shotcut:caption">2021-02-03 09-50-10.mkv</property>
    <filter id="filter303" in="00:17:04.167" out="00:17:05.733">
      <property name="window">75</property>
      <property name="max_gain">20dB</property>
      <property name="level">12</property>
      <property name="mlt_service">volume</property>
    </filter>
  </producer>
  <producer id="producer309" in="00:00:00.000" out="00:50:55.017">
    <property name="length">00:50:55.033</property>
    <property name="eof">pause</property>
    <property name="resource">C:/Users/Sahid/Videos/QGIS Basic/6_Layouting/2021-02-03 09-50-10.mkv</property>
    <property name="audio_index">1</property>
    <property name="video_index">0</property>
    <property name="mute_on_pause">0</property>
    <property name="mlt_service">avformat-novalidate</property>
    <property name="seekable">1</property>
    <property name="aspect_ratio">1</property>
    <property name="creation_time">2021-02-03T03:41:06</property>
    <property name="global_feed">1</property>
    <property name="xml">was here</property>
    <property name="shotcut:hash">8e392e48be4935f7d753048eef069fa1</property>
    <property name="shotcut:caption">2021-02-03 09-50-10.mkv</property>
    <filter id="filter304" in="00:17:06.983" out="00:17:11.400">
      <property name="window">75</property>
      <property name="max_gain">20dB</property>
      <property name="level">12</property>
      <property name="mlt_service">volume</property>
    </filter>
  </producer>
  <producer id="producer310" in="00:00:00.000" out="00:50:55.017">
    <property name="length">00:50:55.033</property>
    <property name="eof">pause</property>
    <property name="resource">C:/Users/Sahid/Videos/QGIS Basic/6_Layouting/2021-02-03 09-50-10.mkv</property>
    <property name="audio_index">1</property>
    <property name="video_index">0</property>
    <property name="mute_on_pause">0</property>
    <property name="mlt_service">avformat-novalidate</property>
    <property name="seekable">1</property>
    <property name="aspect_ratio">1</property>
    <property name="creation_time">2021-02-03T03:41:06</property>
    <property name="global_feed">1</property>
    <property name="xml">was here</property>
    <property name="shotcut:hash">8e392e48be4935f7d753048eef069fa1</property>
    <property name="shotcut:caption">2021-02-03 09-50-10.mkv</property>
    <filter id="filter305" in="00:17:12.417" out="00:17:15.883">
      <property name="window">75</property>
      <property name="max_gain">20dB</property>
      <property name="level">12</property>
      <property name="mlt_service">volume</property>
    </filter>
  </producer>
  <producer id="producer311" in="00:00:00.000" out="00:50:55.017">
    <property name="length">00:50:55.033</property>
    <property name="eof">pause</property>
    <property name="resource">C:/Users/Sahid/Videos/QGIS Basic/6_Layouting/2021-02-03 09-50-10.mkv</property>
    <property name="audio_index">1</property>
    <property name="video_index">0</property>
    <property name="mute_on_pause">0</property>
    <property name="mlt_service">avformat-novalidate</property>
    <property name="seekable">1</property>
    <property name="aspect_ratio">1</property>
    <property name="creation_time">2021-02-03T03:41:06</property>
    <property name="global_feed">1</property>
    <property name="xml">was here</property>
    <property name="shotcut:hash">8e392e48be4935f7d753048eef069fa1</property>
    <property name="shotcut:caption">2021-02-03 09-50-10.mkv</property>
    <filter id="filter306" in="00:17:19.083" out="00:17:20.500">
      <property name="window">75</property>
      <property name="max_gain">20dB</property>
      <property name="level">12</property>
      <property name="mlt_service">volume</property>
    </filter>
  </producer>
  <producer id="producer312" in="00:00:00.000" out="00:50:55.017">
    <property name="length">00:50:55.033</property>
    <property name="eof">pause</property>
    <property name="resource">C:/Users/Sahid/Videos/QGIS Basic/6_Layouting/2021-02-03 09-50-10.mkv</property>
    <property name="audio_index">1</property>
    <property name="video_index">0</property>
    <property name="mute_on_pause">0</property>
    <property name="mlt_service">avformat-novalidate</property>
    <property name="seekable">1</property>
    <property name="aspect_ratio">1</property>
    <property name="creation_time">2021-02-03T03:41:06</property>
    <property name="global_feed">1</property>
    <property name="xml">was here</property>
    <property name="shotcut:hash">8e392e48be4935f7d753048eef069fa1</property>
    <property name="shotcut:caption">2021-02-03 09-50-10.mkv</property>
    <filter id="filter307" in="00:17:20.817" out="00:17:23.717">
      <property name="window">75</property>
      <property name="max_gain">20dB</property>
      <property name="level">12</property>
      <property name="mlt_service">volume</property>
    </filter>
  </producer>
  <producer id="producer313" in="00:00:00.000" out="00:50:55.017">
    <property name="length">00:50:55.033</property>
    <property name="eof">pause</property>
    <property name="resource">C:/Users/Sahid/Videos/QGIS Basic/6_Layouting/2021-02-03 09-50-10.mkv</property>
    <property name="audio_index">1</property>
    <property name="video_index">0</property>
    <property name="mute_on_pause">0</property>
    <property name="mlt_service">avformat-novalidate</property>
    <property name="seekable">1</property>
    <property name="aspect_ratio">1</property>
    <property name="creation_time">2021-02-03T03:41:06</property>
    <property name="global_feed">1</property>
    <property name="xml">was here</property>
    <property name="shotcut:hash">8e392e48be4935f7d753048eef069fa1</property>
    <property name="shotcut:caption">2021-02-03 09-50-10.mkv</property>
    <filter id="filter308" in="00:17:24.217" out="00:17:27.183">
      <property name="window">75</property>
      <property name="max_gain">20dB</property>
      <property name="level">12</property>
      <property name="mlt_service">volume</property>
    </filter>
  </producer>
  <producer id="producer314" in="00:00:00.000" out="00:50:55.017">
    <property name="length">00:50:55.033</property>
    <property name="eof">pause</property>
    <property name="resource">C:/Users/Sahid/Videos/QGIS Basic/6_Layouting/2021-02-03 09-50-10.mkv</property>
    <property name="audio_index">1</property>
    <property name="video_index">0</property>
    <property name="mute_on_pause">0</property>
    <property name="mlt_service">avformat-novalidate</property>
    <property name="seekable">1</property>
    <property name="aspect_ratio">1</property>
    <property name="creation_time">2021-02-03T03:41:06</property>
    <property name="global_feed">1</property>
    <property name="xml">was here</property>
    <property name="shotcut:hash">8e392e48be4935f7d753048eef069fa1</property>
    <property name="shotcut:caption">2021-02-03 09-50-10.mkv</property>
    <filter id="filter309" in="00:17:27.817" out="00:17:30.300">
      <property name="window">75</property>
      <property name="max_gain">20dB</property>
      <property name="level">12</property>
      <property name="mlt_service">volume</property>
    </filter>
  </producer>
  <producer id="producer315" in="00:00:00.000" out="00:50:55.017">
    <property name="length">00:50:55.033</property>
    <property name="eof">pause</property>
    <property name="resource">C:/Users/Sahid/Videos/QGIS Basic/6_Layouting/2021-02-03 09-50-10.mkv</property>
    <property name="audio_index">1</property>
    <property name="video_index">0</property>
    <property name="mute_on_pause">0</property>
    <property name="mlt_service">avformat-novalidate</property>
    <property name="seekable">1</property>
    <property name="aspect_ratio">1</property>
    <property name="creation_time">2021-02-03T03:41:06</property>
    <property name="global_feed">1</property>
    <property name="xml">was here</property>
    <property name="shotcut:hash">8e392e48be4935f7d753048eef069fa1</property>
    <property name="shotcut:caption">2021-02-03 09-50-10.mkv</property>
    <filter id="filter310" in="00:17:30.583" out="00:17:33.050">
      <property name="window">75</property>
      <property name="max_gain">20dB</property>
      <property name="level">12</property>
      <property name="mlt_service">volume</property>
    </filter>
  </producer>
  <producer id="producer316" in="00:00:00.000" out="00:50:55.017">
    <property name="length">00:50:55.033</property>
    <property name="eof">pause</property>
    <property name="resource">C:/Users/Sahid/Videos/QGIS Basic/6_Layouting/2021-02-03 09-50-10.mkv</property>
    <property name="audio_index">1</property>
    <property name="video_index">0</property>
    <property name="mute_on_pause">0</property>
    <property name="mlt_service">avformat-novalidate</property>
    <property name="seekable">1</property>
    <property name="aspect_ratio">1</property>
    <property name="creation_time">2021-02-03T03:41:06</property>
    <property name="global_feed">1</property>
    <property name="xml">was here</property>
    <property name="shotcut:hash">8e392e48be4935f7d753048eef069fa1</property>
    <property name="shotcut:caption">2021-02-03 09-50-10.mkv</property>
    <filter id="filter311" in="00:17:33.667" out="00:17:37.667">
      <property name="window">75</property>
      <property name="max_gain">20dB</property>
      <property name="level">12</property>
      <property name="mlt_service">volume</property>
    </filter>
  </producer>
  <producer id="producer317" in="00:00:00.000" out="00:50:55.017">
    <property name="length">00:50:55.033</property>
    <property name="eof">pause</property>
    <property name="resource">C:/Users/Sahid/Videos/QGIS Basic/6_Layouting/2021-02-03 09-50-10.mkv</property>
    <property name="audio_index">1</property>
    <property name="video_index">0</property>
    <property name="mute_on_pause">0</property>
    <property name="mlt_service">avformat-novalidate</property>
    <property name="seekable">1</property>
    <property name="aspect_ratio">1</property>
    <property name="creation_time">2021-02-03T03:41:06</property>
    <property name="global_feed">1</property>
    <property name="xml">was here</property>
    <property name="shotcut:hash">8e392e48be4935f7d753048eef069fa1</property>
    <property name="shotcut:caption">2021-02-03 09-50-10.mkv</property>
    <filter id="filter312" in="00:17:39.133" out="00:17:42.233">
      <property name="window">75</property>
      <property name="max_gain">20dB</property>
      <property name="level">12</property>
      <property name="mlt_service">volume</property>
    </filter>
  </producer>
  <producer id="producer318" in="00:00:00.000" out="00:50:55.017">
    <property name="length">00:50:55.033</property>
    <property name="eof">pause</property>
    <property name="resource">C:/Users/Sahid/Videos/QGIS Basic/6_Layouting/2021-02-03 09-50-10.mkv</property>
    <property name="audio_index">1</property>
    <property name="video_index">0</property>
    <property name="mute_on_pause">0</property>
    <property name="mlt_service">avformat-novalidate</property>
    <property name="seekable">1</property>
    <property name="aspect_ratio">1</property>
    <property name="creation_time">2021-02-03T03:41:06</property>
    <property name="global_feed">1</property>
    <property name="xml">was here</property>
    <property name="shotcut:hash">8e392e48be4935f7d753048eef069fa1</property>
    <property name="shotcut:caption">2021-02-03 09-50-10.mkv</property>
    <filter id="filter313" in="00:17:44.533" out="00:17:45.850">
      <property name="window">75</property>
      <property name="max_gain">20dB</property>
      <property name="level">12</property>
      <property name="mlt_service">volume</property>
    </filter>
  </producer>
  <producer id="producer319" in="00:00:00.000" out="00:50:55.017">
    <property name="length">00:50:55.033</property>
    <property name="eof">pause</property>
    <property name="resource">C:/Users/Sahid/Videos/QGIS Basic/6_Layouting/2021-02-03 09-50-10.mkv</property>
    <property name="audio_index">1</property>
    <property name="video_index">0</property>
    <property name="mute_on_pause">0</property>
    <property name="mlt_service">avformat-novalidate</property>
    <property name="seekable">1</property>
    <property name="aspect_ratio">1</property>
    <property name="creation_time">2021-02-03T03:41:06</property>
    <property name="global_feed">1</property>
    <property name="xml">was here</property>
    <property name="shotcut:hash">8e392e48be4935f7d753048eef069fa1</property>
    <property name="shotcut:caption">2021-02-03 09-50-10.mkv</property>
    <filter id="filter314" in="00:17:52.817" out="00:17:55.033">
      <property name="window">75</property>
      <property name="max_gain">20dB</property>
      <property name="level">12</property>
      <property name="mlt_service">volume</property>
    </filter>
  </producer>
  <producer id="producer320" in="00:00:00.000" out="00:50:55.017">
    <property name="length">00:50:55.033</property>
    <property name="eof">pause</property>
    <property name="resource">C:/Users/Sahid/Videos/QGIS Basic/6_Layouting/2021-02-03 09-50-10.mkv</property>
    <property name="audio_index">1</property>
    <property name="video_index">0</property>
    <property name="mute_on_pause">0</property>
    <property name="mlt_service">avformat-novalidate</property>
    <property name="seekable">1</property>
    <property name="aspect_ratio">1</property>
    <property name="creation_time">2021-02-03T03:41:06</property>
    <property name="global_feed">1</property>
    <property name="xml">was here</property>
    <property name="shotcut:hash">8e392e48be4935f7d753048eef069fa1</property>
    <property name="shotcut:caption">2021-02-03 09-50-10.mkv</property>
    <filter id="filter315" in="00:18:13.450" out="00:18:14.517">
      <property name="window">75</property>
      <property name="max_gain">20dB</property>
      <property name="level">12</property>
      <property name="mlt_service">volume</property>
    </filter>
  </producer>
  <producer id="producer321" in="00:00:00.000" out="00:50:55.017">
    <property name="length">00:50:55.033</property>
    <property name="eof">pause</property>
    <property name="resource">C:/Users/Sahid/Videos/QGIS Basic/6_Layouting/2021-02-03 09-50-10.mkv</property>
    <property name="audio_index">1</property>
    <property name="video_index">0</property>
    <property name="mute_on_pause">0</property>
    <property name="mlt_service">avformat-novalidate</property>
    <property name="seekable">1</property>
    <property name="aspect_ratio">1</property>
    <property name="creation_time">2021-02-03T03:41:06</property>
    <property name="global_feed">1</property>
    <property name="xml">was here</property>
    <property name="shotcut:hash">8e392e48be4935f7d753048eef069fa1</property>
    <property name="shotcut:caption">2021-02-03 09-50-10.mkv</property>
    <filter id="filter316" in="00:18:14.817" out="00:18:15.683">
      <property name="window">75</property>
      <property name="max_gain">20dB</property>
      <property name="level">12</property>
      <property name="mlt_service">volume</property>
    </filter>
  </producer>
  <producer id="producer322" in="00:00:00.000" out="00:50:55.017">
    <property name="length">00:50:55.033</property>
    <property name="eof">pause</property>
    <property name="resource">C:/Users/Sahid/Videos/QGIS Basic/6_Layouting/2021-02-03 09-50-10.mkv</property>
    <property name="audio_index">1</property>
    <property name="video_index">0</property>
    <property name="mute_on_pause">0</property>
    <property name="mlt_service">avformat-novalidate</property>
    <property name="seekable">1</property>
    <property name="aspect_ratio">1</property>
    <property name="creation_time">2021-02-03T03:41:06</property>
    <property name="global_feed">1</property>
    <property name="xml">was here</property>
    <property name="shotcut:hash">8e392e48be4935f7d753048eef069fa1</property>
    <property name="shotcut:caption">2021-02-03 09-50-10.mkv</property>
    <filter id="filter317" in="00:18:15.833" out="00:18:16.867">
      <property name="window">75</property>
      <property name="max_gain">20dB</property>
      <property name="level">12</property>
      <property name="mlt_service">volume</property>
    </filter>
  </producer>
  <producer id="producer323" in="00:00:00.000" out="00:50:55.017">
    <property name="length">00:50:55.033</property>
    <property name="eof">pause</property>
    <property name="resource">C:/Users/Sahid/Videos/QGIS Basic/6_Layouting/2021-02-03 09-50-10.mkv</property>
    <property name="audio_index">1</property>
    <property name="video_index">0</property>
    <property name="mute_on_pause">0</property>
    <property name="mlt_service">avformat-novalidate</property>
    <property name="seekable">1</property>
    <property name="aspect_ratio">1</property>
    <property name="creation_time">2021-02-03T03:41:06</property>
    <property name="global_feed">1</property>
    <property name="xml">was here</property>
    <property name="shotcut:hash">8e392e48be4935f7d753048eef069fa1</property>
    <property name="shotcut:caption">2021-02-03 09-50-10.mkv</property>
    <filter id="filter318" in="00:18:17.583" out="00:18:19.533">
      <property name="window">75</property>
      <property name="max_gain">20dB</property>
      <property name="level">12</property>
      <property name="mlt_service">volume</property>
    </filter>
  </producer>
  <producer id="producer324" in="00:00:00.000" out="00:50:55.017">
    <property name="length">00:50:55.033</property>
    <property name="eof">pause</property>
    <property name="resource">C:/Users/Sahid/Videos/QGIS Basic/6_Layouting/2021-02-03 09-50-10.mkv</property>
    <property name="audio_index">1</property>
    <property name="video_index">0</property>
    <property name="mute_on_pause">0</property>
    <property name="mlt_service">avformat-novalidate</property>
    <property name="seekable">1</property>
    <property name="aspect_ratio">1</property>
    <property name="creation_time">2021-02-03T03:41:06</property>
    <property name="global_feed">1</property>
    <property name="xml">was here</property>
    <property name="shotcut:hash">8e392e48be4935f7d753048eef069fa1</property>
    <property name="shotcut:caption">2021-02-03 09-50-10.mkv</property>
    <filter id="filter319" in="00:18:20.067" out="00:18:26.150">
      <property name="window">75</property>
      <property name="max_gain">20dB</property>
      <property name="level">12</property>
      <property name="mlt_service">volume</property>
    </filter>
  </producer>
  <producer id="producer325" in="00:00:00.000" out="00:50:55.017">
    <property name="length">00:50:55.033</property>
    <property name="eof">pause</property>
    <property name="resource">C:/Users/Sahid/Videos/QGIS Basic/6_Layouting/2021-02-03 09-50-10.mkv</property>
    <property name="audio_index">1</property>
    <property name="video_index">0</property>
    <property name="mute_on_pause">0</property>
    <property name="mlt_service">avformat-novalidate</property>
    <property name="seekable">1</property>
    <property name="aspect_ratio">1</property>
    <property name="creation_time">2021-02-03T03:41:06</property>
    <property name="global_feed">1</property>
    <property name="xml">was here</property>
    <property name="shotcut:hash">8e392e48be4935f7d753048eef069fa1</property>
    <property name="shotcut:caption">2021-02-03 09-50-10.mkv</property>
    <filter id="filter320" in="00:18:27.150" out="00:18:29.417">
      <property name="window">75</property>
      <property name="max_gain">20dB</property>
      <property name="level">12</property>
      <property name="mlt_service">volume</property>
    </filter>
  </producer>
  <producer id="producer326" in="00:00:00.000" out="00:50:55.017">
    <property name="length">00:50:55.033</property>
    <property name="eof">pause</property>
    <property name="resource">C:/Users/Sahid/Videos/QGIS Basic/6_Layouting/2021-02-03 09-50-10.mkv</property>
    <property name="audio_index">1</property>
    <property name="video_index">0</property>
    <property name="mute_on_pause">0</property>
    <property name="mlt_service">avformat-novalidate</property>
    <property name="seekable">1</property>
    <property name="aspect_ratio">1</property>
    <property name="creation_time">2021-02-03T03:41:06</property>
    <property name="global_feed">1</property>
    <property name="xml">was here</property>
    <property name="shotcut:hash">8e392e48be4935f7d753048eef069fa1</property>
    <property name="shotcut:caption">2021-02-03 09-50-10.mkv</property>
    <filter id="filter321" in="00:18:29.917" out="00:18:32.917">
      <property name="window">75</property>
      <property name="max_gain">20dB</property>
      <property name="level">12</property>
      <property name="mlt_service">volume</property>
    </filter>
  </producer>
  <producer id="producer327" in="00:00:00.000" out="00:50:55.017">
    <property name="length">00:50:55.033</property>
    <property name="eof">pause</property>
    <property name="resource">C:/Users/Sahid/Videos/QGIS Basic/6_Layouting/2021-02-03 09-50-10.mkv</property>
    <property name="audio_index">1</property>
    <property name="video_index">0</property>
    <property name="mute_on_pause">0</property>
    <property name="mlt_service">avformat-novalidate</property>
    <property name="seekable">1</property>
    <property name="aspect_ratio">1</property>
    <property name="creation_time">2021-02-03T03:41:06</property>
    <property name="global_feed">1</property>
    <property name="xml">was here</property>
    <property name="shotcut:hash">8e392e48be4935f7d753048eef069fa1</property>
    <property name="shotcut:caption">2021-02-03 09-50-10.mkv</property>
    <filter id="filter322" in="00:18:34.500" out="00:18:35.617">
      <property name="window">75</property>
      <property name="max_gain">20dB</property>
      <property name="level">12</property>
      <property name="mlt_service">volume</property>
    </filter>
  </producer>
  <producer id="producer328" in="00:00:00.000" out="00:50:55.017">
    <property name="length">00:50:55.033</property>
    <property name="eof">pause</property>
    <property name="resource">C:/Users/Sahid/Videos/QGIS Basic/6_Layouting/2021-02-03 09-50-10.mkv</property>
    <property name="audio_index">1</property>
    <property name="video_index">0</property>
    <property name="mute_on_pause">0</property>
    <property name="mlt_service">avformat-novalidate</property>
    <property name="seekable">1</property>
    <property name="aspect_ratio">1</property>
    <property name="creation_time">2021-02-03T03:41:06</property>
    <property name="global_feed">1</property>
    <property name="xml">was here</property>
    <property name="shotcut:hash">8e392e48be4935f7d753048eef069fa1</property>
    <property name="shotcut:caption">2021-02-03 09-50-10.mkv</property>
    <filter id="filter323" in="00:18:36.117" out="00:18:39.233">
      <property name="window">75</property>
      <property name="max_gain">20dB</property>
      <property name="level">12</property>
      <property name="mlt_service">volume</property>
    </filter>
  </producer>
  <producer id="producer329" in="00:00:00.000" out="00:50:55.017">
    <property name="length">00:50:55.033</property>
    <property name="eof">pause</property>
    <property name="resource">C:/Users/Sahid/Videos/QGIS Basic/6_Layouting/2021-02-03 09-50-10.mkv</property>
    <property name="audio_index">1</property>
    <property name="video_index">0</property>
    <property name="mute_on_pause">0</property>
    <property name="mlt_service">avformat-novalidate</property>
    <property name="seekable">1</property>
    <property name="aspect_ratio">1</property>
    <property name="creation_time">2021-02-03T03:41:06</property>
    <property name="global_feed">1</property>
    <property name="xml">was here</property>
    <property name="shotcut:hash">8e392e48be4935f7d753048eef069fa1</property>
    <property name="shotcut:caption">2021-02-03 09-50-10.mkv</property>
    <filter id="filter324" in="00:19:07.583" out="00:19:08.250">
      <property name="window">75</property>
      <property name="max_gain">20dB</property>
      <property name="level">12</property>
      <property name="mlt_service">volume</property>
    </filter>
  </producer>
  <producer id="producer330" in="00:00:00.000" out="00:50:55.017">
    <property name="length">00:50:55.033</property>
    <property name="eof">pause</property>
    <property name="resource">C:/Users/Sahid/Videos/QGIS Basic/6_Layouting/2021-02-03 09-50-10.mkv</property>
    <property name="audio_index">1</property>
    <property name="video_index">0</property>
    <property name="mute_on_pause">0</property>
    <property name="mlt_service">avformat-novalidate</property>
    <property name="seekable">1</property>
    <property name="aspect_ratio">1</property>
    <property name="creation_time">2021-02-03T03:41:06</property>
    <property name="global_feed">1</property>
    <property name="xml">was here</property>
    <property name="shotcut:hash">8e392e48be4935f7d753048eef069fa1</property>
    <property name="shotcut:caption">2021-02-03 09-50-10.mkv</property>
    <filter id="filter325" in="00:19:09.933" out="00:19:11.150">
      <property name="window">75</property>
      <property name="max_gain">20dB</property>
      <property name="level">12</property>
      <property name="mlt_service">volume</property>
    </filter>
  </producer>
  <producer id="producer331" in="00:00:00.000" out="00:50:55.017">
    <property name="length">00:50:55.033</property>
    <property name="eof">pause</property>
    <property name="resource">C:/Users/Sahid/Videos/QGIS Basic/6_Layouting/2021-02-03 09-50-10.mkv</property>
    <property name="audio_index">1</property>
    <property name="video_index">0</property>
    <property name="mute_on_pause">0</property>
    <property name="mlt_service">avformat-novalidate</property>
    <property name="seekable">1</property>
    <property name="aspect_ratio">1</property>
    <property name="creation_time">2021-02-03T03:41:06</property>
    <property name="global_feed">1</property>
    <property name="xml">was here</property>
    <property name="shotcut:hash">8e392e48be4935f7d753048eef069fa1</property>
    <property name="shotcut:caption">2021-02-03 09-50-10.mkv</property>
    <filter id="filter326" in="00:19:12.250" out="00:19:15.667">
      <property name="window">75</property>
      <property name="max_gain">20dB</property>
      <property name="level">12</property>
      <property name="mlt_service">volume</property>
    </filter>
  </producer>
  <producer id="producer332" in="00:00:00.000" out="00:50:55.017">
    <property name="length">00:50:55.033</property>
    <property name="eof">pause</property>
    <property name="resource">C:/Users/Sahid/Videos/QGIS Basic/6_Layouting/2021-02-03 09-50-10.mkv</property>
    <property name="audio_index">1</property>
    <property name="video_index">0</property>
    <property name="mute_on_pause">0</property>
    <property name="mlt_service">avformat-novalidate</property>
    <property name="seekable">1</property>
    <property name="aspect_ratio">1</property>
    <property name="creation_time">2021-02-03T03:41:06</property>
    <property name="global_feed">1</property>
    <property name="xml">was here</property>
    <property name="shotcut:hash">8e392e48be4935f7d753048eef069fa1</property>
    <property name="shotcut:caption">2021-02-03 09-50-10.mkv</property>
    <filter id="filter327" in="00:19:16.317" out="00:19:17.717">
      <property name="window">75</property>
      <property name="max_gain">20dB</property>
      <property name="level">12</property>
      <property name="mlt_service">volume</property>
    </filter>
  </producer>
  <producer id="producer333" in="00:00:00.000" out="00:50:55.017">
    <property name="length">00:50:55.033</property>
    <property name="eof">pause</property>
    <property name="resource">C:/Users/Sahid/Videos/QGIS Basic/6_Layouting/2021-02-03 09-50-10.mkv</property>
    <property name="audio_index">1</property>
    <property name="video_index">0</property>
    <property name="mute_on_pause">0</property>
    <property name="mlt_service">avformat-novalidate</property>
    <property name="seekable">1</property>
    <property name="aspect_ratio">1</property>
    <property name="creation_time">2021-02-03T03:41:06</property>
    <property name="global_feed">1</property>
    <property name="xml">was here</property>
    <property name="shotcut:hash">8e392e48be4935f7d753048eef069fa1</property>
    <property name="shotcut:caption">2021-02-03 09-50-10.mkv</property>
    <filter id="filter328" in="00:19:18.183" out="00:19:18.817">
      <property name="window">75</property>
      <property name="max_gain">20dB</property>
      <property name="level">12</property>
      <property name="mlt_service">volume</property>
    </filter>
  </producer>
  <producer id="producer334" in="00:00:00.000" out="00:50:55.017">
    <property name="length">00:50:55.033</property>
    <property name="eof">pause</property>
    <property name="resource">C:/Users/Sahid/Videos/QGIS Basic/6_Layouting/2021-02-03 09-50-10.mkv</property>
    <property name="audio_index">1</property>
    <property name="video_index">0</property>
    <property name="mute_on_pause">0</property>
    <property name="mlt_service">avformat-novalidate</property>
    <property name="seekable">1</property>
    <property name="aspect_ratio">1</property>
    <property name="creation_time">2021-02-03T03:41:06</property>
    <property name="global_feed">1</property>
    <property name="xml">was here</property>
    <property name="shotcut:hash">8e392e48be4935f7d753048eef069fa1</property>
    <property name="shotcut:caption">2021-02-03 09-50-10.mkv</property>
    <filter id="filter329" in="00:19:20.183" out="00:19:24.050">
      <property name="window">75</property>
      <property name="max_gain">20dB</property>
      <property name="level">12</property>
      <property name="mlt_service">volume</property>
    </filter>
  </producer>
  <producer id="producer335" in="00:00:00.000" out="00:50:55.017">
    <property name="length">00:50:55.033</property>
    <property name="eof">pause</property>
    <property name="resource">C:/Users/Sahid/Videos/QGIS Basic/6_Layouting/2021-02-03 09-50-10.mkv</property>
    <property name="audio_index">1</property>
    <property name="video_index">0</property>
    <property name="mute_on_pause">0</property>
    <property name="mlt_service">avformat-novalidate</property>
    <property name="seekable">1</property>
    <property name="aspect_ratio">1</property>
    <property name="creation_time">2021-02-03T03:41:06</property>
    <property name="global_feed">1</property>
    <property name="xml">was here</property>
    <property name="shotcut:hash">8e392e48be4935f7d753048eef069fa1</property>
    <property name="shotcut:caption">2021-02-03 09-50-10.mkv</property>
    <filter id="filter330" in="00:19:26.433" out="00:19:27.517">
      <property name="window">75</property>
      <property name="max_gain">20dB</property>
      <property name="level">12</property>
      <property name="mlt_service">volume</property>
    </filter>
  </producer>
  <producer id="producer336" in="00:00:00.000" out="00:50:55.017">
    <property name="length">00:50:55.033</property>
    <property name="eof">pause</property>
    <property name="resource">C:/Users/Sahid/Videos/QGIS Basic/6_Layouting/2021-02-03 09-50-10.mkv</property>
    <property name="audio_index">1</property>
    <property name="video_index">0</property>
    <property name="mute_on_pause">0</property>
    <property name="mlt_service">avformat-novalidate</property>
    <property name="seekable">1</property>
    <property name="aspect_ratio">1</property>
    <property name="creation_time">2021-02-03T03:41:06</property>
    <property name="global_feed">1</property>
    <property name="xml">was here</property>
    <property name="shotcut:hash">8e392e48be4935f7d753048eef069fa1</property>
    <property name="shotcut:caption">2021-02-03 09-50-10.mkv</property>
    <filter id="filter331" in="00:19:28.700" out="00:19:30.500">
      <property name="window">75</property>
      <property name="max_gain">20dB</property>
      <property name="level">12</property>
      <property name="mlt_service">volume</property>
    </filter>
  </producer>
  <producer id="producer337" in="00:00:00.000" out="00:50:55.017">
    <property name="length">00:50:55.033</property>
    <property name="eof">pause</property>
    <property name="resource">C:/Users/Sahid/Videos/QGIS Basic/6_Layouting/2021-02-03 09-50-10.mkv</property>
    <property name="audio_index">1</property>
    <property name="video_index">0</property>
    <property name="mute_on_pause">0</property>
    <property name="mlt_service">avformat-novalidate</property>
    <property name="seekable">1</property>
    <property name="aspect_ratio">1</property>
    <property name="creation_time">2021-02-03T03:41:06</property>
    <property name="global_feed">1</property>
    <property name="xml">was here</property>
    <property name="shotcut:hash">8e392e48be4935f7d753048eef069fa1</property>
    <property name="shotcut:caption">2021-02-03 09-50-10.mkv</property>
    <filter id="filter332" in="00:19:30.917" out="00:19:31.433">
      <property name="window">75</property>
      <property name="max_gain">20dB</property>
      <property name="level">12</property>
      <property name="mlt_service">volume</property>
    </filter>
  </producer>
  <producer id="producer338" in="00:00:00.000" out="00:50:55.017">
    <property name="length">00:50:55.033</property>
    <property name="eof">pause</property>
    <property name="resource">C:/Users/Sahid/Videos/QGIS Basic/6_Layouting/2021-02-03 09-50-10.mkv</property>
    <property name="audio_index">1</property>
    <property name="video_index">0</property>
    <property name="mute_on_pause">0</property>
    <property name="mlt_service">avformat-novalidate</property>
    <property name="seekable">1</property>
    <property name="aspect_ratio">1</property>
    <property name="creation_time">2021-02-03T03:41:06</property>
    <property name="global_feed">1</property>
    <property name="xml">was here</property>
    <property name="shotcut:hash">8e392e48be4935f7d753048eef069fa1</property>
    <property name="shotcut:caption">2021-02-03 09-50-10.mkv</property>
    <filter id="filter333" in="00:19:32.750" out="00:19:35.133">
      <property name="window">75</property>
      <property name="max_gain">20dB</property>
      <property name="level">12</property>
      <property name="mlt_service">volume</property>
    </filter>
  </producer>
  <producer id="producer339" in="00:00:00.000" out="00:50:55.017">
    <property name="length">00:50:55.033</property>
    <property name="eof">pause</property>
    <property name="resource">C:/Users/Sahid/Videos/QGIS Basic/6_Layouting/2021-02-03 09-50-10.mkv</property>
    <property name="audio_index">1</property>
    <property name="video_index">0</property>
    <property name="mute_on_pause">0</property>
    <property name="mlt_service">avformat-novalidate</property>
    <property name="seekable">1</property>
    <property name="aspect_ratio">1</property>
    <property name="creation_time">2021-02-03T03:41:06</property>
    <property name="global_feed">1</property>
    <property name="xml">was here</property>
    <property name="shotcut:hash">8e392e48be4935f7d753048eef069fa1</property>
    <property name="shotcut:caption">2021-02-03 09-50-10.mkv</property>
    <filter id="filter334" in="00:19:51.100" out="00:19:51.450">
      <property name="window">75</property>
      <property name="max_gain">20dB</property>
      <property name="level">12</property>
      <property name="mlt_service">volume</property>
    </filter>
  </producer>
  <producer id="producer340" in="00:00:00.000" out="00:50:55.017">
    <property name="length">00:50:55.033</property>
    <property name="eof">pause</property>
    <property name="resource">C:/Users/Sahid/Videos/QGIS Basic/6_Layouting/2021-02-03 09-50-10.mkv</property>
    <property name="audio_index">1</property>
    <property name="video_index">0</property>
    <property name="mute_on_pause">0</property>
    <property name="mlt_service">avformat-novalidate</property>
    <property name="seekable">1</property>
    <property name="aspect_ratio">1</property>
    <property name="creation_time">2021-02-03T03:41:06</property>
    <property name="global_feed">1</property>
    <property name="xml">was here</property>
    <property name="shotcut:hash">8e392e48be4935f7d753048eef069fa1</property>
    <property name="shotcut:caption">2021-02-03 09-50-10.mkv</property>
    <filter id="filter335" in="00:19:51.867" out="00:19:56.383">
      <property name="window">75</property>
      <property name="max_gain">20dB</property>
      <property name="level">12</property>
      <property name="mlt_service">volume</property>
    </filter>
  </producer>
  <producer id="producer341" in="00:00:00.000" out="00:50:55.017">
    <property name="length">00:50:55.033</property>
    <property name="eof">pause</property>
    <property name="resource">C:/Users/Sahid/Videos/QGIS Basic/6_Layouting/2021-02-03 09-50-10.mkv</property>
    <property name="audio_index">1</property>
    <property name="video_index">0</property>
    <property name="mute_on_pause">0</property>
    <property name="mlt_service">avformat-novalidate</property>
    <property name="seekable">1</property>
    <property name="aspect_ratio">1</property>
    <property name="creation_time">2021-02-03T03:41:06</property>
    <property name="global_feed">1</property>
    <property name="xml">was here</property>
    <property name="shotcut:hash">8e392e48be4935f7d753048eef069fa1</property>
    <property name="shotcut:caption">2021-02-03 09-50-10.mkv</property>
    <filter id="filter336" in="00:19:57.900" out="00:19:59.500">
      <property name="window">75</property>
      <property name="max_gain">20dB</property>
      <property name="level">12</property>
      <property name="mlt_service">volume</property>
    </filter>
  </producer>
  <producer id="producer342" in="00:00:00.000" out="00:50:55.017">
    <property name="length">00:50:55.033</property>
    <property name="eof">pause</property>
    <property name="resource">C:/Users/Sahid/Videos/QGIS Basic/6_Layouting/2021-02-03 09-50-10.mkv</property>
    <property name="audio_index">1</property>
    <property name="video_index">0</property>
    <property name="mute_on_pause">0</property>
    <property name="mlt_service">avformat-novalidate</property>
    <property name="seekable">1</property>
    <property name="aspect_ratio">1</property>
    <property name="creation_time">2021-02-03T03:41:06</property>
    <property name="global_feed">1</property>
    <property name="xml">was here</property>
    <property name="shotcut:hash">8e392e48be4935f7d753048eef069fa1</property>
    <property name="shotcut:caption">2021-02-03 09-50-10.mkv</property>
    <filter id="filter337" in="00:19:59.800" out="00:20:00.133">
      <property name="window">75</property>
      <property name="max_gain">20dB</property>
      <property name="level">12</property>
      <property name="mlt_service">volume</property>
    </filter>
  </producer>
  <producer id="producer343" in="00:00:00.000" out="00:50:55.017">
    <property name="length">00:50:55.033</property>
    <property name="eof">pause</property>
    <property name="resource">C:/Users/Sahid/Videos/QGIS Basic/6_Layouting/2021-02-03 09-50-10.mkv</property>
    <property name="audio_index">1</property>
    <property name="video_index">0</property>
    <property name="mute_on_pause">0</property>
    <property name="mlt_service">avformat-novalidate</property>
    <property name="seekable">1</property>
    <property name="aspect_ratio">1</property>
    <property name="creation_time">2021-02-03T03:41:06</property>
    <property name="global_feed">1</property>
    <property name="xml">was here</property>
    <property name="shotcut:hash">8e392e48be4935f7d753048eef069fa1</property>
    <property name="shotcut:caption">2021-02-03 09-50-10.mkv</property>
    <filter id="filter338" in="00:20:00.317" out="00:20:01.117">
      <property name="window">75</property>
      <property name="max_gain">20dB</property>
      <property name="level">12</property>
      <property name="mlt_service">volume</property>
    </filter>
  </producer>
  <producer id="producer344" in="00:00:00.000" out="00:50:55.017">
    <property name="length">00:50:55.033</property>
    <property name="eof">pause</property>
    <property name="resource">C:/Users/Sahid/Videos/QGIS Basic/6_Layouting/2021-02-03 09-50-10.mkv</property>
    <property name="audio_index">1</property>
    <property name="video_index">0</property>
    <property name="mute_on_pause">0</property>
    <property name="mlt_service">avformat-novalidate</property>
    <property name="seekable">1</property>
    <property name="aspect_ratio">1</property>
    <property name="creation_time">2021-02-03T03:41:06</property>
    <property name="global_feed">1</property>
    <property name="xml">was here</property>
    <property name="shotcut:hash">8e392e48be4935f7d753048eef069fa1</property>
    <property name="shotcut:caption">2021-02-03 09-50-10.mkv</property>
    <filter id="filter339" in="00:20:01.300" out="00:20:02.267">
      <property name="window">75</property>
      <property name="max_gain">20dB</property>
      <property name="level">12</property>
      <property name="mlt_service">volume</property>
    </filter>
  </producer>
  <producer id="producer345" in="00:00:00.000" out="00:50:55.017">
    <property name="length">00:50:55.033</property>
    <property name="eof">pause</property>
    <property name="resource">C:/Users/Sahid/Videos/QGIS Basic/6_Layouting/2021-02-03 09-50-10.mkv</property>
    <property name="audio_index">1</property>
    <property name="video_index">0</property>
    <property name="mute_on_pause">0</property>
    <property name="mlt_service">avformat-novalidate</property>
    <property name="seekable">1</property>
    <property name="aspect_ratio">1</property>
    <property name="creation_time">2021-02-03T03:41:06</property>
    <property name="global_feed">1</property>
    <property name="xml">was here</property>
    <property name="shotcut:hash">8e392e48be4935f7d753048eef069fa1</property>
    <property name="shotcut:caption">2021-02-03 09-50-10.mkv</property>
    <filter id="filter340" in="00:20:03.683" out="00:20:06.050">
      <property name="window">75</property>
      <property name="max_gain">20dB</property>
      <property name="level">12</property>
      <property name="mlt_service">volume</property>
    </filter>
  </producer>
  <producer id="producer346" in="00:00:00.000" out="00:50:55.017">
    <property name="length">00:50:55.033</property>
    <property name="eof">pause</property>
    <property name="resource">C:/Users/Sahid/Videos/QGIS Basic/6_Layouting/2021-02-03 09-50-10.mkv</property>
    <property name="audio_index">1</property>
    <property name="video_index">0</property>
    <property name="mute_on_pause">0</property>
    <property name="mlt_service">avformat-novalidate</property>
    <property name="seekable">1</property>
    <property name="aspect_ratio">1</property>
    <property name="creation_time">2021-02-03T03:41:06</property>
    <property name="global_feed">1</property>
    <property name="xml">was here</property>
    <property name="shotcut:hash">8e392e48be4935f7d753048eef069fa1</property>
    <property name="shotcut:caption">2021-02-03 09-50-10.mkv</property>
    <filter id="filter341" in="00:20:07.033" out="00:20:08.150">
      <property name="window">75</property>
      <property name="max_gain">20dB</property>
      <property name="level">12</property>
      <property name="mlt_service">volume</property>
    </filter>
  </producer>
  <producer id="producer347" in="00:00:00.000" out="00:50:55.017">
    <property name="length">00:50:55.033</property>
    <property name="eof">pause</property>
    <property name="resource">C:/Users/Sahid/Videos/QGIS Basic/6_Layouting/2021-02-03 09-50-10.mkv</property>
    <property name="audio_index">1</property>
    <property name="video_index">0</property>
    <property name="mute_on_pause">0</property>
    <property name="mlt_service">avformat-novalidate</property>
    <property name="seekable">1</property>
    <property name="aspect_ratio">1</property>
    <property name="creation_time">2021-02-03T03:41:06</property>
    <property name="global_feed">1</property>
    <property name="xml">was here</property>
    <property name="shotcut:hash">8e392e48be4935f7d753048eef069fa1</property>
    <property name="shotcut:caption">2021-02-03 09-50-10.mkv</property>
    <filter id="filter342" in="00:20:09.183" out="00:20:14.083">
      <property name="window">75</property>
      <property name="max_gain">20dB</property>
      <property name="level">12</property>
      <property name="mlt_service">volume</property>
    </filter>
  </producer>
  <producer id="producer348" in="00:00:00.000" out="00:50:55.017">
    <property name="length">00:50:55.033</property>
    <property name="eof">pause</property>
    <property name="resource">C:/Users/Sahid/Videos/QGIS Basic/6_Layouting/2021-02-03 09-50-10.mkv</property>
    <property name="audio_index">1</property>
    <property name="video_index">0</property>
    <property name="mute_on_pause">0</property>
    <property name="mlt_service">avformat-novalidate</property>
    <property name="seekable">1</property>
    <property name="aspect_ratio">1</property>
    <property name="creation_time">2021-02-03T03:41:06</property>
    <property name="global_feed">1</property>
    <property name="xml">was here</property>
    <property name="shotcut:hash">8e392e48be4935f7d753048eef069fa1</property>
    <property name="shotcut:caption">2021-02-03 09-50-10.mkv</property>
    <filter id="filter343" in="00:20:15.983" out="00:20:17.533">
      <property name="window">75</property>
      <property name="max_gain">20dB</property>
      <property name="level">12</property>
      <property name="mlt_service">volume</property>
    </filter>
  </producer>
  <producer id="producer349" in="00:00:00.000" out="00:50:55.017">
    <property name="length">00:50:55.033</property>
    <property name="eof">pause</property>
    <property name="resource">C:/Users/Sahid/Videos/QGIS Basic/6_Layouting/2021-02-03 09-50-10.mkv</property>
    <property name="audio_index">1</property>
    <property name="video_index">0</property>
    <property name="mute_on_pause">0</property>
    <property name="mlt_service">avformat-novalidate</property>
    <property name="seekable">1</property>
    <property name="aspect_ratio">1</property>
    <property name="creation_time">2021-02-03T03:41:06</property>
    <property name="global_feed">1</property>
    <property name="xml">was here</property>
    <property name="shotcut:hash">8e392e48be4935f7d753048eef069fa1</property>
    <property name="shotcut:caption">2021-02-03 09-50-10.mkv</property>
    <filter id="filter344" in="00:20:17.750" out="00:20:18.817">
      <property name="window">75</property>
      <property name="max_gain">20dB</property>
      <property name="level">12</property>
      <property name="mlt_service">volume</property>
    </filter>
  </producer>
  <producer id="producer350" in="00:00:00.000" out="00:50:55.017">
    <property name="length">00:50:55.033</property>
    <property name="eof">pause</property>
    <property name="resource">C:/Users/Sahid/Videos/QGIS Basic/6_Layouting/2021-02-03 09-50-10.mkv</property>
    <property name="audio_index">1</property>
    <property name="video_index">0</property>
    <property name="mute_on_pause">0</property>
    <property name="mlt_service">avformat-novalidate</property>
    <property name="seekable">1</property>
    <property name="aspect_ratio">1</property>
    <property name="creation_time">2021-02-03T03:41:06</property>
    <property name="global_feed">1</property>
    <property name="xml">was here</property>
    <property name="shotcut:hash">8e392e48be4935f7d753048eef069fa1</property>
    <property name="shotcut:caption">2021-02-03 09-50-10.mkv</property>
    <filter id="filter345" in="00:20:23.083" out="00:20:25.450">
      <property name="window">75</property>
      <property name="max_gain">20dB</property>
      <property name="level">12</property>
      <property name="mlt_service">volume</property>
    </filter>
  </producer>
  <producer id="producer351" in="00:00:00.000" out="00:50:55.017">
    <property name="length">00:50:55.033</property>
    <property name="eof">pause</property>
    <property name="resource">C:/Users/Sahid/Videos/QGIS Basic/6_Layouting/2021-02-03 09-50-10.mkv</property>
    <property name="audio_index">1</property>
    <property name="video_index">0</property>
    <property name="mute_on_pause">0</property>
    <property name="mlt_service">avformat-novalidate</property>
    <property name="seekable">1</property>
    <property name="aspect_ratio">1</property>
    <property name="creation_time">2021-02-03T03:41:06</property>
    <property name="global_feed">1</property>
    <property name="xml">was here</property>
    <property name="shotcut:hash">8e392e48be4935f7d753048eef069fa1</property>
    <property name="shotcut:caption">2021-02-03 09-50-10.mkv</property>
    <filter id="filter346" in="00:20:25.883" out="00:20:30.900">
      <property name="window">75</property>
      <property name="max_gain">20dB</property>
      <property name="level">12</property>
      <property name="mlt_service">volume</property>
    </filter>
  </producer>
  <producer id="producer352" in="00:00:00.000" out="00:50:55.017">
    <property name="length">00:50:55.033</property>
    <property name="eof">pause</property>
    <property name="resource">C:/Users/Sahid/Videos/QGIS Basic/6_Layouting/2021-02-03 09-50-10.mkv</property>
    <property name="audio_index">1</property>
    <property name="video_index">0</property>
    <property name="mute_on_pause">0</property>
    <property name="mlt_service">avformat-novalidate</property>
    <property name="seekable">1</property>
    <property name="aspect_ratio">1</property>
    <property name="creation_time">2021-02-03T03:41:06</property>
    <property name="global_feed">1</property>
    <property name="xml">was here</property>
    <property name="shotcut:hash">8e392e48be4935f7d753048eef069fa1</property>
    <property name="shotcut:caption">2021-02-03 09-50-10.mkv</property>
    <filter id="filter347" in="00:20:35.900" out="00:20:37.533">
      <property name="window">75</property>
      <property name="max_gain">20dB</property>
      <property name="level">12</property>
      <property name="mlt_service">volume</property>
    </filter>
  </producer>
  <producer id="producer353" in="00:00:00.000" out="00:50:55.017">
    <property name="length">00:50:55.033</property>
    <property name="eof">pause</property>
    <property name="resource">C:/Users/Sahid/Videos/QGIS Basic/6_Layouting/2021-02-03 09-50-10.mkv</property>
    <property name="audio_index">1</property>
    <property name="video_index">0</property>
    <property name="mute_on_pause">0</property>
    <property name="mlt_service">avformat-novalidate</property>
    <property name="seekable">1</property>
    <property name="aspect_ratio">1</property>
    <property name="creation_time">2021-02-03T03:41:06</property>
    <property name="global_feed">1</property>
    <property name="xml">was here</property>
    <property name="shotcut:hash">8e392e48be4935f7d753048eef069fa1</property>
    <property name="shotcut:caption">2021-02-03 09-50-10.mkv</property>
    <filter id="filter348" in="00:20:42.183" out="00:20:43.400">
      <property name="window">75</property>
      <property name="max_gain">20dB</property>
      <property name="level">12</property>
      <property name="mlt_service">volume</property>
    </filter>
  </producer>
  <producer id="producer354" in="00:00:00.000" out="00:50:55.017">
    <property name="length">00:50:55.033</property>
    <property name="eof">pause</property>
    <property name="resource">C:/Users/Sahid/Videos/QGIS Basic/6_Layouting/2021-02-03 09-50-10.mkv</property>
    <property name="audio_index">1</property>
    <property name="video_index">0</property>
    <property name="mute_on_pause">0</property>
    <property name="mlt_service">avformat-novalidate</property>
    <property name="seekable">1</property>
    <property name="aspect_ratio">1</property>
    <property name="creation_time">2021-02-03T03:41:06</property>
    <property name="global_feed">1</property>
    <property name="xml">was here</property>
    <property name="shotcut:hash">8e392e48be4935f7d753048eef069fa1</property>
    <property name="shotcut:caption">2021-02-03 09-50-10.mkv</property>
    <filter id="filter349" in="00:20:50.517" out="00:20:52.100">
      <property name="window">75</property>
      <property name="max_gain">20dB</property>
      <property name="level">12</property>
      <property name="mlt_service">volume</property>
    </filter>
  </producer>
  <producer id="producer355" in="00:00:00.000" out="00:50:55.017">
    <property name="length">00:50:55.033</property>
    <property name="eof">pause</property>
    <property name="resource">C:/Users/Sahid/Videos/QGIS Basic/6_Layouting/2021-02-03 09-50-10.mkv</property>
    <property name="audio_index">1</property>
    <property name="video_index">0</property>
    <property name="mute_on_pause">0</property>
    <property name="mlt_service">avformat-novalidate</property>
    <property name="seekable">1</property>
    <property name="aspect_ratio">1</property>
    <property name="creation_time">2021-02-03T03:41:06</property>
    <property name="global_feed">1</property>
    <property name="xml">was here</property>
    <property name="shotcut:hash">8e392e48be4935f7d753048eef069fa1</property>
    <property name="shotcut:caption">2021-02-03 09-50-10.mkv</property>
    <filter id="filter350" in="00:20:52.650" out="00:20:58.467">
      <property name="window">75</property>
      <property name="max_gain">20dB</property>
      <property name="level">12</property>
      <property name="mlt_service">volume</property>
    </filter>
  </producer>
  <producer id="producer356" in="00:00:00.000" out="00:50:55.017">
    <property name="length">00:50:55.033</property>
    <property name="eof">pause</property>
    <property name="resource">C:/Users/Sahid/Videos/QGIS Basic/6_Layouting/2021-02-03 09-50-10.mkv</property>
    <property name="audio_index">1</property>
    <property name="video_index">0</property>
    <property name="mute_on_pause">0</property>
    <property name="mlt_service">avformat-novalidate</property>
    <property name="seekable">1</property>
    <property name="aspect_ratio">1</property>
    <property name="creation_time">2021-02-03T03:41:06</property>
    <property name="global_feed">1</property>
    <property name="xml">was here</property>
    <property name="shotcut:hash">8e392e48be4935f7d753048eef069fa1</property>
    <property name="shotcut:caption">2021-02-03 09-50-10.mkv</property>
    <filter id="filter351" in="00:21:01.967" out="00:21:04.617">
      <property name="window">75</property>
      <property name="max_gain">20dB</property>
      <property name="level">12</property>
      <property name="mlt_service">volume</property>
    </filter>
  </producer>
  <producer id="producer357" in="00:00:00.000" out="00:50:55.017">
    <property name="length">00:50:55.033</property>
    <property name="eof">pause</property>
    <property name="resource">C:/Users/Sahid/Videos/QGIS Basic/6_Layouting/2021-02-03 09-50-10.mkv</property>
    <property name="audio_index">1</property>
    <property name="video_index">0</property>
    <property name="mute_on_pause">0</property>
    <property name="mlt_service">avformat-novalidate</property>
    <property name="seekable">1</property>
    <property name="aspect_ratio">1</property>
    <property name="creation_time">2021-02-03T03:41:06</property>
    <property name="global_feed">1</property>
    <property name="xml">was here</property>
    <property name="shotcut:hash">8e392e48be4935f7d753048eef069fa1</property>
    <property name="shotcut:caption">2021-02-03 09-50-10.mkv</property>
    <filter id="filter352" in="00:21:05.367" out="00:21:09.733">
      <property name="window">75</property>
      <property name="max_gain">20dB</property>
      <property name="level">12</property>
      <property name="mlt_service">volume</property>
    </filter>
  </producer>
  <producer id="producer358" in="00:00:00.000" out="00:50:55.017">
    <property name="length">00:50:55.033</property>
    <property name="eof">pause</property>
    <property name="resource">C:/Users/Sahid/Videos/QGIS Basic/6_Layouting/2021-02-03 09-50-10.mkv</property>
    <property name="audio_index">1</property>
    <property name="video_index">0</property>
    <property name="mute_on_pause">0</property>
    <property name="mlt_service">avformat-novalidate</property>
    <property name="seekable">1</property>
    <property name="aspect_ratio">1</property>
    <property name="creation_time">2021-02-03T03:41:06</property>
    <property name="global_feed">1</property>
    <property name="xml">was here</property>
    <property name="shotcut:hash">8e392e48be4935f7d753048eef069fa1</property>
    <property name="shotcut:caption">2021-02-03 09-50-10.mkv</property>
    <filter id="filter353" in="00:21:11.850" out="00:21:13.133">
      <property name="window">75</property>
      <property name="max_gain">20dB</property>
      <property name="level">12</property>
      <property name="mlt_service">volume</property>
    </filter>
  </producer>
  <producer id="producer359" in="00:00:00.000" out="00:50:55.017">
    <property name="length">00:50:55.033</property>
    <property name="eof">pause</property>
    <property name="resource">C:/Users/Sahid/Videos/QGIS Basic/6_Layouting/2021-02-03 09-50-10.mkv</property>
    <property name="audio_index">1</property>
    <property name="video_index">0</property>
    <property name="mute_on_pause">0</property>
    <property name="mlt_service">avformat-novalidate</property>
    <property name="seekable">1</property>
    <property name="aspect_ratio">1</property>
    <property name="creation_time">2021-02-03T03:41:06</property>
    <property name="global_feed">1</property>
    <property name="xml">was here</property>
    <property name="shotcut:hash">8e392e48be4935f7d753048eef069fa1</property>
    <property name="shotcut:caption">2021-02-03 09-50-10.mkv</property>
    <filter id="filter354" in="00:21:16.967" out="00:21:19.650">
      <property name="window">75</property>
      <property name="max_gain">20dB</property>
      <property name="level">12</property>
      <property name="mlt_service">volume</property>
    </filter>
  </producer>
  <producer id="producer360" in="00:00:00.000" out="00:50:55.017">
    <property name="length">00:50:55.033</property>
    <property name="eof">pause</property>
    <property name="resource">C:/Users/Sahid/Videos/QGIS Basic/6_Layouting/2021-02-03 09-50-10.mkv</property>
    <property name="audio_index">1</property>
    <property name="video_index">0</property>
    <property name="mute_on_pause">0</property>
    <property name="mlt_service">avformat-novalidate</property>
    <property name="seekable">1</property>
    <property name="aspect_ratio">1</property>
    <property name="creation_time">2021-02-03T03:41:06</property>
    <property name="global_feed">1</property>
    <property name="xml">was here</property>
    <property name="shotcut:hash">8e392e48be4935f7d753048eef069fa1</property>
    <property name="shotcut:caption">2021-02-03 09-50-10.mkv</property>
    <filter id="filter355" in="00:21:21.033" out="00:21:22.000">
      <property name="window">75</property>
      <property name="max_gain">20dB</property>
      <property name="level">12</property>
      <property name="mlt_service">volume</property>
    </filter>
  </producer>
  <producer id="producer361" in="00:00:00.000" out="00:50:55.017">
    <property name="length">00:50:55.033</property>
    <property name="eof">pause</property>
    <property name="resource">C:/Users/Sahid/Videos/QGIS Basic/6_Layouting/2021-02-03 09-50-10.mkv</property>
    <property name="audio_index">1</property>
    <property name="video_index">0</property>
    <property name="mute_on_pause">0</property>
    <property name="mlt_service">avformat-novalidate</property>
    <property name="seekable">1</property>
    <property name="aspect_ratio">1</property>
    <property name="creation_time">2021-02-03T03:41:06</property>
    <property name="global_feed">1</property>
    <property name="xml">was here</property>
    <property name="shotcut:hash">8e392e48be4935f7d753048eef069fa1</property>
    <property name="shotcut:caption">2021-02-03 09-50-10.mkv</property>
    <filter id="filter356" in="00:21:23.867" out="00:21:24.900">
      <property name="window">75</property>
      <property name="max_gain">20dB</property>
      <property name="level">12</property>
      <property name="mlt_service">volume</property>
    </filter>
  </producer>
  <producer id="producer362" in="00:00:00.000" out="00:50:55.017">
    <property name="length">00:50:55.033</property>
    <property name="eof">pause</property>
    <property name="resource">C:/Users/Sahid/Videos/QGIS Basic/6_Layouting/2021-02-03 09-50-10.mkv</property>
    <property name="audio_index">1</property>
    <property name="video_index">0</property>
    <property name="mute_on_pause">0</property>
    <property name="mlt_service">avformat-novalidate</property>
    <property name="seekable">1</property>
    <property name="aspect_ratio">1</property>
    <property name="creation_time">2021-02-03T03:41:06</property>
    <property name="global_feed">1</property>
    <property name="xml">was here</property>
    <property name="shotcut:hash">8e392e48be4935f7d753048eef069fa1</property>
    <property name="shotcut:caption">2021-02-03 09-50-10.mkv</property>
    <filter id="filter357" in="00:21:43.683" out="00:21:46.433">
      <property name="window">75</property>
      <property name="max_gain">20dB</property>
      <property name="level">12</property>
      <property name="mlt_service">volume</property>
    </filter>
  </producer>
  <producer id="producer363" in="00:00:00.000" out="00:50:55.017">
    <property name="length">00:50:55.033</property>
    <property name="eof">pause</property>
    <property name="resource">C:/Users/Sahid/Videos/QGIS Basic/6_Layouting/2021-02-03 09-50-10.mkv</property>
    <property name="audio_index">1</property>
    <property name="video_index">0</property>
    <property name="mute_on_pause">0</property>
    <property name="mlt_service">avformat-novalidate</property>
    <property name="seekable">1</property>
    <property name="aspect_ratio">1</property>
    <property name="creation_time">2021-02-03T03:41:06</property>
    <property name="global_feed">1</property>
    <property name="xml">was here</property>
    <property name="shotcut:hash">8e392e48be4935f7d753048eef069fa1</property>
    <property name="shotcut:caption">2021-02-03 09-50-10.mkv</property>
    <filter id="filter358" in="00:21:55.167" out="00:21:58.833">
      <property name="window">75</property>
      <property name="max_gain">20dB</property>
      <property name="level">12</property>
      <property name="mlt_service">volume</property>
    </filter>
  </producer>
  <producer id="producer364" in="00:00:00.000" out="00:50:55.017">
    <property name="length">00:50:55.033</property>
    <property name="eof">pause</property>
    <property name="resource">C:/Users/Sahid/Videos/QGIS Basic/6_Layouting/2021-02-03 09-50-10.mkv</property>
    <property name="audio_index">1</property>
    <property name="video_index">0</property>
    <property name="mute_on_pause">0</property>
    <property name="mlt_service">avformat-novalidate</property>
    <property name="seekable">1</property>
    <property name="aspect_ratio">1</property>
    <property name="creation_time">2021-02-03T03:41:06</property>
    <property name="global_feed">1</property>
    <property name="xml">was here</property>
    <property name="shotcut:hash">8e392e48be4935f7d753048eef069fa1</property>
    <property name="shotcut:caption">2021-02-03 09-50-10.mkv</property>
    <filter id="filter359" in="00:21:59.200" out="00:22:01.683">
      <property name="window">75</property>
      <property name="max_gain">20dB</property>
      <property name="level">12</property>
      <property name="mlt_service">volume</property>
    </filter>
  </producer>
  <producer id="producer365" in="00:00:00.000" out="00:50:55.017">
    <property name="length">00:50:55.033</property>
    <property name="eof">pause</property>
    <property name="resource">C:/Users/Sahid/Videos/QGIS Basic/6_Layouting/2021-02-03 09-50-10.mkv</property>
    <property name="audio_index">1</property>
    <property name="video_index">0</property>
    <property name="mute_on_pause">0</property>
    <property name="mlt_service">avformat-novalidate</property>
    <property name="seekable">1</property>
    <property name="aspect_ratio">1</property>
    <property name="creation_time">2021-02-03T03:41:06</property>
    <property name="global_feed">1</property>
    <property name="xml">was here</property>
    <property name="shotcut:hash">8e392e48be4935f7d753048eef069fa1</property>
    <property name="shotcut:caption">2021-02-03 09-50-10.mkv</property>
    <filter id="filter360" in="00:22:02.667" out="00:22:04.550">
      <property name="window">75</property>
      <property name="max_gain">20dB</property>
      <property name="level">12</property>
      <property name="mlt_service">volume</property>
    </filter>
  </producer>
  <producer id="producer366" in="00:00:00.000" out="00:50:55.017">
    <property name="length">00:50:55.033</property>
    <property name="eof">pause</property>
    <property name="resource">C:/Users/Sahid/Videos/QGIS Basic/6_Layouting/2021-02-03 09-50-10.mkv</property>
    <property name="audio_index">1</property>
    <property name="video_index">0</property>
    <property name="mute_on_pause">0</property>
    <property name="mlt_service">avformat-novalidate</property>
    <property name="seekable">1</property>
    <property name="aspect_ratio">1</property>
    <property name="creation_time">2021-02-03T03:41:06</property>
    <property name="global_feed">1</property>
    <property name="xml">was here</property>
    <property name="shotcut:hash">8e392e48be4935f7d753048eef069fa1</property>
    <property name="shotcut:caption">2021-02-03 09-50-10.mkv</property>
    <filter id="filter361" in="00:22:05.067" out="00:22:07.367">
      <property name="window">75</property>
      <property name="max_gain">20dB</property>
      <property name="level">12</property>
      <property name="mlt_service">volume</property>
    </filter>
  </producer>
  <producer id="producer367" in="00:00:00.000" out="00:50:55.017">
    <property name="length">00:50:55.033</property>
    <property name="eof">pause</property>
    <property name="resource">C:/Users/Sahid/Videos/QGIS Basic/6_Layouting/2021-02-03 09-50-10.mkv</property>
    <property name="audio_index">1</property>
    <property name="video_index">0</property>
    <property name="mute_on_pause">0</property>
    <property name="mlt_service">avformat-novalidate</property>
    <property name="seekable">1</property>
    <property name="aspect_ratio">1</property>
    <property name="creation_time">2021-02-03T03:41:06</property>
    <property name="global_feed">1</property>
    <property name="xml">was here</property>
    <property name="shotcut:hash">8e392e48be4935f7d753048eef069fa1</property>
    <property name="shotcut:caption">2021-02-03 09-50-10.mkv</property>
    <filter id="filter362" in="00:22:30.933" out="00:22:32.467">
      <property name="window">75</property>
      <property name="max_gain">20dB</property>
      <property name="level">12</property>
      <property name="mlt_service">volume</property>
    </filter>
  </producer>
  <producer id="producer368" in="00:00:00.000" out="00:50:55.017">
    <property name="length">00:50:55.033</property>
    <property name="eof">pause</property>
    <property name="resource">C:/Users/Sahid/Videos/QGIS Basic/6_Layouting/2021-02-03 09-50-10.mkv</property>
    <property name="audio_index">1</property>
    <property name="video_index">0</property>
    <property name="mute_on_pause">0</property>
    <property name="mlt_service">avformat-novalidate</property>
    <property name="seekable">1</property>
    <property name="aspect_ratio">1</property>
    <property name="creation_time">2021-02-03T03:41:06</property>
    <property name="global_feed">1</property>
    <property name="xml">was here</property>
    <property name="shotcut:hash">8e392e48be4935f7d753048eef069fa1</property>
    <property name="shotcut:caption">2021-02-03 09-50-10.mkv</property>
    <filter id="filter363" in="00:22:32.683" out="00:22:33.400">
      <property name="window">75</property>
      <property name="max_gain">20dB</property>
      <property name="level">12</property>
      <property name="mlt_service">volume</property>
    </filter>
  </producer>
  <producer id="producer369" in="00:00:00.000" out="00:50:55.017">
    <property name="length">00:50:55.033</property>
    <property name="eof">pause</property>
    <property name="resource">C:/Users/Sahid/Videos/QGIS Basic/6_Layouting/2021-02-03 09-50-10.mkv</property>
    <property name="audio_index">1</property>
    <property name="video_index">0</property>
    <property name="mute_on_pause">0</property>
    <property name="mlt_service">avformat-novalidate</property>
    <property name="seekable">1</property>
    <property name="aspect_ratio">1</property>
    <property name="creation_time">2021-02-03T03:41:06</property>
    <property name="global_feed">1</property>
    <property name="xml">was here</property>
    <property name="shotcut:hash">8e392e48be4935f7d753048eef069fa1</property>
    <property name="shotcut:caption">2021-02-03 09-50-10.mkv</property>
    <filter id="filter364" in="00:22:34.683" out="00:22:37.467">
      <property name="window">75</property>
      <property name="max_gain">20dB</property>
      <property name="level">12</property>
      <property name="mlt_service">volume</property>
    </filter>
  </producer>
  <producer id="producer370" in="00:00:00.000" out="00:50:55.017">
    <property name="length">00:50:55.033</property>
    <property name="eof">pause</property>
    <property name="resource">C:/Users/Sahid/Videos/QGIS Basic/6_Layouting/2021-02-03 09-50-10.mkv</property>
    <property name="audio_index">1</property>
    <property name="video_index">0</property>
    <property name="mute_on_pause">0</property>
    <property name="mlt_service">avformat-novalidate</property>
    <property name="seekable">1</property>
    <property name="aspect_ratio">1</property>
    <property name="creation_time">2021-02-03T03:41:06</property>
    <property name="global_feed">1</property>
    <property name="xml">was here</property>
    <property name="shotcut:hash">8e392e48be4935f7d753048eef069fa1</property>
    <property name="shotcut:caption">2021-02-03 09-50-10.mkv</property>
    <filter id="filter365" in="00:22:44.000" out="00:22:46.250">
      <property name="window">75</property>
      <property name="max_gain">20dB</property>
      <property name="level">12</property>
      <property name="mlt_service">volume</property>
    </filter>
  </producer>
  <producer id="producer371" in="00:00:00.000" out="00:50:55.017">
    <property name="length">00:50:55.033</property>
    <property name="eof">pause</property>
    <property name="resource">C:/Users/Sahid/Videos/QGIS Basic/6_Layouting/2021-02-03 09-50-10.mkv</property>
    <property name="audio_index">1</property>
    <property name="video_index">0</property>
    <property name="mute_on_pause">0</property>
    <property name="mlt_service">avformat-novalidate</property>
    <property name="seekable">1</property>
    <property name="aspect_ratio">1</property>
    <property name="creation_time">2021-02-03T03:41:06</property>
    <property name="global_feed">1</property>
    <property name="xml">was here</property>
    <property name="shotcut:hash">8e392e48be4935f7d753048eef069fa1</property>
    <property name="shotcut:caption">2021-02-03 09-50-10.mkv</property>
    <filter id="filter366" in="00:22:49.117" out="00:22:50.533">
      <property name="window">75</property>
      <property name="max_gain">20dB</property>
      <property name="level">12</property>
      <property name="mlt_service">volume</property>
    </filter>
  </producer>
  <producer id="producer372" in="00:00:00.000" out="00:50:55.017">
    <property name="length">00:50:55.033</property>
    <property name="eof">pause</property>
    <property name="resource">C:/Users/Sahid/Videos/QGIS Basic/6_Layouting/2021-02-03 09-50-10.mkv</property>
    <property name="audio_index">1</property>
    <property name="video_index">0</property>
    <property name="mute_on_pause">0</property>
    <property name="mlt_service">avformat-novalidate</property>
    <property name="seekable">1</property>
    <property name="aspect_ratio">1</property>
    <property name="creation_time">2021-02-03T03:41:06</property>
    <property name="global_feed">1</property>
    <property name="xml">was here</property>
    <property name="shotcut:hash">8e392e48be4935f7d753048eef069fa1</property>
    <property name="shotcut:caption">2021-02-03 09-50-10.mkv</property>
    <filter id="filter367" in="00:22:53.950" out="00:22:57.867">
      <property name="window">75</property>
      <property name="max_gain">20dB</property>
      <property name="level">12</property>
      <property name="mlt_service">volume</property>
    </filter>
  </producer>
  <producer id="producer373" in="00:00:00.000" out="00:50:55.017">
    <property name="length">00:50:55.033</property>
    <property name="eof">pause</property>
    <property name="resource">C:/Users/Sahid/Videos/QGIS Basic/6_Layouting/2021-02-03 09-50-10.mkv</property>
    <property name="audio_index">1</property>
    <property name="video_index">0</property>
    <property name="mute_on_pause">0</property>
    <property name="mlt_service">avformat-novalidate</property>
    <property name="seekable">1</property>
    <property name="aspect_ratio">1</property>
    <property name="creation_time">2021-02-03T03:41:06</property>
    <property name="global_feed">1</property>
    <property name="xml">was here</property>
    <property name="shotcut:hash">8e392e48be4935f7d753048eef069fa1</property>
    <property name="shotcut:caption">2021-02-03 09-50-10.mkv</property>
    <filter id="filter368" in="00:22:58.833" out="00:23:03.000">
      <property name="window">75</property>
      <property name="max_gain">20dB</property>
      <property name="level">12</property>
      <property name="mlt_service">volume</property>
    </filter>
  </producer>
  <producer id="producer374" in="00:00:00.000" out="00:50:55.017">
    <property name="length">00:50:55.033</property>
    <property name="eof">pause</property>
    <property name="resource">C:/Users/Sahid/Videos/QGIS Basic/6_Layouting/2021-02-03 09-50-10.mkv</property>
    <property name="audio_index">1</property>
    <property name="video_index">0</property>
    <property name="mute_on_pause">0</property>
    <property name="mlt_service">avformat-novalidate</property>
    <property name="seekable">1</property>
    <property name="aspect_ratio">1</property>
    <property name="creation_time">2021-02-03T03:41:06</property>
    <property name="global_feed">1</property>
    <property name="xml">was here</property>
    <property name="shotcut:hash">8e392e48be4935f7d753048eef069fa1</property>
    <property name="shotcut:caption">2021-02-03 09-50-10.mkv</property>
    <filter id="filter369" in="00:23:09.783" out="00:23:12.033">
      <property name="window">75</property>
      <property name="max_gain">20dB</property>
      <property name="level">12</property>
      <property name="mlt_service">volume</property>
    </filter>
  </producer>
  <producer id="producer375" in="00:00:00.000" out="00:50:55.017">
    <property name="length">00:50:55.033</property>
    <property name="eof">pause</property>
    <property name="resource">C:/Users/Sahid/Videos/QGIS Basic/6_Layouting/2021-02-03 09-50-10.mkv</property>
    <property name="audio_index">1</property>
    <property name="video_index">0</property>
    <property name="mute_on_pause">0</property>
    <property name="mlt_service">avformat-novalidate</property>
    <property name="seekable">1</property>
    <property name="aspect_ratio">1</property>
    <property name="creation_time">2021-02-03T03:41:06</property>
    <property name="global_feed">1</property>
    <property name="xml">was here</property>
    <property name="shotcut:hash">8e392e48be4935f7d753048eef069fa1</property>
    <property name="shotcut:caption">2021-02-03 09-50-10.mkv</property>
    <filter id="filter370" in="00:23:12.233" out="00:23:14.617">
      <property name="window">75</property>
      <property name="max_gain">20dB</property>
      <property name="level">12</property>
      <property name="mlt_service">volume</property>
    </filter>
  </producer>
  <producer id="producer376" in="00:00:00.000" out="00:50:55.017">
    <property name="length">00:50:55.033</property>
    <property name="eof">pause</property>
    <property name="resource">C:/Users/Sahid/Videos/QGIS Basic/6_Layouting/2021-02-03 09-50-10.mkv</property>
    <property name="audio_index">1</property>
    <property name="video_index">0</property>
    <property name="mute_on_pause">0</property>
    <property name="mlt_service">avformat-novalidate</property>
    <property name="seekable">1</property>
    <property name="aspect_ratio">1</property>
    <property name="creation_time">2021-02-03T03:41:06</property>
    <property name="global_feed">1</property>
    <property name="xml">was here</property>
    <property name="shotcut:hash">8e392e48be4935f7d753048eef069fa1</property>
    <property name="shotcut:caption">2021-02-03 09-50-10.mkv</property>
    <filter id="filter371" in="00:23:15.767" out="00:23:18.750">
      <property name="window">75</property>
      <property name="max_gain">20dB</property>
      <property name="level">12</property>
      <property name="mlt_service">volume</property>
    </filter>
  </producer>
  <producer id="producer377" in="00:00:00.000" out="00:50:55.017">
    <property name="length">00:50:55.033</property>
    <property name="eof">pause</property>
    <property name="resource">C:/Users/Sahid/Videos/QGIS Basic/6_Layouting/2021-02-03 09-50-10.mkv</property>
    <property name="audio_index">1</property>
    <property name="video_index">0</property>
    <property name="mute_on_pause">0</property>
    <property name="mlt_service">avformat-novalidate</property>
    <property name="seekable">1</property>
    <property name="aspect_ratio">1</property>
    <property name="creation_time">2021-02-03T03:41:06</property>
    <property name="global_feed">1</property>
    <property name="xml">was here</property>
    <property name="shotcut:hash">8e392e48be4935f7d753048eef069fa1</property>
    <property name="shotcut:caption">2021-02-03 09-50-10.mkv</property>
    <filter id="filter372" in="00:23:18.767" out="00:23:22.217">
      <property name="window">75</property>
      <property name="max_gain">20dB</property>
      <property name="level">12</property>
      <property name="mlt_service">volume</property>
    </filter>
  </producer>
  <producer id="producer378" in="00:00:00.000" out="00:50:55.017">
    <property name="length">00:50:55.033</property>
    <property name="eof">pause</property>
    <property name="resource">C:/Users/Sahid/Videos/QGIS Basic/6_Layouting/2021-02-03 09-50-10.mkv</property>
    <property name="audio_index">1</property>
    <property name="video_index">0</property>
    <property name="mute_on_pause">0</property>
    <property name="mlt_service">avformat-novalidate</property>
    <property name="seekable">1</property>
    <property name="aspect_ratio">1</property>
    <property name="creation_time">2021-02-03T03:41:06</property>
    <property name="global_feed">1</property>
    <property name="xml">was here</property>
    <property name="shotcut:hash">8e392e48be4935f7d753048eef069fa1</property>
    <property name="shotcut:caption">2021-02-03 09-50-10.mkv</property>
    <filter id="filter373" in="00:23:37.150" out="00:23:41.017">
      <property name="window">75</property>
      <property name="max_gain">20dB</property>
      <property name="level">12</property>
      <property name="mlt_service">volume</property>
    </filter>
  </producer>
  <producer id="producer379" in="00:00:00.000" out="00:50:55.017">
    <property name="length">00:50:55.033</property>
    <property name="eof">pause</property>
    <property name="resource">C:/Users/Sahid/Videos/QGIS Basic/6_Layouting/2021-02-03 09-50-10.mkv</property>
    <property name="audio_index">1</property>
    <property name="video_index">0</property>
    <property name="mute_on_pause">0</property>
    <property name="mlt_service">avformat-novalidate</property>
    <property name="seekable">1</property>
    <property name="aspect_ratio">1</property>
    <property name="creation_time">2021-02-03T03:41:06</property>
    <property name="global_feed">1</property>
    <property name="xml">was here</property>
    <property name="shotcut:hash">8e392e48be4935f7d753048eef069fa1</property>
    <property name="shotcut:caption">2021-02-03 09-50-10.mkv</property>
    <filter id="filter374" in="00:23:41.033" out="00:23:41.650">
      <property name="window">75</property>
      <property name="max_gain">20dB</property>
      <property name="level">12</property>
      <property name="mlt_service">volume</property>
    </filter>
  </producer>
  <producer id="producer380" in="00:00:00.000" out="00:50:55.017">
    <property name="length">00:50:55.033</property>
    <property name="eof">pause</property>
    <property name="resource">C:/Users/Sahid/Videos/QGIS Basic/6_Layouting/2021-02-03 09-50-10.mkv</property>
    <property name="audio_index">1</property>
    <property name="video_index">0</property>
    <property name="mute_on_pause">0</property>
    <property name="mlt_service">avformat-novalidate</property>
    <property name="seekable">1</property>
    <property name="aspect_ratio">1</property>
    <property name="creation_time">2021-02-03T03:41:06</property>
    <property name="global_feed">1</property>
    <property name="xml">was here</property>
    <property name="shotcut:hash">8e392e48be4935f7d753048eef069fa1</property>
    <property name="shotcut:caption">2021-02-03 09-50-10.mkv</property>
    <filter id="filter375" in="00:23:43.717" out="00:23:45.767">
      <property name="window">75</property>
      <property name="max_gain">20dB</property>
      <property name="level">12</property>
      <property name="mlt_service">volume</property>
    </filter>
  </producer>
  <producer id="producer381" in="00:00:00.000" out="00:50:55.017">
    <property name="length">00:50:55.033</property>
    <property name="eof">pause</property>
    <property name="resource">C:/Users/Sahid/Videos/QGIS Basic/6_Layouting/2021-02-03 09-50-10.mkv</property>
    <property name="audio_index">1</property>
    <property name="video_index">0</property>
    <property name="mute_on_pause">0</property>
    <property name="mlt_service">avformat-novalidate</property>
    <property name="seekable">1</property>
    <property name="aspect_ratio">1</property>
    <property name="creation_time">2021-02-03T03:41:06</property>
    <property name="global_feed">1</property>
    <property name="xml">was here</property>
    <property name="shotcut:hash">8e392e48be4935f7d753048eef069fa1</property>
    <property name="shotcut:caption">2021-02-03 09-50-10.mkv</property>
    <filter id="filter376" in="00:23:46.750" out="00:23:48.417">
      <property name="window">75</property>
      <property name="max_gain">20dB</property>
      <property name="level">12</property>
      <property name="mlt_service">volume</property>
    </filter>
  </producer>
  <producer id="producer382" in="00:00:00.000" out="00:50:55.017">
    <property name="length">00:50:55.033</property>
    <property name="eof">pause</property>
    <property name="resource">C:/Users/Sahid/Videos/QGIS Basic/6_Layouting/2021-02-03 09-50-10.mkv</property>
    <property name="audio_index">1</property>
    <property name="video_index">0</property>
    <property name="mute_on_pause">0</property>
    <property name="mlt_service">avformat-novalidate</property>
    <property name="seekable">1</property>
    <property name="aspect_ratio">1</property>
    <property name="creation_time">2021-02-03T03:41:06</property>
    <property name="global_feed">1</property>
    <property name="xml">was here</property>
    <property name="shotcut:hash">8e392e48be4935f7d753048eef069fa1</property>
    <property name="shotcut:caption">2021-02-03 09-50-10.mkv</property>
    <filter id="filter377" in="00:23:50.333" out="00:23:54.333">
      <property name="window">75</property>
      <property name="max_gain">20dB</property>
      <property name="level">12</property>
      <property name="mlt_service">volume</property>
    </filter>
  </producer>
  <producer id="producer383" in="00:00:00.000" out="00:50:55.017">
    <property name="length">00:50:55.033</property>
    <property name="eof">pause</property>
    <property name="resource">C:/Users/Sahid/Videos/QGIS Basic/6_Layouting/2021-02-03 09-50-10.mkv</property>
    <property name="audio_index">1</property>
    <property name="video_index">0</property>
    <property name="mute_on_pause">0</property>
    <property name="mlt_service">avformat-novalidate</property>
    <property name="seekable">1</property>
    <property name="aspect_ratio">1</property>
    <property name="creation_time">2021-02-03T03:41:06</property>
    <property name="global_feed">1</property>
    <property name="xml">was here</property>
    <property name="shotcut:hash">8e392e48be4935f7d753048eef069fa1</property>
    <property name="shotcut:caption">2021-02-03 09-50-10.mkv</property>
    <filter id="filter378" in="00:23:55.050" out="00:23:56.783">
      <property name="window">75</property>
      <property name="max_gain">20dB</property>
      <property name="level">12</property>
      <property name="mlt_service">volume</property>
    </filter>
  </producer>
  <producer id="producer384" in="00:00:00.000" out="00:50:55.017">
    <property name="length">00:50:55.033</property>
    <property name="eof">pause</property>
    <property name="resource">C:/Users/Sahid/Videos/QGIS Basic/6_Layouting/2021-02-03 09-50-10.mkv</property>
    <property name="audio_index">1</property>
    <property name="video_index">0</property>
    <property name="mute_on_pause">0</property>
    <property name="mlt_service">avformat-novalidate</property>
    <property name="seekable">1</property>
    <property name="aspect_ratio">1</property>
    <property name="creation_time">2021-02-03T03:41:06</property>
    <property name="global_feed">1</property>
    <property name="xml">was here</property>
    <property name="shotcut:hash">8e392e48be4935f7d753048eef069fa1</property>
    <property name="shotcut:caption">2021-02-03 09-50-10.mkv</property>
    <filter id="filter379" in="00:23:57.767" out="00:23:59.667">
      <property name="window">75</property>
      <property name="max_gain">20dB</property>
      <property name="level">12</property>
      <property name="mlt_service">volume</property>
    </filter>
  </producer>
  <producer id="producer385" in="00:00:00.000" out="00:50:55.017">
    <property name="length">00:50:55.033</property>
    <property name="eof">pause</property>
    <property name="resource">C:/Users/Sahid/Videos/QGIS Basic/6_Layouting/2021-02-03 09-50-10.mkv</property>
    <property name="audio_index">1</property>
    <property name="video_index">0</property>
    <property name="mute_on_pause">0</property>
    <property name="mlt_service">avformat-novalidate</property>
    <property name="seekable">1</property>
    <property name="aspect_ratio">1</property>
    <property name="creation_time">2021-02-03T03:41:06</property>
    <property name="global_feed">1</property>
    <property name="xml">was here</property>
    <property name="shotcut:hash">8e392e48be4935f7d753048eef069fa1</property>
    <property name="shotcut:caption">2021-02-03 09-50-10.mkv</property>
    <filter id="filter380" in="00:24:03.367" out="00:24:08.150">
      <property name="window">75</property>
      <property name="max_gain">20dB</property>
      <property name="level">12</property>
      <property name="mlt_service">volume</property>
    </filter>
  </producer>
  <producer id="producer386" in="00:00:00.000" out="00:50:55.017">
    <property name="length">00:50:55.033</property>
    <property name="eof">pause</property>
    <property name="resource">C:/Users/Sahid/Videos/QGIS Basic/6_Layouting/2021-02-03 09-50-10.mkv</property>
    <property name="audio_index">1</property>
    <property name="video_index">0</property>
    <property name="mute_on_pause">0</property>
    <property name="mlt_service">avformat-novalidate</property>
    <property name="seekable">1</property>
    <property name="aspect_ratio">1</property>
    <property name="creation_time">2021-02-03T03:41:06</property>
    <property name="global_feed">1</property>
    <property name="xml">was here</property>
    <property name="shotcut:hash">8e392e48be4935f7d753048eef069fa1</property>
    <property name="shotcut:caption">2021-02-03 09-50-10.mkv</property>
    <filter id="filter381" in="00:24:09.050" out="00:24:10.150">
      <property name="window">75</property>
      <property name="max_gain">20dB</property>
      <property name="level">12</property>
      <property name="mlt_service">volume</property>
    </filter>
  </producer>
  <producer id="producer387" in="00:00:00.000" out="00:50:55.017">
    <property name="length">00:50:55.033</property>
    <property name="eof">pause</property>
    <property name="resource">C:/Users/Sahid/Videos/QGIS Basic/6_Layouting/2021-02-03 09-50-10.mkv</property>
    <property name="audio_index">1</property>
    <property name="video_index">0</property>
    <property name="mute_on_pause">0</property>
    <property name="mlt_service">avformat-novalidate</property>
    <property name="seekable">1</property>
    <property name="aspect_ratio">1</property>
    <property name="creation_time">2021-02-03T03:41:06</property>
    <property name="global_feed">1</property>
    <property name="xml">was here</property>
    <property name="shotcut:hash">8e392e48be4935f7d753048eef069fa1</property>
    <property name="shotcut:caption">2021-02-03 09-50-10.mkv</property>
    <filter id="filter382" in="00:24:11.400" out="00:24:12.167">
      <property name="window">75</property>
      <property name="max_gain">20dB</property>
      <property name="level">12</property>
      <property name="mlt_service">volume</property>
    </filter>
  </producer>
  <producer id="producer388" in="00:00:00.000" out="00:50:55.017">
    <property name="length">00:50:55.033</property>
    <property name="eof">pause</property>
    <property name="resource">C:/Users/Sahid/Videos/QGIS Basic/6_Layouting/2021-02-03 09-50-10.mkv</property>
    <property name="audio_index">1</property>
    <property name="video_index">0</property>
    <property name="mute_on_pause">0</property>
    <property name="mlt_service">avformat-novalidate</property>
    <property name="seekable">1</property>
    <property name="aspect_ratio">1</property>
    <property name="creation_time">2021-02-03T03:41:06</property>
    <property name="global_feed">1</property>
    <property name="xml">was here</property>
    <property name="shotcut:hash">8e392e48be4935f7d753048eef069fa1</property>
    <property name="shotcut:caption">2021-02-03 09-50-10.mkv</property>
    <filter id="filter383" in="00:24:12.183" out="00:24:17.217">
      <property name="window">75</property>
      <property name="max_gain">20dB</property>
      <property name="level">12</property>
      <property name="mlt_service">volume</property>
    </filter>
  </producer>
  <producer id="producer389" in="00:00:00.000" out="00:50:55.017">
    <property name="length">00:50:55.033</property>
    <property name="eof">pause</property>
    <property name="resource">C:/Users/Sahid/Videos/QGIS Basic/6_Layouting/2021-02-03 09-50-10.mkv</property>
    <property name="audio_index">1</property>
    <property name="video_index">0</property>
    <property name="mute_on_pause">0</property>
    <property name="mlt_service">avformat-novalidate</property>
    <property name="seekable">1</property>
    <property name="aspect_ratio">1</property>
    <property name="creation_time">2021-02-03T03:41:06</property>
    <property name="global_feed">1</property>
    <property name="xml">was here</property>
    <property name="shotcut:hash">8e392e48be4935f7d753048eef069fa1</property>
    <property name="shotcut:caption">2021-02-03 09-50-10.mkv</property>
    <filter id="filter384" in="00:24:17.783" out="00:24:18.450">
      <property name="window">75</property>
      <property name="max_gain">20dB</property>
      <property name="level">12</property>
      <property name="mlt_service">volume</property>
    </filter>
  </producer>
  <producer id="producer390" in="00:00:00.000" out="00:50:55.017">
    <property name="length">00:50:55.033</property>
    <property name="eof">pause</property>
    <property name="resource">C:/Users/Sahid/Videos/QGIS Basic/6_Layouting/2021-02-03 09-50-10.mkv</property>
    <property name="audio_index">1</property>
    <property name="video_index">0</property>
    <property name="mute_on_pause">0</property>
    <property name="mlt_service">avformat-novalidate</property>
    <property name="seekable">1</property>
    <property name="aspect_ratio">1</property>
    <property name="creation_time">2021-02-03T03:41:06</property>
    <property name="global_feed">1</property>
    <property name="xml">was here</property>
    <property name="shotcut:hash">8e392e48be4935f7d753048eef069fa1</property>
    <property name="shotcut:caption">2021-02-03 09-50-10.mkv</property>
    <filter id="filter385" in="00:24:18.867" out="00:24:20.833">
      <property name="window">75</property>
      <property name="max_gain">20dB</property>
      <property name="level">12</property>
      <property name="mlt_service">volume</property>
    </filter>
  </producer>
  <producer id="producer391" in="00:00:00.000" out="00:50:55.017">
    <property name="length">00:50:55.033</property>
    <property name="eof">pause</property>
    <property name="resource">C:/Users/Sahid/Videos/QGIS Basic/6_Layouting/2021-02-03 09-50-10.mkv</property>
    <property name="audio_index">1</property>
    <property name="video_index">0</property>
    <property name="mute_on_pause">0</property>
    <property name="mlt_service">avformat-novalidate</property>
    <property name="seekable">1</property>
    <property name="aspect_ratio">1</property>
    <property name="creation_time">2021-02-03T03:41:06</property>
    <property name="global_feed">1</property>
    <property name="xml">was here</property>
    <property name="shotcut:hash">8e392e48be4935f7d753048eef069fa1</property>
    <property name="shotcut:caption">2021-02-03 09-50-10.mkv</property>
    <filter id="filter386" in="00:24:54.083" out="00:24:56.267">
      <property name="window">75</property>
      <property name="max_gain">20dB</property>
      <property name="level">12</property>
      <property name="mlt_service">volume</property>
    </filter>
  </producer>
  <producer id="producer392" in="00:00:00.000" out="00:50:55.017">
    <property name="length">00:50:55.033</property>
    <property name="eof">pause</property>
    <property name="resource">C:/Users/Sahid/Videos/QGIS Basic/6_Layouting/2021-02-03 09-50-10.mkv</property>
    <property name="audio_index">1</property>
    <property name="video_index">0</property>
    <property name="mute_on_pause">0</property>
    <property name="mlt_service">avformat-novalidate</property>
    <property name="seekable">1</property>
    <property name="aspect_ratio">1</property>
    <property name="creation_time">2021-02-03T03:41:06</property>
    <property name="global_feed">1</property>
    <property name="xml">was here</property>
    <property name="shotcut:hash">8e392e48be4935f7d753048eef069fa1</property>
    <property name="shotcut:caption">2021-02-03 09-50-10.mkv</property>
    <filter id="filter387" in="00:24:56.283" out="00:24:57.667">
      <property name="window">75</property>
      <property name="max_gain">20dB</property>
      <property name="level">12</property>
      <property name="mlt_service">volume</property>
    </filter>
  </producer>
  <producer id="producer393" in="00:00:00.000" out="00:50:55.017">
    <property name="length">00:50:55.033</property>
    <property name="eof">pause</property>
    <property name="resource">C:/Users/Sahid/Videos/QGIS Basic/6_Layouting/2021-02-03 09-50-10.mkv</property>
    <property name="audio_index">1</property>
    <property name="video_index">0</property>
    <property name="mute_on_pause">0</property>
    <property name="mlt_service">avformat-novalidate</property>
    <property name="seekable">1</property>
    <property name="aspect_ratio">1</property>
    <property name="creation_time">2021-02-03T03:41:06</property>
    <property name="global_feed">1</property>
    <property name="xml">was here</property>
    <property name="shotcut:hash">8e392e48be4935f7d753048eef069fa1</property>
    <property name="shotcut:caption">2021-02-03 09-50-10.mkv</property>
    <filter id="filter388" in="00:24:57.683" out="00:25:01.183">
      <property name="window">75</property>
      <property name="max_gain">20dB</property>
      <property name="level">12</property>
      <property name="mlt_service">volume</property>
    </filter>
  </producer>
  <producer id="producer394" in="00:00:00.000" out="00:50:55.017">
    <property name="length">00:50:55.033</property>
    <property name="eof">pause</property>
    <property name="resource">C:/Users/Sahid/Videos/QGIS Basic/6_Layouting/2021-02-03 09-50-10.mkv</property>
    <property name="audio_index">1</property>
    <property name="video_index">0</property>
    <property name="mute_on_pause">0</property>
    <property name="mlt_service">avformat-novalidate</property>
    <property name="seekable">1</property>
    <property name="aspect_ratio">1</property>
    <property name="creation_time">2021-02-03T03:41:06</property>
    <property name="global_feed">1</property>
    <property name="xml">was here</property>
    <property name="shotcut:hash">8e392e48be4935f7d753048eef069fa1</property>
    <property name="shotcut:caption">2021-02-03 09-50-10.mkv</property>
    <filter id="filter389" in="00:25:03.667" out="00:25:10.683">
      <property name="window">75</property>
      <property name="max_gain">20dB</property>
      <property name="level">12</property>
      <property name="mlt_service">volume</property>
    </filter>
  </producer>
  <producer id="producer395" in="00:00:00.000" out="00:50:55.017">
    <property name="length">00:50:55.033</property>
    <property name="eof">pause</property>
    <property name="resource">C:/Users/Sahid/Videos/QGIS Basic/6_Layouting/2021-02-03 09-50-10.mkv</property>
    <property name="audio_index">1</property>
    <property name="video_index">0</property>
    <property name="mute_on_pause">0</property>
    <property name="mlt_service">avformat-novalidate</property>
    <property name="seekable">1</property>
    <property name="aspect_ratio">1</property>
    <property name="creation_time">2021-02-03T03:41:06</property>
    <property name="global_feed">1</property>
    <property name="xml">was here</property>
    <property name="shotcut:hash">8e392e48be4935f7d753048eef069fa1</property>
    <property name="shotcut:caption">2021-02-03 09-50-10.mkv</property>
    <filter id="filter390" in="00:25:12.067" out="00:25:15.050">
      <property name="window">75</property>
      <property name="max_gain">20dB</property>
      <property name="level">12</property>
      <property name="mlt_service">volume</property>
    </filter>
  </producer>
  <producer id="producer396" in="00:00:00.000" out="00:50:55.017">
    <property name="length">00:50:55.033</property>
    <property name="eof">pause</property>
    <property name="resource">C:/Users/Sahid/Videos/QGIS Basic/6_Layouting/2021-02-03 09-50-10.mkv</property>
    <property name="audio_index">1</property>
    <property name="video_index">0</property>
    <property name="mute_on_pause">0</property>
    <property name="mlt_service">avformat-novalidate</property>
    <property name="seekable">1</property>
    <property name="aspect_ratio">1</property>
    <property name="creation_time">2021-02-03T03:41:06</property>
    <property name="global_feed">1</property>
    <property name="xml">was here</property>
    <property name="shotcut:hash">8e392e48be4935f7d753048eef069fa1</property>
    <property name="shotcut:caption">2021-02-03 09-50-10.mkv</property>
    <filter id="filter391" in="00:25:26.550" out="00:25:29.200">
      <property name="window">75</property>
      <property name="max_gain">20dB</property>
      <property name="level">12</property>
      <property name="mlt_service">volume</property>
    </filter>
  </producer>
  <producer id="producer397" in="00:00:00.000" out="00:50:55.017">
    <property name="length">00:50:55.033</property>
    <property name="eof">pause</property>
    <property name="resource">C:/Users/Sahid/Videos/QGIS Basic/6_Layouting/2021-02-03 09-50-10.mkv</property>
    <property name="audio_index">1</property>
    <property name="video_index">0</property>
    <property name="mute_on_pause">0</property>
    <property name="mlt_service">avformat-novalidate</property>
    <property name="seekable">1</property>
    <property name="aspect_ratio">1</property>
    <property name="creation_time">2021-02-03T03:41:06</property>
    <property name="global_feed">1</property>
    <property name="xml">was here</property>
    <property name="shotcut:hash">8e392e48be4935f7d753048eef069fa1</property>
    <property name="shotcut:caption">2021-02-03 09-50-10.mkv</property>
    <filter id="filter392" in="00:25:29.217" out="00:25:33.017">
      <property name="window">75</property>
      <property name="max_gain">20dB</property>
      <property name="level">12</property>
      <property name="mlt_service">volume</property>
    </filter>
  </producer>
  <producer id="producer398" in="00:00:00.000" out="00:50:55.017">
    <property name="length">00:50:55.033</property>
    <property name="eof">pause</property>
    <property name="resource">C:/Users/Sahid/Videos/QGIS Basic/6_Layouting/2021-02-03 09-50-10.mkv</property>
    <property name="audio_index">1</property>
    <property name="video_index">0</property>
    <property name="mute_on_pause">0</property>
    <property name="mlt_service">avformat-novalidate</property>
    <property name="seekable">1</property>
    <property name="aspect_ratio">1</property>
    <property name="creation_time">2021-02-03T03:41:06</property>
    <property name="global_feed">1</property>
    <property name="xml">was here</property>
    <property name="shotcut:hash">8e392e48be4935f7d753048eef069fa1</property>
    <property name="shotcut:caption">2021-02-03 09-50-10.mkv</property>
    <filter id="filter393" in="00:25:33.233" out="00:25:33.967">
      <property name="window">75</property>
      <property name="max_gain">20dB</property>
      <property name="level">12</property>
      <property name="mlt_service">volume</property>
    </filter>
  </producer>
  <producer id="producer399" in="00:00:00.000" out="00:50:55.017">
    <property name="length">00:50:55.033</property>
    <property name="eof">pause</property>
    <property name="resource">C:/Users/Sahid/Videos/QGIS Basic/6_Layouting/2021-02-03 09-50-10.mkv</property>
    <property name="audio_index">1</property>
    <property name="video_index">0</property>
    <property name="mute_on_pause">0</property>
    <property name="mlt_service">avformat-novalidate</property>
    <property name="seekable">1</property>
    <property name="aspect_ratio">1</property>
    <property name="creation_time">2021-02-03T03:41:06</property>
    <property name="global_feed">1</property>
    <property name="xml">was here</property>
    <property name="shotcut:hash">8e392e48be4935f7d753048eef069fa1</property>
    <property name="shotcut:caption">2021-02-03 09-50-10.mkv</property>
    <filter id="filter394" in="00:25:33.983" out="00:25:37.083">
      <property name="window">75</property>
      <property name="max_gain">20dB</property>
      <property name="level">12</property>
      <property name="mlt_service">volume</property>
    </filter>
  </producer>
  <producer id="producer400" in="00:00:00.000" out="00:50:55.017">
    <property name="length">00:50:55.033</property>
    <property name="eof">pause</property>
    <property name="resource">C:/Users/Sahid/Videos/QGIS Basic/6_Layouting/2021-02-03 09-50-10.mkv</property>
    <property name="audio_index">1</property>
    <property name="video_index">0</property>
    <property name="mute_on_pause">0</property>
    <property name="mlt_service">avformat-novalidate</property>
    <property name="seekable">1</property>
    <property name="aspect_ratio">1</property>
    <property name="creation_time">2021-02-03T03:41:06</property>
    <property name="global_feed">1</property>
    <property name="xml">was here</property>
    <property name="shotcut:hash">8e392e48be4935f7d753048eef069fa1</property>
    <property name="shotcut:caption">2021-02-03 09-50-10.mkv</property>
    <filter id="filter395" in="00:25:37.100" out="00:25:37.567">
      <property name="window">75</property>
      <property name="max_gain">20dB</property>
      <property name="level">12</property>
      <property name="mlt_service">volume</property>
    </filter>
  </producer>
  <producer id="producer402" in="00:00:00.000" out="00:50:55.017">
    <property name="length">00:50:55.033</property>
    <property name="eof">pause</property>
    <property name="resource">C:/Users/Sahid/Videos/QGIS Basic/6_Layouting/2021-02-03 09-50-10.mkv</property>
    <property name="audio_index">1</property>
    <property name="video_index">0</property>
    <property name="mute_on_pause">0</property>
    <property name="mlt_service">avformat-novalidate</property>
    <property name="seekable">1</property>
    <property name="aspect_ratio">1</property>
    <property name="creation_time">2021-02-03T03:41:06</property>
    <property name="global_feed">1</property>
    <property name="xml">was here</property>
    <property name="shotcut:hash">8e392e48be4935f7d753048eef069fa1</property>
    <property name="shotcut:caption">2021-02-03 09-50-10.mkv</property>
    <filter id="filter397" in="00:26:29.450" out="00:26:32.283">
      <property name="window">75</property>
      <property name="max_gain">20dB</property>
      <property name="level">12</property>
      <property name="mlt_service">volume</property>
    </filter>
  </producer>
  <producer id="producer403" in="00:00:00.000" out="00:50:55.017">
    <property name="length">00:50:55.033</property>
    <property name="eof">pause</property>
    <property name="resource">C:/Users/Sahid/Videos/QGIS Basic/6_Layouting/2021-02-03 09-50-10.mkv</property>
    <property name="audio_index">1</property>
    <property name="video_index">0</property>
    <property name="mute_on_pause">0</property>
    <property name="mlt_service">avformat-novalidate</property>
    <property name="seekable">1</property>
    <property name="aspect_ratio">1</property>
    <property name="creation_time">2021-02-03T03:41:06</property>
    <property name="global_feed">1</property>
    <property name="xml">was here</property>
    <property name="shotcut:hash">8e392e48be4935f7d753048eef069fa1</property>
    <property name="shotcut:caption">2021-02-03 09-50-10.mkv</property>
    <filter id="filter398" in="00:27:45.083" out="00:27:46.933">
      <property name="window">75</property>
      <property name="max_gain">20dB</property>
      <property name="level">12</property>
      <property name="mlt_service">volume</property>
    </filter>
  </producer>
  <producer id="producer404" in="00:00:00.000" out="00:50:55.017">
    <property name="length">00:50:55.033</property>
    <property name="eof">pause</property>
    <property name="resource">C:/Users/Sahid/Videos/QGIS Basic/6_Layouting/2021-02-03 09-50-10.mkv</property>
    <property name="audio_index">1</property>
    <property name="video_index">0</property>
    <property name="mute_on_pause">0</property>
    <property name="mlt_service">avformat-novalidate</property>
    <property name="seekable">1</property>
    <property name="aspect_ratio">1</property>
    <property name="creation_time">2021-02-03T03:41:06</property>
    <property name="global_feed">1</property>
    <property name="xml">was here</property>
    <property name="shotcut:hash">8e392e48be4935f7d753048eef069fa1</property>
    <property name="shotcut:caption">2021-02-03 09-50-10.mkv</property>
    <filter id="filter399" in="00:27:48.283" out="00:27:51.017">
      <property name="window">75</property>
      <property name="max_gain">20dB</property>
      <property name="level">12</property>
      <property name="mlt_service">volume</property>
    </filter>
  </producer>
  <producer id="producer405" in="00:00:00.000" out="00:50:55.017">
    <property name="length">00:50:55.033</property>
    <property name="eof">pause</property>
    <property name="resource">C:/Users/Sahid/Videos/QGIS Basic/6_Layouting/2021-02-03 09-50-10.mkv</property>
    <property name="audio_index">1</property>
    <property name="video_index">0</property>
    <property name="mute_on_pause">0</property>
    <property name="mlt_service">avformat-novalidate</property>
    <property name="seekable">1</property>
    <property name="aspect_ratio">1</property>
    <property name="creation_time">2021-02-03T03:41:06</property>
    <property name="global_feed">1</property>
    <property name="xml">was here</property>
    <property name="shotcut:hash">8e392e48be4935f7d753048eef069fa1</property>
    <property name="shotcut:caption">2021-02-03 09-50-10.mkv</property>
    <filter id="filter400" in="00:27:51.733" out="00:27:53.183">
      <property name="window">75</property>
      <property name="max_gain">20dB</property>
      <property name="level">12</property>
      <property name="mlt_service">volume</property>
    </filter>
  </producer>
  <producer id="producer406" in="00:00:00.000" out="00:50:55.017">
    <property name="length">00:50:55.033</property>
    <property name="eof">pause</property>
    <property name="resource">C:/Users/Sahid/Videos/QGIS Basic/6_Layouting/2021-02-03 09-50-10.mkv</property>
    <property name="audio_index">1</property>
    <property name="video_index">0</property>
    <property name="mute_on_pause">0</property>
    <property name="mlt_service">avformat-novalidate</property>
    <property name="seekable">1</property>
    <property name="aspect_ratio">1</property>
    <property name="creation_time">2021-02-03T03:41:06</property>
    <property name="global_feed">1</property>
    <property name="xml">was here</property>
    <property name="shotcut:hash">8e392e48be4935f7d753048eef069fa1</property>
    <property name="shotcut:caption">2021-02-03 09-50-10.mkv</property>
    <filter id="filter401" in="00:28:00.867" out="00:28:03.633">
      <property name="window">75</property>
      <property name="max_gain">20dB</property>
      <property name="level">12</property>
      <property name="mlt_service">volume</property>
    </filter>
  </producer>
  <producer id="producer407" in="00:00:00.000" out="00:50:55.017">
    <property name="length">00:50:55.033</property>
    <property name="eof">pause</property>
    <property name="resource">C:/Users/Sahid/Videos/QGIS Basic/6_Layouting/2021-02-03 09-50-10.mkv</property>
    <property name="audio_index">1</property>
    <property name="video_index">0</property>
    <property name="mute_on_pause">0</property>
    <property name="mlt_service">avformat-novalidate</property>
    <property name="seekable">1</property>
    <property name="aspect_ratio">1</property>
    <property name="creation_time">2021-02-03T03:41:06</property>
    <property name="global_feed">1</property>
    <property name="xml">was here</property>
    <property name="shotcut:hash">8e392e48be4935f7d753048eef069fa1</property>
    <property name="shotcut:caption">2021-02-03 09-50-10.mkv</property>
    <filter id="filter402" in="00:28:03.650" out="00:28:06.450">
      <property name="window">75</property>
      <property name="max_gain">20dB</property>
      <property name="level">12</property>
      <property name="mlt_service">volume</property>
    </filter>
  </producer>
  <producer id="producer408" in="00:00:00.000" out="00:50:55.017">
    <property name="length">00:50:55.033</property>
    <property name="eof">pause</property>
    <property name="resource">C:/Users/Sahid/Videos/QGIS Basic/6_Layouting/2021-02-03 09-50-10.mkv</property>
    <property name="audio_index">1</property>
    <property name="video_index">0</property>
    <property name="mute_on_pause">0</property>
    <property name="mlt_service">avformat-novalidate</property>
    <property name="seekable">1</property>
    <property name="aspect_ratio">1</property>
    <property name="creation_time">2021-02-03T03:41:06</property>
    <property name="global_feed">1</property>
    <property name="xml">was here</property>
    <property name="shotcut:hash">8e392e48be4935f7d753048eef069fa1</property>
    <property name="shotcut:caption">2021-02-03 09-50-10.mkv</property>
    <filter id="filter403" in="00:28:38.517" out="00:28:41.000">
      <property name="window">75</property>
      <property name="max_gain">20dB</property>
      <property name="level">12</property>
      <property name="mlt_service">volume</property>
    </filter>
  </producer>
  <producer id="producer409" in="00:00:00.000" out="00:50:55.017">
    <property name="length">00:50:55.033</property>
    <property name="eof">pause</property>
    <property name="resource">C:/Users/Sahid/Videos/QGIS Basic/6_Layouting/2021-02-03 09-50-10.mkv</property>
    <property name="audio_index">1</property>
    <property name="video_index">0</property>
    <property name="mute_on_pause">0</property>
    <property name="mlt_service">avformat-novalidate</property>
    <property name="seekable">1</property>
    <property name="aspect_ratio">1</property>
    <property name="creation_time">2021-02-03T03:41:06</property>
    <property name="global_feed">1</property>
    <property name="xml">was here</property>
    <property name="shotcut:hash">8e392e48be4935f7d753048eef069fa1</property>
    <property name="shotcut:caption">2021-02-03 09-50-10.mkv</property>
    <filter id="filter404" in="00:28:45.100" out="00:28:47.583">
      <property name="window">75</property>
      <property name="max_gain">20dB</property>
      <property name="level">12</property>
      <property name="mlt_service">volume</property>
    </filter>
  </producer>
  <producer id="producer410" in="00:00:00.000" out="00:50:55.017">
    <property name="length">00:50:55.033</property>
    <property name="eof">pause</property>
    <property name="resource">C:/Users/Sahid/Videos/QGIS Basic/6_Layouting/2021-02-03 09-50-10.mkv</property>
    <property name="audio_index">1</property>
    <property name="video_index">0</property>
    <property name="mute_on_pause">0</property>
    <property name="mlt_service">avformat-novalidate</property>
    <property name="seekable">1</property>
    <property name="aspect_ratio">1</property>
    <property name="creation_time">2021-02-03T03:41:06</property>
    <property name="global_feed">1</property>
    <property name="xml">was here</property>
    <property name="shotcut:hash">8e392e48be4935f7d753048eef069fa1</property>
    <property name="shotcut:caption">2021-02-03 09-50-10.mkv</property>
    <filter id="filter405" in="00:28:48.900" out="00:28:50.050">
      <property name="window">75</property>
      <property name="max_gain">20dB</property>
      <property name="level">12</property>
      <property name="mlt_service">volume</property>
    </filter>
  </producer>
  <producer id="producer411" in="00:00:00.000" out="00:50:55.017">
    <property name="length">00:50:55.033</property>
    <property name="eof">pause</property>
    <property name="resource">C:/Users/Sahid/Videos/QGIS Basic/6_Layouting/2021-02-03 09-50-10.mkv</property>
    <property name="audio_index">1</property>
    <property name="video_index">0</property>
    <property name="mute_on_pause">0</property>
    <property name="mlt_service">avformat-novalidate</property>
    <property name="seekable">1</property>
    <property name="aspect_ratio">1</property>
    <property name="creation_time">2021-02-03T03:41:06</property>
    <property name="global_feed">1</property>
    <property name="xml">was here</property>
    <property name="shotcut:hash">8e392e48be4935f7d753048eef069fa1</property>
    <property name="shotcut:caption">2021-02-03 09-50-10.mkv</property>
    <filter id="filter406" in="00:28:52.567" out="00:28:53.300">
      <property name="window">75</property>
      <property name="max_gain">20dB</property>
      <property name="level">12</property>
      <property name="mlt_service">volume</property>
    </filter>
  </producer>
  <producer id="producer412" in="00:00:00.000" out="00:50:55.017">
    <property name="length">00:50:55.033</property>
    <property name="eof">pause</property>
    <property name="resource">C:/Users/Sahid/Videos/QGIS Basic/6_Layouting/2021-02-03 09-50-10.mkv</property>
    <property name="audio_index">1</property>
    <property name="video_index">0</property>
    <property name="mute_on_pause">0</property>
    <property name="mlt_service">avformat-novalidate</property>
    <property name="seekable">1</property>
    <property name="aspect_ratio">1</property>
    <property name="creation_time">2021-02-03T03:41:06</property>
    <property name="global_feed">1</property>
    <property name="xml">was here</property>
    <property name="shotcut:hash">8e392e48be4935f7d753048eef069fa1</property>
    <property name="shotcut:caption">2021-02-03 09-50-10.mkv</property>
    <filter id="filter407" in="00:28:53.417" out="00:28:54.133">
      <property name="window">75</property>
      <property name="max_gain">20dB</property>
      <property name="level">12</property>
      <property name="mlt_service">volume</property>
    </filter>
  </producer>
  <producer id="producer413" in="00:00:00.000" out="00:50:55.017">
    <property name="length">00:50:55.033</property>
    <property name="eof">pause</property>
    <property name="resource">C:/Users/Sahid/Videos/QGIS Basic/6_Layouting/2021-02-03 09-50-10.mkv</property>
    <property name="audio_index">1</property>
    <property name="video_index">0</property>
    <property name="mute_on_pause">0</property>
    <property name="mlt_service">avformat-novalidate</property>
    <property name="seekable">1</property>
    <property name="aspect_ratio">1</property>
    <property name="creation_time">2021-02-03T03:41:06</property>
    <property name="global_feed">1</property>
    <property name="xml">was here</property>
    <property name="shotcut:hash">8e392e48be4935f7d753048eef069fa1</property>
    <property name="shotcut:caption">2021-02-03 09-50-10.mkv</property>
    <filter id="filter408" in="00:28:59.383" out="00:29:03.050">
      <property name="window">75</property>
      <property name="max_gain">20dB</property>
      <property name="level">12</property>
      <property name="mlt_service">volume</property>
    </filter>
  </producer>
  <producer id="producer414" in="00:00:00.000" out="00:50:55.017">
    <property name="length">00:50:55.033</property>
    <property name="eof">pause</property>
    <property name="resource">C:/Users/Sahid/Videos/QGIS Basic/6_Layouting/2021-02-03 09-50-10.mkv</property>
    <property name="audio_index">1</property>
    <property name="video_index">0</property>
    <property name="mute_on_pause">0</property>
    <property name="mlt_service">avformat-novalidate</property>
    <property name="seekable">1</property>
    <property name="aspect_ratio">1</property>
    <property name="creation_time">2021-02-03T03:41:06</property>
    <property name="global_feed">1</property>
    <property name="xml">was here</property>
    <property name="shotcut:hash">8e392e48be4935f7d753048eef069fa1</property>
    <property name="shotcut:caption">2021-02-03 09-50-10.mkv</property>
    <filter id="filter409" in="00:29:05.817" out="00:29:07.983">
      <property name="window">75</property>
      <property name="max_gain">20dB</property>
      <property name="level">12</property>
      <property name="mlt_service">volume</property>
    </filter>
  </producer>
  <producer id="producer415" in="00:00:00.000" out="00:50:55.017">
    <property name="length">00:50:55.033</property>
    <property name="eof">pause</property>
    <property name="resource">C:/Users/Sahid/Videos/QGIS Basic/6_Layouting/2021-02-03 09-50-10.mkv</property>
    <property name="audio_index">1</property>
    <property name="video_index">0</property>
    <property name="mute_on_pause">0</property>
    <property name="mlt_service">avformat-novalidate</property>
    <property name="seekable">1</property>
    <property name="aspect_ratio">1</property>
    <property name="creation_time">2021-02-03T03:41:06</property>
    <property name="global_feed">1</property>
    <property name="xml">was here</property>
    <property name="shotcut:hash">8e392e48be4935f7d753048eef069fa1</property>
    <property name="shotcut:caption">2021-02-03 09-50-10.mkv</property>
    <filter id="filter410" in="00:29:12.333" out="00:29:16.250">
      <property name="window">75</property>
      <property name="max_gain">20dB</property>
      <property name="level">12</property>
      <property name="mlt_service">volume</property>
    </filter>
  </producer>
  <producer id="producer416" in="00:00:00.000" out="00:50:55.017">
    <property name="length">00:50:55.033</property>
    <property name="eof">pause</property>
    <property name="resource">C:/Users/Sahid/Videos/QGIS Basic/6_Layouting/2021-02-03 09-50-10.mkv</property>
    <property name="audio_index">1</property>
    <property name="video_index">0</property>
    <property name="mute_on_pause">0</property>
    <property name="mlt_service">avformat-novalidate</property>
    <property name="seekable">1</property>
    <property name="aspect_ratio">1</property>
    <property name="creation_time">2021-02-03T03:41:06</property>
    <property name="global_feed">1</property>
    <property name="xml">was here</property>
    <property name="shotcut:hash">8e392e48be4935f7d753048eef069fa1</property>
    <property name="shotcut:caption">2021-02-03 09-50-10.mkv</property>
    <filter id="filter411" in="00:29:16.833" out="00:29:18.633">
      <property name="window">75</property>
      <property name="max_gain">20dB</property>
      <property name="level">12</property>
      <property name="mlt_service">volume</property>
    </filter>
  </producer>
  <producer id="producer417" in="00:00:00.000" out="00:50:55.017">
    <property name="length">00:50:55.033</property>
    <property name="eof">pause</property>
    <property name="resource">C:/Users/Sahid/Videos/QGIS Basic/6_Layouting/2021-02-03 09-50-10.mkv</property>
    <property name="audio_index">1</property>
    <property name="video_index">0</property>
    <property name="mute_on_pause">0</property>
    <property name="mlt_service">avformat-novalidate</property>
    <property name="seekable">1</property>
    <property name="aspect_ratio">1</property>
    <property name="creation_time">2021-02-03T03:41:06</property>
    <property name="global_feed">1</property>
    <property name="xml">was here</property>
    <property name="shotcut:hash">8e392e48be4935f7d753048eef069fa1</property>
    <property name="shotcut:caption">2021-02-03 09-50-10.mkv</property>
    <filter id="filter412" in="00:29:24.517" out="00:29:30.517">
      <property name="window">75</property>
      <property name="max_gain">20dB</property>
      <property name="level">12</property>
      <property name="mlt_service">volume</property>
    </filter>
  </producer>
  <producer id="producer418" in="00:00:00.000" out="00:50:55.017">
    <property name="length">00:50:55.033</property>
    <property name="eof">pause</property>
    <property name="resource">C:/Users/Sahid/Videos/QGIS Basic/6_Layouting/2021-02-03 09-50-10.mkv</property>
    <property name="audio_index">1</property>
    <property name="video_index">0</property>
    <property name="mute_on_pause">0</property>
    <property name="mlt_service">avformat-novalidate</property>
    <property name="seekable">1</property>
    <property name="aspect_ratio">1</property>
    <property name="creation_time">2021-02-03T03:41:06</property>
    <property name="global_feed">1</property>
    <property name="xml">was here</property>
    <property name="shotcut:hash">8e392e48be4935f7d753048eef069fa1</property>
    <property name="shotcut:caption">2021-02-03 09-50-10.mkv</property>
    <filter id="filter413" in="00:29:31.350" out="00:29:34.933">
      <property name="window">75</property>
      <property name="max_gain">20dB</property>
      <property name="level">12</property>
      <property name="mlt_service">volume</property>
    </filter>
  </producer>
  <producer id="producer419" in="00:00:00.000" out="00:50:55.017">
    <property name="length">00:50:55.033</property>
    <property name="eof">pause</property>
    <property name="resource">C:/Users/Sahid/Videos/QGIS Basic/6_Layouting/2021-02-03 09-50-10.mkv</property>
    <property name="audio_index">1</property>
    <property name="video_index">0</property>
    <property name="mute_on_pause">0</property>
    <property name="mlt_service">avformat-novalidate</property>
    <property name="seekable">1</property>
    <property name="aspect_ratio">1</property>
    <property name="creation_time">2021-02-03T03:41:06</property>
    <property name="global_feed">1</property>
    <property name="xml">was here</property>
    <property name="shotcut:hash">8e392e48be4935f7d753048eef069fa1</property>
    <property name="shotcut:caption">2021-02-03 09-50-10.mkv</property>
    <filter id="filter414" in="00:29:53.250" out="00:30:08.450">
      <property name="window">75</property>
      <property name="max_gain">20dB</property>
      <property name="level">12</property>
      <property name="mlt_service">volume</property>
    </filter>
  </producer>
  <producer id="producer420" in="00:00:00.000" out="00:50:55.017">
    <property name="length">00:50:55.033</property>
    <property name="eof">pause</property>
    <property name="resource">C:/Users/Sahid/Videos/QGIS Basic/6_Layouting/2021-02-03 09-50-10.mkv</property>
    <property name="audio_index">1</property>
    <property name="video_index">0</property>
    <property name="mute_on_pause">0</property>
    <property name="mlt_service">avformat-novalidate</property>
    <property name="seekable">1</property>
    <property name="aspect_ratio">1</property>
    <property name="creation_time">2021-02-03T03:41:06</property>
    <property name="global_feed">1</property>
    <property name="xml">was here</property>
    <property name="shotcut:hash">8e392e48be4935f7d753048eef069fa1</property>
    <property name="shotcut:caption">2021-02-03 09-50-10.mkv</property>
    <filter id="filter415" in="00:30:09.117" out="00:30:12.733">
      <property name="window">75</property>
      <property name="max_gain">20dB</property>
      <property name="level">12</property>
      <property name="mlt_service">volume</property>
    </filter>
  </producer>
  <producer id="producer421" in="00:00:00.000" out="00:50:55.017">
    <property name="length">00:50:55.033</property>
    <property name="eof">pause</property>
    <property name="resource">C:/Users/Sahid/Videos/QGIS Basic/6_Layouting/2021-02-03 09-50-10.mkv</property>
    <property name="audio_index">1</property>
    <property name="video_index">0</property>
    <property name="mute_on_pause">0</property>
    <property name="mlt_service">avformat-novalidate</property>
    <property name="seekable">1</property>
    <property name="aspect_ratio">1</property>
    <property name="creation_time">2021-02-03T03:41:06</property>
    <property name="global_feed">1</property>
    <property name="xml">was here</property>
    <property name="shotcut:hash">8e392e48be4935f7d753048eef069fa1</property>
    <property name="shotcut:caption">2021-02-03 09-50-10.mkv</property>
    <filter id="filter416" in="00:30:13.233" out="00:30:15.583">
      <property name="window">75</property>
      <property name="max_gain">20dB</property>
      <property name="level">12</property>
      <property name="mlt_service">volume</property>
    </filter>
  </producer>
  <producer id="producer422" in="00:00:00.000" out="00:50:55.017">
    <property name="length">00:50:55.033</property>
    <property name="eof">pause</property>
    <property name="resource">C:/Users/Sahid/Videos/QGIS Basic/6_Layouting/2021-02-03 09-50-10.mkv</property>
    <property name="audio_index">1</property>
    <property name="video_index">0</property>
    <property name="mute_on_pause">0</property>
    <property name="mlt_service">avformat-novalidate</property>
    <property name="seekable">1</property>
    <property name="aspect_ratio">1</property>
    <property name="creation_time">2021-02-03T03:41:06</property>
    <property name="global_feed">1</property>
    <property name="xml">was here</property>
    <property name="shotcut:hash">8e392e48be4935f7d753048eef069fa1</property>
    <property name="shotcut:caption">2021-02-03 09-50-10.mkv</property>
    <filter id="filter417" in="00:30:15.983" out="00:30:16.967">
      <property name="window">75</property>
      <property name="max_gain">20dB</property>
      <property name="level">12</property>
      <property name="mlt_service">volume</property>
    </filter>
  </producer>
  <producer id="producer423" in="00:00:00.000" out="00:50:55.017">
    <property name="length">00:50:55.033</property>
    <property name="eof">pause</property>
    <property name="resource">C:/Users/Sahid/Videos/QGIS Basic/6_Layouting/2021-02-03 09-50-10.mkv</property>
    <property name="audio_index">1</property>
    <property name="video_index">0</property>
    <property name="mute_on_pause">0</property>
    <property name="mlt_service">avformat-novalidate</property>
    <property name="seekable">1</property>
    <property name="aspect_ratio">1</property>
    <property name="creation_time">2021-02-03T03:41:06</property>
    <property name="global_feed">1</property>
    <property name="xml">was here</property>
    <property name="shotcut:hash">8e392e48be4935f7d753048eef069fa1</property>
    <property name="shotcut:caption">2021-02-03 09-50-10.mkv</property>
    <filter id="filter418" in="00:30:18.783" out="00:30:19.733">
      <property name="window">75</property>
      <property name="max_gain">20dB</property>
      <property name="level">12</property>
      <property name="mlt_service">volume</property>
    </filter>
  </producer>
  <producer id="producer424" in="00:00:00.000" out="00:50:55.017">
    <property name="length">00:50:55.033</property>
    <property name="eof">pause</property>
    <property name="resource">C:/Users/Sahid/Videos/QGIS Basic/6_Layouting/2021-02-03 09-50-10.mkv</property>
    <property name="audio_index">1</property>
    <property name="video_index">0</property>
    <property name="mute_on_pause">0</property>
    <property name="mlt_service">avformat-novalidate</property>
    <property name="seekable">1</property>
    <property name="aspect_ratio">1</property>
    <property name="creation_time">2021-02-03T03:41:06</property>
    <property name="global_feed">1</property>
    <property name="xml">was here</property>
    <property name="shotcut:hash">8e392e48be4935f7d753048eef069fa1</property>
    <property name="shotcut:caption">2021-02-03 09-50-10.mkv</property>
    <filter id="filter419" in="00:30:24.683" out="00:30:25.483">
      <property name="window">75</property>
      <property name="max_gain">20dB</property>
      <property name="level">12</property>
      <property name="mlt_service">volume</property>
    </filter>
  </producer>
  <producer id="producer425" in="00:00:00.000" out="00:50:55.017">
    <property name="length">00:50:55.033</property>
    <property name="eof">pause</property>
    <property name="resource">C:/Users/Sahid/Videos/QGIS Basic/6_Layouting/2021-02-03 09-50-10.mkv</property>
    <property name="audio_index">1</property>
    <property name="video_index">0</property>
    <property name="mute_on_pause">0</property>
    <property name="mlt_service">avformat-novalidate</property>
    <property name="seekable">1</property>
    <property name="aspect_ratio">1</property>
    <property name="creation_time">2021-02-03T03:41:06</property>
    <property name="global_feed">1</property>
    <property name="xml">was here</property>
    <property name="shotcut:hash">8e392e48be4935f7d753048eef069fa1</property>
    <property name="shotcut:caption">2021-02-03 09-50-10.mkv</property>
    <filter id="filter420" in="00:30:28.967" out="00:30:29.717">
      <property name="window">75</property>
      <property name="max_gain">20dB</property>
      <property name="level">12</property>
      <property name="mlt_service">volume</property>
    </filter>
  </producer>
  <producer id="producer426" in="00:00:00.000" out="00:50:55.017">
    <property name="length">00:50:55.033</property>
    <property name="eof">pause</property>
    <property name="resource">C:/Users/Sahid/Videos/QGIS Basic/6_Layouting/2021-02-03 09-50-10.mkv</property>
    <property name="audio_index">1</property>
    <property name="video_index">0</property>
    <property name="mute_on_pause">0</property>
    <property name="mlt_service">avformat-novalidate</property>
    <property name="seekable">1</property>
    <property name="aspect_ratio">1</property>
    <property name="creation_time">2021-02-03T03:41:06</property>
    <property name="global_feed">1</property>
    <property name="xml">was here</property>
    <property name="shotcut:hash">8e392e48be4935f7d753048eef069fa1</property>
    <property name="shotcut:caption">2021-02-03 09-50-10.mkv</property>
    <filter id="filter421" in="00:30:31.250" out="00:30:33.767">
      <property name="window">75</property>
      <property name="max_gain">20dB</property>
      <property name="level">12</property>
      <property name="mlt_service">volume</property>
    </filter>
  </producer>
  <producer id="producer427" in="00:00:00.000" out="00:50:55.017">
    <property name="length">00:50:55.033</property>
    <property name="eof">pause</property>
    <property name="resource">C:/Users/Sahid/Videos/QGIS Basic/6_Layouting/2021-02-03 09-50-10.mkv</property>
    <property name="audio_index">1</property>
    <property name="video_index">0</property>
    <property name="mute_on_pause">0</property>
    <property name="mlt_service">avformat-novalidate</property>
    <property name="seekable">1</property>
    <property name="aspect_ratio">1</property>
    <property name="creation_time">2021-02-03T03:41:06</property>
    <property name="global_feed">1</property>
    <property name="xml">was here</property>
    <property name="shotcut:hash">8e392e48be4935f7d753048eef069fa1</property>
    <property name="shotcut:caption">2021-02-03 09-50-10.mkv</property>
    <filter id="filter422" in="00:30:51.250" out="00:30:54.017">
      <property name="window">75</property>
      <property name="max_gain">20dB</property>
      <property name="level">12</property>
      <property name="mlt_service">volume</property>
    </filter>
  </producer>
  <producer id="producer428" in="00:00:00.000" out="00:50:55.017">
    <property name="length">00:50:55.033</property>
    <property name="eof">pause</property>
    <property name="resource">C:/Users/Sahid/Videos/QGIS Basic/6_Layouting/2021-02-03 09-50-10.mkv</property>
    <property name="audio_index">1</property>
    <property name="video_index">0</property>
    <property name="mute_on_pause">0</property>
    <property name="mlt_service">avformat-novalidate</property>
    <property name="seekable">1</property>
    <property name="aspect_ratio">1</property>
    <property name="creation_time">2021-02-03T03:41:06</property>
    <property name="global_feed">1</property>
    <property name="xml">was here</property>
    <property name="shotcut:hash">8e392e48be4935f7d753048eef069fa1</property>
    <property name="shotcut:caption">2021-02-03 09-50-10.mkv</property>
    <filter id="filter423" in="00:30:55.333" out="00:30:58.683">
      <property name="window">75</property>
      <property name="max_gain">20dB</property>
      <property name="level">12</property>
      <property name="mlt_service">volume</property>
    </filter>
  </producer>
  <producer id="producer429" in="00:00:00.000" out="00:50:55.017">
    <property name="length">00:50:55.033</property>
    <property name="eof">pause</property>
    <property name="resource">C:/Users/Sahid/Videos/QGIS Basic/6_Layouting/2021-02-03 09-50-10.mkv</property>
    <property name="audio_index">1</property>
    <property name="video_index">0</property>
    <property name="mute_on_pause">0</property>
    <property name="mlt_service">avformat-novalidate</property>
    <property name="seekable">1</property>
    <property name="aspect_ratio">1</property>
    <property name="creation_time">2021-02-03T03:41:06</property>
    <property name="global_feed">1</property>
    <property name="xml">was here</property>
    <property name="shotcut:hash">8e392e48be4935f7d753048eef069fa1</property>
    <property name="shotcut:caption">2021-02-03 09-50-10.mkv</property>
    <filter id="filter424" in="00:30:59.283" out="00:31:05.300">
      <property name="window">75</property>
      <property name="max_gain">20dB</property>
      <property name="level">12</property>
      <property name="mlt_service">volume</property>
    </filter>
  </producer>
  <producer id="producer430" in="00:00:00.000" out="00:50:55.017">
    <property name="length">00:50:55.033</property>
    <property name="eof">pause</property>
    <property name="resource">C:/Users/Sahid/Videos/QGIS Basic/6_Layouting/2021-02-03 09-50-10.mkv</property>
    <property name="audio_index">1</property>
    <property name="video_index">0</property>
    <property name="mute_on_pause">0</property>
    <property name="mlt_service">avformat-novalidate</property>
    <property name="seekable">1</property>
    <property name="aspect_ratio">1</property>
    <property name="creation_time">2021-02-03T03:41:06</property>
    <property name="global_feed">1</property>
    <property name="xml">was here</property>
    <property name="shotcut:hash">8e392e48be4935f7d753048eef069fa1</property>
    <property name="shotcut:caption">2021-02-03 09-50-10.mkv</property>
    <filter id="filter425" in="00:31:06.483" out="00:31:13.767">
      <property name="window">75</property>
      <property name="max_gain">20dB</property>
      <property name="level">12</property>
      <property name="mlt_service">volume</property>
    </filter>
  </producer>
  <producer id="producer431" in="00:00:00.000" out="00:50:55.017">
    <property name="length">00:50:55.033</property>
    <property name="eof">pause</property>
    <property name="resource">C:/Users/Sahid/Videos/QGIS Basic/6_Layouting/2021-02-03 09-50-10.mkv</property>
    <property name="audio_index">1</property>
    <property name="video_index">0</property>
    <property name="mute_on_pause">0</property>
    <property name="mlt_service">avformat-novalidate</property>
    <property name="seekable">1</property>
    <property name="aspect_ratio">1</property>
    <property name="creation_time">2021-02-03T03:41:06</property>
    <property name="global_feed">1</property>
    <property name="xml">was here</property>
    <property name="shotcut:hash">8e392e48be4935f7d753048eef069fa1</property>
    <property name="shotcut:caption">2021-02-03 09-50-10.mkv</property>
    <filter id="filter426" in="00:31:18.883" out="00:31:20.783">
      <property name="window">75</property>
      <property name="max_gain">20dB</property>
      <property name="level">12</property>
      <property name="mlt_service">volume</property>
    </filter>
  </producer>
  <producer id="producer432" in="00:00:00.000" out="00:50:55.017">
    <property name="length">00:50:55.033</property>
    <property name="eof">pause</property>
    <property name="resource">C:/Users/Sahid/Videos/QGIS Basic/6_Layouting/2021-02-03 09-50-10.mkv</property>
    <property name="audio_index">1</property>
    <property name="video_index">0</property>
    <property name="mute_on_pause">0</property>
    <property name="mlt_service">avformat-novalidate</property>
    <property name="seekable">1</property>
    <property name="aspect_ratio">1</property>
    <property name="creation_time">2021-02-03T03:41:06</property>
    <property name="global_feed">1</property>
    <property name="xml">was here</property>
    <property name="shotcut:hash">8e392e48be4935f7d753048eef069fa1</property>
    <property name="shotcut:caption">2021-02-03 09-50-10.mkv</property>
    <filter id="filter427" in="00:31:25.583" out="00:31:29.117">
      <property name="window">75</property>
      <property name="max_gain">20dB</property>
      <property name="level">12</property>
      <property name="mlt_service">volume</property>
    </filter>
  </producer>
  <producer id="producer433" in="00:00:00.000" out="00:50:55.017">
    <property name="length">00:50:55.033</property>
    <property name="eof">pause</property>
    <property name="resource">C:/Users/Sahid/Videos/QGIS Basic/6_Layouting/2021-02-03 09-50-10.mkv</property>
    <property name="audio_index">1</property>
    <property name="video_index">0</property>
    <property name="mute_on_pause">0</property>
    <property name="mlt_service">avformat-novalidate</property>
    <property name="seekable">1</property>
    <property name="aspect_ratio">1</property>
    <property name="creation_time">2021-02-03T03:41:06</property>
    <property name="global_feed">1</property>
    <property name="xml">was here</property>
    <property name="shotcut:hash">8e392e48be4935f7d753048eef069fa1</property>
    <property name="shotcut:caption">2021-02-03 09-50-10.mkv</property>
    <filter id="filter428" in="00:31:29.667" out="00:31:34.033">
      <property name="window">75</property>
      <property name="max_gain">20dB</property>
      <property name="level">12</property>
      <property name="mlt_service">volume</property>
    </filter>
  </producer>
  <producer id="producer434" in="00:00:00.000" out="00:50:55.017">
    <property name="length">00:50:55.033</property>
    <property name="eof">pause</property>
    <property name="resource">C:/Users/Sahid/Videos/QGIS Basic/6_Layouting/2021-02-03 09-50-10.mkv</property>
    <property name="audio_index">1</property>
    <property name="video_index">0</property>
    <property name="mute_on_pause">0</property>
    <property name="mlt_service">avformat-novalidate</property>
    <property name="seekable">1</property>
    <property name="aspect_ratio">1</property>
    <property name="creation_time">2021-02-03T03:41:06</property>
    <property name="global_feed">1</property>
    <property name="xml">was here</property>
    <property name="shotcut:hash">8e392e48be4935f7d753048eef069fa1</property>
    <property name="shotcut:caption">2021-02-03 09-50-10.mkv</property>
    <filter id="filter429" in="00:31:37.717" out="00:31:41.250">
      <property name="window">75</property>
      <property name="max_gain">20dB</property>
      <property name="level">12</property>
      <property name="mlt_service">volume</property>
    </filter>
  </producer>
  <producer id="producer435" in="00:00:00.000" out="00:50:55.017">
    <property name="length">00:50:55.033</property>
    <property name="eof">pause</property>
    <property name="resource">C:/Users/Sahid/Videos/QGIS Basic/6_Layouting/2021-02-03 09-50-10.mkv</property>
    <property name="audio_index">1</property>
    <property name="video_index">0</property>
    <property name="mute_on_pause">0</property>
    <property name="mlt_service">avformat-novalidate</property>
    <property name="seekable">1</property>
    <property name="aspect_ratio">1</property>
    <property name="creation_time">2021-02-03T03:41:06</property>
    <property name="global_feed">1</property>
    <property name="xml">was here</property>
    <property name="shotcut:hash">8e392e48be4935f7d753048eef069fa1</property>
    <property name="shotcut:caption">2021-02-03 09-50-10.mkv</property>
    <filter id="filter430" in="00:31:42.567" out="00:31:46.567">
      <property name="window">75</property>
      <property name="max_gain">20dB</property>
      <property name="level">12</property>
      <property name="mlt_service">volume</property>
    </filter>
  </producer>
  <producer id="producer436" in="00:00:00.000" out="00:50:55.017">
    <property name="length">00:50:55.033</property>
    <property name="eof">pause</property>
    <property name="resource">C:/Users/Sahid/Videos/QGIS Basic/6_Layouting/2021-02-03 09-50-10.mkv</property>
    <property name="audio_index">1</property>
    <property name="video_index">0</property>
    <property name="mute_on_pause">0</property>
    <property name="mlt_service">avformat-novalidate</property>
    <property name="seekable">1</property>
    <property name="aspect_ratio">1</property>
    <property name="creation_time">2021-02-03T03:41:06</property>
    <property name="global_feed">1</property>
    <property name="xml">was here</property>
    <property name="shotcut:hash">8e392e48be4935f7d753048eef069fa1</property>
    <property name="shotcut:caption">2021-02-03 09-50-10.mkv</property>
    <filter id="filter431" in="00:31:47.317" out="00:31:51.233">
      <property name="window">75</property>
      <property name="max_gain">20dB</property>
      <property name="level">12</property>
      <property name="mlt_service">volume</property>
    </filter>
  </producer>
  <producer id="producer437" in="00:00:00.000" out="00:50:55.017">
    <property name="length">00:50:55.033</property>
    <property name="eof">pause</property>
    <property name="resource">C:/Users/Sahid/Videos/QGIS Basic/6_Layouting/2021-02-03 09-50-10.mkv</property>
    <property name="audio_index">1</property>
    <property name="video_index">0</property>
    <property name="mute_on_pause">0</property>
    <property name="mlt_service">avformat-novalidate</property>
    <property name="seekable">1</property>
    <property name="aspect_ratio">1</property>
    <property name="creation_time">2021-02-03T03:41:06</property>
    <property name="global_feed">1</property>
    <property name="xml">was here</property>
    <property name="shotcut:hash">8e392e48be4935f7d753048eef069fa1</property>
    <property name="shotcut:caption">2021-02-03 09-50-10.mkv</property>
    <filter id="filter432" in="00:31:54.317" out="00:31:56.533">
      <property name="window">75</property>
      <property name="max_gain">20dB</property>
      <property name="level">12</property>
      <property name="mlt_service">volume</property>
    </filter>
  </producer>
  <producer id="producer438" in="00:00:00.000" out="00:50:55.017">
    <property name="length">00:50:55.033</property>
    <property name="eof">pause</property>
    <property name="resource">C:/Users/Sahid/Videos/QGIS Basic/6_Layouting/2021-02-03 09-50-10.mkv</property>
    <property name="audio_index">1</property>
    <property name="video_index">0</property>
    <property name="mute_on_pause">0</property>
    <property name="mlt_service">avformat-novalidate</property>
    <property name="seekable">1</property>
    <property name="aspect_ratio">1</property>
    <property name="creation_time">2021-02-03T03:41:06</property>
    <property name="global_feed">1</property>
    <property name="xml">was here</property>
    <property name="shotcut:hash">8e392e48be4935f7d753048eef069fa1</property>
    <property name="shotcut:caption">2021-02-03 09-50-10.mkv</property>
    <filter id="filter433" in="00:31:57.317" out="00:32:03.700">
      <property name="window">75</property>
      <property name="max_gain">20dB</property>
      <property name="level">12</property>
      <property name="mlt_service">volume</property>
    </filter>
  </producer>
  <producer id="producer439" in="00:00:00.000" out="00:50:55.017">
    <property name="length">00:50:55.033</property>
    <property name="eof">pause</property>
    <property name="resource">C:/Users/Sahid/Videos/QGIS Basic/6_Layouting/2021-02-03 09-50-10.mkv</property>
    <property name="audio_index">1</property>
    <property name="video_index">0</property>
    <property name="mute_on_pause">0</property>
    <property name="mlt_service">avformat-novalidate</property>
    <property name="seekable">1</property>
    <property name="aspect_ratio">1</property>
    <property name="creation_time">2021-02-03T03:41:06</property>
    <property name="global_feed">1</property>
    <property name="xml">was here</property>
    <property name="shotcut:hash">8e392e48be4935f7d753048eef069fa1</property>
    <property name="shotcut:caption">2021-02-03 09-50-10.mkv</property>
    <filter id="filter434" in="00:32:24.317" out="00:32:29.633">
      <property name="window">75</property>
      <property name="max_gain">20dB</property>
      <property name="level">12</property>
      <property name="mlt_service">volume</property>
    </filter>
  </producer>
  <producer id="producer440" in="00:00:00.000" out="00:50:55.017">
    <property name="length">00:50:55.033</property>
    <property name="eof">pause</property>
    <property name="resource">C:/Users/Sahid/Videos/QGIS Basic/6_Layouting/2021-02-03 09-50-10.mkv</property>
    <property name="audio_index">1</property>
    <property name="video_index">0</property>
    <property name="mute_on_pause">0</property>
    <property name="mlt_service">avformat-novalidate</property>
    <property name="seekable">1</property>
    <property name="aspect_ratio">1</property>
    <property name="creation_time">2021-02-03T03:41:06</property>
    <property name="global_feed">1</property>
    <property name="xml">was here</property>
    <property name="shotcut:hash">8e392e48be4935f7d753048eef069fa1</property>
    <property name="shotcut:caption">2021-02-03 09-50-10.mkv</property>
    <filter id="filter435" in="00:32:43.967" out="00:32:48.683">
      <property name="window">75</property>
      <property name="max_gain">20dB</property>
      <property name="level">12</property>
      <property name="mlt_service">volume</property>
    </filter>
  </producer>
  <producer id="producer441" in="00:00:00.000" out="00:50:55.017">
    <property name="length">00:50:55.033</property>
    <property name="eof">pause</property>
    <property name="resource">C:/Users/Sahid/Videos/QGIS Basic/6_Layouting/2021-02-03 09-50-10.mkv</property>
    <property name="audio_index">1</property>
    <property name="video_index">0</property>
    <property name="mute_on_pause">0</property>
    <property name="mlt_service">avformat-novalidate</property>
    <property name="seekable">1</property>
    <property name="aspect_ratio">1</property>
    <property name="creation_time">2021-02-03T03:41:06</property>
    <property name="global_feed">1</property>
    <property name="xml">was here</property>
    <property name="shotcut:hash">8e392e48be4935f7d753048eef069fa1</property>
    <property name="shotcut:caption">2021-02-03 09-50-10.mkv</property>
    <filter id="filter436" in="00:32:50.783" out="00:32:55.767">
      <property name="window">75</property>
      <property name="max_gain">20dB</property>
      <property name="level">12</property>
      <property name="mlt_service">volume</property>
    </filter>
  </producer>
  <producer id="producer442" in="00:00:00.000" out="00:50:55.017">
    <property name="length">00:50:55.033</property>
    <property name="eof">pause</property>
    <property name="resource">C:/Users/Sahid/Videos/QGIS Basic/6_Layouting/2021-02-03 09-50-10.mkv</property>
    <property name="audio_index">1</property>
    <property name="video_index">0</property>
    <property name="mute_on_pause">0</property>
    <property name="mlt_service">avformat-novalidate</property>
    <property name="seekable">1</property>
    <property name="aspect_ratio">1</property>
    <property name="creation_time">2021-02-03T03:41:06</property>
    <property name="global_feed">1</property>
    <property name="xml">was here</property>
    <property name="shotcut:hash">8e392e48be4935f7d753048eef069fa1</property>
    <property name="shotcut:caption">2021-02-03 09-50-10.mkv</property>
    <filter id="filter437" in="00:32:57.117" out="00:33:00.833">
      <property name="window">75</property>
      <property name="max_gain">20dB</property>
      <property name="level">12</property>
      <property name="mlt_service">volume</property>
    </filter>
  </producer>
  <producer id="producer443" in="00:00:00.000" out="00:50:55.017">
    <property name="length">00:50:55.033</property>
    <property name="eof">pause</property>
    <property name="resource">C:/Users/Sahid/Videos/QGIS Basic/6_Layouting/2021-02-03 09-50-10.mkv</property>
    <property name="audio_index">1</property>
    <property name="video_index">0</property>
    <property name="mute_on_pause">0</property>
    <property name="mlt_service">avformat-novalidate</property>
    <property name="seekable">1</property>
    <property name="aspect_ratio">1</property>
    <property name="creation_time">2021-02-03T03:41:06</property>
    <property name="global_feed">1</property>
    <property name="xml">was here</property>
    <property name="shotcut:hash">8e392e48be4935f7d753048eef069fa1</property>
    <property name="shotcut:caption">2021-02-03 09-50-10.mkv</property>
    <filter id="filter438" in="00:33:01.017" out="00:33:01.483">
      <property name="window">75</property>
      <property name="max_gain">20dB</property>
      <property name="level">12</property>
      <property name="mlt_service">volume</property>
    </filter>
  </producer>
  <producer id="producer444" in="00:00:00.000" out="00:50:55.017">
    <property name="length">00:50:55.033</property>
    <property name="eof">pause</property>
    <property name="resource">C:/Users/Sahid/Videos/QGIS Basic/6_Layouting/2021-02-03 09-50-10.mkv</property>
    <property name="audio_index">1</property>
    <property name="video_index">0</property>
    <property name="mute_on_pause">0</property>
    <property name="mlt_service">avformat-novalidate</property>
    <property name="seekable">1</property>
    <property name="aspect_ratio">1</property>
    <property name="creation_time">2021-02-03T03:41:06</property>
    <property name="global_feed">1</property>
    <property name="xml">was here</property>
    <property name="shotcut:hash">8e392e48be4935f7d753048eef069fa1</property>
    <property name="shotcut:caption">2021-02-03 09-50-10.mkv</property>
    <filter id="filter439" in="00:33:01.900" out="00:33:06.533">
      <property name="window">75</property>
      <property name="max_gain">20dB</property>
      <property name="level">12</property>
      <property name="mlt_service">volume</property>
    </filter>
  </producer>
  <producer id="producer445" in="00:00:00.000" out="00:50:55.017">
    <property name="length">00:50:55.033</property>
    <property name="eof">pause</property>
    <property name="resource">C:/Users/Sahid/Videos/QGIS Basic/6_Layouting/2021-02-03 09-50-10.mkv</property>
    <property name="audio_index">1</property>
    <property name="video_index">0</property>
    <property name="mute_on_pause">0</property>
    <property name="mlt_service">avformat-novalidate</property>
    <property name="seekable">1</property>
    <property name="aspect_ratio">1</property>
    <property name="creation_time">2021-02-03T03:41:06</property>
    <property name="global_feed">1</property>
    <property name="xml">was here</property>
    <property name="shotcut:hash">8e392e48be4935f7d753048eef069fa1</property>
    <property name="shotcut:caption">2021-02-03 09-50-10.mkv</property>
    <filter id="filter440" in="00:33:09.967" out="00:33:16.250">
      <property name="window">75</property>
      <property name="max_gain">20dB</property>
      <property name="level">12</property>
      <property name="mlt_service">volume</property>
    </filter>
  </producer>
  <producer id="producer446" in="00:00:00.000" out="00:50:55.017">
    <property name="length">00:50:55.033</property>
    <property name="eof">pause</property>
    <property name="resource">C:/Users/Sahid/Videos/QGIS Basic/6_Layouting/2021-02-03 09-50-10.mkv</property>
    <property name="audio_index">1</property>
    <property name="video_index">0</property>
    <property name="mute_on_pause">0</property>
    <property name="mlt_service">avformat-novalidate</property>
    <property name="seekable">1</property>
    <property name="aspect_ratio">1</property>
    <property name="creation_time">2021-02-03T03:41:06</property>
    <property name="global_feed">1</property>
    <property name="xml">was here</property>
    <property name="shotcut:hash">8e392e48be4935f7d753048eef069fa1</property>
    <property name="shotcut:caption">2021-02-03 09-50-10.mkv</property>
    <filter id="filter441" in="00:33:17.433" out="00:33:18.867">
      <property name="window">75</property>
      <property name="max_gain">20dB</property>
      <property name="level">12</property>
      <property name="mlt_service">volume</property>
    </filter>
  </producer>
  <producer id="producer447" in="00:00:00.000" out="00:50:55.017">
    <property name="length">00:50:55.033</property>
    <property name="eof">pause</property>
    <property name="resource">C:/Users/Sahid/Videos/QGIS Basic/6_Layouting/2021-02-03 09-50-10.mkv</property>
    <property name="audio_index">1</property>
    <property name="video_index">0</property>
    <property name="mute_on_pause">0</property>
    <property name="mlt_service">avformat-novalidate</property>
    <property name="seekable">1</property>
    <property name="aspect_ratio">1</property>
    <property name="creation_time">2021-02-03T03:41:06</property>
    <property name="global_feed">1</property>
    <property name="xml">was here</property>
    <property name="shotcut:hash">8e392e48be4935f7d753048eef069fa1</property>
    <property name="shotcut:caption">2021-02-03 09-50-10.mkv</property>
    <filter id="filter442" in="00:33:19.550" out="00:33:20.767">
      <property name="window">75</property>
      <property name="max_gain">20dB</property>
      <property name="level">12</property>
      <property name="mlt_service">volume</property>
    </filter>
  </producer>
  <producer id="producer448" in="00:00:00.000" out="00:50:55.017">
    <property name="length">00:50:55.033</property>
    <property name="eof">pause</property>
    <property name="resource">C:/Users/Sahid/Videos/QGIS Basic/6_Layouting/2021-02-03 09-50-10.mkv</property>
    <property name="audio_index">1</property>
    <property name="video_index">0</property>
    <property name="mute_on_pause">0</property>
    <property name="mlt_service">avformat-novalidate</property>
    <property name="seekable">1</property>
    <property name="aspect_ratio">1</property>
    <property name="creation_time">2021-02-03T03:41:06</property>
    <property name="global_feed">1</property>
    <property name="xml">was here</property>
    <property name="shotcut:hash">8e392e48be4935f7d753048eef069fa1</property>
    <property name="shotcut:caption">2021-02-03 09-50-10.mkv</property>
    <filter id="filter443" in="00:33:21.233" out="00:33:25.350">
      <property name="window">75</property>
      <property name="max_gain">20dB</property>
      <property name="level">12</property>
      <property name="mlt_service">volume</property>
    </filter>
  </producer>
  <producer id="producer449" in="00:00:00.000" out="00:50:55.017">
    <property name="length">00:50:55.033</property>
    <property name="eof">pause</property>
    <property name="resource">C:/Users/Sahid/Videos/QGIS Basic/6_Layouting/2021-02-03 09-50-10.mkv</property>
    <property name="audio_index">1</property>
    <property name="video_index">0</property>
    <property name="mute_on_pause">0</property>
    <property name="mlt_service">avformat-novalidate</property>
    <property name="seekable">1</property>
    <property name="aspect_ratio">1</property>
    <property name="creation_time">2021-02-03T03:41:06</property>
    <property name="global_feed">1</property>
    <property name="xml">was here</property>
    <property name="shotcut:hash">8e392e48be4935f7d753048eef069fa1</property>
    <property name="shotcut:caption">2021-02-03 09-50-10.mkv</property>
    <filter id="filter444" in="00:33:25.800" out="00:33:29.983">
      <property name="window">75</property>
      <property name="max_gain">20dB</property>
      <property name="level">12</property>
      <property name="mlt_service">volume</property>
    </filter>
  </producer>
  <producer id="producer450" in="00:00:00.000" out="00:50:55.017">
    <property name="length">00:50:55.033</property>
    <property name="eof">pause</property>
    <property name="resource">C:/Users/Sahid/Videos/QGIS Basic/6_Layouting/2021-02-03 09-50-10.mkv</property>
    <property name="audio_index">1</property>
    <property name="video_index">0</property>
    <property name="mute_on_pause">0</property>
    <property name="mlt_service">avformat-novalidate</property>
    <property name="seekable">1</property>
    <property name="aspect_ratio">1</property>
    <property name="creation_time">2021-02-03T03:41:06</property>
    <property name="global_feed">1</property>
    <property name="xml">was here</property>
    <property name="shotcut:hash">8e392e48be4935f7d753048eef069fa1</property>
    <property name="shotcut:caption">2021-02-03 09-50-10.mkv</property>
    <filter id="filter445" in="00:33:32.683" out="00:33:37.717">
      <property name="window">75</property>
      <property name="max_gain">20dB</property>
      <property name="level">12</property>
      <property name="mlt_service">volume</property>
    </filter>
  </producer>
  <producer id="producer451" in="00:00:00.000" out="00:50:55.017">
    <property name="length">00:50:55.033</property>
    <property name="eof">pause</property>
    <property name="resource">C:/Users/Sahid/Videos/QGIS Basic/6_Layouting/2021-02-03 09-50-10.mkv</property>
    <property name="audio_index">1</property>
    <property name="video_index">0</property>
    <property name="mute_on_pause">0</property>
    <property name="mlt_service">avformat-novalidate</property>
    <property name="seekable">1</property>
    <property name="aspect_ratio">1</property>
    <property name="creation_time">2021-02-03T03:41:06</property>
    <property name="global_feed">1</property>
    <property name="xml">was here</property>
    <property name="shotcut:hash">8e392e48be4935f7d753048eef069fa1</property>
    <property name="shotcut:caption">2021-02-03 09-50-10.mkv</property>
    <filter id="filter446" in="00:33:38.867" out="00:33:40.483">
      <property name="window">75</property>
      <property name="max_gain">20dB</property>
      <property name="level">12</property>
      <property name="mlt_service">volume</property>
    </filter>
  </producer>
  <producer id="producer452" in="00:00:00.000" out="00:50:55.017">
    <property name="length">00:50:55.033</property>
    <property name="eof">pause</property>
    <property name="resource">C:/Users/Sahid/Videos/QGIS Basic/6_Layouting/2021-02-03 09-50-10.mkv</property>
    <property name="audio_index">1</property>
    <property name="video_index">0</property>
    <property name="mute_on_pause">0</property>
    <property name="mlt_service">avformat-novalidate</property>
    <property name="seekable">1</property>
    <property name="aspect_ratio">1</property>
    <property name="creation_time">2021-02-03T03:41:06</property>
    <property name="global_feed">1</property>
    <property name="xml">was here</property>
    <property name="shotcut:hash">8e392e48be4935f7d753048eef069fa1</property>
    <property name="shotcut:caption">2021-02-03 09-50-10.mkv</property>
    <filter id="filter447" in="00:33:41.050" out="00:33:45.500">
      <property name="window">75</property>
      <property name="max_gain">20dB</property>
      <property name="level">12</property>
      <property name="mlt_service">volume</property>
    </filter>
  </producer>
  <producer id="producer453" in="00:00:00.000" out="00:50:55.017">
    <property name="length">00:50:55.033</property>
    <property name="eof">pause</property>
    <property name="resource">C:/Users/Sahid/Videos/QGIS Basic/6_Layouting/2021-02-03 09-50-10.mkv</property>
    <property name="audio_index">1</property>
    <property name="video_index">0</property>
    <property name="mute_on_pause">0</property>
    <property name="mlt_service">avformat-novalidate</property>
    <property name="seekable">1</property>
    <property name="aspect_ratio">1</property>
    <property name="creation_time">2021-02-03T03:41:06</property>
    <property name="global_feed">1</property>
    <property name="xml">was here</property>
    <property name="shotcut:hash">8e392e48be4935f7d753048eef069fa1</property>
    <property name="shotcut:caption">2021-02-03 09-50-10.mkv</property>
    <filter id="filter448" in="00:33:46.033" out="00:33:47.250">
      <property name="window">75</property>
      <property name="max_gain">20dB</property>
      <property name="level">12</property>
      <property name="mlt_service">volume</property>
    </filter>
  </producer>
  <producer id="producer454" in="00:00:00.000" out="00:50:55.017">
    <property name="length">00:50:55.033</property>
    <property name="eof">pause</property>
    <property name="resource">C:/Users/Sahid/Videos/QGIS Basic/6_Layouting/2021-02-03 09-50-10.mkv</property>
    <property name="audio_index">1</property>
    <property name="video_index">0</property>
    <property name="mute_on_pause">0</property>
    <property name="mlt_service">avformat-novalidate</property>
    <property name="seekable">1</property>
    <property name="aspect_ratio">1</property>
    <property name="creation_time">2021-02-03T03:41:06</property>
    <property name="global_feed">1</property>
    <property name="xml">was here</property>
    <property name="shotcut:hash">8e392e48be4935f7d753048eef069fa1</property>
    <property name="shotcut:caption">2021-02-03 09-50-10.mkv</property>
    <filter id="filter449" in="00:33:48.183" out="00:33:52.583">
      <property name="window">75</property>
      <property name="max_gain">20dB</property>
      <property name="level">12</property>
      <property name="mlt_service">volume</property>
    </filter>
  </producer>
  <producer id="producer455" in="00:00:00.000" out="00:50:55.017">
    <property name="length">00:50:55.033</property>
    <property name="eof">pause</property>
    <property name="resource">C:/Users/Sahid/Videos/QGIS Basic/6_Layouting/2021-02-03 09-50-10.mkv</property>
    <property name="audio_index">1</property>
    <property name="video_index">0</property>
    <property name="mute_on_pause">0</property>
    <property name="mlt_service">avformat-novalidate</property>
    <property name="seekable">1</property>
    <property name="aspect_ratio">1</property>
    <property name="creation_time">2021-02-03T03:41:06</property>
    <property name="global_feed">1</property>
    <property name="xml">was here</property>
    <property name="shotcut:hash">8e392e48be4935f7d753048eef069fa1</property>
    <property name="shotcut:caption">2021-02-03 09-50-10.mkv</property>
    <filter id="filter450" in="00:33:53.233" out="00:33:56.017">
      <property name="window">75</property>
      <property name="max_gain">20dB</property>
      <property name="level">12</property>
      <property name="mlt_service">volume</property>
    </filter>
  </producer>
  <producer id="producer456" in="00:00:00.000" out="00:50:55.017">
    <property name="length">00:50:55.033</property>
    <property name="eof">pause</property>
    <property name="resource">C:/Users/Sahid/Videos/QGIS Basic/6_Layouting/2021-02-03 09-50-10.mkv</property>
    <property name="audio_index">1</property>
    <property name="video_index">0</property>
    <property name="mute_on_pause">0</property>
    <property name="mlt_service">avformat-novalidate</property>
    <property name="seekable">1</property>
    <property name="aspect_ratio">1</property>
    <property name="creation_time">2021-02-03T03:41:06</property>
    <property name="global_feed">1</property>
    <property name="xml">was here</property>
    <property name="shotcut:hash">8e392e48be4935f7d753048eef069fa1</property>
    <property name="shotcut:caption">2021-02-03 09-50-10.mkv</property>
    <filter id="filter451" in="00:33:56.583" out="00:33:59.867">
      <property name="window">75</property>
      <property name="max_gain">20dB</property>
      <property name="level">12</property>
      <property name="mlt_service">volume</property>
    </filter>
  </producer>
  <producer id="producer457" in="00:00:00.000" out="00:50:55.017">
    <property name="length">00:50:55.033</property>
    <property name="eof">pause</property>
    <property name="resource">C:/Users/Sahid/Videos/QGIS Basic/6_Layouting/2021-02-03 09-50-10.mkv</property>
    <property name="audio_index">1</property>
    <property name="video_index">0</property>
    <property name="mute_on_pause">0</property>
    <property name="mlt_service">avformat-novalidate</property>
    <property name="seekable">1</property>
    <property name="aspect_ratio">1</property>
    <property name="creation_time">2021-02-03T03:41:06</property>
    <property name="global_feed">1</property>
    <property name="xml">was here</property>
    <property name="shotcut:hash">8e392e48be4935f7d753048eef069fa1</property>
    <property name="shotcut:caption">2021-02-03 09-50-10.mkv</property>
    <filter id="filter452" in="00:34:00.550" out="00:34:04.850">
      <property name="window">75</property>
      <property name="max_gain">20dB</property>
      <property name="level">12</property>
      <property name="mlt_service">volume</property>
    </filter>
  </producer>
  <producer id="producer458" in="00:00:00.000" out="00:50:55.017">
    <property name="length">00:50:55.033</property>
    <property name="eof">pause</property>
    <property name="resource">C:/Users/Sahid/Videos/QGIS Basic/6_Layouting/2021-02-03 09-50-10.mkv</property>
    <property name="audio_index">1</property>
    <property name="video_index">0</property>
    <property name="mute_on_pause">0</property>
    <property name="mlt_service">avformat-novalidate</property>
    <property name="seekable">1</property>
    <property name="aspect_ratio">1</property>
    <property name="creation_time">2021-02-03T03:41:06</property>
    <property name="global_feed">1</property>
    <property name="xml">was here</property>
    <property name="shotcut:hash">8e392e48be4935f7d753048eef069fa1</property>
    <property name="shotcut:caption">2021-02-03 09-50-10.mkv</property>
    <filter id="filter453" in="00:34:09.150" out="00:34:12.267">
      <property name="window">75</property>
      <property name="max_gain">20dB</property>
      <property name="level">12</property>
      <property name="mlt_service">volume</property>
    </filter>
  </producer>
  <producer id="producer459" in="00:00:00.000" out="00:50:55.017">
    <property name="length">00:50:55.033</property>
    <property name="eof">pause</property>
    <property name="resource">C:/Users/Sahid/Videos/QGIS Basic/6_Layouting/2021-02-03 09-50-10.mkv</property>
    <property name="audio_index">1</property>
    <property name="video_index">0</property>
    <property name="mute_on_pause">0</property>
    <property name="mlt_service">avformat-novalidate</property>
    <property name="seekable">1</property>
    <property name="aspect_ratio">1</property>
    <property name="creation_time">2021-02-03T03:41:06</property>
    <property name="global_feed">1</property>
    <property name="xml">was here</property>
    <property name="shotcut:hash">8e392e48be4935f7d753048eef069fa1</property>
    <property name="shotcut:caption">2021-02-03 09-50-10.mkv</property>
    <filter id="filter454" in="00:34:30.717" out="00:34:33.617">
      <property name="window">75</property>
      <property name="max_gain">20dB</property>
      <property name="level">12</property>
      <property name="mlt_service">volume</property>
    </filter>
  </producer>
  <producer id="producer460" in="00:00:00.000" out="00:50:55.017">
    <property name="length">00:50:55.033</property>
    <property name="eof">pause</property>
    <property name="resource">C:/Users/Sahid/Videos/QGIS Basic/6_Layouting/2021-02-03 09-50-10.mkv</property>
    <property name="audio_index">1</property>
    <property name="video_index">0</property>
    <property name="mute_on_pause">0</property>
    <property name="mlt_service">avformat-novalidate</property>
    <property name="seekable">1</property>
    <property name="aspect_ratio">1</property>
    <property name="creation_time">2021-02-03T03:41:06</property>
    <property name="global_feed">1</property>
    <property name="xml">was here</property>
    <property name="shotcut:hash">8e392e48be4935f7d753048eef069fa1</property>
    <property name="shotcut:caption">2021-02-03 09-50-10.mkv</property>
    <filter id="filter455" in="00:34:34.133" out="00:34:39.050">
      <property name="window">75</property>
      <property name="max_gain">20dB</property>
      <property name="level">12</property>
      <property name="mlt_service">volume</property>
    </filter>
  </producer>
  <producer id="producer461" in="00:00:00.000" out="00:50:55.017">
    <property name="length">00:50:55.033</property>
    <property name="eof">pause</property>
    <property name="resource">C:/Users/Sahid/Videos/QGIS Basic/6_Layouting/2021-02-03 09-50-10.mkv</property>
    <property name="audio_index">1</property>
    <property name="video_index">0</property>
    <property name="mute_on_pause">0</property>
    <property name="mlt_service">avformat-novalidate</property>
    <property name="seekable">1</property>
    <property name="aspect_ratio">1</property>
    <property name="creation_time">2021-02-03T03:41:06</property>
    <property name="global_feed">1</property>
    <property name="xml">was here</property>
    <property name="shotcut:hash">8e392e48be4935f7d753048eef069fa1</property>
    <property name="shotcut:caption">2021-02-03 09-50-10.mkv</property>
    <filter id="filter456" in="00:34:39.800" out="00:34:41.467">
      <property name="window">75</property>
      <property name="max_gain">20dB</property>
      <property name="level">12</property>
      <property name="mlt_service">volume</property>
    </filter>
  </producer>
  <producer id="producer462" in="00:00:00.000" out="00:50:55.017">
    <property name="length">00:50:55.033</property>
    <property name="eof">pause</property>
    <property name="resource">C:/Users/Sahid/Videos/QGIS Basic/6_Layouting/2021-02-03 09-50-10.mkv</property>
    <property name="audio_index">1</property>
    <property name="video_index">0</property>
    <property name="mute_on_pause">0</property>
    <property name="mlt_service">avformat-novalidate</property>
    <property name="seekable">1</property>
    <property name="aspect_ratio">1</property>
    <property name="creation_time">2021-02-03T03:41:06</property>
    <property name="global_feed">1</property>
    <property name="xml">was here</property>
    <property name="shotcut:hash">8e392e48be4935f7d753048eef069fa1</property>
    <property name="shotcut:caption">2021-02-03 09-50-10.mkv</property>
    <filter id="filter457" in="00:34:42.233" out="00:34:49.800">
      <property name="window">75</property>
      <property name="max_gain">20dB</property>
      <property name="level">12</property>
      <property name="mlt_service">volume</property>
    </filter>
  </producer>
  <producer id="producer463" in="00:00:00.000" out="00:50:55.017">
    <property name="length">00:50:55.033</property>
    <property name="eof">pause</property>
    <property name="resource">C:/Users/Sahid/Videos/QGIS Basic/6_Layouting/2021-02-03 09-50-10.mkv</property>
    <property name="audio_index">1</property>
    <property name="video_index">0</property>
    <property name="mute_on_pause">0</property>
    <property name="mlt_service">avformat-novalidate</property>
    <property name="seekable">1</property>
    <property name="aspect_ratio">1</property>
    <property name="creation_time">2021-02-03T03:41:06</property>
    <property name="global_feed">1</property>
    <property name="xml">was here</property>
    <property name="shotcut:hash">8e392e48be4935f7d753048eef069fa1</property>
    <property name="shotcut:caption">2021-02-03 09-50-10.mkv</property>
    <filter id="filter458" in="00:34:51.250" out="00:34:55.733">
      <property name="window">75</property>
      <property name="max_gain">20dB</property>
      <property name="level">12</property>
      <property name="mlt_service">volume</property>
    </filter>
  </producer>
  <producer id="producer464" in="00:00:00.000" out="00:50:55.017">
    <property name="length">00:50:55.033</property>
    <property name="eof">pause</property>
    <property name="resource">C:/Users/Sahid/Videos/QGIS Basic/6_Layouting/2021-02-03 09-50-10.mkv</property>
    <property name="audio_index">1</property>
    <property name="video_index">0</property>
    <property name="mute_on_pause">0</property>
    <property name="mlt_service">avformat-novalidate</property>
    <property name="seekable">1</property>
    <property name="aspect_ratio">1</property>
    <property name="creation_time">2021-02-03T03:41:06</property>
    <property name="global_feed">1</property>
    <property name="xml">was here</property>
    <property name="shotcut:hash">8e392e48be4935f7d753048eef069fa1</property>
    <property name="shotcut:caption">2021-02-03 09-50-10.mkv</property>
    <filter id="filter459" in="00:34:56.917" out="00:34:59.100">
      <property name="window">75</property>
      <property name="max_gain">20dB</property>
      <property name="level">12</property>
      <property name="mlt_service">volume</property>
    </filter>
  </producer>
  <producer id="producer465" in="00:00:00.000" out="00:50:55.017">
    <property name="length">00:50:55.033</property>
    <property name="eof">pause</property>
    <property name="resource">C:/Users/Sahid/Videos/QGIS Basic/6_Layouting/2021-02-03 09-50-10.mkv</property>
    <property name="audio_index">1</property>
    <property name="video_index">0</property>
    <property name="mute_on_pause">0</property>
    <property name="mlt_service">avformat-novalidate</property>
    <property name="seekable">1</property>
    <property name="aspect_ratio">1</property>
    <property name="creation_time">2021-02-03T03:41:06</property>
    <property name="global_feed">1</property>
    <property name="xml">was here</property>
    <property name="shotcut:hash">8e392e48be4935f7d753048eef069fa1</property>
    <property name="shotcut:caption">2021-02-03 09-50-10.mkv</property>
    <filter id="filter460" in="00:34:59.867" out="00:35:00.633">
      <property name="window">75</property>
      <property name="max_gain">20dB</property>
      <property name="level">12</property>
      <property name="mlt_service">volume</property>
    </filter>
  </producer>
  <producer id="producer466" in="00:00:00.000" out="00:50:55.017">
    <property name="length">00:50:55.033</property>
    <property name="eof">pause</property>
    <property name="resource">C:/Users/Sahid/Videos/QGIS Basic/6_Layouting/2021-02-03 09-50-10.mkv</property>
    <property name="audio_index">1</property>
    <property name="video_index">0</property>
    <property name="mute_on_pause">0</property>
    <property name="mlt_service">avformat-novalidate</property>
    <property name="seekable">1</property>
    <property name="aspect_ratio">1</property>
    <property name="creation_time">2021-02-03T03:41:06</property>
    <property name="global_feed">1</property>
    <property name="xml">was here</property>
    <property name="shotcut:hash">8e392e48be4935f7d753048eef069fa1</property>
    <property name="shotcut:caption">2021-02-03 09-50-10.mkv</property>
    <filter id="filter461" in="00:35:02.433" out="00:35:06.583">
      <property name="window">75</property>
      <property name="max_gain">20dB</property>
      <property name="level">12</property>
      <property name="mlt_service">volume</property>
    </filter>
  </producer>
  <producer id="producer467" in="00:00:00.000" out="00:50:55.017">
    <property name="length">00:50:55.033</property>
    <property name="eof">pause</property>
    <property name="resource">C:/Users/Sahid/Videos/QGIS Basic/6_Layouting/2021-02-03 09-50-10.mkv</property>
    <property name="audio_index">1</property>
    <property name="video_index">0</property>
    <property name="mute_on_pause">0</property>
    <property name="mlt_service">avformat-novalidate</property>
    <property name="seekable">1</property>
    <property name="aspect_ratio">1</property>
    <property name="creation_time">2021-02-03T03:41:06</property>
    <property name="global_feed">1</property>
    <property name="xml">was here</property>
    <property name="shotcut:hash">8e392e48be4935f7d753048eef069fa1</property>
    <property name="shotcut:caption">2021-02-03 09-50-10.mkv</property>
    <filter id="filter462" in="00:35:06.600" out="00:35:08.083">
      <property name="window">75</property>
      <property name="max_gain">20dB</property>
      <property name="level">12</property>
      <property name="mlt_service">volume</property>
    </filter>
  </producer>
  <producer id="producer468" in="00:00:00.000" out="00:50:55.017">
    <property name="length">00:50:55.033</property>
    <property name="eof">pause</property>
    <property name="resource">C:/Users/Sahid/Videos/QGIS Basic/6_Layouting/2021-02-03 09-50-10.mkv</property>
    <property name="audio_index">1</property>
    <property name="video_index">0</property>
    <property name="mute_on_pause">0</property>
    <property name="mlt_service">avformat-novalidate</property>
    <property name="seekable">1</property>
    <property name="aspect_ratio">1</property>
    <property name="creation_time">2021-02-03T03:41:06</property>
    <property name="global_feed">1</property>
    <property name="xml">was here</property>
    <property name="shotcut:hash">8e392e48be4935f7d753048eef069fa1</property>
    <property name="shotcut:caption">2021-02-03 09-50-10.mkv</property>
    <filter id="filter463" in="00:35:09.817" out="00:35:11.883">
      <property name="window">75</property>
      <property name="max_gain">20dB</property>
      <property name="level">12</property>
      <property name="mlt_service">volume</property>
    </filter>
  </producer>
  <producer id="producer469" in="00:00:00.000" out="00:50:55.017">
    <property name="length">00:50:55.033</property>
    <property name="eof">pause</property>
    <property name="resource">C:/Users/Sahid/Videos/QGIS Basic/6_Layouting/2021-02-03 09-50-10.mkv</property>
    <property name="audio_index">1</property>
    <property name="video_index">0</property>
    <property name="mute_on_pause">0</property>
    <property name="mlt_service">avformat-novalidate</property>
    <property name="seekable">1</property>
    <property name="aspect_ratio">1</property>
    <property name="creation_time">2021-02-03T03:41:06</property>
    <property name="global_feed">1</property>
    <property name="xml">was here</property>
    <property name="shotcut:hash">8e392e48be4935f7d753048eef069fa1</property>
    <property name="shotcut:caption">2021-02-03 09-50-10.mkv</property>
    <filter id="filter464" in="00:35:12.233" out="00:35:13.117">
      <property name="window">75</property>
      <property name="max_gain">20dB</property>
      <property name="level">12</property>
      <property name="mlt_service">volume</property>
    </filter>
  </producer>
  <producer id="producer470" in="00:00:00.000" out="00:50:55.017">
    <property name="length">00:50:55.033</property>
    <property name="eof">pause</property>
    <property name="resource">C:/Users/Sahid/Videos/QGIS Basic/6_Layouting/2021-02-03 09-50-10.mkv</property>
    <property name="audio_index">1</property>
    <property name="video_index">0</property>
    <property name="mute_on_pause">0</property>
    <property name="mlt_service">avformat-novalidate</property>
    <property name="seekable">1</property>
    <property name="aspect_ratio">1</property>
    <property name="creation_time">2021-02-03T03:41:06</property>
    <property name="global_feed">1</property>
    <property name="xml">was here</property>
    <property name="shotcut:hash">8e392e48be4935f7d753048eef069fa1</property>
    <property name="shotcut:caption">2021-02-03 09-50-10.mkv</property>
    <filter id="filter465" in="00:35:21.000" out="00:35:26.600">
      <property name="window">75</property>
      <property name="max_gain">20dB</property>
      <property name="level">12</property>
      <property name="mlt_service">volume</property>
    </filter>
  </producer>
  <producer id="producer471" in="00:00:00.000" out="00:50:55.017">
    <property name="length">00:50:55.033</property>
    <property name="eof">pause</property>
    <property name="resource">C:/Users/Sahid/Videos/QGIS Basic/6_Layouting/2021-02-03 09-50-10.mkv</property>
    <property name="audio_index">1</property>
    <property name="video_index">0</property>
    <property name="mute_on_pause">0</property>
    <property name="mlt_service">avformat-novalidate</property>
    <property name="seekable">1</property>
    <property name="aspect_ratio">1</property>
    <property name="creation_time">2021-02-03T03:41:06</property>
    <property name="global_feed">1</property>
    <property name="xml">was here</property>
    <property name="shotcut:hash">8e392e48be4935f7d753048eef069fa1</property>
    <property name="shotcut:caption">2021-02-03 09-50-10.mkv</property>
    <filter id="filter466" in="00:35:27.233" out="00:35:28.817">
      <property name="window">75</property>
      <property name="max_gain">20dB</property>
      <property name="level">12</property>
      <property name="mlt_service">volume</property>
    </filter>
  </producer>
  <producer id="producer472" in="00:00:00.000" out="00:50:55.017">
    <property name="length">00:50:55.033</property>
    <property name="eof">pause</property>
    <property name="resource">C:/Users/Sahid/Videos/QGIS Basic/6_Layouting/2021-02-03 09-50-10.mkv</property>
    <property name="audio_index">1</property>
    <property name="video_index">0</property>
    <property name="mute_on_pause">0</property>
    <property name="mlt_service">avformat-novalidate</property>
    <property name="seekable">1</property>
    <property name="aspect_ratio">1</property>
    <property name="creation_time">2021-02-03T03:41:06</property>
    <property name="global_feed">1</property>
    <property name="xml">was here</property>
    <property name="shotcut:hash">8e392e48be4935f7d753048eef069fa1</property>
    <property name="shotcut:caption">2021-02-03 09-50-10.mkv</property>
    <filter id="filter467" in="00:35:29.917" out="00:35:34.683">
      <property name="window">75</property>
      <property name="max_gain">20dB</property>
      <property name="level">12</property>
      <property name="mlt_service">volume</property>
    </filter>
  </producer>
  <producer id="producer473" in="00:00:00.000" out="00:50:55.017">
    <property name="length">00:50:55.033</property>
    <property name="eof">pause</property>
    <property name="resource">C:/Users/Sahid/Videos/QGIS Basic/6_Layouting/2021-02-03 09-50-10.mkv</property>
    <property name="audio_index">1</property>
    <property name="video_index">0</property>
    <property name="mute_on_pause">0</property>
    <property name="mlt_service">avformat-novalidate</property>
    <property name="seekable">1</property>
    <property name="aspect_ratio">1</property>
    <property name="creation_time">2021-02-03T03:41:06</property>
    <property name="global_feed">1</property>
    <property name="xml">was here</property>
    <property name="shotcut:hash">8e392e48be4935f7d753048eef069fa1</property>
    <property name="shotcut:caption">2021-02-03 09-50-10.mkv</property>
    <filter id="filter468" in="00:35:36.500" out="00:35:42.833">
      <property name="window">75</property>
      <property name="max_gain">20dB</property>
      <property name="level">12</property>
      <property name="mlt_service">volume</property>
    </filter>
  </producer>
  <producer id="producer474" in="00:00:00.000" out="00:50:55.017">
    <property name="length">00:50:55.033</property>
    <property name="eof">pause</property>
    <property name="resource">C:/Users/Sahid/Videos/QGIS Basic/6_Layouting/2021-02-03 09-50-10.mkv</property>
    <property name="audio_index">1</property>
    <property name="video_index">0</property>
    <property name="mute_on_pause">0</property>
    <property name="mlt_service">avformat-novalidate</property>
    <property name="seekable">1</property>
    <property name="aspect_ratio">1</property>
    <property name="creation_time">2021-02-03T03:41:06</property>
    <property name="global_feed">1</property>
    <property name="xml">was here</property>
    <property name="shotcut:hash">8e392e48be4935f7d753048eef069fa1</property>
    <property name="shotcut:caption">2021-02-03 09-50-10.mkv</property>
    <filter id="filter469" in="00:35:43.233" out="00:35:47.033">
      <property name="window">75</property>
      <property name="max_gain">20dB</property>
      <property name="level">12</property>
      <property name="mlt_service">volume</property>
    </filter>
  </producer>
  <producer id="producer475" in="00:00:00.000" out="00:50:55.017">
    <property name="length">00:50:55.033</property>
    <property name="eof">pause</property>
    <property name="resource">C:/Users/Sahid/Videos/QGIS Basic/6_Layouting/2021-02-03 09-50-10.mkv</property>
    <property name="audio_index">1</property>
    <property name="video_index">0</property>
    <property name="mute_on_pause">0</property>
    <property name="mlt_service">avformat-novalidate</property>
    <property name="seekable">1</property>
    <property name="aspect_ratio">1</property>
    <property name="creation_time">2021-02-03T03:41:06</property>
    <property name="global_feed">1</property>
    <property name="xml">was here</property>
    <property name="shotcut:hash">8e392e48be4935f7d753048eef069fa1</property>
    <property name="shotcut:caption">2021-02-03 09-50-10.mkv</property>
    <filter id="filter470" in="00:35:47.817" out="00:35:51.000">
      <property name="window">75</property>
      <property name="max_gain">20dB</property>
      <property name="level">12</property>
      <property name="mlt_service">volume</property>
    </filter>
  </producer>
  <producer id="producer476" in="00:00:00.000" out="00:50:55.017">
    <property name="length">00:50:55.033</property>
    <property name="eof">pause</property>
    <property name="resource">C:/Users/Sahid/Videos/QGIS Basic/6_Layouting/2021-02-03 09-50-10.mkv</property>
    <property name="audio_index">1</property>
    <property name="video_index">0</property>
    <property name="mute_on_pause">0</property>
    <property name="mlt_service">avformat-novalidate</property>
    <property name="seekable">1</property>
    <property name="aspect_ratio">1</property>
    <property name="creation_time">2021-02-03T03:41:06</property>
    <property name="global_feed">1</property>
    <property name="xml">was here</property>
    <property name="shotcut:hash">8e392e48be4935f7d753048eef069fa1</property>
    <property name="shotcut:caption">2021-02-03 09-50-10.mkv</property>
    <filter id="filter471" in="00:35:53.050" out="00:35:54.067">
      <property name="window">75</property>
      <property name="max_gain">20dB</property>
      <property name="level">12</property>
      <property name="mlt_service">volume</property>
    </filter>
  </producer>
  <producer id="producer478" in="00:00:00.000" out="00:50:55.017">
    <property name="length">00:50:55.033</property>
    <property name="eof">pause</property>
    <property name="resource">C:/Users/Sahid/Videos/QGIS Basic/6_Layouting/2021-02-03 09-50-10.mkv</property>
    <property name="audio_index">1</property>
    <property name="video_index">0</property>
    <property name="mute_on_pause">0</property>
    <property name="mlt_service">avformat-novalidate</property>
    <property name="seekable">1</property>
    <property name="aspect_ratio">1</property>
    <property name="creation_time">2021-02-03T03:41:06</property>
    <property name="global_feed">1</property>
    <property name="xml">was here</property>
    <property name="shotcut:hash">8e392e48be4935f7d753048eef069fa1</property>
    <property name="shotcut:caption">2021-02-03 09-50-10.mkv</property>
    <filter id="filter473" in="00:36:18.600" out="00:36:19.733">
      <property name="window">75</property>
      <property name="max_gain">20dB</property>
      <property name="level">12</property>
      <property name="mlt_service">volume</property>
    </filter>
  </producer>
  <producer id="producer479" in="00:00:00.000" out="00:50:55.017">
    <property name="length">00:50:55.033</property>
    <property name="eof">pause</property>
    <property name="resource">C:/Users/Sahid/Videos/QGIS Basic/6_Layouting/2021-02-03 09-50-10.mkv</property>
    <property name="audio_index">1</property>
    <property name="video_index">0</property>
    <property name="mute_on_pause">0</property>
    <property name="mlt_service">avformat-novalidate</property>
    <property name="seekable">1</property>
    <property name="aspect_ratio">1</property>
    <property name="creation_time">2021-02-03T03:41:06</property>
    <property name="global_feed">1</property>
    <property name="xml">was here</property>
    <property name="shotcut:hash">8e392e48be4935f7d753048eef069fa1</property>
    <property name="shotcut:caption">2021-02-03 09-50-10.mkv</property>
    <filter id="filter474" in="00:36:21.967" out="00:36:27.617">
      <property name="window">75</property>
      <property name="max_gain">20dB</property>
      <property name="level">12</property>
      <property name="mlt_service">volume</property>
    </filter>
  </producer>
  <producer id="producer480" in="00:00:00.000" out="00:50:55.017">
    <property name="length">00:50:55.033</property>
    <property name="eof">pause</property>
    <property name="resource">C:/Users/Sahid/Videos/QGIS Basic/6_Layouting/2021-02-03 09-50-10.mkv</property>
    <property name="audio_index">1</property>
    <property name="video_index">0</property>
    <property name="mute_on_pause">0</property>
    <property name="mlt_service">avformat-novalidate</property>
    <property name="seekable">1</property>
    <property name="aspect_ratio">1</property>
    <property name="creation_time">2021-02-03T03:41:06</property>
    <property name="global_feed">1</property>
    <property name="xml">was here</property>
    <property name="shotcut:hash">8e392e48be4935f7d753048eef069fa1</property>
    <property name="shotcut:caption">2021-02-03 09-50-10.mkv</property>
    <filter id="filter475" in="00:36:29.783" out="00:36:30.683">
      <property name="window">75</property>
      <property name="max_gain">20dB</property>
      <property name="level">12</property>
      <property name="mlt_service">volume</property>
    </filter>
  </producer>
  <producer id="producer481" in="00:00:00.000" out="00:50:55.017">
    <property name="length">00:50:55.033</property>
    <property name="eof">pause</property>
    <property name="resource">C:/Users/Sahid/Videos/QGIS Basic/6_Layouting/2021-02-03 09-50-10.mkv</property>
    <property name="audio_index">1</property>
    <property name="video_index">0</property>
    <property name="mute_on_pause">0</property>
    <property name="mlt_service">avformat-novalidate</property>
    <property name="seekable">1</property>
    <property name="aspect_ratio">1</property>
    <property name="creation_time">2021-02-03T03:41:06</property>
    <property name="global_feed">1</property>
    <property name="xml">was here</property>
    <property name="shotcut:hash">8e392e48be4935f7d753048eef069fa1</property>
    <property name="shotcut:caption">2021-02-03 09-50-10.mkv</property>
    <filter id="filter476" in="00:36:30.700" out="00:36:31.933">
      <property name="window">75</property>
      <property name="max_gain">20dB</property>
      <property name="level">12</property>
      <property name="mlt_service">volume</property>
    </filter>
  </producer>
  <producer id="producer482" in="00:00:00.000" out="00:50:55.017">
    <property name="length">00:50:55.033</property>
    <property name="eof">pause</property>
    <property name="resource">C:/Users/Sahid/Videos/QGIS Basic/6_Layouting/2021-02-03 09-50-10.mkv</property>
    <property name="audio_index">1</property>
    <property name="video_index">0</property>
    <property name="mute_on_pause">0</property>
    <property name="mlt_service">avformat-novalidate</property>
    <property name="seekable">1</property>
    <property name="aspect_ratio">1</property>
    <property name="creation_time">2021-02-03T03:41:06</property>
    <property name="global_feed">1</property>
    <property name="xml">was here</property>
    <property name="shotcut:hash">8e392e48be4935f7d753048eef069fa1</property>
    <property name="shotcut:caption">2021-02-03 09-50-10.mkv</property>
    <filter id="filter477" in="00:36:35.400" out="00:36:43.633">
      <property name="window">75</property>
      <property name="max_gain">20dB</property>
      <property name="level">12</property>
      <property name="mlt_service">volume</property>
    </filter>
  </producer>
  <producer id="producer483" in="00:00:00.000" out="00:50:55.017">
    <property name="length">00:50:55.033</property>
    <property name="eof">pause</property>
    <property name="resource">C:/Users/Sahid/Videos/QGIS Basic/6_Layouting/2021-02-03 09-50-10.mkv</property>
    <property name="audio_index">1</property>
    <property name="video_index">0</property>
    <property name="mute_on_pause">0</property>
    <property name="mlt_service">avformat-novalidate</property>
    <property name="seekable">1</property>
    <property name="aspect_ratio">1</property>
    <property name="creation_time">2021-02-03T03:41:06</property>
    <property name="global_feed">1</property>
    <property name="xml">was here</property>
    <property name="shotcut:hash">8e392e48be4935f7d753048eef069fa1</property>
    <property name="shotcut:caption">2021-02-03 09-50-10.mkv</property>
    <filter id="filter478" in="00:36:57.850" out="00:37:00.583">
      <property name="window">75</property>
      <property name="max_gain">20dB</property>
      <property name="level">12</property>
      <property name="mlt_service">volume</property>
    </filter>
  </producer>
  <producer id="producer484" in="00:00:00.000" out="00:50:55.017">
    <property name="length">00:50:55.033</property>
    <property name="eof">pause</property>
    <property name="resource">C:/Users/Sahid/Videos/QGIS Basic/6_Layouting/2021-02-03 09-50-10.mkv</property>
    <property name="audio_index">1</property>
    <property name="video_index">0</property>
    <property name="mute_on_pause">0</property>
    <property name="mlt_service">avformat-novalidate</property>
    <property name="seekable">1</property>
    <property name="aspect_ratio">1</property>
    <property name="creation_time">2021-02-03T03:41:06</property>
    <property name="global_feed">1</property>
    <property name="xml">was here</property>
    <property name="shotcut:hash">8e392e48be4935f7d753048eef069fa1</property>
    <property name="shotcut:caption">2021-02-03 09-50-10.mkv</property>
    <filter id="filter479" in="00:37:02.050" out="00:37:05.300">
      <property name="window">75</property>
      <property name="max_gain">20dB</property>
      <property name="level">12</property>
      <property name="mlt_service">volume</property>
    </filter>
  </producer>
  <producer id="producer485" in="00:00:00.000" out="00:50:55.017">
    <property name="length">00:50:55.033</property>
    <property name="eof">pause</property>
    <property name="resource">C:/Users/Sahid/Videos/QGIS Basic/6_Layouting/2021-02-03 09-50-10.mkv</property>
    <property name="audio_index">1</property>
    <property name="video_index">0</property>
    <property name="mute_on_pause">0</property>
    <property name="mlt_service">avformat-novalidate</property>
    <property name="seekable">1</property>
    <property name="aspect_ratio">1</property>
    <property name="creation_time">2021-02-03T03:41:06</property>
    <property name="global_feed">1</property>
    <property name="xml">was here</property>
    <property name="shotcut:hash">8e392e48be4935f7d753048eef069fa1</property>
    <property name="shotcut:caption">2021-02-03 09-50-10.mkv</property>
    <filter id="filter480" in="00:37:05.983" out="00:37:08.833">
      <property name="window">75</property>
      <property name="max_gain">20dB</property>
      <property name="level">12</property>
      <property name="mlt_service">volume</property>
    </filter>
  </producer>
  <producer id="producer486" in="00:00:00.000" out="00:50:55.017">
    <property name="length">00:50:55.033</property>
    <property name="eof">pause</property>
    <property name="resource">C:/Users/Sahid/Videos/QGIS Basic/6_Layouting/2021-02-03 09-50-10.mkv</property>
    <property name="audio_index">1</property>
    <property name="video_index">0</property>
    <property name="mute_on_pause">0</property>
    <property name="mlt_service">avformat-novalidate</property>
    <property name="seekable">1</property>
    <property name="aspect_ratio">1</property>
    <property name="creation_time">2021-02-03T03:41:06</property>
    <property name="global_feed">1</property>
    <property name="xml">was here</property>
    <property name="shotcut:hash">8e392e48be4935f7d753048eef069fa1</property>
    <property name="shotcut:caption">2021-02-03 09-50-10.mkv</property>
    <filter id="filter481" in="00:37:10.400" out="00:37:12.583">
      <property name="window">75</property>
      <property name="max_gain">20dB</property>
      <property name="level">12</property>
      <property name="mlt_service">volume</property>
    </filter>
  </producer>
  <producer id="producer487" in="00:00:00.000" out="00:50:55.017">
    <property name="length">00:50:55.033</property>
    <property name="eof">pause</property>
    <property name="resource">C:/Users/Sahid/Videos/QGIS Basic/6_Layouting/2021-02-03 09-50-10.mkv</property>
    <property name="audio_index">1</property>
    <property name="video_index">0</property>
    <property name="mute_on_pause">0</property>
    <property name="mlt_service">avformat-novalidate</property>
    <property name="seekable">1</property>
    <property name="aspect_ratio">1</property>
    <property name="creation_time">2021-02-03T03:41:06</property>
    <property name="global_feed">1</property>
    <property name="xml">was here</property>
    <property name="shotcut:hash">8e392e48be4935f7d753048eef069fa1</property>
    <property name="shotcut:caption">2021-02-03 09-50-10.mkv</property>
    <filter id="filter482" in="00:37:15.100" out="00:37:17.233">
      <property name="window">75</property>
      <property name="max_gain">20dB</property>
      <property name="level">12</property>
      <property name="mlt_service">volume</property>
    </filter>
  </producer>
  <producer id="producer488" in="00:00:00.000" out="00:50:55.017">
    <property name="length">00:50:55.033</property>
    <property name="eof">pause</property>
    <property name="resource">C:/Users/Sahid/Videos/QGIS Basic/6_Layouting/2021-02-03 09-50-10.mkv</property>
    <property name="audio_index">1</property>
    <property name="video_index">0</property>
    <property name="mute_on_pause">0</property>
    <property name="mlt_service">avformat-novalidate</property>
    <property name="seekable">1</property>
    <property name="aspect_ratio">1</property>
    <property name="creation_time">2021-02-03T03:41:06</property>
    <property name="global_feed">1</property>
    <property name="xml">was here</property>
    <property name="shotcut:hash">8e392e48be4935f7d753048eef069fa1</property>
    <property name="shotcut:caption">2021-02-03 09-50-10.mkv</property>
    <filter id="filter483" in="00:37:17.250" out="00:37:21.483">
      <property name="window">75</property>
      <property name="max_gain">20dB</property>
      <property name="level">12</property>
      <property name="mlt_service">volume</property>
    </filter>
  </producer>
  <producer id="producer489" in="00:00:00.000" out="00:50:55.017">
    <property name="length">00:50:55.033</property>
    <property name="eof">pause</property>
    <property name="resource">C:/Users/Sahid/Videos/QGIS Basic/6_Layouting/2021-02-03 09-50-10.mkv</property>
    <property name="audio_index">1</property>
    <property name="video_index">0</property>
    <property name="mute_on_pause">0</property>
    <property name="mlt_service">avformat-novalidate</property>
    <property name="seekable">1</property>
    <property name="aspect_ratio">1</property>
    <property name="creation_time">2021-02-03T03:41:06</property>
    <property name="global_feed">1</property>
    <property name="xml">was here</property>
    <property name="shotcut:hash">8e392e48be4935f7d753048eef069fa1</property>
    <property name="shotcut:caption">2021-02-03 09-50-10.mkv</property>
    <filter id="filter484" in="00:37:23.800" out="00:37:26.283">
      <property name="window">75</property>
      <property name="max_gain">20dB</property>
      <property name="level">12</property>
      <property name="mlt_service">volume</property>
    </filter>
  </producer>
  <producer id="producer490" in="00:00:00.000" out="00:50:55.017">
    <property name="length">00:50:55.033</property>
    <property name="eof">pause</property>
    <property name="resource">C:/Users/Sahid/Videos/QGIS Basic/6_Layouting/2021-02-03 09-50-10.mkv</property>
    <property name="audio_index">1</property>
    <property name="video_index">0</property>
    <property name="mute_on_pause">0</property>
    <property name="mlt_service">avformat-novalidate</property>
    <property name="seekable">1</property>
    <property name="aspect_ratio">1</property>
    <property name="creation_time">2021-02-03T03:41:06</property>
    <property name="global_feed">1</property>
    <property name="xml">was here</property>
    <property name="shotcut:hash">8e392e48be4935f7d753048eef069fa1</property>
    <property name="shotcut:caption">2021-02-03 09-50-10.mkv</property>
    <filter id="filter485" in="00:37:28.333" out="00:37:29.167">
      <property name="window">75</property>
      <property name="max_gain">20dB</property>
      <property name="level">12</property>
      <property name="mlt_service">volume</property>
    </filter>
  </producer>
  <producer id="producer491" in="00:00:00.000" out="00:50:55.017">
    <property name="length">00:50:55.033</property>
    <property name="eof">pause</property>
    <property name="resource">C:/Users/Sahid/Videos/QGIS Basic/6_Layouting/2021-02-03 09-50-10.mkv</property>
    <property name="audio_index">1</property>
    <property name="video_index">0</property>
    <property name="mute_on_pause">0</property>
    <property name="mlt_service">avformat-novalidate</property>
    <property name="seekable">1</property>
    <property name="aspect_ratio">1</property>
    <property name="creation_time">2021-02-03T03:41:06</property>
    <property name="global_feed">1</property>
    <property name="xml">was here</property>
    <property name="shotcut:hash">8e392e48be4935f7d753048eef069fa1</property>
    <property name="shotcut:caption">2021-02-03 09-50-10.mkv</property>
    <filter id="filter486" in="00:37:30.717" out="00:37:32.383">
      <property name="window">75</property>
      <property name="max_gain">20dB</property>
      <property name="level">12</property>
      <property name="mlt_service">volume</property>
    </filter>
  </producer>
  <producer id="producer492" in="00:00:00.000" out="00:50:55.017">
    <property name="length">00:50:55.033</property>
    <property name="eof">pause</property>
    <property name="resource">C:/Users/Sahid/Videos/QGIS Basic/6_Layouting/2021-02-03 09-50-10.mkv</property>
    <property name="audio_index">1</property>
    <property name="video_index">0</property>
    <property name="mute_on_pause">0</property>
    <property name="mlt_service">avformat-novalidate</property>
    <property name="seekable">1</property>
    <property name="aspect_ratio">1</property>
    <property name="creation_time">2021-02-03T03:41:06</property>
    <property name="global_feed">1</property>
    <property name="xml">was here</property>
    <property name="shotcut:hash">8e392e48be4935f7d753048eef069fa1</property>
    <property name="shotcut:caption">2021-02-03 09-50-10.mkv</property>
    <filter id="filter487" in="00:37:50.283" out="00:37:53.700">
      <property name="window">75</property>
      <property name="max_gain">20dB</property>
      <property name="level">12</property>
      <property name="mlt_service">volume</property>
    </filter>
  </producer>
  <producer id="producer493" in="00:00:00.000" out="00:50:55.017">
    <property name="length">00:50:55.033</property>
    <property name="eof">pause</property>
    <property name="resource">C:/Users/Sahid/Videos/QGIS Basic/6_Layouting/2021-02-03 09-50-10.mkv</property>
    <property name="audio_index">1</property>
    <property name="video_index">0</property>
    <property name="mute_on_pause">0</property>
    <property name="mlt_service">avformat-novalidate</property>
    <property name="seekable">1</property>
    <property name="aspect_ratio">1</property>
    <property name="creation_time">2021-02-03T03:41:06</property>
    <property name="global_feed">1</property>
    <property name="xml">was here</property>
    <property name="shotcut:hash">8e392e48be4935f7d753048eef069fa1</property>
    <property name="shotcut:caption">2021-02-03 09-50-10.mkv</property>
    <filter id="filter488" in="00:37:56.433" out="00:37:59.800">
      <property name="window">75</property>
      <property name="max_gain">20dB</property>
      <property name="level">12</property>
      <property name="mlt_service">volume</property>
    </filter>
  </producer>
  <producer id="producer494" in="00:00:00.000" out="00:50:55.017">
    <property name="length">00:50:55.033</property>
    <property name="eof">pause</property>
    <property name="resource">C:/Users/Sahid/Videos/QGIS Basic/6_Layouting/2021-02-03 09-50-10.mkv</property>
    <property name="audio_index">1</property>
    <property name="video_index">0</property>
    <property name="mute_on_pause">0</property>
    <property name="mlt_service">avformat-novalidate</property>
    <property name="seekable">1</property>
    <property name="aspect_ratio">1</property>
    <property name="creation_time">2021-02-03T03:41:06</property>
    <property name="global_feed">1</property>
    <property name="xml">was here</property>
    <property name="shotcut:hash">8e392e48be4935f7d753048eef069fa1</property>
    <property name="shotcut:caption">2021-02-03 09-50-10.mkv</property>
    <filter id="filter489" in="00:38:02.367" out="00:38:12.817">
      <property name="window">75</property>
      <property name="max_gain">20dB</property>
      <property name="level">12</property>
      <property name="mlt_service">volume</property>
    </filter>
  </producer>
  <producer id="producer495" in="00:00:00.000" out="00:50:55.017">
    <property name="length">00:50:55.033</property>
    <property name="eof">pause</property>
    <property name="resource">C:/Users/Sahid/Videos/QGIS Basic/6_Layouting/2021-02-03 09-50-10.mkv</property>
    <property name="audio_index">1</property>
    <property name="video_index">0</property>
    <property name="mute_on_pause">0</property>
    <property name="mlt_service">avformat-novalidate</property>
    <property name="seekable">1</property>
    <property name="aspect_ratio">1</property>
    <property name="creation_time">2021-02-03T03:41:06</property>
    <property name="global_feed">1</property>
    <property name="xml">was here</property>
    <property name="shotcut:hash">8e392e48be4935f7d753048eef069fa1</property>
    <property name="shotcut:caption">2021-02-03 09-50-10.mkv</property>
    <filter id="filter490" in="00:38:16.317" out="00:38:18.483">
      <property name="window">75</property>
      <property name="max_gain">20dB</property>
      <property name="level">12</property>
      <property name="mlt_service">volume</property>
    </filter>
  </producer>
  <producer id="producer496" in="00:00:00.000" out="00:50:55.017">
    <property name="length">00:50:55.033</property>
    <property name="eof">pause</property>
    <property name="resource">C:/Users/Sahid/Videos/QGIS Basic/6_Layouting/2021-02-03 09-50-10.mkv</property>
    <property name="audio_index">1</property>
    <property name="video_index">0</property>
    <property name="mute_on_pause">0</property>
    <property name="mlt_service">avformat-novalidate</property>
    <property name="seekable">1</property>
    <property name="aspect_ratio">1</property>
    <property name="creation_time">2021-02-03T03:41:06</property>
    <property name="global_feed">1</property>
    <property name="xml">was here</property>
    <property name="shotcut:hash">8e392e48be4935f7d753048eef069fa1</property>
    <property name="shotcut:caption">2021-02-03 09-50-10.mkv</property>
    <filter id="filter491" in="00:38:19.967" out="00:38:26.517">
      <property name="window">75</property>
      <property name="max_gain">20dB</property>
      <property name="level">12</property>
      <property name="mlt_service">volume</property>
    </filter>
  </producer>
  <producer id="producer497" in="00:00:00.000" out="00:50:55.017">
    <property name="length">00:50:55.033</property>
    <property name="eof">pause</property>
    <property name="resource">C:/Users/Sahid/Videos/QGIS Basic/6_Layouting/2021-02-03 09-50-10.mkv</property>
    <property name="audio_index">1</property>
    <property name="video_index">0</property>
    <property name="mute_on_pause">0</property>
    <property name="mlt_service">avformat-novalidate</property>
    <property name="seekable">1</property>
    <property name="aspect_ratio">1</property>
    <property name="creation_time">2021-02-03T03:41:06</property>
    <property name="global_feed">1</property>
    <property name="xml">was here</property>
    <property name="shotcut:hash">8e392e48be4935f7d753048eef069fa1</property>
    <property name="shotcut:caption">2021-02-03 09-50-10.mkv</property>
    <filter id="filter492" in="00:38:27.283" out="00:38:29.383">
      <property name="window">75</property>
      <property name="max_gain">20dB</property>
      <property name="level">12</property>
      <property name="mlt_service">volume</property>
    </filter>
  </producer>
  <producer id="producer498" in="00:00:00.000" out="00:50:55.017">
    <property name="length">00:50:55.033</property>
    <property name="eof">pause</property>
    <property name="resource">C:/Users/Sahid/Videos/QGIS Basic/6_Layouting/2021-02-03 09-50-10.mkv</property>
    <property name="audio_index">1</property>
    <property name="video_index">0</property>
    <property name="mute_on_pause">0</property>
    <property name="mlt_service">avformat-novalidate</property>
    <property name="seekable">1</property>
    <property name="aspect_ratio">1</property>
    <property name="creation_time">2021-02-03T03:41:06</property>
    <property name="global_feed">1</property>
    <property name="xml">was here</property>
    <property name="shotcut:hash">8e392e48be4935f7d753048eef069fa1</property>
    <property name="shotcut:caption">2021-02-03 09-50-10.mkv</property>
    <filter id="filter493" in="00:38:50.067" out="00:38:55.967">
      <property name="window">75</property>
      <property name="max_gain">20dB</property>
      <property name="level">12</property>
      <property name="mlt_service">volume</property>
    </filter>
  </producer>
  <producer id="producer499" in="00:00:00.000" out="00:50:55.017">
    <property name="length">00:50:55.033</property>
    <property name="eof">pause</property>
    <property name="resource">C:/Users/Sahid/Videos/QGIS Basic/6_Layouting/2021-02-03 09-50-10.mkv</property>
    <property name="audio_index">1</property>
    <property name="video_index">0</property>
    <property name="mute_on_pause">0</property>
    <property name="mlt_service">avformat-novalidate</property>
    <property name="seekable">1</property>
    <property name="aspect_ratio">1</property>
    <property name="creation_time">2021-02-03T03:41:06</property>
    <property name="global_feed">1</property>
    <property name="xml">was here</property>
    <property name="shotcut:hash">8e392e48be4935f7d753048eef069fa1</property>
    <property name="shotcut:caption">2021-02-03 09-50-10.mkv</property>
    <filter id="filter494" in="00:39:06.533" out="00:39:12.250">
      <property name="window">75</property>
      <property name="max_gain">20dB</property>
      <property name="level">12</property>
      <property name="mlt_service">volume</property>
    </filter>
  </producer>
  <producer id="producer500" in="00:00:00.000" out="00:50:55.017">
    <property name="length">00:50:55.033</property>
    <property name="eof">pause</property>
    <property name="resource">C:/Users/Sahid/Videos/QGIS Basic/6_Layouting/2021-02-03 09-50-10.mkv</property>
    <property name="audio_index">1</property>
    <property name="video_index">0</property>
    <property name="mute_on_pause">0</property>
    <property name="mlt_service">avformat-novalidate</property>
    <property name="seekable">1</property>
    <property name="aspect_ratio">1</property>
    <property name="creation_time">2021-02-03T03:41:06</property>
    <property name="global_feed">1</property>
    <property name="xml">was here</property>
    <property name="shotcut:hash">8e392e48be4935f7d753048eef069fa1</property>
    <property name="shotcut:caption">2021-02-03 09-50-10.mkv</property>
    <filter id="filter495" in="00:39:15.250" out="00:39:21.067">
      <property name="window">75</property>
      <property name="max_gain">20dB</property>
      <property name="level">12</property>
      <property name="mlt_service">volume</property>
    </filter>
  </producer>
  <producer id="producer501" in="00:00:00.000" out="00:50:55.017">
    <property name="length">00:50:55.033</property>
    <property name="eof">pause</property>
    <property name="resource">C:/Users/Sahid/Videos/QGIS Basic/6_Layouting/2021-02-03 09-50-10.mkv</property>
    <property name="audio_index">1</property>
    <property name="video_index">0</property>
    <property name="mute_on_pause">0</property>
    <property name="mlt_service">avformat-novalidate</property>
    <property name="seekable">1</property>
    <property name="aspect_ratio">1</property>
    <property name="creation_time">2021-02-03T03:41:06</property>
    <property name="global_feed">1</property>
    <property name="xml">was here</property>
    <property name="shotcut:hash">8e392e48be4935f7d753048eef069fa1</property>
    <property name="shotcut:caption">2021-02-03 09-50-10.mkv</property>
    <filter id="filter496" in="00:39:22.167" out="00:39:23.333">
      <property name="window">75</property>
      <property name="max_gain">20dB</property>
      <property name="level">12</property>
      <property name="mlt_service">volume</property>
    </filter>
  </producer>
  <producer id="producer502" in="00:00:00.000" out="00:50:55.017">
    <property name="length">00:50:55.033</property>
    <property name="eof">pause</property>
    <property name="resource">C:/Users/Sahid/Videos/QGIS Basic/6_Layouting/2021-02-03 09-50-10.mkv</property>
    <property name="audio_index">1</property>
    <property name="video_index">0</property>
    <property name="mute_on_pause">0</property>
    <property name="mlt_service">avformat-novalidate</property>
    <property name="seekable">1</property>
    <property name="aspect_ratio">1</property>
    <property name="creation_time">2021-02-03T03:41:06</property>
    <property name="global_feed">1</property>
    <property name="xml">was here</property>
    <property name="shotcut:hash">8e392e48be4935f7d753048eef069fa1</property>
    <property name="shotcut:caption">2021-02-03 09-50-10.mkv</property>
    <filter id="filter497" in="00:39:24.733" out="00:39:27.700">
      <property name="window">75</property>
      <property name="max_gain">20dB</property>
      <property name="level">12</property>
      <property name="mlt_service">volume</property>
    </filter>
  </producer>
  <producer id="producer503" in="00:00:00.000" out="00:50:55.017">
    <property name="length">00:50:55.033</property>
    <property name="eof">pause</property>
    <property name="resource">C:/Users/Sahid/Videos/QGIS Basic/6_Layouting/2021-02-03 09-50-10.mkv</property>
    <property name="audio_index">1</property>
    <property name="video_index">0</property>
    <property name="mute_on_pause">0</property>
    <property name="mlt_service">avformat-novalidate</property>
    <property name="seekable">1</property>
    <property name="aspect_ratio">1</property>
    <property name="creation_time">2021-02-03T03:41:06</property>
    <property name="global_feed">1</property>
    <property name="xml">was here</property>
    <property name="shotcut:hash">8e392e48be4935f7d753048eef069fa1</property>
    <property name="shotcut:caption">2021-02-03 09-50-10.mkv</property>
    <filter id="filter498" in="00:39:43.100" out="00:39:49.100">
      <property name="window">75</property>
      <property name="max_gain">20dB</property>
      <property name="level">12</property>
      <property name="mlt_service">volume</property>
    </filter>
  </producer>
  <producer id="producer504" in="00:00:00.000" out="00:50:55.017">
    <property name="length">00:50:55.033</property>
    <property name="eof">pause</property>
    <property name="resource">C:/Users/Sahid/Videos/QGIS Basic/6_Layouting/2021-02-03 09-50-10.mkv</property>
    <property name="audio_index">1</property>
    <property name="video_index">0</property>
    <property name="mute_on_pause">0</property>
    <property name="mlt_service">avformat-novalidate</property>
    <property name="seekable">1</property>
    <property name="aspect_ratio">1</property>
    <property name="creation_time">2021-02-03T03:41:06</property>
    <property name="global_feed">1</property>
    <property name="xml">was here</property>
    <property name="shotcut:hash">8e392e48be4935f7d753048eef069fa1</property>
    <property name="shotcut:caption">2021-02-03 09-50-10.mkv</property>
    <filter id="filter499" in="00:39:49.117" out="00:39:51.150">
      <property name="window">75</property>
      <property name="max_gain">20dB</property>
      <property name="level">12</property>
      <property name="mlt_service">volume</property>
    </filter>
  </producer>
  <producer id="producer505" in="00:00:00.000" out="00:50:55.017">
    <property name="length">00:50:55.033</property>
    <property name="eof">pause</property>
    <property name="resource">C:/Users/Sahid/Videos/QGIS Basic/6_Layouting/2021-02-03 09-50-10.mkv</property>
    <property name="audio_index">1</property>
    <property name="video_index">0</property>
    <property name="mute_on_pause">0</property>
    <property name="mlt_service">avformat-novalidate</property>
    <property name="seekable">1</property>
    <property name="aspect_ratio">1</property>
    <property name="creation_time">2021-02-03T03:41:06</property>
    <property name="global_feed">1</property>
    <property name="xml">was here</property>
    <property name="shotcut:hash">8e392e48be4935f7d753048eef069fa1</property>
    <property name="shotcut:caption">2021-02-03 09-50-10.mkv</property>
    <filter id="filter500" in="00:39:52.167" out="00:39:58.067">
      <property name="window">75</property>
      <property name="max_gain">20dB</property>
      <property name="level">12</property>
      <property name="mlt_service">volume</property>
    </filter>
  </producer>
  <producer id="producer506" in="00:00:00.000" out="00:50:55.017">
    <property name="length">00:50:55.033</property>
    <property name="eof">pause</property>
    <property name="resource">C:/Users/Sahid/Videos/QGIS Basic/6_Layouting/2021-02-03 09-50-10.mkv</property>
    <property name="audio_index">1</property>
    <property name="video_index">0</property>
    <property name="mute_on_pause">0</property>
    <property name="mlt_service">avformat-novalidate</property>
    <property name="seekable">1</property>
    <property name="aspect_ratio">1</property>
    <property name="creation_time">2021-02-03T03:41:06</property>
    <property name="global_feed">1</property>
    <property name="xml">was here</property>
    <property name="shotcut:hash">8e392e48be4935f7d753048eef069fa1</property>
    <property name="shotcut:caption">2021-02-03 09-50-10.mkv</property>
    <filter id="filter501" in="00:39:59.950" out="00:40:01.050">
      <property name="window">75</property>
      <property name="max_gain">20dB</property>
      <property name="level">12</property>
      <property name="mlt_service">volume</property>
    </filter>
  </producer>
  <producer id="producer507" in="00:00:00.000" out="00:50:55.017">
    <property name="length">00:50:55.033</property>
    <property name="eof">pause</property>
    <property name="resource">C:/Users/Sahid/Videos/QGIS Basic/6_Layouting/2021-02-03 09-50-10.mkv</property>
    <property name="audio_index">1</property>
    <property name="video_index">0</property>
    <property name="mute_on_pause">0</property>
    <property name="mlt_service">avformat-novalidate</property>
    <property name="seekable">1</property>
    <property name="aspect_ratio">1</property>
    <property name="creation_time">2021-02-03T03:41:06</property>
    <property name="global_feed">1</property>
    <property name="xml">was here</property>
    <property name="shotcut:hash">8e392e48be4935f7d753048eef069fa1</property>
    <property name="shotcut:caption">2021-02-03 09-50-10.mkv</property>
    <filter id="filter502" in="00:40:05.917" out="00:40:08.817">
      <property name="window">75</property>
      <property name="max_gain">20dB</property>
      <property name="level">12</property>
      <property name="mlt_service">volume</property>
    </filter>
  </producer>
  <producer id="producer508" in="00:00:00.000" out="00:50:55.017">
    <property name="length">00:50:55.033</property>
    <property name="eof">pause</property>
    <property name="resource">C:/Users/Sahid/Videos/QGIS Basic/6_Layouting/2021-02-03 09-50-10.mkv</property>
    <property name="audio_index">1</property>
    <property name="video_index">0</property>
    <property name="mute_on_pause">0</property>
    <property name="mlt_service">avformat-novalidate</property>
    <property name="seekable">1</property>
    <property name="aspect_ratio">1</property>
    <property name="creation_time">2021-02-03T03:41:06</property>
    <property name="global_feed">1</property>
    <property name="xml">was here</property>
    <property name="shotcut:hash">8e392e48be4935f7d753048eef069fa1</property>
    <property name="shotcut:caption">2021-02-03 09-50-10.mkv</property>
    <filter id="filter503" in="00:40:09.650" out="00:40:12.483">
      <property name="window">75</property>
      <property name="max_gain">20dB</property>
      <property name="level">12</property>
      <property name="mlt_service">volume</property>
    </filter>
  </producer>
  <producer id="producer509" in="00:00:00.000" out="00:50:55.017">
    <property name="length">00:50:55.033</property>
    <property name="eof">pause</property>
    <property name="resource">C:/Users/Sahid/Videos/QGIS Basic/6_Layouting/2021-02-03 09-50-10.mkv</property>
    <property name="audio_index">1</property>
    <property name="video_index">0</property>
    <property name="mute_on_pause">0</property>
    <property name="mlt_service">avformat-novalidate</property>
    <property name="seekable">1</property>
    <property name="aspect_ratio">1</property>
    <property name="creation_time">2021-02-03T03:41:06</property>
    <property name="global_feed">1</property>
    <property name="xml">was here</property>
    <property name="shotcut:hash">8e392e48be4935f7d753048eef069fa1</property>
    <property name="shotcut:caption">2021-02-03 09-50-10.mkv</property>
    <filter id="filter504" in="00:40:13.883" out="00:40:15.683">
      <property name="window">75</property>
      <property name="max_gain">20dB</property>
      <property name="level">12</property>
      <property name="mlt_service">volume</property>
    </filter>
  </producer>
  <producer id="producer510" in="00:00:00.000" out="00:50:55.017">
    <property name="length">00:50:55.033</property>
    <property name="eof">pause</property>
    <property name="resource">C:/Users/Sahid/Videos/QGIS Basic/6_Layouting/2021-02-03 09-50-10.mkv</property>
    <property name="audio_index">1</property>
    <property name="video_index">0</property>
    <property name="mute_on_pause">0</property>
    <property name="mlt_service">avformat-novalidate</property>
    <property name="seekable">1</property>
    <property name="aspect_ratio">1</property>
    <property name="creation_time">2021-02-03T03:41:06</property>
    <property name="global_feed">1</property>
    <property name="xml">was here</property>
    <property name="shotcut:hash">8e392e48be4935f7d753048eef069fa1</property>
    <property name="shotcut:caption">2021-02-03 09-50-10.mkv</property>
    <filter id="filter505" in="00:40:16.850" out="00:40:21.067">
      <property name="window">75</property>
      <property name="max_gain">20dB</property>
      <property name="level">12</property>
      <property name="mlt_service">volume</property>
    </filter>
  </producer>
  <producer id="producer511" in="00:00:00.000" out="00:50:55.017">
    <property name="length">00:50:55.033</property>
    <property name="eof">pause</property>
    <property name="resource">C:/Users/Sahid/Videos/QGIS Basic/6_Layouting/2021-02-03 09-50-10.mkv</property>
    <property name="audio_index">1</property>
    <property name="video_index">0</property>
    <property name="mute_on_pause">0</property>
    <property name="mlt_service">avformat-novalidate</property>
    <property name="seekable">1</property>
    <property name="aspect_ratio">1</property>
    <property name="creation_time">2021-02-03T03:41:06</property>
    <property name="global_feed">1</property>
    <property name="xml">was here</property>
    <property name="shotcut:hash">8e392e48be4935f7d753048eef069fa1</property>
    <property name="shotcut:caption">2021-02-03 09-50-10.mkv</property>
    <filter id="filter506" in="00:40:21.583" out="00:40:24.983">
      <property name="window">75</property>
      <property name="max_gain">20dB</property>
      <property name="level">12</property>
      <property name="mlt_service">volume</property>
    </filter>
  </producer>
  <producer id="producer512" in="00:00:00.000" out="00:50:55.017">
    <property name="length">00:50:55.033</property>
    <property name="eof">pause</property>
    <property name="resource">C:/Users/Sahid/Videos/QGIS Basic/6_Layouting/2021-02-03 09-50-10.mkv</property>
    <property name="audio_index">1</property>
    <property name="video_index">0</property>
    <property name="mute_on_pause">0</property>
    <property name="mlt_service">avformat-novalidate</property>
    <property name="seekable">1</property>
    <property name="aspect_ratio">1</property>
    <property name="creation_time">2021-02-03T03:41:06</property>
    <property name="global_feed">1</property>
    <property name="xml">was here</property>
    <property name="shotcut:hash">8e392e48be4935f7d753048eef069fa1</property>
    <property name="shotcut:caption">2021-02-03 09-50-10.mkv</property>
    <filter id="filter507" in="00:40:29.683" out="00:40:32.717">
      <property name="window">75</property>
      <property name="max_gain">20dB</property>
      <property name="level">12</property>
      <property name="mlt_service">volume</property>
    </filter>
  </producer>
  <producer id="producer513" in="00:00:00.000" out="00:50:55.017">
    <property name="length">00:50:55.033</property>
    <property name="eof">pause</property>
    <property name="resource">C:/Users/Sahid/Videos/QGIS Basic/6_Layouting/2021-02-03 09-50-10.mkv</property>
    <property name="audio_index">1</property>
    <property name="video_index">0</property>
    <property name="mute_on_pause">0</property>
    <property name="mlt_service">avformat-novalidate</property>
    <property name="seekable">1</property>
    <property name="aspect_ratio">1</property>
    <property name="creation_time">2021-02-03T03:41:06</property>
    <property name="global_feed">1</property>
    <property name="xml">was here</property>
    <property name="shotcut:hash">8e392e48be4935f7d753048eef069fa1</property>
    <property name="shotcut:caption">2021-02-03 09-50-10.mkv</property>
    <filter id="filter508" in="00:40:35.717" out="00:40:37.883">
      <property name="window">75</property>
      <property name="max_gain">20dB</property>
      <property name="level">12</property>
      <property name="mlt_service">volume</property>
    </filter>
  </producer>
  <producer id="producer514" in="00:00:00.000" out="00:50:55.017">
    <property name="length">00:50:55.033</property>
    <property name="eof">pause</property>
    <property name="resource">C:/Users/Sahid/Videos/QGIS Basic/6_Layouting/2021-02-03 09-50-10.mkv</property>
    <property name="audio_index">1</property>
    <property name="video_index">0</property>
    <property name="mute_on_pause">0</property>
    <property name="mlt_service">avformat-novalidate</property>
    <property name="seekable">1</property>
    <property name="aspect_ratio">1</property>
    <property name="creation_time">2021-02-03T03:41:06</property>
    <property name="global_feed">1</property>
    <property name="xml">was here</property>
    <property name="shotcut:hash">8e392e48be4935f7d753048eef069fa1</property>
    <property name="shotcut:caption">2021-02-03 09-50-10.mkv</property>
    <filter id="filter509" in="00:40:39.233" out="00:40:41.450">
      <property name="window">75</property>
      <property name="max_gain">20dB</property>
      <property name="level">12</property>
      <property name="mlt_service">volume</property>
    </filter>
  </producer>
  <producer id="producer515" in="00:00:00.000" out="00:50:55.017">
    <property name="length">00:50:55.033</property>
    <property name="eof">pause</property>
    <property name="resource">C:/Users/Sahid/Videos/QGIS Basic/6_Layouting/2021-02-03 09-50-10.mkv</property>
    <property name="audio_index">1</property>
    <property name="video_index">0</property>
    <property name="mute_on_pause">0</property>
    <property name="mlt_service">avformat-novalidate</property>
    <property name="seekable">1</property>
    <property name="aspect_ratio">1</property>
    <property name="creation_time">2021-02-03T03:41:06</property>
    <property name="global_feed">1</property>
    <property name="xml">was here</property>
    <property name="shotcut:hash">8e392e48be4935f7d753048eef069fa1</property>
    <property name="shotcut:caption">2021-02-03 09-50-10.mkv</property>
    <filter id="filter510" in="00:40:45.383" out="00:40:48.533">
      <property name="window">75</property>
      <property name="max_gain">20dB</property>
      <property name="level">12</property>
      <property name="mlt_service">volume</property>
    </filter>
  </producer>
  <producer id="producer516" in="00:00:00.000" out="00:50:55.017">
    <property name="length">00:50:55.033</property>
    <property name="eof">pause</property>
    <property name="resource">C:/Users/Sahid/Videos/QGIS Basic/6_Layouting/2021-02-03 09-50-10.mkv</property>
    <property name="audio_index">1</property>
    <property name="video_index">0</property>
    <property name="mute_on_pause">0</property>
    <property name="mlt_service">avformat-novalidate</property>
    <property name="seekable">1</property>
    <property name="aspect_ratio">1</property>
    <property name="creation_time">2021-02-03T03:41:06</property>
    <property name="global_feed">1</property>
    <property name="xml">was here</property>
    <property name="shotcut:hash">8e392e48be4935f7d753048eef069fa1</property>
    <property name="shotcut:caption">2021-02-03 09-50-10.mkv</property>
    <filter id="filter511" in="00:40:52.650" out="00:40:55.133">
      <property name="window">75</property>
      <property name="max_gain">20dB</property>
      <property name="level">12</property>
      <property name="mlt_service">volume</property>
    </filter>
  </producer>
  <producer id="producer517" in="00:00:00.000" out="00:50:55.017">
    <property name="length">00:50:55.033</property>
    <property name="eof">pause</property>
    <property name="resource">C:/Users/Sahid/Videos/QGIS Basic/6_Layouting/2021-02-03 09-50-10.mkv</property>
    <property name="audio_index">1</property>
    <property name="video_index">0</property>
    <property name="mute_on_pause">0</property>
    <property name="mlt_service">avformat-novalidate</property>
    <property name="seekable">1</property>
    <property name="aspect_ratio">1</property>
    <property name="creation_time">2021-02-03T03:41:06</property>
    <property name="global_feed">1</property>
    <property name="xml">was here</property>
    <property name="shotcut:hash">8e392e48be4935f7d753048eef069fa1</property>
    <property name="shotcut:caption">2021-02-03 09-50-10.mkv</property>
    <filter id="filter512" in="00:40:55.417" out="00:40:56.000">
      <property name="window">75</property>
      <property name="max_gain">20dB</property>
      <property name="level">12</property>
      <property name="mlt_service">volume</property>
    </filter>
  </producer>
  <producer id="producer518" in="00:00:00.000" out="00:50:55.017">
    <property name="length">00:50:55.033</property>
    <property name="eof">pause</property>
    <property name="resource">C:/Users/Sahid/Videos/QGIS Basic/6_Layouting/2021-02-03 09-50-10.mkv</property>
    <property name="audio_index">1</property>
    <property name="video_index">0</property>
    <property name="mute_on_pause">0</property>
    <property name="mlt_service">avformat-novalidate</property>
    <property name="seekable">1</property>
    <property name="aspect_ratio">1</property>
    <property name="creation_time">2021-02-03T03:41:06</property>
    <property name="global_feed">1</property>
    <property name="xml">was here</property>
    <property name="shotcut:hash">8e392e48be4935f7d753048eef069fa1</property>
    <property name="shotcut:caption">2021-02-03 09-50-10.mkv</property>
    <filter id="filter513" in="00:41:15.300" out="00:41:18.683">
      <property name="window">75</property>
      <property name="max_gain">20dB</property>
      <property name="level">12</property>
      <property name="mlt_service">volume</property>
    </filter>
  </producer>
  <producer id="producer519" in="00:00:00.000" out="00:50:55.017">
    <property name="length">00:50:55.033</property>
    <property name="eof">pause</property>
    <property name="resource">C:/Users/Sahid/Videos/QGIS Basic/6_Layouting/2021-02-03 09-50-10.mkv</property>
    <property name="audio_index">1</property>
    <property name="video_index">0</property>
    <property name="mute_on_pause">0</property>
    <property name="mlt_service">avformat-novalidate</property>
    <property name="seekable">1</property>
    <property name="aspect_ratio">1</property>
    <property name="creation_time">2021-02-03T03:41:06</property>
    <property name="global_feed">1</property>
    <property name="xml">was here</property>
    <property name="shotcut:hash">8e392e48be4935f7d753048eef069fa1</property>
    <property name="shotcut:caption">2021-02-03 09-50-10.mkv</property>
    <filter id="filter514" in="00:41:20.433" out="00:41:23.583">
      <property name="window">75</property>
      <property name="max_gain">20dB</property>
      <property name="level">12</property>
      <property name="mlt_service">volume</property>
    </filter>
  </producer>
  <producer id="producer520" in="00:00:00.000" out="00:50:55.017">
    <property name="length">00:50:55.033</property>
    <property name="eof">pause</property>
    <property name="resource">C:/Users/Sahid/Videos/QGIS Basic/6_Layouting/2021-02-03 09-50-10.mkv</property>
    <property name="audio_index">1</property>
    <property name="video_index">0</property>
    <property name="mute_on_pause">0</property>
    <property name="mlt_service">avformat-novalidate</property>
    <property name="seekable">1</property>
    <property name="aspect_ratio">1</property>
    <property name="creation_time">2021-02-03T03:41:06</property>
    <property name="global_feed">1</property>
    <property name="xml">was here</property>
    <property name="shotcut:hash">8e392e48be4935f7d753048eef069fa1</property>
    <property name="shotcut:caption">2021-02-03 09-50-10.mkv</property>
    <filter id="filter515" in="00:41:24.600" out="00:41:27.600">
      <property name="window">75</property>
      <property name="max_gain">20dB</property>
      <property name="level">12</property>
      <property name="mlt_service">volume</property>
    </filter>
  </producer>
  <producer id="producer521" in="00:00:00.000" out="00:50:55.017">
    <property name="length">00:50:55.033</property>
    <property name="eof">pause</property>
    <property name="resource">C:/Users/Sahid/Videos/QGIS Basic/6_Layouting/2021-02-03 09-50-10.mkv</property>
    <property name="audio_index">1</property>
    <property name="video_index">0</property>
    <property name="mute_on_pause">0</property>
    <property name="mlt_service">avformat-novalidate</property>
    <property name="seekable">1</property>
    <property name="aspect_ratio">1</property>
    <property name="creation_time">2021-02-03T03:41:06</property>
    <property name="global_feed">1</property>
    <property name="xml">was here</property>
    <property name="shotcut:hash">8e392e48be4935f7d753048eef069fa1</property>
    <property name="shotcut:caption">2021-02-03 09-50-10.mkv</property>
    <filter id="filter516" in="00:42:25.317" out="00:42:29.450">
      <property name="window">75</property>
      <property name="max_gain">20dB</property>
      <property name="level">12</property>
      <property name="mlt_service">volume</property>
    </filter>
  </producer>
  <producer id="producer522" in="00:00:00.000" out="00:50:55.017">
    <property name="length">00:50:55.033</property>
    <property name="eof">pause</property>
    <property name="resource">C:/Users/Sahid/Videos/QGIS Basic/6_Layouting/2021-02-03 09-50-10.mkv</property>
    <property name="audio_index">1</property>
    <property name="video_index">0</property>
    <property name="mute_on_pause">0</property>
    <property name="mlt_service">avformat-novalidate</property>
    <property name="seekable">1</property>
    <property name="aspect_ratio">1</property>
    <property name="creation_time">2021-02-03T03:41:06</property>
    <property name="global_feed">1</property>
    <property name="xml">was here</property>
    <property name="shotcut:hash">8e392e48be4935f7d753048eef069fa1</property>
    <property name="shotcut:caption">2021-02-03 09-50-10.mkv</property>
    <filter id="filter517" in="00:42:35.567" out="00:42:42.250">
      <property name="window">75</property>
      <property name="max_gain">20dB</property>
      <property name="level">12</property>
      <property name="mlt_service">volume</property>
    </filter>
  </producer>
  <producer id="producer523" in="00:00:00.000" out="00:50:55.017">
    <property name="length">00:50:55.033</property>
    <property name="eof">pause</property>
    <property name="resource">C:/Users/Sahid/Videos/QGIS Basic/6_Layouting/2021-02-03 09-50-10.mkv</property>
    <property name="audio_index">1</property>
    <property name="video_index">0</property>
    <property name="mute_on_pause">0</property>
    <property name="mlt_service">avformat-novalidate</property>
    <property name="seekable">1</property>
    <property name="aspect_ratio">1</property>
    <property name="creation_time">2021-02-03T03:41:06</property>
    <property name="global_feed">1</property>
    <property name="xml">was here</property>
    <property name="shotcut:hash">8e392e48be4935f7d753048eef069fa1</property>
    <property name="shotcut:caption">2021-02-03 09-50-10.mkv</property>
    <filter id="filter518" in="00:42:42.900" out="00:42:44.400">
      <property name="window">75</property>
      <property name="max_gain">20dB</property>
      <property name="level">12</property>
      <property name="mlt_service">volume</property>
    </filter>
  </producer>
  <producer id="producer524" in="00:00:00.000" out="00:50:55.017">
    <property name="length">00:50:55.033</property>
    <property name="eof">pause</property>
    <property name="resource">C:/Users/Sahid/Videos/QGIS Basic/6_Layouting/2021-02-03 09-50-10.mkv</property>
    <property name="audio_index">1</property>
    <property name="video_index">0</property>
    <property name="mute_on_pause">0</property>
    <property name="mlt_service">avformat-novalidate</property>
    <property name="seekable">1</property>
    <property name="aspect_ratio">1</property>
    <property name="creation_time">2021-02-03T03:41:06</property>
    <property name="global_feed">1</property>
    <property name="xml">was here</property>
    <property name="shotcut:hash">8e392e48be4935f7d753048eef069fa1</property>
    <property name="shotcut:caption">2021-02-03 09-50-10.mkv</property>
    <filter id="filter519" in="00:42:45.883" out="00:42:50.967">
      <property name="window">75</property>
      <property name="max_gain">20dB</property>
      <property name="level">12</property>
      <property name="mlt_service">volume</property>
    </filter>
  </producer>
  <producer id="producer525" in="00:00:00.000" out="00:50:55.017">
    <property name="length">00:50:55.033</property>
    <property name="eof">pause</property>
    <property name="resource">C:/Users/Sahid/Videos/QGIS Basic/6_Layouting/2021-02-03 09-50-10.mkv</property>
    <property name="audio_index">1</property>
    <property name="video_index">0</property>
    <property name="mute_on_pause">0</property>
    <property name="mlt_service">avformat-novalidate</property>
    <property name="seekable">1</property>
    <property name="aspect_ratio">1</property>
    <property name="creation_time">2021-02-03T03:41:06</property>
    <property name="global_feed">1</property>
    <property name="xml">was here</property>
    <property name="shotcut:hash">8e392e48be4935f7d753048eef069fa1</property>
    <property name="shotcut:caption">2021-02-03 09-50-10.mkv</property>
    <filter id="filter520" in="00:43:11.483" out="00:43:16.300">
      <property name="window">75</property>
      <property name="max_gain">20dB</property>
      <property name="level">12</property>
      <property name="mlt_service">volume</property>
    </filter>
  </producer>
  <producer id="producer526" in="00:00:00.000" out="00:50:55.017">
    <property name="length">00:50:55.033</property>
    <property name="eof">pause</property>
    <property name="resource">C:/Users/Sahid/Videos/QGIS Basic/6_Layouting/2021-02-03 09-50-10.mkv</property>
    <property name="audio_index">1</property>
    <property name="video_index">0</property>
    <property name="mute_on_pause">0</property>
    <property name="mlt_service">avformat-novalidate</property>
    <property name="seekable">1</property>
    <property name="aspect_ratio">1</property>
    <property name="creation_time">2021-02-03T03:41:06</property>
    <property name="global_feed">1</property>
    <property name="xml">was here</property>
    <property name="shotcut:hash">8e392e48be4935f7d753048eef069fa1</property>
    <property name="shotcut:caption">2021-02-03 09-50-10.mkv</property>
    <filter id="filter521" in="00:43:16.833" out="00:43:33.417">
      <property name="window">75</property>
      <property name="max_gain">20dB</property>
      <property name="level">12</property>
      <property name="mlt_service">volume</property>
    </filter>
  </producer>
  <producer id="producer527" in="00:00:00.000" out="00:50:55.017">
    <property name="length">00:50:55.033</property>
    <property name="eof">pause</property>
    <property name="resource">C:/Users/Sahid/Videos/QGIS Basic/6_Layouting/2021-02-03 09-50-10.mkv</property>
    <property name="audio_index">1</property>
    <property name="video_index">0</property>
    <property name="mute_on_pause">0</property>
    <property name="mlt_service">avformat-novalidate</property>
    <property name="seekable">1</property>
    <property name="aspect_ratio">1</property>
    <property name="creation_time">2021-02-03T03:41:06</property>
    <property name="global_feed">1</property>
    <property name="xml">was here</property>
    <property name="shotcut:hash">8e392e48be4935f7d753048eef069fa1</property>
    <property name="shotcut:caption">2021-02-03 09-50-10.mkv</property>
    <filter id="filter522" in="00:43:33.933" out="00:43:36.133">
      <property name="window">75</property>
      <property name="max_gain">20dB</property>
      <property name="level">12</property>
      <property name="mlt_service">volume</property>
    </filter>
  </producer>
  <producer id="producer528" in="00:00:00.000" out="00:50:55.017">
    <property name="length">00:50:55.033</property>
    <property name="eof">pause</property>
    <property name="resource">C:/Users/Sahid/Videos/QGIS Basic/6_Layouting/2021-02-03 09-50-10.mkv</property>
    <property name="audio_index">1</property>
    <property name="video_index">0</property>
    <property name="mute_on_pause">0</property>
    <property name="mlt_service">avformat-novalidate</property>
    <property name="seekable">1</property>
    <property name="aspect_ratio">1</property>
    <property name="creation_time">2021-02-03T03:41:06</property>
    <property name="global_feed">1</property>
    <property name="xml">was here</property>
    <property name="shotcut:hash">8e392e48be4935f7d753048eef069fa1</property>
    <property name="shotcut:caption">2021-02-03 09-50-10.mkv</property>
    <filter id="filter523" in="00:43:45.167" out="00:43:49.100">
      <property name="window">75</property>
      <property name="max_gain">20dB</property>
      <property name="level">12</property>
      <property name="mlt_service">volume</property>
    </filter>
  </producer>
  <producer id="producer529" in="00:00:00.000" out="00:50:55.017">
    <property name="length">00:50:55.033</property>
    <property name="eof">pause</property>
    <property name="resource">C:/Users/Sahid/Videos/QGIS Basic/6_Layouting/2021-02-03 09-50-10.mkv</property>
    <property name="audio_index">1</property>
    <property name="video_index">0</property>
    <property name="mute_on_pause">0</property>
    <property name="mlt_service">avformat-novalidate</property>
    <property name="seekable">1</property>
    <property name="aspect_ratio">1</property>
    <property name="creation_time">2021-02-03T03:41:06</property>
    <property name="global_feed">1</property>
    <property name="xml">was here</property>
    <property name="shotcut:hash">8e392e48be4935f7d753048eef069fa1</property>
    <property name="shotcut:caption">2021-02-03 09-50-10.mkv</property>
    <filter id="filter524" in="00:43:53.017" out="00:43:57.367">
      <property name="window">75</property>
      <property name="max_gain">20dB</property>
      <property name="level">12</property>
      <property name="mlt_service">volume</property>
    </filter>
  </producer>
  <producer id="producer530" in="00:00:00.000" out="00:50:55.017">
    <property name="length">00:50:55.033</property>
    <property name="eof">pause</property>
    <property name="resource">C:/Users/Sahid/Videos/QGIS Basic/6_Layouting/2021-02-03 09-50-10.mkv</property>
    <property name="audio_index">1</property>
    <property name="video_index">0</property>
    <property name="mute_on_pause">0</property>
    <property name="mlt_service">avformat-novalidate</property>
    <property name="seekable">1</property>
    <property name="aspect_ratio">1</property>
    <property name="creation_time">2021-02-03T03:41:06</property>
    <property name="global_feed">1</property>
    <property name="xml">was here</property>
    <property name="shotcut:hash">8e392e48be4935f7d753048eef069fa1</property>
    <property name="shotcut:caption">2021-02-03 09-50-10.mkv</property>
    <filter id="filter525" in="00:43:58.600" out="00:44:08.400">
      <property name="window">75</property>
      <property name="max_gain">20dB</property>
      <property name="level">12</property>
      <property name="mlt_service">volume</property>
    </filter>
  </producer>
  <producer id="producer531" in="00:00:00.000" out="00:50:55.017">
    <property name="length">00:50:55.033</property>
    <property name="eof">pause</property>
    <property name="resource">C:/Users/Sahid/Videos/QGIS Basic/6_Layouting/2021-02-03 09-50-10.mkv</property>
    <property name="audio_index">1</property>
    <property name="video_index">0</property>
    <property name="mute_on_pause">0</property>
    <property name="mlt_service">avformat-novalidate</property>
    <property name="seekable">1</property>
    <property name="aspect_ratio">1</property>
    <property name="creation_time">2021-02-03T03:41:06</property>
    <property name="global_feed">1</property>
    <property name="xml">was here</property>
    <property name="shotcut:hash">8e392e48be4935f7d753048eef069fa1</property>
    <property name="shotcut:caption">2021-02-03 09-50-10.mkv</property>
    <filter id="filter526" in="00:44:12.750" out="00:44:16.950">
      <property name="window">75</property>
      <property name="max_gain">20dB</property>
      <property name="level">12</property>
      <property name="mlt_service">volume</property>
    </filter>
  </producer>
  <producer id="producer532" in="00:00:00.000" out="00:50:55.017">
    <property name="length">00:50:55.033</property>
    <property name="eof">pause</property>
    <property name="resource">C:/Users/Sahid/Videos/QGIS Basic/6_Layouting/2021-02-03 09-50-10.mkv</property>
    <property name="audio_index">1</property>
    <property name="video_index">0</property>
    <property name="mute_on_pause">0</property>
    <property name="mlt_service">avformat-novalidate</property>
    <property name="seekable">1</property>
    <property name="aspect_ratio">1</property>
    <property name="creation_time">2021-02-03T03:41:06</property>
    <property name="global_feed">1</property>
    <property name="xml">was here</property>
    <property name="shotcut:hash">8e392e48be4935f7d753048eef069fa1</property>
    <property name="shotcut:caption">2021-02-03 09-50-10.mkv</property>
    <filter id="filter527" in="00:44:18.183" out="00:44:20.767">
      <property name="window">75</property>
      <property name="max_gain">20dB</property>
      <property name="level">12</property>
      <property name="mlt_service">volume</property>
    </filter>
  </producer>
  <producer id="producer533" in="00:00:00.000" out="00:50:55.017">
    <property name="length">00:50:55.033</property>
    <property name="eof">pause</property>
    <property name="resource">C:/Users/Sahid/Videos/QGIS Basic/6_Layouting/2021-02-03 09-50-10.mkv</property>
    <property name="audio_index">1</property>
    <property name="video_index">0</property>
    <property name="mute_on_pause">0</property>
    <property name="mlt_service">avformat-novalidate</property>
    <property name="seekable">1</property>
    <property name="aspect_ratio">1</property>
    <property name="creation_time">2021-02-03T03:41:06</property>
    <property name="global_feed">1</property>
    <property name="xml">was here</property>
    <property name="shotcut:hash">8e392e48be4935f7d753048eef069fa1</property>
    <property name="shotcut:caption">2021-02-03 09-50-10.mkv</property>
    <filter id="filter528" in="00:45:01.117" out="00:45:06.067">
      <property name="window">75</property>
      <property name="max_gain">20dB</property>
      <property name="level">12</property>
      <property name="mlt_service">volume</property>
    </filter>
  </producer>
  <producer id="producer534" in="00:00:00.000" out="00:50:55.017">
    <property name="length">00:50:55.033</property>
    <property name="eof">pause</property>
    <property name="resource">C:/Users/Sahid/Videos/QGIS Basic/6_Layouting/2021-02-03 09-50-10.mkv</property>
    <property name="audio_index">1</property>
    <property name="video_index">0</property>
    <property name="mute_on_pause">0</property>
    <property name="mlt_service">avformat-novalidate</property>
    <property name="seekable">1</property>
    <property name="aspect_ratio">1</property>
    <property name="creation_time">2021-02-03T03:41:06</property>
    <property name="global_feed">1</property>
    <property name="xml">was here</property>
    <property name="shotcut:hash">8e392e48be4935f7d753048eef069fa1</property>
    <property name="shotcut:caption">2021-02-03 09-50-10.mkv</property>
    <filter id="filter529" in="00:45:06.867" out="00:45:18.533">
      <property name="window">75</property>
      <property name="max_gain">20dB</property>
      <property name="level">12</property>
      <property name="mlt_service">volume</property>
    </filter>
  </producer>
  <producer id="producer535" in="00:00:00.000" out="00:50:55.017">
    <property name="length">00:50:55.033</property>
    <property name="eof">pause</property>
    <property name="resource">C:/Users/Sahid/Videos/QGIS Basic/6_Layouting/2021-02-03 09-50-10.mkv</property>
    <property name="audio_index">1</property>
    <property name="video_index">0</property>
    <property name="mute_on_pause">0</property>
    <property name="mlt_service">avformat-novalidate</property>
    <property name="seekable">1</property>
    <property name="aspect_ratio">1</property>
    <property name="creation_time">2021-02-03T03:41:06</property>
    <property name="global_feed">1</property>
    <property name="xml">was here</property>
    <property name="shotcut:hash">8e392e48be4935f7d753048eef069fa1</property>
    <property name="shotcut:caption">2021-02-03 09-50-10.mkv</property>
    <filter id="filter530" in="00:45:18.550" out="00:45:20.333">
      <property name="window">75</property>
      <property name="max_gain">20dB</property>
      <property name="level">12</property>
      <property name="mlt_service">volume</property>
    </filter>
  </producer>
  <producer id="producer536" in="00:00:00.000" out="00:50:55.017">
    <property name="length">00:50:55.033</property>
    <property name="eof">pause</property>
    <property name="resource">C:/Users/Sahid/Videos/QGIS Basic/6_Layouting/2021-02-03 09-50-10.mkv</property>
    <property name="audio_index">1</property>
    <property name="video_index">0</property>
    <property name="mute_on_pause">0</property>
    <property name="mlt_service">avformat-novalidate</property>
    <property name="seekable">1</property>
    <property name="aspect_ratio">1</property>
    <property name="creation_time">2021-02-03T03:41:06</property>
    <property name="global_feed">1</property>
    <property name="xml">was here</property>
    <property name="shotcut:hash">8e392e48be4935f7d753048eef069fa1</property>
    <property name="shotcut:caption">2021-02-03 09-50-10.mkv</property>
    <filter id="filter531" in="00:45:24.133" out="00:45:33.633">
      <property name="window">75</property>
      <property name="max_gain">20dB</property>
      <property name="level">12</property>
      <property name="mlt_service">volume</property>
    </filter>
  </producer>
  <producer id="producer537" in="00:00:00.000" out="00:50:55.017">
    <property name="length">00:50:55.033</property>
    <property name="eof">pause</property>
    <property name="resource">C:/Users/Sahid/Videos/QGIS Basic/6_Layouting/2021-02-03 09-50-10.mkv</property>
    <property name="audio_index">1</property>
    <property name="video_index">0</property>
    <property name="mute_on_pause">0</property>
    <property name="mlt_service">avformat-novalidate</property>
    <property name="seekable">1</property>
    <property name="aspect_ratio">1</property>
    <property name="creation_time">2021-02-03T03:41:06</property>
    <property name="global_feed">1</property>
    <property name="xml">was here</property>
    <property name="shotcut:hash">8e392e48be4935f7d753048eef069fa1</property>
    <property name="shotcut:caption">2021-02-03 09-50-10.mkv</property>
    <filter id="filter532" in="00:45:34.283" out="00:45:36.167">
      <property name="window">75</property>
      <property name="max_gain">20dB</property>
      <property name="level">12</property>
      <property name="mlt_service">volume</property>
    </filter>
  </producer>
  <producer id="producer538" in="00:00:00.000" out="00:50:55.017">
    <property name="length">00:50:55.033</property>
    <property name="eof">pause</property>
    <property name="resource">C:/Users/Sahid/Videos/QGIS Basic/6_Layouting/2021-02-03 09-50-10.mkv</property>
    <property name="audio_index">1</property>
    <property name="video_index">0</property>
    <property name="mute_on_pause">0</property>
    <property name="mlt_service">avformat-novalidate</property>
    <property name="seekable">1</property>
    <property name="aspect_ratio">1</property>
    <property name="creation_time">2021-02-03T03:41:06</property>
    <property name="global_feed">1</property>
    <property name="xml">was here</property>
    <property name="shotcut:hash">8e392e48be4935f7d753048eef069fa1</property>
    <property name="shotcut:caption">2021-02-03 09-50-10.mkv</property>
    <filter id="filter533" in="00:45:36.617" out="00:45:38.133">
      <property name="window">75</property>
      <property name="max_gain">20dB</property>
      <property name="level">12</property>
      <property name="mlt_service">volume</property>
    </filter>
  </producer>
  <producer id="producer539" in="00:00:00.000" out="00:50:55.017">
    <property name="length">00:50:55.033</property>
    <property name="eof">pause</property>
    <property name="resource">C:/Users/Sahid/Videos/QGIS Basic/6_Layouting/2021-02-03 09-50-10.mkv</property>
    <property name="audio_index">1</property>
    <property name="video_index">0</property>
    <property name="mute_on_pause">0</property>
    <property name="mlt_service">avformat-novalidate</property>
    <property name="seekable">1</property>
    <property name="aspect_ratio">1</property>
    <property name="creation_time">2021-02-03T03:41:06</property>
    <property name="global_feed">1</property>
    <property name="xml">was here</property>
    <property name="shotcut:hash">8e392e48be4935f7d753048eef069fa1</property>
    <property name="shotcut:caption">2021-02-03 09-50-10.mkv</property>
    <filter id="filter534" in="00:45:38.900" out="00:45:40.800">
      <property name="window">75</property>
      <property name="max_gain">20dB</property>
      <property name="level">12</property>
      <property name="mlt_service">volume</property>
    </filter>
  </producer>
  <producer id="producer540" in="00:00:00.000" out="00:50:55.017">
    <property name="length">00:50:55.033</property>
    <property name="eof">pause</property>
    <property name="resource">C:/Users/Sahid/Videos/QGIS Basic/6_Layouting/2021-02-03 09-50-10.mkv</property>
    <property name="audio_index">1</property>
    <property name="video_index">0</property>
    <property name="mute_on_pause">0</property>
    <property name="mlt_service">avformat-novalidate</property>
    <property name="seekable">1</property>
    <property name="aspect_ratio">1</property>
    <property name="creation_time">2021-02-03T03:41:06</property>
    <property name="global_feed">1</property>
    <property name="xml">was here</property>
    <property name="shotcut:hash">8e392e48be4935f7d753048eef069fa1</property>
    <property name="shotcut:caption">2021-02-03 09-50-10.mkv</property>
    <filter id="filter535" in="00:45:41.450" out="00:45:52.967">
      <property name="window">75</property>
      <property name="max_gain">20dB</property>
      <property name="level">12</property>
      <property name="mlt_service">volume</property>
    </filter>
  </producer>
  <producer id="producer541" in="00:00:00.000" out="00:50:55.017">
    <property name="length">00:50:55.033</property>
    <property name="eof">pause</property>
    <property name="resource">C:/Users/Sahid/Videos/QGIS Basic/6_Layouting/2021-02-03 09-50-10.mkv</property>
    <property name="audio_index">1</property>
    <property name="video_index">0</property>
    <property name="mute_on_pause">0</property>
    <property name="mlt_service">avformat-novalidate</property>
    <property name="seekable">1</property>
    <property name="aspect_ratio">1</property>
    <property name="creation_time">2021-02-03T03:41:06</property>
    <property name="global_feed">1</property>
    <property name="xml">was here</property>
    <property name="shotcut:hash">8e392e48be4935f7d753048eef069fa1</property>
    <property name="shotcut:caption">2021-02-03 09-50-10.mkv</property>
    <filter id="filter536" in="00:45:53.517" out="00:45:55.833">
      <property name="window">75</property>
      <property name="max_gain">20dB</property>
      <property name="level">12</property>
      <property name="mlt_service">volume</property>
    </filter>
  </producer>
  <producer id="producer542" in="00:00:00.000" out="00:50:55.017">
    <property name="length">00:50:55.033</property>
    <property name="eof">pause</property>
    <property name="resource">C:/Users/Sahid/Videos/QGIS Basic/6_Layouting/2021-02-03 09-50-10.mkv</property>
    <property name="audio_index">1</property>
    <property name="video_index">0</property>
    <property name="mute_on_pause">0</property>
    <property name="mlt_service">avformat-novalidate</property>
    <property name="seekable">1</property>
    <property name="aspect_ratio">1</property>
    <property name="creation_time">2021-02-03T03:41:06</property>
    <property name="global_feed">1</property>
    <property name="xml">was here</property>
    <property name="shotcut:hash">8e392e48be4935f7d753048eef069fa1</property>
    <property name="shotcut:caption">2021-02-03 09-50-10.mkv</property>
    <filter id="filter537" in="00:46:00.583" out="00:46:01.900">
      <property name="window">75</property>
      <property name="max_gain">20dB</property>
      <property name="level">12</property>
      <property name="mlt_service">volume</property>
    </filter>
  </producer>
  <producer id="producer543" in="00:00:00.000" out="00:50:55.017">
    <property name="length">00:50:55.033</property>
    <property name="eof">pause</property>
    <property name="resource">C:/Users/Sahid/Videos/QGIS Basic/6_Layouting/2021-02-03 09-50-10.mkv</property>
    <property name="audio_index">1</property>
    <property name="video_index">0</property>
    <property name="mute_on_pause">0</property>
    <property name="mlt_service">avformat-novalidate</property>
    <property name="seekable">1</property>
    <property name="aspect_ratio">1</property>
    <property name="creation_time">2021-02-03T03:41:06</property>
    <property name="global_feed">1</property>
    <property name="xml">was here</property>
    <property name="shotcut:hash">8e392e48be4935f7d753048eef069fa1</property>
    <property name="shotcut:caption">2021-02-03 09-50-10.mkv</property>
    <filter id="filter538" in="00:46:02.650" out="00:46:09.933">
      <property name="window">75</property>
      <property name="max_gain">20dB</property>
      <property name="level">12</property>
      <property name="mlt_service">volume</property>
    </filter>
  </producer>
  <producer id="producer544" in="00:00:00.000" out="00:50:55.017">
    <property name="length">00:50:55.033</property>
    <property name="eof">pause</property>
    <property name="resource">C:/Users/Sahid/Videos/QGIS Basic/6_Layouting/2021-02-03 09-50-10.mkv</property>
    <property name="audio_index">1</property>
    <property name="video_index">0</property>
    <property name="mute_on_pause">0</property>
    <property name="mlt_service">avformat-novalidate</property>
    <property name="seekable">1</property>
    <property name="aspect_ratio">1</property>
    <property name="creation_time">2021-02-03T03:41:06</property>
    <property name="global_feed">1</property>
    <property name="xml">was here</property>
    <property name="shotcut:hash">8e392e48be4935f7d753048eef069fa1</property>
    <property name="shotcut:caption">2021-02-03 09-50-10.mkv</property>
    <filter id="filter539" in="00:46:27.650" out="00:46:31.250">
      <property name="window">75</property>
      <property name="max_gain">20dB</property>
      <property name="level">12</property>
      <property name="mlt_service">volume</property>
    </filter>
  </producer>
  <producer id="producer545" in="00:00:00.000" out="00:50:55.017">
    <property name="length">00:50:55.033</property>
    <property name="eof">pause</property>
    <property name="resource">C:/Users/Sahid/Videos/QGIS Basic/6_Layouting/2021-02-03 09-50-10.mkv</property>
    <property name="audio_index">1</property>
    <property name="video_index">0</property>
    <property name="mute_on_pause">0</property>
    <property name="mlt_service">avformat-novalidate</property>
    <property name="seekable">1</property>
    <property name="aspect_ratio">1</property>
    <property name="creation_time">2021-02-03T03:41:06</property>
    <property name="global_feed">1</property>
    <property name="xml">was here</property>
    <property name="shotcut:hash">8e392e48be4935f7d753048eef069fa1</property>
    <property name="shotcut:caption">2021-02-03 09-50-10.mkv</property>
    <filter id="filter540" in="00:46:34.267" out="00:46:35.983">
      <property name="window">75</property>
      <property name="max_gain">20dB</property>
      <property name="level">12</property>
      <property name="mlt_service">volume</property>
    </filter>
  </producer>
  <producer id="producer546" in="00:00:00.000" out="00:50:55.017">
    <property name="length">00:50:55.033</property>
    <property name="eof">pause</property>
    <property name="resource">C:/Users/Sahid/Videos/QGIS Basic/6_Layouting/2021-02-03 09-50-10.mkv</property>
    <property name="audio_index">1</property>
    <property name="video_index">0</property>
    <property name="mute_on_pause">0</property>
    <property name="mlt_service">avformat-novalidate</property>
    <property name="seekable">1</property>
    <property name="aspect_ratio">1</property>
    <property name="creation_time">2021-02-03T03:41:06</property>
    <property name="global_feed">1</property>
    <property name="xml">was here</property>
    <property name="shotcut:hash">8e392e48be4935f7d753048eef069fa1</property>
    <property name="shotcut:caption">2021-02-03 09-50-10.mkv</property>
    <filter id="filter541" in="00:46:39.433" out="00:46:41.633">
      <property name="window">75</property>
      <property name="max_gain">20dB</property>
      <property name="level">12</property>
      <property name="mlt_service">volume</property>
    </filter>
  </producer>
  <producer id="producer547" in="00:00:00.000" out="00:50:55.017">
    <property name="length">00:50:55.033</property>
    <property name="eof">pause</property>
    <property name="resource">C:/Users/Sahid/Videos/QGIS Basic/6_Layouting/2021-02-03 09-50-10.mkv</property>
    <property name="audio_index">1</property>
    <property name="video_index">0</property>
    <property name="mute_on_pause">0</property>
    <property name="mlt_service">avformat-novalidate</property>
    <property name="seekable">1</property>
    <property name="aspect_ratio">1</property>
    <property name="creation_time">2021-02-03T03:41:06</property>
    <property name="global_feed">1</property>
    <property name="xml">was here</property>
    <property name="shotcut:hash">8e392e48be4935f7d753048eef069fa1</property>
    <property name="shotcut:caption">2021-02-03 09-50-10.mkv</property>
    <filter id="filter542" in="00:46:42.750" out="00:46:49.450">
      <property name="window">75</property>
      <property name="max_gain">20dB</property>
      <property name="level">12</property>
      <property name="mlt_service">volume</property>
    </filter>
  </producer>
  <producer id="producer548" in="00:00:00.000" out="00:50:55.017">
    <property name="length">00:50:55.033</property>
    <property name="eof">pause</property>
    <property name="resource">C:/Users/Sahid/Videos/QGIS Basic/6_Layouting/2021-02-03 09-50-10.mkv</property>
    <property name="audio_index">1</property>
    <property name="video_index">0</property>
    <property name="mute_on_pause">0</property>
    <property name="mlt_service">avformat-novalidate</property>
    <property name="seekable">1</property>
    <property name="aspect_ratio">1</property>
    <property name="creation_time">2021-02-03T03:41:06</property>
    <property name="global_feed">1</property>
    <property name="xml">was here</property>
    <property name="shotcut:hash">8e392e48be4935f7d753048eef069fa1</property>
    <property name="shotcut:caption">2021-02-03 09-50-10.mkv</property>
    <filter id="filter543" in="00:46:50.283" out="00:46:51.517">
      <property name="window">75</property>
      <property name="max_gain">20dB</property>
      <property name="level">12</property>
      <property name="mlt_service">volume</property>
    </filter>
  </producer>
  <producer id="producer549" in="00:00:00.000" out="00:50:55.017">
    <property name="length">00:50:55.033</property>
    <property name="eof">pause</property>
    <property name="resource">C:/Users/Sahid/Videos/QGIS Basic/6_Layouting/2021-02-03 09-50-10.mkv</property>
    <property name="audio_index">1</property>
    <property name="video_index">0</property>
    <property name="mute_on_pause">0</property>
    <property name="mlt_service">avformat-novalidate</property>
    <property name="seekable">1</property>
    <property name="aspect_ratio">1</property>
    <property name="creation_time">2021-02-03T03:41:06</property>
    <property name="global_feed">1</property>
    <property name="xml">was here</property>
    <property name="shotcut:hash">8e392e48be4935f7d753048eef069fa1</property>
    <property name="shotcut:caption">2021-02-03 09-50-10.mkv</property>
    <filter id="filter544" in="00:46:52.300" out="00:46:57.383">
      <property name="window">75</property>
      <property name="max_gain">20dB</property>
      <property name="level">12</property>
      <property name="mlt_service">volume</property>
    </filter>
  </producer>
  <producer id="producer550" in="00:00:00.000" out="00:50:55.017">
    <property name="length">00:50:55.033</property>
    <property name="eof">pause</property>
    <property name="resource">C:/Users/Sahid/Videos/QGIS Basic/6_Layouting/2021-02-03 09-50-10.mkv</property>
    <property name="audio_index">1</property>
    <property name="video_index">0</property>
    <property name="mute_on_pause">0</property>
    <property name="mlt_service">avformat-novalidate</property>
    <property name="seekable">1</property>
    <property name="aspect_ratio">1</property>
    <property name="creation_time">2021-02-03T03:41:06</property>
    <property name="global_feed">1</property>
    <property name="xml">was here</property>
    <property name="shotcut:hash">8e392e48be4935f7d753048eef069fa1</property>
    <property name="shotcut:caption">2021-02-03 09-50-10.mkv</property>
    <filter id="filter545" in="00:46:57.867" out="00:47:00.433">
      <property name="window">75</property>
      <property name="max_gain">20dB</property>
      <property name="level">12</property>
      <property name="mlt_service">volume</property>
    </filter>
  </producer>
  <producer id="producer551" in="00:00:00.000" out="00:50:55.017">
    <property name="length">00:50:55.033</property>
    <property name="eof">pause</property>
    <property name="resource">C:/Users/Sahid/Videos/QGIS Basic/6_Layouting/2021-02-03 09-50-10.mkv</property>
    <property name="audio_index">1</property>
    <property name="video_index">0</property>
    <property name="mute_on_pause">0</property>
    <property name="mlt_service">avformat-novalidate</property>
    <property name="seekable">1</property>
    <property name="aspect_ratio">1</property>
    <property name="creation_time">2021-02-03T03:41:06</property>
    <property name="global_feed">1</property>
    <property name="xml">was here</property>
    <property name="shotcut:hash">8e392e48be4935f7d753048eef069fa1</property>
    <property name="shotcut:caption">2021-02-03 09-50-10.mkv</property>
    <filter id="filter546" in="00:47:01.583" out="00:47:03.083">
      <property name="window">75</property>
      <property name="max_gain">20dB</property>
      <property name="level">12</property>
      <property name="mlt_service">volume</property>
    </filter>
  </producer>
  <producer id="producer552" in="00:00:00.000" out="00:50:55.017">
    <property name="length">00:50:55.033</property>
    <property name="eof">pause</property>
    <property name="resource">C:/Users/Sahid/Videos/QGIS Basic/6_Layouting/2021-02-03 09-50-10.mkv</property>
    <property name="audio_index">1</property>
    <property name="video_index">0</property>
    <property name="mute_on_pause">0</property>
    <property name="mlt_service">avformat-novalidate</property>
    <property name="seekable">1</property>
    <property name="aspect_ratio">1</property>
    <property name="creation_time">2021-02-03T03:41:06</property>
    <property name="global_feed">1</property>
    <property name="xml">was here</property>
    <property name="shotcut:hash">8e392e48be4935f7d753048eef069fa1</property>
    <property name="shotcut:caption">2021-02-03 09-50-10.mkv</property>
    <filter id="filter547" in="00:47:03.750" out="00:47:05.983">
      <property name="window">75</property>
      <property name="max_gain">20dB</property>
      <property name="level">12</property>
      <property name="mlt_service">volume</property>
    </filter>
  </producer>
  <producer id="producer553" in="00:00:00.000" out="00:50:55.017">
    <property name="length">00:50:55.033</property>
    <property name="eof">pause</property>
    <property name="resource">C:/Users/Sahid/Videos/QGIS Basic/6_Layouting/2021-02-03 09-50-10.mkv</property>
    <property name="audio_index">1</property>
    <property name="video_index">0</property>
    <property name="mute_on_pause">0</property>
    <property name="mlt_service">avformat-novalidate</property>
    <property name="seekable">1</property>
    <property name="aspect_ratio">1</property>
    <property name="creation_time">2021-02-03T03:41:06</property>
    <property name="global_feed">1</property>
    <property name="xml">was here</property>
    <property name="shotcut:hash">8e392e48be4935f7d753048eef069fa1</property>
    <property name="shotcut:caption">2021-02-03 09-50-10.mkv</property>
    <filter id="filter548" in="00:47:06.617" out="00:47:11.183">
      <property name="window">75</property>
      <property name="max_gain">20dB</property>
      <property name="level">12</property>
      <property name="mlt_service">volume</property>
    </filter>
  </producer>
  <producer id="producer554" in="00:00:00.000" out="00:50:55.017">
    <property name="length">00:50:55.033</property>
    <property name="eof">pause</property>
    <property name="resource">C:/Users/Sahid/Videos/QGIS Basic/6_Layouting/2021-02-03 09-50-10.mkv</property>
    <property name="audio_index">1</property>
    <property name="video_index">0</property>
    <property name="mute_on_pause">0</property>
    <property name="mlt_service">avformat-novalidate</property>
    <property name="seekable">1</property>
    <property name="aspect_ratio">1</property>
    <property name="creation_time">2021-02-03T03:41:06</property>
    <property name="global_feed">1</property>
    <property name="xml">was here</property>
    <property name="shotcut:hash">8e392e48be4935f7d753048eef069fa1</property>
    <property name="shotcut:caption">2021-02-03 09-50-10.mkv</property>
    <filter id="filter549" in="00:47:12.883" out="00:47:15.200">
      <property name="window">75</property>
      <property name="max_gain">20dB</property>
      <property name="level">12</property>
      <property name="mlt_service">volume</property>
    </filter>
  </producer>
  <producer id="producer555" in="00:00:00.000" out="00:50:55.017">
    <property name="length">00:50:55.033</property>
    <property name="eof">pause</property>
    <property name="resource">C:/Users/Sahid/Videos/QGIS Basic/6_Layouting/2021-02-03 09-50-10.mkv</property>
    <property name="audio_index">1</property>
    <property name="video_index">0</property>
    <property name="mute_on_pause">0</property>
    <property name="mlt_service">avformat-novalidate</property>
    <property name="seekable">1</property>
    <property name="aspect_ratio">1</property>
    <property name="creation_time">2021-02-03T03:41:06</property>
    <property name="global_feed">1</property>
    <property name="xml">was here</property>
    <property name="shotcut:hash">8e392e48be4935f7d753048eef069fa1</property>
    <property name="shotcut:caption">2021-02-03 09-50-10.mkv</property>
    <filter id="filter550" in="00:47:15.467" out="00:47:17.467">
      <property name="window">75</property>
      <property name="max_gain">20dB</property>
      <property name="level">12</property>
      <property name="mlt_service">volume</property>
    </filter>
  </producer>
  <producer id="producer556" in="00:00:00.000" out="00:50:55.017">
    <property name="length">00:50:55.033</property>
    <property name="eof">pause</property>
    <property name="resource">C:/Users/Sahid/Videos/QGIS Basic/6_Layouting/2021-02-03 09-50-10.mkv</property>
    <property name="audio_index">1</property>
    <property name="video_index">0</property>
    <property name="mute_on_pause">0</property>
    <property name="mlt_service">avformat-novalidate</property>
    <property name="seekable">1</property>
    <property name="aspect_ratio">1</property>
    <property name="creation_time">2021-02-03T03:41:06</property>
    <property name="global_feed">1</property>
    <property name="xml">was here</property>
    <property name="shotcut:hash">8e392e48be4935f7d753048eef069fa1</property>
    <property name="shotcut:caption">2021-02-03 09-50-10.mkv</property>
    <filter id="filter551" in="00:47:18.400" out="00:47:24.167">
      <property name="window">75</property>
      <property name="max_gain">20dB</property>
      <property name="level">12</property>
      <property name="mlt_service">volume</property>
    </filter>
  </producer>
  <producer id="producer557" in="00:00:00.000" out="00:50:55.017">
    <property name="length">00:50:55.033</property>
    <property name="eof">pause</property>
    <property name="resource">C:/Users/Sahid/Videos/QGIS Basic/6_Layouting/2021-02-03 09-50-10.mkv</property>
    <property name="audio_index">1</property>
    <property name="video_index">0</property>
    <property name="mute_on_pause">0</property>
    <property name="mlt_service">avformat-novalidate</property>
    <property name="seekable">1</property>
    <property name="aspect_ratio">1</property>
    <property name="creation_time">2021-02-03T03:41:06</property>
    <property name="global_feed">1</property>
    <property name="xml">was here</property>
    <property name="shotcut:hash">8e392e48be4935f7d753048eef069fa1</property>
    <property name="shotcut:caption">2021-02-03 09-50-10.mkv</property>
    <filter id="filter552" in="00:47:24.867" out="00:47:26.100">
      <property name="window">75</property>
      <property name="max_gain">20dB</property>
      <property name="level">12</property>
      <property name="mlt_service">volume</property>
    </filter>
  </producer>
  <producer id="producer558" in="00:00:00.000" out="00:50:55.017">
    <property name="length">00:50:55.033</property>
    <property name="eof">pause</property>
    <property name="resource">C:/Users/Sahid/Videos/QGIS Basic/6_Layouting/2021-02-03 09-50-10.mkv</property>
    <property name="audio_index">1</property>
    <property name="video_index">0</property>
    <property name="mute_on_pause">0</property>
    <property name="mlt_service">avformat-novalidate</property>
    <property name="seekable">1</property>
    <property name="aspect_ratio">1</property>
    <property name="creation_time">2021-02-03T03:41:06</property>
    <property name="global_feed">1</property>
    <property name="xml">was here</property>
    <property name="shotcut:hash">8e392e48be4935f7d753048eef069fa1</property>
    <property name="shotcut:caption">2021-02-03 09-50-10.mkv</property>
    <filter id="filter553" in="00:49:12.550" out="00:49:14.433">
      <property name="window">75</property>
      <property name="max_gain">20dB</property>
      <property name="level">12</property>
      <property name="mlt_service">volume</property>
    </filter>
  </producer>
  <producer id="producer559" in="00:00:00.000" out="00:50:55.017">
    <property name="length">00:50:55.033</property>
    <property name="eof">pause</property>
    <property name="resource">C:/Users/Sahid/Videos/QGIS Basic/6_Layouting/2021-02-03 09-50-10.mkv</property>
    <property name="audio_index">1</property>
    <property name="video_index">0</property>
    <property name="mute_on_pause">0</property>
    <property name="mlt_service">avformat-novalidate</property>
    <property name="seekable">1</property>
    <property name="aspect_ratio">1</property>
    <property name="creation_time">2021-02-03T03:41:06</property>
    <property name="global_feed">1</property>
    <property name="xml">was here</property>
    <property name="shotcut:hash">8e392e48be4935f7d753048eef069fa1</property>
    <property name="shotcut:caption">2021-02-03 09-50-10.mkv</property>
    <filter id="filter554" in="00:49:19.633" out="00:49:21.417">
      <property name="window">75</property>
      <property name="max_gain">20dB</property>
      <property name="level">12</property>
      <property name="mlt_service">volume</property>
    </filter>
  </producer>
  <producer id="producer560" in="00:00:00.000" out="00:50:55.017">
    <property name="length">00:50:55.033</property>
    <property name="eof">pause</property>
    <property name="resource">C:/Users/Sahid/Videos/QGIS Basic/6_Layouting/2021-02-03 09-50-10.mkv</property>
    <property name="audio_index">1</property>
    <property name="video_index">0</property>
    <property name="mute_on_pause">0</property>
    <property name="mlt_service">avformat-novalidate</property>
    <property name="seekable">1</property>
    <property name="aspect_ratio">1</property>
    <property name="creation_time">2021-02-03T03:41:06</property>
    <property name="global_feed">1</property>
    <property name="xml">was here</property>
    <property name="shotcut:hash">8e392e48be4935f7d753048eef069fa1</property>
    <property name="shotcut:caption">2021-02-03 09-50-10.mkv</property>
    <filter id="filter555" in="00:49:29.167" out="00:49:31.133">
      <property name="window">75</property>
      <property name="max_gain">20dB</property>
      <property name="level">12</property>
      <property name="mlt_service">volume</property>
    </filter>
  </producer>
  <producer id="producer561" in="00:00:00.000" out="00:50:55.017">
    <property name="length">00:50:55.033</property>
    <property name="eof">pause</property>
    <property name="resource">C:/Users/Sahid/Videos/QGIS Basic/6_Layouting/2021-02-03 09-50-10.mkv</property>
    <property name="audio_index">1</property>
    <property name="video_index">0</property>
    <property name="mute_on_pause">0</property>
    <property name="mlt_service">avformat-novalidate</property>
    <property name="seekable">1</property>
    <property name="aspect_ratio">1</property>
    <property name="creation_time">2021-02-03T03:41:06</property>
    <property name="global_feed">1</property>
    <property name="xml">was here</property>
    <property name="shotcut:hash">8e392e48be4935f7d753048eef069fa1</property>
    <property name="shotcut:caption">2021-02-03 09-50-10.mkv</property>
    <filter id="filter556" in="00:49:31.633" out="00:49:35.000">
      <property name="window">75</property>
      <property name="max_gain">20dB</property>
      <property name="level">12</property>
      <property name="mlt_service">volume</property>
    </filter>
  </producer>
  <producer id="producer562" in="00:00:00.000" out="00:50:55.017">
    <property name="length">00:50:55.033</property>
    <property name="eof">pause</property>
    <property name="resource">C:/Users/Sahid/Videos/QGIS Basic/6_Layouting/2021-02-03 09-50-10.mkv</property>
    <property name="audio_index">1</property>
    <property name="video_index">0</property>
    <property name="mute_on_pause">0</property>
    <property name="mlt_service">avformat-novalidate</property>
    <property name="seekable">1</property>
    <property name="aspect_ratio">1</property>
    <property name="creation_time">2021-02-03T03:41:06</property>
    <property name="global_feed">1</property>
    <property name="xml">was here</property>
    <property name="shotcut:hash">8e392e48be4935f7d753048eef069fa1</property>
    <property name="shotcut:caption">2021-02-03 09-50-10.mkv</property>
    <filter id="filter557" in="00:49:55.600" out="00:50:01.067">
      <property name="window">75</property>
      <property name="max_gain">20dB</property>
      <property name="level">12</property>
      <property name="mlt_service">volume</property>
    </filter>
  </producer>
  <producer id="producer563" in="00:00:00.000" out="00:50:55.017">
    <property name="length">00:50:55.033</property>
    <property name="eof">pause</property>
    <property name="resource">C:/Users/Sahid/Videos/QGIS Basic/6_Layouting/2021-02-03 09-50-10.mkv</property>
    <property name="audio_index">1</property>
    <property name="video_index">0</property>
    <property name="mute_on_pause">0</property>
    <property name="mlt_service">avformat-novalidate</property>
    <property name="seekable">1</property>
    <property name="aspect_ratio">1</property>
    <property name="creation_time">2021-02-03T03:41:06</property>
    <property name="global_feed">1</property>
    <property name="xml">was here</property>
    <property name="shotcut:hash">8e392e48be4935f7d753048eef069fa1</property>
    <property name="shotcut:caption">2021-02-03 09-50-10.mkv</property>
    <filter id="filter558" in="00:50:01.483" out="00:50:04.000">
      <property name="window">75</property>
      <property name="max_gain">20dB</property>
      <property name="level">12</property>
      <property name="mlt_service">volume</property>
    </filter>
  </producer>
  <producer id="producer564" in="00:00:00.000" out="00:50:55.017">
    <property name="length">00:50:55.033</property>
    <property name="eof">pause</property>
    <property name="resource">C:/Users/Sahid/Videos/QGIS Basic/6_Layouting/2021-02-03 09-50-10.mkv</property>
    <property name="audio_index">1</property>
    <property name="video_index">0</property>
    <property name="mute_on_pause">0</property>
    <property name="mlt_service">avformat-novalidate</property>
    <property name="seekable">1</property>
    <property name="aspect_ratio">1</property>
    <property name="creation_time">2021-02-03T03:41:06</property>
    <property name="global_feed">1</property>
    <property name="xml">was here</property>
    <property name="shotcut:hash">8e392e48be4935f7d753048eef069fa1</property>
    <property name="shotcut:caption">2021-02-03 09-50-10.mkv</property>
    <filter id="filter559" in="00:50:04.483" out="00:50:06.800">
      <property name="window">75</property>
      <property name="max_gain">20dB</property>
      <property name="level">12</property>
      <property name="mlt_service">volume</property>
    </filter>
  </producer>
  <producer id="producer565" in="00:00:00.000" out="00:50:55.017">
    <property name="length">00:50:55.033</property>
    <property name="eof">pause</property>
    <property name="resource">C:/Users/Sahid/Videos/QGIS Basic/6_Layouting/2021-02-03 09-50-10.mkv</property>
    <property name="audio_index">1</property>
    <property name="video_index">0</property>
    <property name="mute_on_pause">0</property>
    <property name="mlt_service">avformat-novalidate</property>
    <property name="seekable">1</property>
    <property name="aspect_ratio">1</property>
    <property name="creation_time">2021-02-03T03:41:06</property>
    <property name="global_feed">1</property>
    <property name="xml">was here</property>
    <property name="shotcut:hash">8e392e48be4935f7d753048eef069fa1</property>
    <property name="shotcut:caption">2021-02-03 09-50-10.mkv</property>
    <filter id="filter560" in="00:50:07.250" out="00:50:09.333">
      <property name="window">75</property>
      <property name="max_gain">20dB</property>
      <property name="level">12</property>
      <property name="mlt_service">volume</property>
    </filter>
  </producer>
  <producer id="producer566" in="00:00:00.000" out="00:50:55.017">
    <property name="length">00:50:55.033</property>
    <property name="eof">pause</property>
    <property name="resource">C:/Users/Sahid/Videos/QGIS Basic/6_Layouting/2021-02-03 09-50-10.mkv</property>
    <property name="audio_index">1</property>
    <property name="video_index">0</property>
    <property name="mute_on_pause">0</property>
    <property name="mlt_service">avformat-novalidate</property>
    <property name="seekable">1</property>
    <property name="aspect_ratio">1</property>
    <property name="creation_time">2021-02-03T03:41:06</property>
    <property name="global_feed">1</property>
    <property name="xml">was here</property>
    <property name="shotcut:hash">8e392e48be4935f7d753048eef069fa1</property>
    <property name="shotcut:caption">2021-02-03 09-50-10.mkv</property>
    <filter id="filter561" in="00:50:09.733" out="00:50:11.667">
      <property name="window">75</property>
      <property name="max_gain">20dB</property>
      <property name="level">12</property>
      <property name="mlt_service">volume</property>
    </filter>
  </producer>
  <producer id="producer567" in="00:00:00.000" out="00:50:55.017">
    <property name="length">00:50:55.033</property>
    <property name="eof">pause</property>
    <property name="resource">C:/Users/Sahid/Videos/QGIS Basic/6_Layouting/2021-02-03 09-50-10.mkv</property>
    <property name="audio_index">1</property>
    <property name="video_index">0</property>
    <property name="mute_on_pause">0</property>
    <property name="mlt_service">avformat-novalidate</property>
    <property name="seekable">1</property>
    <property name="aspect_ratio">1</property>
    <property name="creation_time">2021-02-03T03:41:06</property>
    <property name="global_feed">1</property>
    <property name="xml">was here</property>
    <property name="shotcut:hash">8e392e48be4935f7d753048eef069fa1</property>
    <property name="shotcut:caption">2021-02-03 09-50-10.mkv</property>
    <filter id="filter562" in="00:50:12.583" out="00:50:14.500">
      <property name="window">75</property>
      <property name="max_gain">20dB</property>
      <property name="level">12</property>
      <property name="mlt_service">volume</property>
    </filter>
  </producer>
  <producer id="producer568" in="00:00:00.000" out="00:50:55.017">
    <property name="length">00:50:55.033</property>
    <property name="eof">pause</property>
    <property name="resource">C:/Users/Sahid/Videos/QGIS Basic/6_Layouting/2021-02-03 09-50-10.mkv</property>
    <property name="audio_index">1</property>
    <property name="video_index">0</property>
    <property name="mute_on_pause">0</property>
    <property name="mlt_service">avformat-novalidate</property>
    <property name="seekable">1</property>
    <property name="aspect_ratio">1</property>
    <property name="creation_time">2021-02-03T03:41:06</property>
    <property name="global_feed">1</property>
    <property name="xml">was here</property>
    <property name="shotcut:hash">8e392e48be4935f7d753048eef069fa1</property>
    <property name="shotcut:caption">2021-02-03 09-50-10.mkv</property>
    <filter id="filter563" in="00:50:15.000" out="00:50:16.883">
      <property name="window">75</property>
      <property name="max_gain">20dB</property>
      <property name="level">12</property>
      <property name="mlt_service">volume</property>
    </filter>
  </producer>
  <producer id="producer569" in="00:00:00.000" out="00:50:55.017">
    <property name="length">00:50:55.033</property>
    <property name="eof">pause</property>
    <property name="resource">C:/Users/Sahid/Videos/QGIS Basic/6_Layouting/2021-02-03 09-50-10.mkv</property>
    <property name="audio_index">1</property>
    <property name="video_index">0</property>
    <property name="mute_on_pause">0</property>
    <property name="mlt_service">avformat-novalidate</property>
    <property name="seekable">1</property>
    <property name="aspect_ratio">1</property>
    <property name="creation_time">2021-02-03T03:41:06</property>
    <property name="global_feed">1</property>
    <property name="xml">was here</property>
    <property name="shotcut:hash">8e392e48be4935f7d753048eef069fa1</property>
    <property name="shotcut:caption">2021-02-03 09-50-10.mkv</property>
    <filter id="filter564" in="00:50:17.317" out="00:50:18.550">
      <property name="window">75</property>
      <property name="max_gain">20dB</property>
      <property name="level">12</property>
      <property name="mlt_service">volume</property>
    </filter>
  </producer>
  <producer id="producer570" in="00:00:00.000" out="00:50:55.017">
    <property name="length">00:50:55.033</property>
    <property name="eof">pause</property>
    <property name="resource">C:/Users/Sahid/Videos/QGIS Basic/6_Layouting/2021-02-03 09-50-10.mkv</property>
    <property name="audio_index">1</property>
    <property name="video_index">0</property>
    <property name="mute_on_pause">0</property>
    <property name="mlt_service">avformat-novalidate</property>
    <property name="seekable">1</property>
    <property name="aspect_ratio">1</property>
    <property name="creation_time">2021-02-03T03:41:06</property>
    <property name="global_feed">1</property>
    <property name="xml">was here</property>
    <property name="shotcut:hash">8e392e48be4935f7d753048eef069fa1</property>
    <property name="shotcut:caption">2021-02-03 09-50-10.mkv</property>
    <filter id="filter565" in="00:50:18.567" out="00:50:18.683">
      <property name="window">75</property>
      <property name="max_gain">20dB</property>
      <property name="level">12</property>
      <property name="mlt_service">volume</property>
    </filter>
  </producer>
  <producer id="producer571" in="00:00:00.000" out="00:50:55.017">
    <property name="length">00:50:55.033</property>
    <property name="eof">pause</property>
    <property name="resource">C:/Users/Sahid/Videos/QGIS Basic/6_Layouting/2021-02-03 09-50-10.mkv</property>
    <property name="audio_index">1</property>
    <property name="video_index">0</property>
    <property name="mute_on_pause">0</property>
    <property name="mlt_service">avformat-novalidate</property>
    <property name="seekable">1</property>
    <property name="aspect_ratio">1</property>
    <property name="creation_time">2021-02-03T03:41:06</property>
    <property name="global_feed">1</property>
    <property name="xml">was here</property>
    <property name="shotcut:hash">8e392e48be4935f7d753048eef069fa1</property>
    <property name="shotcut:caption">2021-02-03 09-50-10.mkv</property>
    <filter id="filter566" in="00:50:34.667" out="00:50:37.217">
      <property name="window">75</property>
      <property name="max_gain">20dB</property>
      <property name="level">12</property>
      <property name="mlt_service">volume</property>
    </filter>
  </producer>
  <producer id="producer572" in="00:00:00.000" out="00:50:55.017">
    <property name="length">00:50:55.033</property>
    <property name="eof">pause</property>
    <property name="resource">C:/Users/Sahid/Videos/QGIS Basic/6_Layouting/2021-02-03 09-50-10.mkv</property>
    <property name="audio_index">1</property>
    <property name="video_index">0</property>
    <property name="mute_on_pause">0</property>
    <property name="mlt_service">avformat-novalidate</property>
    <property name="seekable">1</property>
    <property name="aspect_ratio">1</property>
    <property name="creation_time">2021-02-03T03:41:06</property>
    <property name="global_feed">1</property>
    <property name="xml">was here</property>
    <property name="shotcut:hash">8e392e48be4935f7d753048eef069fa1</property>
    <property name="shotcut:caption">2021-02-03 09-50-10.mkv</property>
    <filter id="filter567" in="00:50:37.583" out="00:50:39.217">
      <property name="window">75</property>
      <property name="max_gain">20dB</property>
      <property name="level">12</property>
      <property name="mlt_service">volume</property>
    </filter>
  </producer>
  <producer id="producer573" in="00:00:00.000" out="00:50:55.017">
    <property name="length">00:50:55.033</property>
    <property name="eof">pause</property>
    <property name="resource">C:/Users/Sahid/Videos/QGIS Basic/6_Layouting/2021-02-03 09-50-10.mkv</property>
    <property name="audio_index">1</property>
    <property name="video_index">0</property>
    <property name="mute_on_pause">0</property>
    <property name="mlt_service">avformat-novalidate</property>
    <property name="seekable">1</property>
    <property name="aspect_ratio">1</property>
    <property name="creation_time">2021-02-03T03:41:06</property>
    <property name="global_feed">1</property>
    <property name="xml">was here</property>
    <property name="shotcut:hash">8e392e48be4935f7d753048eef069fa1</property>
    <property name="shotcut:caption">2021-02-03 09-50-10.mkv</property>
    <filter id="filter568" in="00:50:39.483" out="00:50:41.400">
      <property name="window">75</property>
      <property name="max_gain">20dB</property>
      <property name="level">12</property>
      <property name="mlt_service">volume</property>
    </filter>
  </producer>
  <producer id="producer574" in="00:00:00.000" out="00:50:55.017">
    <property name="length">00:50:55.033</property>
    <property name="eof">pause</property>
    <property name="resource">C:/Users/Sahid/Videos/QGIS Basic/6_Layouting/2021-02-03 09-50-10.mkv</property>
    <property name="audio_index">1</property>
    <property name="video_index">0</property>
    <property name="mute_on_pause">0</property>
    <property name="mlt_service">avformat-novalidate</property>
    <property name="seekable">1</property>
    <property name="aspect_ratio">1</property>
    <property name="creation_time">2021-02-03T03:41:06</property>
    <property name="global_feed">1</property>
    <property name="xml">was here</property>
    <property name="shotcut:hash">8e392e48be4935f7d753048eef069fa1</property>
    <property name="shotcut:caption">2021-02-03 09-50-10.mkv</property>
    <filter id="filter569" in="00:50:42.800" out="00:50:46.533">
      <property name="window">75</property>
      <property name="max_gain">20dB</property>
      <property name="level">12</property>
      <property name="mlt_service">volume</property>
    </filter>
  </producer>
  <playlist id="playlist0">
    <property name="shotcut:video">1</property>
    <property name="shotcut:name">V1</property>
    <blank length="00:00:11.717"/>
    <entry producer="producer5" in="00:00:16.783" out="00:00:19.767"/>
    <entry producer="producer6" in="00:00:20.133" out="00:00:24.650"/>
    <entry producer="producer7" in="00:00:25.367" out="00:00:28.183"/>
    <entry producer="producer8" in="00:00:28.883" out="00:00:32.367"/>
    <entry producer="producer9" in="00:00:34.683" out="00:00:35.633"/>
    <entry producer="producer10" in="00:00:36.050" out="00:00:37.983"/>
    <entry producer="producer11" in="00:00:38.467" out="00:00:41.900"/>
    <entry producer="producer12" in="00:00:42.367" out="00:00:44.117"/>
    <entry producer="producer13" in="00:00:44.650" out="00:00:47.217"/>
    <entry producer="producer14" in="00:00:48.300" out="00:00:50.533"/>
    <entry producer="producer15" in="00:00:50.783" out="00:00:52.933"/>
    <entry producer="producer16" in="00:00:53.450" out="00:00:55.900"/>
    <entry producer="producer17" in="00:00:56.767" out="00:01:02.667"/>
    <entry producer="producer18" in="00:01:03.150" out="00:01:04.283"/>
    <entry producer="producer19" in="00:01:05.767" out="00:01:10.233"/>
    <entry producer="producer20" in="00:01:16.450" out="00:01:18.917"/>
    <entry producer="producer21" in="00:01:19.350" out="00:01:22.617"/>
    <entry producer="producer22" in="00:01:22.950" out="00:01:24.217"/>
    <entry producer="producer23" in="00:01:24.800" out="00:01:26.900"/>
    <entry producer="producer24" in="00:01:27.767" out="00:01:28.717"/>
    <entry producer="producer25" in="00:01:29.183" out="00:01:31.333"/>
    <entry producer="producer26" in="00:01:31.683" out="00:01:35.700"/>
    <entry producer="producer27" in="00:01:35.917" out="00:01:39.433"/>
    <entry producer="producer28" in="00:01:39.833" out="00:01:43.133"/>
    <entry producer="producer29" in="00:01:43.650" out="00:01:45.583"/>
    <entry producer="producer30" in="00:01:52.233" out="00:01:55.417"/>
    <entry producer="producer31" in="00:01:55.767" out="00:02:00.750"/>
    <entry producer="producer32" in="00:02:01.150" out="00:02:05.033"/>
    <entry producer="producer33" in="00:02:05.600" out="00:02:09.467"/>
    <entry producer="producer34" in="00:02:09.933" out="00:02:12.483"/>
    <entry producer="producer35" in="00:02:14.267" out="00:02:15.100"/>
    <entry producer="producer36" in="00:02:28.017" out="00:02:32.983"/>
    <entry producer="producer37" in="00:02:35.983" out="00:02:37.950"/>
    <entry producer="producer38" in="00:02:38.233" out="00:02:38.367"/>
    <entry producer="producer39" in="00:02:38.467" out="00:02:38.717"/>
    <entry producer="producer40" in="00:02:39.617" out="00:02:41.783"/>
    <entry producer="producer41" in="00:00:55.067" out="00:00:57.417"/>
    <entry producer="producer42" in="00:00:57.750" out="00:01:00.317"/>
    <entry producer="producer43" in="00:01:13.567" out="00:01:15.317"/>
    <entry producer="producer44" in="00:01:15.950" out="00:01:20.083"/>
    <entry producer="producer45" in="00:01:20.817" out="00:01:22.083"/>
    <entry producer="producer46" in="00:01:27.233" out="00:01:31.250"/>
    <entry producer="producer47" in="00:01:31.500" out="00:01:34.617"/>
    <entry producer="producer48" in="00:01:35.133" out="00:01:41.117"/>
    <entry producer="producer49" in="00:01:41.783" out="00:01:46.850"/>
    <entry producer="producer50" in="00:01:50.033" out="00:01:55.217"/>
    <entry producer="producer51" in="00:01:56.067" out="00:01:58.800"/>
    <entry producer="producer52" in="00:01:59.967" out="00:02:02.067"/>
    <entry producer="producer53" in="00:02:02.800" out="00:02:04.900"/>
    <entry producer="producer54" in="00:02:05.367" out="00:02:06.033"/>
    <entry producer="producer55" in="00:02:06.867" out="00:02:09.100"/>
    <entry producer="producer56" in="00:02:10.150" out="00:02:10.717"/>
    <entry producer="producer57" in="00:02:11.267" out="00:02:11.967"/>
    <entry producer="producer58" in="00:02:13.000" out="00:02:15.900"/>
    <entry producer="producer59" in="00:02:20.850" out="00:02:24.550"/>
    <entry producer="producer60" in="00:02:26.050" out="00:02:27.217"/>
    <entry producer="producer61" in="00:02:29.783" out="00:02:30.400"/>
    <entry producer="producer62" in="00:02:30.833" out="00:02:34.667"/>
    <entry producer="producer63" in="00:02:35.550" out="00:02:38.600"/>
    <entry producer="producer64" in="00:02:39.183" out="00:02:43.367"/>
    <entry producer="producer65" in="00:02:43.867" out="00:02:48.167"/>
    <entry producer="producer66" in="00:02:54.550" out="00:02:57.067"/>
    <entry producer="producer67" in="00:02:57.217" out="00:02:59.250"/>
    <entry producer="producer68" in="00:02:59.717" out="00:03:01.700"/>
    <entry producer="producer69" in="00:03:02.233" out="00:03:05.383"/>
    <entry producer="producer70" in="00:03:05.933" out="00:03:08.167"/>
    <entry producer="producer71" in="00:03:09.250" out="00:03:10.533"/>
    <entry producer="producer72" in="00:03:11.100" out="00:03:12.417"/>
    <entry producer="producer73" in="00:03:20.783" out="00:03:23.350"/>
    <entry producer="producer74" in="00:03:27.500" out="00:03:29.117"/>
    <entry producer="producer75" in="00:03:29.650" out="00:03:32.333"/>
    <entry producer="producer76" in="00:03:33.283" out="00:03:34.633"/>
    <entry producer="producer77" in="00:03:39.067" out="00:03:40.767"/>
    <entry producer="producer78" in="00:03:41.133" out="00:03:42.933"/>
    <entry producer="producer79" in="00:03:43.317" out="00:03:46.267"/>
    <entry producer="producer80" in="00:03:46.417" out="00:03:47.800"/>
    <entry producer="producer81" in="00:03:49.167" out="00:03:49.767"/>
    <entry producer="producer82" in="00:03:55.150" out="00:03:56.017"/>
    <entry producer="producer83" in="00:04:03.467" out="00:04:08.200"/>
    <entry producer="producer84" in="00:04:12.517" out="00:04:14.717"/>
    <entry producer="producer85" in="00:04:15.833" out="00:04:19.050"/>
    <entry producer="producer86" in="00:04:19.867" out="00:04:26.717"/>
    <entry producer="producer87" in="00:04:27.483" out="00:04:29.117"/>
    <entry producer="producer88" in="00:04:30.317" out="00:04:33.283"/>
    <entry producer="producer89" in="00:04:33.833" out="00:04:36.583"/>
    <entry producer="producer90" in="00:04:37.250" out="00:04:41.533"/>
    <entry producer="producer91" in="00:04:42.083" out="00:04:46.767"/>
    <entry producer="producer92" in="00:04:47.333" out="00:04:48.933"/>
    <entry producer="producer93" in="00:04:49.450" out="00:04:50.717"/>
    <entry producer="producer94" in="00:04:51.200" out="00:04:52.883"/>
    <entry producer="producer95" in="00:04:53.317" out="00:04:54.917"/>
    <entry producer="producer96" in="00:04:55.217" out="00:04:55.883"/>
    <entry producer="producer97" in="00:04:57.117" out="00:04:58.333"/>
    <entry producer="producer98" in="00:04:58.967" out="00:05:01.250"/>
    <entry producer="producer99" in="00:05:02.167" out="00:05:03.850"/>
    <entry producer="producer100" in="00:05:04.517" out="00:05:08.050"/>
    <entry producer="producer101" in="00:05:08.850" out="00:05:11.367"/>
    <entry producer="producer102" in="00:05:12.183" out="00:05:16.300"/>
    <entry producer="producer103" in="00:05:16.983" out="00:05:23.600"/>
    <entry producer="producer104" in="00:05:24.233" out="00:05:26.200"/>
    <entry producer="producer105" in="00:05:26.633" out="00:05:35.000"/>
    <entry producer="producer106" in="00:05:35.733" out="00:05:37.267"/>
    <entry producer="producer107" in="00:05:38.200" out="00:05:40.300"/>
    <entry producer="producer108" in="00:06:15.233" out="00:06:18.567"/>
    <entry producer="producer109" in="00:06:19.250" out="00:06:20.367"/>
    <entry producer="producer110" in="00:06:21.000" out="00:06:24.650"/>
    <entry producer="producer111" in="00:06:25.550" out="00:06:28.050"/>
    <entry producer="producer112" in="00:06:28.883" out="00:06:30.017"/>
    <entry producer="producer113" in="00:06:30.933" out="00:06:35.483"/>
    <entry producer="producer114" in="00:06:35.983" out="00:06:36.833"/>
    <entry producer="producer115" in="00:06:37.100" out="00:06:39.850"/>
    <entry producer="producer116" in="00:06:40.350" out="00:06:42.483"/>
    <entry producer="producer117" in="00:06:43.783" out="00:06:44.233"/>
    <entry producer="producer118" in="00:06:44.700" out="00:06:47.133"/>
    <entry producer="producer119" in="00:06:47.650" out="00:06:49.750"/>
    <entry producer="producer120" in="00:07:05.350" out="00:07:08.217"/>
    <entry producer="producer121" in="00:07:08.683" out="00:07:11.450"/>
    <entry producer="producer122" in="00:07:11.883" out="00:07:14.633"/>
    <entry producer="producer123" in="00:00:15.667" out="00:00:21.817"/>
    <entry producer="producer124" in="00:00:22.750" out="00:00:27.350"/>
    <entry producer="producer125" in="00:00:27.817" out="00:00:33.750"/>
    <entry producer="producer126" in="00:00:34.383" out="00:00:39.300"/>
    <entry producer="producer127" in="00:00:39.933" out="00:00:41.700"/>
    <entry producer="producer128" in="00:00:45.283" out="00:00:47.583"/>
    <entry producer="producer129" in="00:00:49.067" out="00:00:54.250"/>
    <entry producer="producer130" in="00:00:54.950" out="00:00:59.667"/>
    <entry producer="producer131" in="00:01:00.567" out="00:01:02.433"/>
    <entry producer="producer132" in="00:01:13.833" out="00:01:15.367"/>
    <entry producer="producer133" in="00:01:31.433" out="00:01:34.433"/>
    <entry producer="producer134" in="00:01:34.950" out="00:01:35.783"/>
    <entry producer="producer135" in="00:01:36.083" out="00:01:38.000"/>
    <entry producer="producer136" in="00:01:38.700" out="00:01:40.433"/>
    <entry producer="producer137" in="00:01:40.700" out="00:01:44.000"/>
    <entry producer="producer138" in="00:01:44.517" out="00:01:48.000"/>
    <entry producer="producer139" in="00:01:49.083" out="00:01:53.900"/>
    <entry producer="producer140" in="00:02:03.417" out="00:02:06.683"/>
    <entry producer="producer141" in="00:02:08.650" out="00:02:10.767"/>
    <entry producer="producer142" in="00:02:11.267" out="00:02:13.033"/>
    <entry producer="producer143" in="00:02:14.083" out="00:02:16.017"/>
    <entry producer="producer144" in="00:02:16.617" out="00:02:18.200"/>
    <entry producer="producer145" in="00:02:19.133" out="00:02:22.400"/>
    <entry producer="producer146" in="00:02:23.100" out="00:02:24.667"/>
    <entry producer="producer147" in="00:02:26.333" out="00:02:30.050"/>
    <entry producer="producer148" in="00:02:30.683" out="00:02:36.017"/>
    <entry producer="producer149" in="00:02:37.533" out="00:02:39.033"/>
    <entry producer="producer150" in="00:02:39.050" out="00:02:42.333"/>
    <entry producer="producer151" in="00:02:44.167" out="00:02:49.050"/>
    <entry producer="producer152" in="00:02:49.850" out="00:02:53.683"/>
    <entry producer="producer153" in="00:02:55.267" out="00:02:57.867"/>
    <entry producer="producer154" in="00:02:58.450" out="00:03:00.433"/>
    <entry producer="producer155" in="00:03:01.000" out="00:03:03.850"/>
    <entry producer="producer156" in="00:03:07.817" out="00:03:12.733"/>
    <entry producer="producer157" in="00:03:13.417" out="00:03:18.817"/>
    <entry producer="producer158" in="00:03:20.067" out="00:03:25.867"/>
    <entry producer="producer159" in="00:03:26.567" out="00:03:29.050"/>
    <entry producer="producer160" in="00:03:29.450" out="00:03:32.700"/>
    <entry producer="producer161" in="00:03:33.350" out="00:03:37.950"/>
    <entry producer="producer162" in="00:03:40.683" out="00:03:47.117"/>
    <entry producer="producer163" in="00:03:50.000" out="00:03:54.450"/>
    <entry producer="producer164" in="00:03:56.050" out="00:03:56.583"/>
    <entry producer="producer165" in="00:03:56.600" out="00:03:58.183"/>
    <entry producer="producer166" in="00:03:58.417" out="00:03:59.167"/>
    <entry producer="producer167" in="00:03:59.950" out="00:04:01.117"/>
    <entry producer="producer168" in="00:04:01.433" out="00:04:02.100"/>
    <entry producer="producer169" in="00:04:02.150" out="00:04:02.817"/>
    <entry producer="producer170" in="00:04:04.017" out="00:04:08.000"/>
    <entry producer="producer171" in="00:04:09.200" out="00:04:09.983"/>
    <entry producer="producer172" in="00:04:11.083" out="00:04:12.133"/>
    <entry producer="producer173" in="00:04:12.150" out="00:04:13.367"/>
    <entry producer="producer174" in="00:04:14.400" out="00:04:18.500"/>
    <entry producer="producer175" in="00:04:19.383" out="00:04:22.300"/>
    <entry producer="producer176" in="00:04:24.500" out="00:04:31.983"/>
    <entry producer="producer177" in="00:04:32.333" out="00:04:33.700"/>
    <entry producer="producer178" in="00:04:34.150" out="00:04:34.683"/>
    <entry producer="producer179" in="00:04:37.550" out="00:04:39.533"/>
    <entry producer="producer180" in="00:04:39.550" out="00:04:42.783"/>
    <entry producer="producer181" in="00:04:48.117" out="00:04:51.717"/>
    <entry producer="producer182" in="00:04:52.467" out="00:04:56.750"/>
    <entry producer="producer183" in="00:04:58.233" out="00:04:59.583"/>
    <entry producer="producer184" in="00:05:00.633" out="00:05:02.950"/>
    <entry producer="producer185" in="00:05:09.967" out="00:05:14.700"/>
    <entry producer="producer186" in="00:05:16.867" out="00:05:19.717"/>
    <entry producer="producer187" in="00:05:24.800" out="00:05:26.683"/>
    <entry producer="producer188" in="00:05:26.700" out="00:05:28.767"/>
    <entry producer="producer189" in="00:05:28.783" out="00:05:30.450"/>
    <entry producer="producer190" in="00:05:42.367" out="00:05:46.767"/>
    <entry producer="producer191" in="00:05:48.817" out="00:05:51.733"/>
    <entry producer="producer192" in="00:05:53.050" out="00:05:55.983"/>
    <entry producer="producer193" in="00:05:57.117" out="00:06:01.733"/>
    <entry producer="producer194" in="00:06:14.333" out="00:06:17.033"/>
    <entry producer="producer195" in="00:06:35.733" out="00:06:38.433"/>
    <entry producer="producer196" in="00:06:40.917" out="00:06:44.417"/>
    <entry producer="producer197" in="00:07:13.283" out="00:07:14.083"/>
    <entry producer="producer198" in="00:07:14.950" out="00:07:19.017"/>
    <entry producer="producer199" in="00:07:36.567" out="00:07:41.317"/>
    <entry producer="producer200" in="00:07:41.333" out="00:07:44.033"/>
    <entry producer="producer201" in="00:07:44.050" out="00:07:46.883"/>
    <entry producer="producer202" in="00:07:50.150" out="00:07:52.483"/>
    <entry producer="producer203" in="00:07:52.500" out="00:07:55.167"/>
    <entry producer="producer204" in="00:07:55.800" out="00:08:00.117"/>
    <entry producer="producer205" in="00:08:02.150" out="00:08:05.467"/>
    <entry producer="producer206" in="00:08:18.050" out="00:08:23.417"/>
    <entry producer="producer207" in="00:08:23.900" out="00:08:26.633"/>
    <entry producer="producer208" in="00:08:32.450" out="00:08:35.217"/>
    <entry producer="producer209" in="00:08:37.083" out="00:08:39.150"/>
    <entry producer="producer210" in="00:08:42.267" out="00:08:47.833"/>
    <entry producer="producer211" in="00:08:50.450" out="00:09:01.417"/>
    <entry producer="producer212" in="00:09:02.300" out="00:09:05.133"/>
    <entry producer="producer213" in="00:09:09.450" out="00:09:13.283"/>
    <entry producer="producer214" in="00:09:18.233" out="00:09:24.217"/>
    <entry producer="producer215" in="00:09:24.233" out="00:09:29.267"/>
    <entry producer="producer216" in="00:09:38.217" out="00:09:42.250"/>
    <entry producer="producer217" in="00:09:53.700" out="00:09:57.917"/>
    <entry producer="producer218" in="00:10:00.333" out="00:10:03.150"/>
    <entry producer="producer219" in="00:10:09.017" out="00:10:13.000"/>
    <entry producer="producer220" in="00:10:14.600" out="00:10:17.100"/>
    <entry producer="producer221" in="00:10:17.117" out="00:10:20.050"/>
    <entry producer="producer222" in="00:10:21.433" out="00:10:23.217"/>
    <entry producer="producer223" in="00:10:23.233" out="00:10:25.067"/>
    <entry producer="producer224" in="00:10:26.467" out="00:10:27.483"/>
    <entry producer="producer225" in="00:10:37.967" out="00:10:46.100"/>
    <entry producer="producer226" in="00:10:47.067" out="00:10:50.200"/>
    <entry producer="producer227" in="00:10:50.217" out="00:10:51.083"/>
    <entry producer="producer228" in="00:10:52.317" out="00:10:54.467"/>
    <entry producer="producer229" in="00:10:56.767" out="00:11:00.867"/>
    <entry producer="producer230" in="00:11:04.883" out="00:11:06.383"/>
    <entry producer="producer231" in="00:11:07.300" out="00:11:10.300"/>
    <entry producer="producer232" in="00:11:10.967" out="00:11:14.700"/>
    <entry producer="producer233" in="00:11:20.817" out="00:11:25.250"/>
    <entry producer="producer234" in="00:11:25.533" out="00:11:26.617"/>
    <entry producer="producer235" in="00:11:26.950" out="00:11:28.800"/>
    <entry producer="producer236" in="00:11:29.417" out="00:11:41.017"/>
    <entry producer="producer237" in="00:11:41.417" out="00:11:45.917"/>
    <entry producer="producer238" in="00:11:46.550" out="00:11:47.783"/>
    <entry producer="producer239" in="00:11:48.683" out="00:11:52.033"/>
    <entry producer="producer240" in="00:11:52.767" out="00:11:56.767"/>
    <entry producer="producer241" in="00:11:57.783" out="00:12:01.183"/>
    <entry producer="producer242" in="00:12:02.250" out="00:12:04.550"/>
    <entry producer="producer243" in="00:12:05.383" out="00:12:08.200"/>
    <entry producer="producer244" in="00:12:13.050" out="00:12:16.300"/>
    <entry producer="producer245" in="00:12:17.833" out="00:12:20.283"/>
    <entry producer="producer246" in="00:12:21.617" out="00:12:24.033"/>
    <entry producer="producer247" in="00:12:24.050" out="00:12:25.283"/>
    <entry producer="producer248" in="00:12:25.300" out="00:12:30.383"/>
    <entry producer="producer249" in="00:13:13.333" out="00:13:17.783"/>
    <entry producer="producer250" in="00:13:18.567" out="00:13:20.083"/>
    <entry producer="producer251" in="00:13:20.850" out="00:13:22.833"/>
    <entry producer="producer252" in="00:13:23.517" out="00:13:27.800"/>
    <entry producer="producer253" in="00:13:28.200" out="00:13:31.083"/>
    <entry producer="producer254" in="00:13:31.433" out="00:13:34.700"/>
    <entry producer="producer255" in="00:13:35.183" out="00:13:36.950"/>
    <entry producer="producer256" in="00:13:36.967" out="00:13:38.067"/>
    <entry producer="producer257" in="00:13:41.100" out="00:13:44.867"/>
    <entry producer="producer258" in="00:13:45.433" out="00:13:48.183"/>
    <entry producer="producer259" in="00:13:48.900" out="00:13:50.867"/>
    <entry producer="producer260" in="00:13:56.183" out="00:13:57.683"/>
    <entry producer="producer261" in="00:13:58.083" out="00:14:01.750"/>
    <entry producer="producer262" in="00:14:02.300" out="00:14:04.083"/>
    <entry producer="producer263" in="00:14:06.617" out="00:14:10.433"/>
    <entry producer="producer264" in="00:14:10.883" out="00:14:13.067"/>
    <entry producer="producer265" in="00:14:13.900" out="00:14:15.500"/>
    <entry producer="producer266" in="00:14:16.117" out="00:14:20.017"/>
    <entry producer="producer267" in="00:14:20.483" out="00:14:22.750"/>
    <entry producer="producer268" in="00:14:23.200" out="00:14:24.483"/>
    <entry producer="producer269" in="00:14:24.867" out="00:14:27.317"/>
    <entry producer="producer270" in="00:14:27.917" out="00:14:32.617"/>
    <entry producer="producer271" in="00:14:33.650" out="00:14:37.017"/>
    <entry producer="producer272" in="00:14:39.033" out="00:14:44.833"/>
    <entry producer="producer273" in="00:14:45.483" out="00:14:49.433"/>
    <entry producer="producer274" in="00:14:49.783" out="00:14:54.783"/>
    <entry producer="producer275" in="00:14:58.800" out="00:15:03.183"/>
    <entry producer="producer276" in="00:15:03.750" out="00:15:06.600"/>
    <entry producer="producer277" in="00:15:07.067" out="00:15:09.767"/>
    <entry producer="producer278" in="00:15:10.433" out="00:15:13.367"/>
    <entry producer="producer279" in="00:15:14.050" out="00:15:17.517"/>
    <entry producer="producer280" in="00:15:18.083" out="00:15:20.500"/>
    <entry producer="producer281" in="00:15:22.017" out="00:15:27.917"/>
    <entry producer="producer282" in="00:15:28.417" out="00:15:30.867"/>
    <entry producer="producer283" in="00:15:31.850" out="00:15:35.233"/>
    <entry producer="producer284" in="00:15:35.450" out="00:15:36.933"/>
    <entry producer="producer285" in="00:15:37.817" out="00:15:41.050"/>
    <entry producer="producer286" in="00:15:41.367" out="00:15:42.333"/>
    <entry producer="producer287" in="00:15:42.717" out="00:15:44.500"/>
    <entry producer="producer288" in="00:15:45.567" out="00:15:47.917"/>
    <entry producer="producer289" in="00:15:50.983" out="00:15:52.150"/>
    <entry producer="producer290" in="00:15:52.867" out="00:15:56.283"/>
    <entry producer="producer291" in="00:15:56.583" out="00:15:59.233"/>
    <entry producer="producer292" in="00:16:00.100" out="00:16:00.933"/>
    <entry producer="producer293" in="00:16:01.200" out="00:16:04.567"/>
    <entry producer="producer294" in="00:16:08.567" out="00:16:10.033"/>
    <entry producer="producer295" in="00:16:10.600" out="00:16:12.083"/>
    <entry producer="producer296" in="00:16:12.700" out="00:16:15.133"/>
    <entry producer="producer297" in="00:16:15.467" out="00:16:17.550"/>
    <entry producer="producer298" in="00:16:18.283" out="00:16:22.483"/>
    <entry producer="producer299" in="00:16:22.950" out="00:16:24.850"/>
    <entry producer="producer300" in="00:16:25.350" out="00:16:26.983"/>
    <entry producer="producer301" in="00:16:27.367" out="00:16:30.350"/>
    <entry producer="producer302" in="00:16:31.467" out="00:16:35.767"/>
    <entry producer="producer303" in="00:16:39.167" out="00:16:43.217"/>
    <entry producer="producer304" in="00:16:46.133" out="00:16:47.467"/>
    <entry producer="producer305" in="00:16:47.800" out="00:16:48.700"/>
    <entry producer="producer306" in="00:16:59.000" out="00:17:02.650"/>
    <entry producer="producer307" in="00:17:02.767" out="00:17:03.250"/>
    <entry producer="producer308" in="00:17:04.167" out="00:17:05.733"/>
    <entry producer="producer309" in="00:17:06.983" out="00:17:11.400"/>
    <entry producer="producer310" in="00:17:12.417" out="00:17:15.883"/>
    <entry producer="producer311" in="00:17:19.083" out="00:17:20.500"/>
    <entry producer="producer312" in="00:17:20.817" out="00:17:23.717"/>
    <entry producer="producer313" in="00:17:24.217" out="00:17:27.183"/>
    <entry producer="producer314" in="00:17:27.817" out="00:17:30.300"/>
    <entry producer="producer315" in="00:17:30.583" out="00:17:33.050"/>
    <entry producer="producer316" in="00:17:33.667" out="00:17:37.667"/>
    <entry producer="producer317" in="00:17:39.133" out="00:17:42.233"/>
    <entry producer="producer318" in="00:17:44.533" out="00:17:45.850"/>
    <entry producer="producer319" in="00:17:52.817" out="00:17:55.033"/>
    <entry producer="producer320" in="00:18:13.450" out="00:18:14.517"/>
    <entry producer="producer321" in="00:18:14.817" out="00:18:15.683"/>
    <entry producer="producer322" in="00:18:15.833" out="00:18:16.867"/>
    <entry producer="producer323" in="00:18:17.583" out="00:18:19.533"/>
    <entry producer="producer324" in="00:18:20.067" out="00:18:26.150"/>
    <entry producer="producer325" in="00:18:27.150" out="00:18:29.417"/>
    <entry producer="producer326" in="00:18:29.917" out="00:18:32.917"/>
    <entry producer="producer327" in="00:18:34.500" out="00:18:35.617"/>
    <entry producer="producer328" in="00:18:36.117" out="00:18:39.233"/>
    <entry producer="producer329" in="00:19:07.583" out="00:19:08.250"/>
    <entry producer="producer330" in="00:19:09.933" out="00:19:11.150"/>
    <entry producer="producer331" in="00:19:12.250" out="00:19:15.667"/>
    <entry producer="producer332" in="00:19:16.317" out="00:19:17.717"/>
    <entry producer="producer333" in="00:19:18.183" out="00:19:18.817"/>
    <entry producer="producer334" in="00:19:20.183" out="00:19:24.050"/>
    <entry producer="producer335" in="00:19:26.433" out="00:19:27.517"/>
    <entry producer="producer336" in="00:19:28.700" out="00:19:30.500"/>
    <entry producer="producer337" in="00:19:30.917" out="00:19:31.433"/>
    <entry producer="producer338" in="00:19:32.750" out="00:19:35.133"/>
    <entry producer="producer339" in="00:19:51.100" out="00:19:51.450"/>
    <entry producer="producer340" in="00:19:51.867" out="00:19:56.383"/>
    <entry producer="producer341" in="00:19:57.900" out="00:19:59.500"/>
    <entry producer="producer342" in="00:19:59.800" out="00:20:00.133"/>
    <entry producer="producer343" in="00:20:00.317" out="00:20:01.117"/>
    <entry producer="producer344" in="00:20:01.300" out="00:20:02.267"/>
    <entry producer="producer345" in="00:20:03.683" out="00:20:06.050"/>
    <entry producer="producer346" in="00:20:07.033" out="00:20:08.150"/>
    <entry producer="producer347" in="00:20:09.183" out="00:20:14.083"/>
    <entry producer="producer348" in="00:20:15.983" out="00:20:17.533"/>
    <entry producer="producer349" in="00:20:17.750" out="00:20:18.817"/>
    <entry producer="producer350" in="00:20:23.083" out="00:20:25.450"/>
    <entry producer="producer351" in="00:20:25.883" out="00:20:30.900"/>
    <entry producer="producer352" in="00:20:35.900" out="00:20:37.533"/>
    <entry producer="producer353" in="00:20:42.183" out="00:20:43.400"/>
    <entry producer="producer354" in="00:20:50.517" out="00:20:52.100"/>
    <entry producer="producer355" in="00:20:52.650" out="00:20:58.467"/>
    <entry producer="producer356" in="00:21:01.967" out="00:21:04.617"/>
    <entry producer="producer357" in="00:21:05.367" out="00:21:09.733"/>
    <entry producer="producer358" in="00:21:11.850" out="00:21:13.133"/>
    <entry producer="producer359" in="00:21:16.967" out="00:21:19.650"/>
    <entry producer="producer360" in="00:21:21.033" out="00:21:22.000"/>
    <entry producer="producer361" in="00:21:23.867" out="00:21:24.900"/>
    <entry producer="producer362" in="00:21:43.683" out="00:21:46.433"/>
    <entry producer="producer363" in="00:21:55.167" out="00:21:58.833"/>
    <entry producer="producer364" in="00:21:59.200" out="00:22:01.683"/>
    <entry producer="producer365" in="00:22:02.667" out="00:22:04.550"/>
    <entry producer="producer366" in="00:22:05.067" out="00:22:07.367"/>
    <entry producer="producer367" in="00:22:30.933" out="00:22:32.467"/>
    <entry producer="producer368" in="00:22:32.683" out="00:22:33.400"/>
    <entry producer="producer369" in="00:22:34.683" out="00:22:37.467"/>
    <entry producer="producer370" in="00:22:44.000" out="00:22:46.250"/>
    <entry producer="producer371" in="00:22:49.117" out="00:22:50.533"/>
    <entry producer="producer372" in="00:22:53.950" out="00:22:57.867"/>
    <entry producer="producer373" in="00:22:58.833" out="00:23:03.000"/>
    <entry producer="producer374" in="00:23:09.783" out="00:23:12.033"/>
    <entry producer="producer375" in="00:23:12.233" out="00:23:14.617"/>
    <entry producer="producer376" in="00:23:15.767" out="00:23:18.750"/>
    <entry producer="producer377" in="00:23:18.767" out="00:23:22.217"/>
    <entry producer="producer378" in="00:23:37.150" out="00:23:41.017"/>
    <entry producer="producer379" in="00:23:41.033" out="00:23:41.650"/>
    <entry producer="producer380" in="00:23:43.717" out="00:23:45.767"/>
    <entry producer="producer381" in="00:23:46.750" out="00:23:48.417"/>
    <entry producer="producer382" in="00:23:50.333" out="00:23:54.333"/>
    <entry producer="producer383" in="00:23:55.050" out="00:23:56.783"/>
    <entry producer="producer384" in="00:23:57.767" out="00:23:59.667"/>
    <entry producer="producer385" in="00:24:03.367" out="00:24:08.150"/>
    <entry producer="producer386" in="00:24:09.050" out="00:24:10.150"/>
    <entry producer="producer387" in="00:24:11.400" out="00:24:12.167"/>
    <entry producer="producer388" in="00:24:12.183" out="00:24:17.217"/>
    <entry producer="producer389" in="00:24:17.783" out="00:24:18.450"/>
    <entry producer="producer390" in="00:24:18.867" out="00:24:20.833"/>
    <entry producer="producer391" in="00:24:54.083" out="00:24:56.267"/>
    <entry producer="producer392" in="00:24:56.283" out="00:24:57.667"/>
    <entry producer="producer393" in="00:24:57.683" out="00:25:01.183"/>
    <entry producer="producer394" in="00:25:03.667" out="00:25:10.683"/>
    <entry producer="producer395" in="00:25:12.067" out="00:25:15.050"/>
    <entry producer="producer396" in="00:25:26.550" out="00:25:29.200"/>
    <entry producer="producer397" in="00:25:29.217" out="00:25:33.017"/>
    <entry producer="producer398" in="00:25:33.233" out="00:25:33.967"/>
    <entry producer="producer399" in="00:25:33.983" out="00:25:37.083"/>
    <entry producer="producer400" in="00:25:37.100" out="00:25:37.567"/>
    <entry producer="producer402" in="00:26:29.450" out="00:26:32.283"/>
    <entry producer="producer403" in="00:27:45.083" out="00:27:46.933"/>
    <entry producer="producer404" in="00:27:48.283" out="00:27:51.017"/>
    <entry producer="producer405" in="00:27:51.733" out="00:27:53.183"/>
    <entry producer="producer406" in="00:28:00.867" out="00:28:03.633"/>
    <entry producer="producer407" in="00:28:03.650" out="00:28:06.450"/>
    <entry producer="producer408" in="00:28:38.517" out="00:28:41.000"/>
    <entry producer="producer409" in="00:28:45.100" out="00:28:47.583"/>
    <entry producer="producer410" in="00:28:48.900" out="00:28:50.050"/>
    <entry producer="producer411" in="00:28:52.567" out="00:28:53.300"/>
    <entry producer="producer412" in="00:28:53.417" out="00:28:54.133"/>
    <entry producer="producer413" in="00:28:59.383" out="00:29:03.050"/>
    <entry producer="producer414" in="00:29:05.817" out="00:29:07.983"/>
    <entry producer="producer415" in="00:29:12.333" out="00:29:16.250"/>
    <entry producer="producer416" in="00:29:16.833" out="00:29:18.633"/>
    <entry producer="producer417" in="00:29:24.517" out="00:29:30.517"/>
    <entry producer="producer418" in="00:29:31.350" out="00:29:34.933"/>
    <entry producer="producer419" in="00:29:53.250" out="00:30:08.450"/>
    <entry producer="producer420" in="00:30:09.117" out="00:30:12.733"/>
    <entry producer="producer421" in="00:30:13.233" out="00:30:15.583"/>
    <entry producer="producer422" in="00:30:15.983" out="00:30:16.967"/>
    <entry producer="producer423" in="00:30:18.783" out="00:30:19.733"/>
    <entry producer="producer424" in="00:30:24.683" out="00:30:25.483"/>
    <entry producer="producer425" in="00:30:28.967" out="00:30:29.717"/>
    <entry producer="producer426" in="00:30:31.250" out="00:30:33.767"/>
    <entry producer="producer427" in="00:30:51.250" out="00:30:54.017"/>
    <entry producer="producer428" in="00:30:55.333" out="00:30:58.683"/>
    <entry producer="producer429" in="00:30:59.283" out="00:31:05.300"/>
    <entry producer="producer430" in="00:31:06.483" out="00:31:13.767"/>
    <entry producer="producer431" in="00:31:18.883" out="00:31:20.783"/>
    <entry producer="producer432" in="00:31:25.583" out="00:31:29.117"/>
    <entry producer="producer433" in="00:31:29.667" out="00:31:34.033"/>
    <entry producer="producer434" in="00:31:37.717" out="00:31:41.250"/>
    <entry producer="producer435" in="00:31:42.567" out="00:31:46.567"/>
    <entry producer="producer436" in="00:31:47.317" out="00:31:51.233"/>
    <entry producer="producer437" in="00:31:54.317" out="00:31:56.533"/>
    <entry producer="producer438" in="00:31:57.317" out="00:32:03.700"/>
    <entry producer="producer439" in="00:32:24.317" out="00:32:29.633"/>
    <entry producer="producer440" in="00:32:43.967" out="00:32:48.683"/>
    <entry producer="producer441" in="00:32:50.783" out="00:32:55.767"/>
    <entry producer="producer442" in="00:32:57.117" out="00:33:00.833"/>
    <entry producer="producer443" in="00:33:01.017" out="00:33:01.483"/>
    <entry producer="producer444" in="00:33:01.900" out="00:33:06.533"/>
    <entry producer="producer445" in="00:33:09.967" out="00:33:16.250"/>
    <entry producer="producer446" in="00:33:17.433" out="00:33:18.867"/>
    <entry producer="producer447" in="00:33:19.550" out="00:33:20.767"/>
    <entry producer="producer448" in="00:33:21.233" out="00:33:25.350"/>
    <entry producer="producer449" in="00:33:25.800" out="00:33:29.983"/>
    <entry producer="producer450" in="00:33:32.683" out="00:33:37.717"/>
    <entry producer="producer451" in="00:33:38.867" out="00:33:40.483"/>
    <entry producer="producer452" in="00:33:41.050" out="00:33:45.500"/>
    <entry producer="producer453" in="00:33:46.033" out="00:33:47.250"/>
    <entry producer="producer454" in="00:33:48.183" out="00:33:52.583"/>
    <entry producer="producer455" in="00:33:53.233" out="00:33:56.017"/>
    <entry producer="producer456" in="00:33:56.583" out="00:33:59.867"/>
    <entry producer="producer457" in="00:34:00.550" out="00:34:04.850"/>
    <entry producer="producer458" in="00:34:09.150" out="00:34:12.267"/>
    <entry producer="producer459" in="00:34:30.717" out="00:34:33.617"/>
    <entry producer="producer460" in="00:34:34.133" out="00:34:39.050"/>
    <entry producer="producer461" in="00:34:39.800" out="00:34:41.467"/>
    <entry producer="producer462" in="00:34:42.233" out="00:34:49.800"/>
    <entry producer="producer463" in="00:34:51.250" out="00:34:55.733"/>
    <entry producer="producer464" in="00:34:56.917" out="00:34:59.100"/>
    <entry producer="producer465" in="00:34:59.867" out="00:35:00.633"/>
    <entry producer="producer466" in="00:35:02.433" out="00:35:06.583"/>
    <entry producer="producer467" in="00:35:06.600" out="00:35:08.083"/>
    <entry producer="producer468" in="00:35:09.817" out="00:35:11.883"/>
    <entry producer="producer469" in="00:35:12.233" out="00:35:13.117"/>
    <entry producer="producer470" in="00:35:21.000" out="00:35:26.600"/>
    <entry producer="producer471" in="00:35:27.233" out="00:35:28.817"/>
    <entry producer="producer472" in="00:35:29.917" out="00:35:34.683"/>
    <entry producer="producer473" in="00:35:36.500" out="00:35:42.833"/>
    <entry producer="producer474" in="00:35:43.233" out="00:35:47.033"/>
    <entry producer="producer475" in="00:35:47.817" out="00:35:51.000"/>
    <entry producer="producer476" in="00:35:53.050" out="00:35:54.067"/>
    <entry producer="producer478" in="00:36:18.600" out="00:36:19.733"/>
    <entry producer="producer479" in="00:36:21.967" out="00:36:27.617"/>
    <entry producer="producer480" in="00:36:29.783" out="00:36:30.683"/>
    <entry producer="producer481" in="00:36:30.700" out="00:36:31.933"/>
    <entry producer="producer482" in="00:36:35.400" out="00:36:43.633"/>
    <entry producer="producer483" in="00:36:57.850" out="00:37:00.583"/>
    <entry producer="producer484" in="00:37:02.050" out="00:37:05.300"/>
    <entry producer="producer485" in="00:37:05.983" out="00:37:08.833"/>
    <entry producer="producer486" in="00:37:10.400" out="00:37:12.583"/>
    <entry producer="producer487" in="00:37:15.100" out="00:37:17.233"/>
    <entry producer="producer488" in="00:37:17.250" out="00:37:21.483"/>
    <entry producer="producer489" in="00:37:23.800" out="00:37:26.283"/>
    <entry producer="producer490" in="00:37:28.333" out="00:37:29.167"/>
    <entry producer="producer491" in="00:37:30.717" out="00:37:32.383"/>
    <entry producer="producer492" in="00:37:50.283" out="00:37:53.700"/>
    <entry producer="producer493" in="00:37:56.433" out="00:37:59.800"/>
    <entry producer="producer494" in="00:38:02.367" out="00:38:12.817"/>
    <entry producer="producer495" in="00:38:16.317" out="00:38:18.483"/>
    <entry producer="producer496" in="00:38:19.967" out="00:38:26.517"/>
    <entry producer="producer497" in="00:38:27.283" out="00:38:29.383"/>
    <entry producer="producer498" in="00:38:50.067" out="00:38:55.967"/>
    <entry producer="producer499" in="00:39:06.533" out="00:39:12.250"/>
    <entry producer="producer500" in="00:39:15.250" out="00:39:21.067"/>
    <entry producer="producer501" in="00:39:22.167" out="00:39:23.333"/>
    <entry producer="producer502" in="00:39:24.733" out="00:39:27.700"/>
    <entry producer="producer503" in="00:39:43.100" out="00:39:49.100"/>
    <entry producer="producer504" in="00:39:49.117" out="00:39:51.150"/>
    <entry producer="producer505" in="00:39:52.167" out="00:39:58.067"/>
    <entry producer="producer506" in="00:39:59.950" out="00:40:01.050"/>
    <entry producer="producer507" in="00:40:05.917" out="00:40:08.817"/>
    <entry producer="producer508" in="00:40:09.650" out="00:40:12.483"/>
    <entry producer="producer509" in="00:40:13.883" out="00:40:15.683"/>
    <entry producer="producer510" in="00:40:16.850" out="00:40:21.067"/>
    <entry producer="producer511" in="00:40:21.583" out="00:40:24.983"/>
    <entry producer="producer512" in="00:40:29.683" out="00:40:32.717"/>
    <entry producer="producer513" in="00:40:35.717" out="00:40:37.883"/>
    <entry producer="producer514" in="00:40:39.233" out="00:40:41.450"/>
    <entry producer="producer515" in="00:40:45.383" out="00:40:48.533"/>
    <entry producer="producer516" in="00:40:52.650" out="00:40:55.133"/>
    <entry producer="producer517" in="00:40:55.417" out="00:40:56.000"/>
    <entry producer="producer518" in="00:41:15.300" out="00:41:18.683"/>
    <entry producer="producer519" in="00:41:20.433" out="00:41:23.583"/>
    <entry producer="producer520" in="00:41:24.600" out="00:41:27.600"/>
    <entry producer="producer521" in="00:42:25.317" out="00:42:29.450"/>
    <entry producer="producer522" in="00:42:35.567" out="00:42:42.250"/>
    <entry producer="producer523" in="00:42:42.900" out="00:42:44.400"/>
    <entry producer="producer524" in="00:42:45.883" out="00:42:50.967"/>
    <entry producer="producer525" in="00:43:11.483" out="00:43:16.300"/>
    <entry producer="producer526" in="00:43:16.833" out="00:43:33.417"/>
    <entry producer="producer527" in="00:43:33.933" out="00:43:36.133"/>
    <entry producer="producer528" in="00:43:45.167" out="00:43:49.100"/>
    <entry producer="producer529" in="00:43:53.017" out="00:43:57.367"/>
    <entry producer="producer530" in="00:43:58.600" out="00:44:08.400"/>
    <entry producer="producer531" in="00:44:12.750" out="00:44:16.950"/>
    <entry producer="producer532" in="00:44:18.183" out="00:44:20.767"/>
    <entry producer="producer533" in="00:45:01.117" out="00:45:06.067"/>
    <entry producer="producer534" in="00:45:06.867" out="00:45:18.533"/>
    <entry producer="producer535" in="00:45:18.550" out="00:45:20.333"/>
    <entry producer="producer536" in="00:45:24.133" out="00:45:33.633"/>
    <entry producer="producer537" in="00:45:34.283" out="00:45:36.167"/>
    <entry producer="producer538" in="00:45:36.617" out="00:45:38.133"/>
    <entry producer="producer539" in="00:45:38.900" out="00:45:40.800"/>
    <entry producer="producer540" in="00:45:41.450" out="00:45:52.967"/>
    <entry producer="producer541" in="00:45:53.517" out="00:45:55.833"/>
    <entry producer="producer542" in="00:46:00.583" out="00:46:01.900"/>
    <entry producer="producer543" in="00:46:02.650" out="00:46:09.933"/>
    <entry producer="producer544" in="00:46:27.650" out="00:46:31.250"/>
    <entry producer="producer545" in="00:46:34.267" out="00:46:35.983"/>
    <entry producer="producer546" in="00:46:39.433" out="00:46:41.633"/>
    <entry producer="producer547" in="00:46:42.750" out="00:46:49.450"/>
    <entry producer="producer548" in="00:46:50.283" out="00:46:51.517"/>
    <entry producer="producer549" in="00:46:52.300" out="00:46:57.383"/>
    <entry producer="producer550" in="00:46:57.867" out="00:47:00.433"/>
    <entry producer="producer551" in="00:47:01.583" out="00:47:03.083"/>
    <entry producer="producer552" in="00:47:03.750" out="00:47:05.983"/>
    <entry producer="producer553" in="00:47:06.617" out="00:47:11.183"/>
    <entry producer="producer554" in="00:47:12.883" out="00:47:15.200"/>
    <entry producer="producer555" in="00:47:15.467" out="00:47:17.467"/>
    <entry producer="producer556" in="00:47:18.400" out="00:47:24.167"/>
    <entry producer="producer557" in="00:47:24.867" out="00:47:26.100"/>
    <entry producer="producer558" in="00:49:12.550" out="00:49:14.433"/>
    <entry producer="producer559" in="00:49:19.633" out="00:49:21.417"/>
    <entry producer="producer560" in="00:49:29.167" out="00:49:31.133"/>
    <entry producer="producer561" in="00:49:31.633" out="00:49:35.000"/>
    <entry producer="producer562" in="00:49:55.600" out="00:50:01.067"/>
    <entry producer="producer563" in="00:50:01.483" out="00:50:04.000"/>
    <entry producer="producer564" in="00:50:04.483" out="00:50:06.800"/>
    <entry producer="producer565" in="00:50:07.250" out="00:50:09.333"/>
    <entry producer="producer566" in="00:50:09.733" out="00:50:11.667"/>
    <entry producer="producer567" in="00:50:12.583" out="00:50:14.500"/>
    <entry producer="producer568" in="00:50:15.000" out="00:50:16.883"/>
    <entry producer="producer569" in="00:50:17.317" out="00:50:18.550"/>
    <entry producer="producer570" in="00:50:18.567" out="00:50:18.683"/>
    <entry producer="producer571" in="00:50:34.667" out="00:50:37.217"/>
    <entry producer="producer572" in="00:50:37.583" out="00:50:39.217"/>
    <entry producer="producer573" in="00:50:39.483" out="00:50:41.400"/>
    <entry producer="producer574" in="00:50:42.800" out="00:50:46.533"/>
  </playlist>
  <producer id="producer576" in="00:00:00.000" out="00:00:11.700">
    <property name="length">00:00:11.717</property>
    <property name="eof">pause</property>
    <property name="resource">D:/DATA-DATA-SAHID/Video Tutorial/00_VIDEOS/01_EDITING/02_Opening/Opening Delinfoline_V2.mp4</property>
    <property name="audio_index">1</property>
    <property name="video_index">0</property>
    <property name="mute_on_pause">0</property>
    <property name="mlt_service">avformat-novalidate</property>
    <property name="seekable">1</property>
    <property name="aspect_ratio">1</property>
    <property name="creation_time">2021-01-11T09:07:16</property>
    <property name="global_feed">1</property>
    <property name="xml">was here</property>
    <property name="shotcut:hash">22bf72fbd38580da51a4c0bb1d35d3df</property>
    <property name="shotcut:caption">Opening Delinfoline_V2.mp4</property>
    <filter id="filter571" out="00:00:11.700">
      <property name="window">75</property>
      <property name="max_gain">20dB</property>
      <property name="level">-9.6</property>
      <property name="mlt_service">volume</property>
    </filter>
  </producer>
  <producer id="producer577" in="00:00:00.000" out="00:00:11.700">
    <property name="length">00:00:11.717</property>
    <property name="eof">pause</property>
    <property name="resource">D:/DATA-DATA-SAHID/Video Tutorial/00_VIDEOS/01_EDITING/02_Opening/Opening Delinfoline_V2.mp4</property>
    <property name="audio_index">1</property>
    <property name="video_index">0</property>
    <property name="mute_on_pause">0</property>
    <property name="mlt_service">avformat-novalidate</property>
    <property name="seekable">1</property>
    <property name="aspect_ratio">1</property>
    <property name="creation_time">2021-01-11T09:07:16</property>
    <property name="global_feed">1</property>
    <property name="xml">was here</property>
    <property name="shotcut:hash">22bf72fbd38580da51a4c0bb1d35d3df</property>
    <property name="shotcut:caption">Opening Delinfoline_V2.mp4</property>
    <filter id="filter572" in="00:00:06.850" out="00:00:11.700">
      <property name="window">75</property>
      <property name="max_gain">20dB</property>
      <property name="level">-70</property>
      <property name="mlt_service">volume</property>
    </filter>
  </producer>
  <playlist id="playlist2">
    <property name="shotcut:video">1</property>
    <property name="shotcut:name">V2</property>
    <entry producer="producer576" in="00:00:00.000" out="00:00:11.700"/>
    <blank length="00:28:20.500"/>
    <entry producer="producer577" in="00:00:06.850" out="00:00:11.700"/>
  </playlist>
  <producer id="producer578" in="00:00:00.000" out="00:02:55.683">
    <property name="length">00:02:55.700</property>
    <property name="eof">pause</property>
    <property name="resource">d:/DATA-DATA-SAHID/Video Tutorial/00_VIDEOS/02_MUSIC/1_Club Thump - Gunnar Olsen Royalty Free Music - No Copyright Music YouTube Music.mp3</property>
    <property name="audio_index">0</property>
    <property name="video_index">-1</property>
    <property name="mute_on_pause">0</property>
    <property name="mlt_service">avformat-novalidate</property>
    <property name="seekable">1</property>
    <property name="creation_time">2021-01-08T08:09:41</property>
    <property name="shotcut:hash">f8504a4cc9d1353b63153f2c2190595d</property>
    <property name="global_feed">1</property>
    <property name="shotcut:caption">1_Club Thump - Gunnar Olsen Royalty Free Music - No Copyright Music YouTube Music.mp3</property>
    <property name="xml">was here</property>
    <filter id="filter573" out="00:00:31.567">
      <property name="window">75</property>
      <property name="max_gain">20dB</property>
      <property name="level">-14.4</property>
      <property name="mlt_service">volume</property>
    </filter>
  </producer>
  <producer id="producer579" in="00:00:00.000" out="00:02:55.683">
    <property name="length">00:02:55.700</property>
    <property name="eof">pause</property>
    <property name="resource">d:/DATA-DATA-SAHID/Video Tutorial/00_VIDEOS/02_MUSIC/1_Club Thump - Gunnar Olsen Royalty Free Music - No Copyright Music YouTube Music.mp3</property>
    <property name="audio_index">0</property>
    <property name="video_index">-1</property>
    <property name="mute_on_pause">0</property>
    <property name="mlt_service">avformat-novalidate</property>
    <property name="seekable">1</property>
    <property name="creation_time">2021-01-08T08:09:41</property>
    <property name="shotcut:hash">f8504a4cc9d1353b63153f2c2190595d</property>
    <property name="global_feed">1</property>
    <property name="shotcut:caption">1_Club Thump - Gunnar Olsen Royalty Free Music - No Copyright Music YouTube Music.mp3</property>
    <property name="xml">was here</property>
    <filter id="filter574" in="00:02:51.117" out="00:02:53.850">
      <property name="window">75</property>
      <property name="max_gain">20dB</property>
      <property name="level">-14.4</property>
      <property name="mlt_service">volume</property>
    </filter>
  </producer>
  <playlist id="playlist3">
    <property name="shotcut:audio">1</property>
    <property name="shotcut:name">A1</property>
    <blank length="00:28:02.717"/>
    <entry producer="producer578" in="00:00:00.000" out="00:00:31.567"/>
    <entry producer="producer579" in="00:02:51.117" out="00:02:53.850"/>
  </playlist>
  <playlist id="playlist4">
    <property name="shotcut:audio">1</property>
    <property name="shotcut:name">A2</property>
    <blank length="00:00:00.017"/>
  </playlist>
  <producer id="producer580" in="00:00:00.000" out="03:59:59.983">
    <property name="length">04:00:00.000</property>
    <property name="eof">pause</property>
    <property name="resource">D:/DATA-DATA-SAHID/Video Tutorial/Material/Delinfoline Logo2.png</property>
    <property name="ttl">1</property>
    <property name="aspect_ratio">1</property>
    <property name="progressive">1</property>
    <property name="seekable">1</property>
    <property name="mlt_service">qimage</property>
    <property name="creation_time">2021-01-08T07:50:34</property>
    <property name="global_feed">1</property>
    <property name="xml">was here</property>
    <property name="shotcut:hash">d8e95ee4077116ecd9c0f3d488d7a8f7</property>
    <property name="shotcut:caption">Delinfoline Logo2.png</property>
    <filter id="filter575" out="00:01:37.100">
      <property name="background">color:#00000000</property>
      <property name="mlt_service">affine</property>
      <property name="shotcut:filter">affineSizePosition</property>
      <property name="transition.fill">1</property>
      <property name="transition.distort">0</property>
      <property name="transition.rect">259 24 192 91 1</property>
      <property name="transition.valign">middle</property>
      <property name="transition.halign">center</property>
      <property name="shotcut:animIn">00:00:00.000</property>
      <property name="shotcut:animOut">00:00:00.000</property>
      <property name="transition.threads">0</property>
      <property name="transition.fix_rotate_x">0</property>
    </filter>
  </producer>
  <producer id="producer581" in="00:00:00.000" out="03:59:59.983">
    <property name="length">04:00:00.000</property>
    <property name="eof">pause</property>
    <property name="resource">D:/DATA-DATA-SAHID/Video Tutorial/Material/Delinfoline Logo2.png</property>
    <property name="ttl">1</property>
    <property name="aspect_ratio">1</property>
    <property name="progressive">1</property>
    <property name="seekable">1</property>
    <property name="mlt_service">qimage</property>
    <property name="creation_time">2021-01-08T07:50:34</property>
    <property name="global_feed">1</property>
    <property name="xml">was here</property>
    <property name="shotcut:hash">d8e95ee4077116ecd9c0f3d488d7a8f7</property>
    <property name="shotcut:caption">Delinfoline Logo2.png</property>
    <filter id="filter576" out="00:03:35.117">
      <property name="background">color:#00000000</property>
      <property name="mlt_service">affine</property>
      <property name="shotcut:filter">affineSizePosition</property>
      <property name="transition.fill">1</property>
      <property name="transition.distort">0</property>
      <property name="transition.rect">33 937 192 91 1</property>
      <property name="transition.valign">middle</property>
      <property name="transition.halign">center</property>
      <property name="shotcut:animIn">00:00:00.000</property>
      <property name="shotcut:animOut">00:00:00.000</property>
      <property name="transition.threads">0</property>
      <property name="transition.fix_rotate_x">0</property>
    </filter>
    <filter id="filter577" out="00:03:35.117">
      <property name="start">1</property>
      <property name="level">1</property>
      <property name="mlt_service">brightness</property>
      <property name="shotcut:filter">brightnessOpacity</property>
      <property name="alpha">0.85</property>
      <property name="opacity">0.85</property>
    </filter>
  </producer>
  <producer id="producer582" in="00:00:00.000" out="03:59:59.983">
    <property name="length">04:00:00.000</property>
    <property name="eof">pause</property>
    <property name="resource">D:/DATA-DATA-SAHID/Video Tutorial/Material/Delinfoline Logo2.png</property>
    <property name="ttl">1</property>
    <property name="aspect_ratio">1</property>
    <property name="progressive">1</property>
    <property name="seekable">1</property>
    <property name="mlt_service">qimage</property>
    <property name="creation_time">2021-01-08T07:50:34</property>
    <property name="global_feed">1</property>
    <property name="xml">was here</property>
    <property name="shotcut:hash">d8e95ee4077116ecd9c0f3d488d7a8f7</property>
    <property name="shotcut:caption">Delinfoline Logo2.png</property>
    <filter id="filter578" out="00:22:38.717">
      <property name="background">color:#00000000</property>
      <property name="mlt_service">affine</property>
      <property name="shotcut:filter">affineSizePosition</property>
      <property name="transition.fill">1</property>
      <property name="transition.distort">0</property>
      <property name="transition.rect">33 937 192 91 1</property>
      <property name="transition.valign">middle</property>
      <property name="transition.halign">center</property>
      <property name="shotcut:animIn">00:00:00.000</property>
      <property name="shotcut:animOut">00:00:00.000</property>
      <property name="transition.threads">0</property>
      <property name="transition.fix_rotate_x">0</property>
    </filter>
    <filter id="filter579" out="00:22:38.717">
      <property name="start">1</property>
      <property name="level">1</property>
      <property name="mlt_service">brightness</property>
      <property name="shotcut:filter">brightnessOpacity</property>
      <property name="alpha">0.85</property>
      <property name="opacity">0.85</property>
    </filter>
  </producer>
  <producer id="producer401" in="00:00:00.000" out="03:59:59.983">
    <property name="length">04:00:00.000</property>
    <property name="eof">pause</property>
    <property name="resource">D:/DATA-DATA-SAHID/Video Tutorial/Material/Delinfoline Logo2.png</property>
    <property name="ttl">1</property>
    <property name="aspect_ratio">1</property>
    <property name="progressive">1</property>
    <property name="seekable">1</property>
    <property name="mlt_service">qimage</property>
    <property name="creation_time">2021-01-08T07:50:34</property>
    <property name="global_feed">1</property>
    <property name="xml">was here</property>
    <property name="shotcut:hash">d8e95ee4077116ecd9c0f3d488d7a8f7</property>
    <property name="shotcut:caption">Delinfoline Logo2.png</property>
    <filter id="filter396" out="00:00:29.467">
      <property name="background">color:#00000000</property>
      <property name="mlt_service">affine</property>
      <property name="shotcut:filter">affineSizePosition</property>
      <property name="transition.fill">1</property>
      <property name="transition.distort">0</property>
      <property name="transition.rect">259 24 192 91 1</property>
      <property name="transition.valign">middle</property>
      <property name="transition.halign">center</property>
      <property name="shotcut:animIn">00:00:00.000</property>
      <property name="shotcut:animOut">00:00:00.000</property>
      <property name="transition.threads">0</property>
      <property name="transition.fix_rotate_x">0</property>
    </filter>
  </producer>
  <playlist id="playlist1">
    <property name="shotcut:video">1</property>
    <property name="shotcut:name">V3</property>
    <blank length="00:00:11.717"/>
    <entry producer="producer580" in="00:00:00.000" out="00:01:37.100"/>
    <entry producer="producer581" in="00:00:00.000" out="00:03:35.117"/>
    <entry producer="producer582" in="00:00:00.000" out="00:22:38.717"/>
    <blank length="00:00:00.017"/>
    <entry producer="producer401" in="00:00:00.000" out="00:00:29.467"/>
  </playlist>
  <tractor id="tractor1" title="Shotcut version 20.11.28" global_feed="1" in="00:00:00.000" out="00:28:37.067">
    <property name="shotcut">1</property>
    <property name="shotcut:projectAudioChannels">2</property>
    <property name="shotcut:projectFolder">1</property>
    <property name="shotcut:scaleFactor">0.984791</property>
    <track producer="background"/>
    <track producer="playlist0"/>
    <track producer="playlist2"/>
    <track producer="playlist3" hide="video"/>
    <track producer="playlist4" hide="video"/>
    <track producer="playlist1"/>
    <transition id="transition2">
      <property name="a_track">0</property>
      <property name="b_track">1</property>
      <property name="mlt_service">mix</property>
      <property name="always_active">1</property>
      <property name="sum">1</property>
    </transition>
    <transition id="transition3">
      <property name="a_track">0</property>
      <property name="b_track">1</property>
      <property name="version">0.9</property>
      <property name="mlt_service">frei0r.cairoblend</property>
      <property name="disable">1</property>
    </transition>
    <transition id="transition6">
      <property name="a_track">0</property>
      <property name="b_track">2</property>
      <property name="mlt_service">mix</property>
      <property name="always_active">1</property>
      <property name="sum">1</property>
    </transition>
    <transition id="transition7">
      <property name="a_track">1</property>
      <property name="b_track">2</property>
      <property name="version">0.9</property>
      <property name="mlt_service">frei0r.cairoblend</property>
      <property name="disable">0</property>
    </transition>
    <transition id="transition8">
      <property name="a_track">0</property>
      <property name="b_track">3</property>
      <property name="mlt_service">mix</property>
      <property name="always_active">1</property>
      <property name="sum">1</property>
    </transition>
    <transition id="transition9">
      <property name="a_track">0</property>
      <property name="b_track">4</property>
      <property name="mlt_service">mix</property>
      <property name="always_active">1</property>
      <property name="sum">1</property>
    </transition>
    <transition id="transition0">
      <property name="a_track">0</property>
      <property name="b_track">5</property>
      <property name="mlt_service">mix</property>
      <property name="always_active">1</property>
      <property name="sum">1</property>
    </transition>
    <transition id="transition1">
      <property name="a_track">1</property>
      <property name="b_track">5</property>
      <property name="version">0.9</property>
      <property name="mlt_service">frei0r.cairoblend</property>
      <property name="disable">0</property>
    </transition>
  </tractor>
</mlt>
